G04 (created by PCBNEW (2013-09-28 BZR 4356)-product) date Sun 29 Sep 2013 01:13:11 PM CEST*
%MOIN*%
G04 Gerber Fmt 3.4, Leading zero omitted, Abs format*
%FSLAX34Y34*%
G01*
G70*
G90*
G04 APERTURE LIST*
%ADD10C,0.005906*%
%ADD11C,0.007874*%
%ADD12C,0.008000*%
%ADD13C,0.003937*%
%ADD14R,0.025591X0.049213*%
%ADD15R,0.086614X0.027559*%
%ADD16R,0.059055X0.047244*%
%ADD17R,0.043300X0.039300*%
%ADD18R,0.070866X0.070866*%
%ADD19R,0.098425X0.059055*%
%ADD20R,0.275591X0.275591*%
%ADD21R,0.059055X0.041339*%
%ADD22O,0.059055X0.041339*%
%ADD23R,0.064961X0.064961*%
%ADD24C,0.064961*%
%ADD25R,0.098425X0.078740*%
%ADD26O,0.098425X0.078740*%
%ADD27R,0.059000X0.051100*%
%ADD28R,0.051100X0.059000*%
%ADD29R,0.078740X0.025591*%
G04 APERTURE END LIST*
G54D10*
G54D11*
X30314Y-22834D02*
X42125Y-22834D01*
X29921Y-16929D02*
X29921Y-22440D01*
X42125Y-16535D02*
X30314Y-16535D01*
X42519Y-22440D02*
X42519Y-16929D01*
X42519Y-16929D02*
G75*
G03X42125Y-16535I-393J0D01*
G74*
G01*
X42125Y-22834D02*
G75*
G03X42519Y-22440I0J393D01*
G74*
G01*
X29921Y-22440D02*
G75*
G03X30314Y-22834I393J0D01*
G74*
G01*
X30314Y-16535D02*
G75*
G03X29921Y-16929I0J-393D01*
G74*
G01*
X41488Y-22658D02*
X41263Y-22658D01*
X41376Y-22658D02*
X41376Y-22264D01*
X41338Y-22320D01*
X41301Y-22358D01*
X41263Y-22377D01*
X41638Y-22302D02*
X41657Y-22283D01*
X41694Y-22264D01*
X41788Y-22264D01*
X41826Y-22283D01*
X41844Y-22302D01*
X41863Y-22339D01*
X41863Y-22377D01*
X41844Y-22433D01*
X41619Y-22658D01*
X41863Y-22658D01*
X41976Y-22264D02*
X42107Y-22658D01*
X42238Y-22264D01*
G54D12*
X30416Y-19717D02*
X30111Y-19831D01*
X30416Y-19946D01*
X30607Y-19831D02*
X30911Y-19831D01*
X40574Y-20622D02*
X40269Y-20737D01*
X40574Y-20851D01*
X40764Y-20737D02*
X41069Y-20737D01*
X30455Y-22237D02*
X30151Y-22351D01*
X30455Y-22465D01*
X30646Y-22351D02*
X30951Y-22351D01*
X30798Y-22503D02*
X30798Y-22199D01*
X40574Y-21607D02*
X40269Y-21721D01*
X40574Y-21835D01*
X40764Y-21721D02*
X41069Y-21721D01*
X40916Y-21873D02*
X40916Y-21569D01*
G54D11*
X38838Y-19645D02*
G75*
G03X38838Y-19645I-39J0D01*
G74*
G01*
X38614Y-19170D02*
X39732Y-19170D01*
X38614Y-19806D02*
X39732Y-19806D01*
G54D13*
X38701Y-20078D02*
X38898Y-20078D01*
X38898Y-20078D02*
X38898Y-19822D01*
X38701Y-20078D02*
X38701Y-19822D01*
X39075Y-20078D02*
X39271Y-20078D01*
X39271Y-20078D02*
X39271Y-19822D01*
X39075Y-20078D02*
X39075Y-19822D01*
X39448Y-20078D02*
X39645Y-20078D01*
X39645Y-20078D02*
X39645Y-19822D01*
X39448Y-20078D02*
X39448Y-19822D01*
X39645Y-19154D02*
X39645Y-18898D01*
X39448Y-18898D02*
X39645Y-18898D01*
X39448Y-19154D02*
X39448Y-18898D01*
X38898Y-19154D02*
X38898Y-18898D01*
X38701Y-18898D02*
X38898Y-18898D01*
X38701Y-19154D02*
X38701Y-18898D01*
G54D11*
X39732Y-19170D02*
X39732Y-19806D01*
X38614Y-19806D02*
X38614Y-19170D01*
X34439Y-17281D02*
G75*
G03X34439Y-17281I-137J0D01*
G74*
G01*
X37175Y-16788D02*
X37175Y-19151D01*
X37175Y-19151D02*
X32844Y-19151D01*
X32844Y-19151D02*
X32844Y-16788D01*
X32844Y-16788D02*
X37175Y-16788D01*
G54D13*
X33960Y-17295D02*
X33410Y-17295D01*
X33410Y-17295D02*
X33410Y-17145D01*
X33410Y-17145D02*
X33960Y-17145D01*
X33960Y-17795D02*
X33410Y-17795D01*
X33410Y-17795D02*
X33410Y-17645D01*
X33410Y-17645D02*
X33960Y-17645D01*
X33960Y-18295D02*
X33410Y-18295D01*
X33410Y-18295D02*
X33410Y-18145D01*
X33410Y-18145D02*
X33960Y-18145D01*
X33960Y-18795D02*
X33410Y-18795D01*
X33410Y-18795D02*
X33410Y-18645D01*
X33410Y-18645D02*
X33960Y-18645D01*
X36060Y-17145D02*
X36610Y-17145D01*
X36610Y-17145D02*
X36610Y-17295D01*
X36610Y-17295D02*
X36060Y-17295D01*
X36060Y-17645D02*
X36610Y-17645D01*
X36610Y-17645D02*
X36610Y-17795D01*
X36610Y-17795D02*
X36060Y-17795D01*
X36060Y-18145D02*
X36610Y-18145D01*
X36610Y-18145D02*
X36610Y-18295D01*
X36610Y-18295D02*
X36060Y-18295D01*
X36610Y-18645D02*
X36610Y-18795D01*
X36060Y-18645D02*
X36610Y-18645D01*
X36610Y-18795D02*
X36060Y-18795D01*
G54D11*
X36053Y-18993D02*
X33966Y-18993D01*
X33966Y-18993D02*
X33966Y-16946D01*
X33966Y-16946D02*
X36053Y-16946D01*
X36053Y-16946D02*
X36053Y-18993D01*
G54D13*
X30836Y-17716D02*
X30836Y-17322D01*
X30344Y-17716D02*
X30344Y-17322D01*
X30344Y-17322D02*
X30344Y-17125D01*
X30836Y-17125D02*
X30836Y-17322D01*
X30344Y-17913D02*
X30344Y-17716D01*
X30836Y-17913D02*
X30836Y-17716D01*
X30344Y-17716D02*
X30836Y-17716D01*
X30836Y-17322D02*
X30344Y-17322D01*
X30344Y-17125D02*
X30452Y-17125D01*
X30728Y-17125D02*
X30836Y-17125D01*
X30836Y-17913D02*
X30728Y-17913D01*
X30344Y-17913D02*
X30452Y-17913D01*
X30551Y-17480D02*
X30629Y-17480D01*
X30629Y-17480D02*
X30629Y-17402D01*
X30551Y-17402D02*
X30629Y-17402D01*
X30551Y-17480D02*
X30551Y-17402D01*
X30453Y-17126D02*
G75*
G03X30727Y-17126I137J0D01*
G74*
G01*
X30727Y-17912D02*
G75*
G03X30453Y-17912I-137J0D01*
G74*
G01*
G54D11*
X30944Y-18267D02*
X30944Y-19606D01*
X30944Y-19606D02*
X30236Y-19606D01*
X30236Y-19606D02*
X30236Y-18267D01*
X30236Y-18267D02*
X30944Y-18267D01*
X30420Y-19107D02*
X30420Y-19267D01*
X30420Y-19267D02*
X30760Y-19267D01*
X30760Y-19107D02*
X30760Y-19267D01*
X30420Y-19107D02*
X30760Y-19107D01*
X30420Y-18607D02*
X30420Y-18767D01*
X30420Y-18767D02*
X30760Y-18767D01*
X30760Y-18607D02*
X30760Y-18767D01*
X30420Y-18607D02*
X30760Y-18607D01*
X30450Y-18767D02*
X30450Y-19107D01*
X30730Y-19107D02*
X30730Y-18767D01*
X32322Y-20531D02*
X32322Y-20748D01*
X32322Y-21023D02*
X32322Y-21279D01*
X32322Y-20964D02*
X32539Y-20748D01*
X32539Y-20748D02*
X32106Y-20748D01*
X32106Y-20748D02*
X32322Y-20964D01*
X32539Y-21023D02*
X32106Y-21023D01*
X32559Y-21476D02*
X32559Y-21653D01*
X32559Y-21653D02*
X32086Y-21653D01*
X32086Y-21653D02*
X32086Y-21476D01*
X32559Y-20334D02*
X32559Y-20157D01*
X32559Y-20157D02*
X32086Y-20157D01*
X32086Y-20157D02*
X32086Y-20334D01*
X32696Y-20334D02*
X32696Y-21476D01*
X32696Y-21476D02*
X31948Y-21476D01*
X31948Y-21476D02*
X31948Y-20334D01*
X31948Y-20334D02*
X32696Y-20334D01*
X33228Y-22480D02*
X33228Y-19330D01*
X33228Y-19330D02*
X38228Y-19330D01*
X38228Y-19330D02*
X38228Y-22480D01*
X38228Y-22480D02*
X33228Y-22480D01*
X37817Y-21975D02*
X37817Y-21635D01*
X37817Y-21635D02*
X36677Y-21635D01*
X36677Y-21975D02*
X36677Y-21635D01*
X37817Y-21975D02*
X36677Y-21975D01*
X37817Y-20175D02*
X37817Y-19835D01*
X37817Y-19835D02*
X36677Y-19835D01*
X36677Y-20175D02*
X36677Y-19835D01*
X37817Y-20175D02*
X36677Y-20175D01*
X36977Y-21075D02*
X36977Y-20735D01*
X36977Y-20735D02*
X36677Y-20735D01*
X36677Y-21075D02*
X36677Y-20735D01*
X36977Y-21075D02*
X36677Y-21075D01*
X34277Y-19615D02*
X36637Y-19615D01*
X36637Y-19615D02*
X36637Y-22195D01*
X36637Y-22195D02*
X34277Y-22195D01*
X34278Y-22195D02*
X34278Y-19615D01*
X34237Y-21915D02*
X33957Y-21915D01*
X33957Y-21915D02*
X33777Y-21735D01*
X33777Y-21735D02*
X33777Y-20075D01*
X33777Y-20075D02*
X33957Y-19895D01*
X33957Y-19895D02*
X34237Y-19895D01*
X34237Y-19895D02*
X34237Y-21915D01*
X34237Y-21915D02*
X33957Y-21915D01*
X33957Y-21915D02*
X33777Y-21735D01*
X33777Y-21735D02*
X33777Y-20075D01*
X33777Y-20075D02*
X33957Y-19895D01*
X33957Y-19895D02*
X34237Y-19895D01*
X34237Y-19895D02*
X34237Y-21915D01*
X42244Y-18425D02*
G75*
G03X42362Y-18307I0J118D01*
G74*
G01*
X42362Y-18307D02*
G75*
G03X42244Y-18188I-118J0D01*
G74*
G01*
X42232Y-19807D02*
X41232Y-19807D01*
X41232Y-19807D02*
X41232Y-16807D01*
X41232Y-16807D02*
X42232Y-16807D01*
X42232Y-16807D02*
X42232Y-19807D01*
X41232Y-18807D02*
X42232Y-18807D01*
X42232Y-22062D02*
X41232Y-22062D01*
X41232Y-22062D02*
X41232Y-20062D01*
X41232Y-20062D02*
X42232Y-20062D01*
X42232Y-20062D02*
X42232Y-22062D01*
X31287Y-22062D02*
X30287Y-22062D01*
X30287Y-22062D02*
X30287Y-20062D01*
X30287Y-20062D02*
X31287Y-20062D01*
X31287Y-20062D02*
X31287Y-22062D01*
X38188Y-17556D02*
X38188Y-17301D01*
X38188Y-17301D02*
X37637Y-17301D01*
X37637Y-17556D02*
X37637Y-17301D01*
X38188Y-17556D02*
X37637Y-17556D01*
X38188Y-18136D02*
X38188Y-17880D01*
X38188Y-17880D02*
X37637Y-17880D01*
X37637Y-18136D02*
X37637Y-17880D01*
X38188Y-18136D02*
X37637Y-18136D01*
X38109Y-17794D02*
X38109Y-17638D01*
X38109Y-17638D02*
X37717Y-17638D01*
X37717Y-17794D02*
X37717Y-17638D01*
X38109Y-17794D02*
X37717Y-17794D01*
X37663Y-17877D02*
X37663Y-17555D01*
X38163Y-17877D02*
X38163Y-17555D01*
X37526Y-18492D02*
X37526Y-16940D01*
X37526Y-16940D02*
X38300Y-16940D01*
X38300Y-16940D02*
X38300Y-18492D01*
X38300Y-18492D02*
X37526Y-18492D01*
X40157Y-16732D02*
X38582Y-16732D01*
X40157Y-16732D02*
X40157Y-17598D01*
X40157Y-17598D02*
X38582Y-17598D01*
X38582Y-17598D02*
X38582Y-16732D01*
X40787Y-20314D02*
X40787Y-18740D01*
X40787Y-20314D02*
X39921Y-20314D01*
X39921Y-20314D02*
X39921Y-18740D01*
X39921Y-18740D02*
X40787Y-18740D01*
X40157Y-17716D02*
X38582Y-17716D01*
X40157Y-17716D02*
X40157Y-18582D01*
X40157Y-18582D02*
X38582Y-18582D01*
X38582Y-18582D02*
X38582Y-17716D01*
X40118Y-21259D02*
X40118Y-22598D01*
X40118Y-22598D02*
X39409Y-22598D01*
X39409Y-22598D02*
X39409Y-21259D01*
X39409Y-21259D02*
X40118Y-21259D01*
X39593Y-22099D02*
X39593Y-22259D01*
X39593Y-22259D02*
X39933Y-22259D01*
X39933Y-22099D02*
X39933Y-22259D01*
X39593Y-22099D02*
X39933Y-22099D01*
X39593Y-21599D02*
X39593Y-21759D01*
X39593Y-21759D02*
X39933Y-21759D01*
X39933Y-21599D02*
X39933Y-21759D01*
X39593Y-21599D02*
X39933Y-21599D01*
X39623Y-21759D02*
X39623Y-22099D01*
X39903Y-22099D02*
X39903Y-21759D01*
X39212Y-21259D02*
X39212Y-22598D01*
X39212Y-22598D02*
X38503Y-22598D01*
X38503Y-22598D02*
X38503Y-21259D01*
X38503Y-21259D02*
X39212Y-21259D01*
X38688Y-22099D02*
X38688Y-22259D01*
X38688Y-22259D02*
X39028Y-22259D01*
X39028Y-22099D02*
X39028Y-22259D01*
X38688Y-22099D02*
X39028Y-22099D01*
X38688Y-21599D02*
X38688Y-21759D01*
X38688Y-21759D02*
X39028Y-21759D01*
X39028Y-21599D02*
X39028Y-21759D01*
X38688Y-21599D02*
X39028Y-21599D01*
X38718Y-21759D02*
X38718Y-22099D01*
X38998Y-22099D02*
X38998Y-21759D01*
X31870Y-18582D02*
X31870Y-17322D01*
X32381Y-17322D02*
X32381Y-18582D01*
X32381Y-18582D02*
X31870Y-18582D01*
X32381Y-17322D02*
X31870Y-17322D01*
X38933Y-19315D02*
X38933Y-19570D01*
X38948Y-19600D01*
X38963Y-19615D01*
X38993Y-19630D01*
X39053Y-19630D01*
X39083Y-19615D01*
X39098Y-19600D01*
X39113Y-19570D01*
X39113Y-19315D01*
X39248Y-19345D02*
X39263Y-19330D01*
X39293Y-19315D01*
X39368Y-19315D01*
X39398Y-19330D01*
X39413Y-19345D01*
X39428Y-19375D01*
X39428Y-19405D01*
X39413Y-19450D01*
X39233Y-19630D01*
X39428Y-19630D01*
X31362Y-17752D02*
X31047Y-17752D01*
X31047Y-17677D01*
X31062Y-17632D01*
X31092Y-17602D01*
X31122Y-17587D01*
X31182Y-17572D01*
X31227Y-17572D01*
X31287Y-17587D01*
X31317Y-17602D01*
X31347Y-17632D01*
X31362Y-17677D01*
X31362Y-17752D01*
X31362Y-17272D02*
X31362Y-17452D01*
X31362Y-17362D02*
X31047Y-17362D01*
X31092Y-17392D01*
X31122Y-17422D01*
X31137Y-17452D01*
X31481Y-18989D02*
X31331Y-19094D01*
X31481Y-19169D02*
X31166Y-19169D01*
X31166Y-19049D01*
X31181Y-19019D01*
X31196Y-19004D01*
X31226Y-18989D01*
X31271Y-18989D01*
X31301Y-19004D01*
X31316Y-19019D01*
X31331Y-19049D01*
X31331Y-19169D01*
X31271Y-18719D02*
X31481Y-18719D01*
X31151Y-18794D02*
X31376Y-18869D01*
X31376Y-18674D01*
X37358Y-20733D02*
X37538Y-20733D01*
X37448Y-21047D02*
X37448Y-20733D01*
X37808Y-21047D02*
X37628Y-21047D01*
X37718Y-21047D02*
X37718Y-20733D01*
X37688Y-20778D01*
X37658Y-20808D01*
X37628Y-20823D01*
X38055Y-18910D02*
X37905Y-19015D01*
X38055Y-19090D02*
X37740Y-19090D01*
X37740Y-18970D01*
X37755Y-18940D01*
X37770Y-18925D01*
X37800Y-18910D01*
X37845Y-18910D01*
X37875Y-18925D01*
X37890Y-18940D01*
X37905Y-18970D01*
X37905Y-19090D01*
X38055Y-18610D02*
X38055Y-18790D01*
X38055Y-18700D02*
X37740Y-18700D01*
X37785Y-18730D01*
X37815Y-18760D01*
X37830Y-18790D01*
X40538Y-17041D02*
X40523Y-17056D01*
X40478Y-17071D01*
X40448Y-17071D01*
X40403Y-17056D01*
X40373Y-17026D01*
X40358Y-16996D01*
X40343Y-16936D01*
X40343Y-16891D01*
X40358Y-16831D01*
X40373Y-16801D01*
X40403Y-16771D01*
X40448Y-16756D01*
X40478Y-16756D01*
X40523Y-16771D01*
X40538Y-16786D01*
X40838Y-17071D02*
X40658Y-17071D01*
X40748Y-17071D02*
X40748Y-16756D01*
X40718Y-16801D01*
X40688Y-16831D01*
X40658Y-16846D01*
X40742Y-18438D02*
X40757Y-18453D01*
X40772Y-18498D01*
X40772Y-18528D01*
X40757Y-18573D01*
X40727Y-18603D01*
X40697Y-18618D01*
X40637Y-18633D01*
X40592Y-18633D01*
X40532Y-18618D01*
X40502Y-18603D01*
X40472Y-18573D01*
X40457Y-18528D01*
X40457Y-18498D01*
X40472Y-18453D01*
X40487Y-18438D01*
X40487Y-18318D02*
X40472Y-18303D01*
X40457Y-18273D01*
X40457Y-18198D01*
X40472Y-18168D01*
X40487Y-18153D01*
X40517Y-18138D01*
X40547Y-18138D01*
X40592Y-18153D01*
X40772Y-18333D01*
X40772Y-18138D01*
X40538Y-17750D02*
X40523Y-17765D01*
X40478Y-17780D01*
X40448Y-17780D01*
X40403Y-17765D01*
X40373Y-17735D01*
X40358Y-17705D01*
X40343Y-17645D01*
X40343Y-17600D01*
X40358Y-17540D01*
X40373Y-17510D01*
X40403Y-17480D01*
X40448Y-17465D01*
X40478Y-17465D01*
X40523Y-17480D01*
X40538Y-17495D01*
X40643Y-17465D02*
X40838Y-17465D01*
X40733Y-17585D01*
X40778Y-17585D01*
X40808Y-17600D01*
X40823Y-17615D01*
X40838Y-17645D01*
X40838Y-17720D01*
X40823Y-17750D01*
X40808Y-17765D01*
X40778Y-17780D01*
X40688Y-17780D01*
X40658Y-17765D01*
X40643Y-17750D01*
X39906Y-20918D02*
X39756Y-21023D01*
X39906Y-21098D02*
X39591Y-21098D01*
X39591Y-20978D01*
X39606Y-20948D01*
X39621Y-20933D01*
X39651Y-20918D01*
X39696Y-20918D01*
X39726Y-20933D01*
X39741Y-20948D01*
X39756Y-20978D01*
X39756Y-21098D01*
X39591Y-20813D02*
X39591Y-20618D01*
X39711Y-20723D01*
X39711Y-20678D01*
X39726Y-20648D01*
X39741Y-20633D01*
X39771Y-20618D01*
X39846Y-20618D01*
X39876Y-20633D01*
X39891Y-20648D01*
X39906Y-20678D01*
X39906Y-20768D01*
X39891Y-20798D01*
X39876Y-20813D01*
X39000Y-20918D02*
X38850Y-21023D01*
X39000Y-21098D02*
X38685Y-21098D01*
X38685Y-20978D01*
X38700Y-20948D01*
X38715Y-20933D01*
X38745Y-20918D01*
X38790Y-20918D01*
X38820Y-20933D01*
X38835Y-20948D01*
X38850Y-20978D01*
X38850Y-21098D01*
X38715Y-20798D02*
X38700Y-20783D01*
X38685Y-20753D01*
X38685Y-20678D01*
X38700Y-20648D01*
X38715Y-20633D01*
X38745Y-20618D01*
X38775Y-20618D01*
X38820Y-20633D01*
X39000Y-20813D01*
X39000Y-20618D01*
X32092Y-17148D02*
X32054Y-17129D01*
X32017Y-17092D01*
X31961Y-17036D01*
X31923Y-17017D01*
X31886Y-17017D01*
X31904Y-17111D02*
X31867Y-17092D01*
X31829Y-17054D01*
X31811Y-16979D01*
X31811Y-16848D01*
X31829Y-16773D01*
X31867Y-16736D01*
X31904Y-16717D01*
X31979Y-16717D01*
X32017Y-16736D01*
X32054Y-16773D01*
X32073Y-16848D01*
X32073Y-16979D01*
X32054Y-17054D01*
X32017Y-17092D01*
X31979Y-17111D01*
X31904Y-17111D01*
X32448Y-17111D02*
X32223Y-17111D01*
X32336Y-17111D02*
X32336Y-16717D01*
X32298Y-16773D01*
X32261Y-16811D01*
X32223Y-16829D01*
%LPC*%
G54D14*
X38799Y-20000D03*
X39173Y-20000D03*
X39547Y-20000D03*
X39547Y-18976D03*
X38799Y-18976D03*
G54D15*
X33510Y-17220D03*
X33510Y-17720D03*
X33510Y-18220D03*
X33510Y-18720D03*
X36510Y-18720D03*
X36510Y-18220D03*
X36510Y-17720D03*
X36510Y-17220D03*
G54D16*
X30590Y-17932D03*
X30590Y-17106D03*
G54D17*
X30590Y-18603D03*
X30590Y-19271D03*
G54D18*
X32322Y-20236D03*
X32322Y-21574D03*
G54D19*
X37519Y-21811D03*
X37519Y-20000D03*
G54D20*
X34803Y-20905D03*
G54D21*
X34710Y-18492D03*
G54D22*
X35368Y-18492D03*
X34710Y-17992D03*
X35368Y-17992D03*
X34710Y-17492D03*
X35368Y-17492D03*
G54D23*
X41732Y-19307D03*
G54D24*
X41732Y-18307D03*
X41732Y-17307D03*
G54D25*
X41732Y-21562D03*
G54D26*
X41732Y-20562D03*
G54D25*
X30787Y-21562D03*
G54D26*
X30787Y-20562D03*
G54D27*
X37913Y-18090D03*
X37913Y-17342D03*
G54D28*
X38996Y-17165D03*
X39744Y-17165D03*
G54D27*
X40354Y-19153D03*
X40354Y-19901D03*
G54D28*
X38996Y-18149D03*
X39744Y-18149D03*
G54D17*
X39763Y-21595D03*
X39763Y-22263D03*
X38858Y-21595D03*
X38858Y-22263D03*
G54D29*
X32125Y-17480D03*
X32125Y-17952D03*
X32125Y-18425D03*
M02*
