G04 (created by PCBNEW (2012-11-23 BZR 3812)-testing) date Tue 27 Nov 2012 09:48:54 PM CET*
%MOIN*%
G04 Gerber Fmt 3.4, Leading zero omitted, Abs format*
%FSLAX34Y34*%
G01*
G70*
G90*
G04 APERTURE LIST*
%ADD10C,3.14961e-06*%
%ADD11C,0.015*%
%ADD12R,0.11811X0.0787402*%
%ADD13O,0.11811X0.0787402*%
%ADD14R,0.055X0.055*%
%ADD15C,0.055*%
%ADD16R,0.06X0.06*%
%ADD17C,0.06*%
%ADD18C,0.025*%
%ADD19C,0.008*%
%ADD20C,0.00984252*%
G04 APERTURE END LIST*
G54D10*
G54D11*
X29783Y-23031D02*
X29783Y-13188D01*
X39625Y-23031D02*
X29783Y-23031D01*
X39625Y-13188D02*
X39625Y-23031D01*
X29783Y-13188D02*
X39625Y-13188D01*
G54D12*
X38740Y-21759D03*
G54D13*
X38740Y-20759D03*
G54D12*
X30649Y-21759D03*
G54D13*
X30649Y-20759D03*
G54D14*
X37929Y-14685D03*
G54D15*
X36929Y-14685D03*
X35929Y-14685D03*
G54D16*
X32889Y-14263D03*
G54D17*
X32889Y-15263D03*
X31889Y-14263D03*
X31889Y-15263D03*
X30889Y-14263D03*
X30889Y-15263D03*
G54D18*
X34286Y-17952D03*
X38681Y-16338D03*
X32637Y-20511D03*
X33031Y-20511D03*
X33425Y-20511D03*
X33818Y-20511D03*
X34212Y-20511D03*
X34606Y-20511D03*
X34803Y-20314D03*
X34409Y-20314D03*
X34015Y-20314D03*
X33622Y-20314D03*
X33228Y-20314D03*
X32834Y-20314D03*
X32440Y-20314D03*
X32637Y-20118D03*
X33031Y-20118D03*
X33425Y-20118D03*
X33818Y-20118D03*
X34212Y-20118D03*
X34606Y-20118D03*
X34803Y-19921D03*
X34409Y-19921D03*
X34015Y-19921D03*
X33622Y-19921D03*
X33228Y-19921D03*
X32834Y-19921D03*
X32440Y-19921D03*
G54D19*
X31889Y-14263D02*
X31921Y-14263D01*
X34286Y-15074D02*
X34286Y-17952D01*
X33976Y-14763D02*
X34286Y-15074D01*
X32421Y-14763D02*
X33976Y-14763D01*
X31921Y-14263D02*
X32421Y-14763D01*
X38681Y-16338D02*
X39094Y-16338D01*
X37881Y-21759D02*
X38740Y-21759D01*
X37814Y-21692D02*
X37881Y-21759D01*
X37814Y-20354D02*
X37814Y-21692D01*
X38228Y-19940D02*
X37814Y-20354D01*
X38720Y-19940D02*
X38228Y-19940D01*
X39232Y-19429D02*
X38720Y-19940D01*
X39232Y-16476D02*
X39232Y-19429D01*
X39094Y-16338D02*
X39232Y-16476D01*
X33031Y-20511D02*
X32637Y-20511D01*
X33818Y-20511D02*
X33425Y-20511D01*
X34606Y-20511D02*
X34212Y-20511D01*
X34409Y-20314D02*
X34803Y-20314D01*
X33622Y-20314D02*
X34015Y-20314D01*
X32834Y-20314D02*
X33228Y-20314D01*
X32637Y-20118D02*
X32440Y-20314D01*
X33425Y-20118D02*
X33031Y-20118D01*
X34212Y-20118D02*
X33818Y-20118D01*
X34803Y-19921D02*
X34606Y-20118D01*
X34015Y-19921D02*
X34409Y-19921D01*
X33228Y-19921D02*
X33622Y-19921D01*
X32440Y-19921D02*
X32834Y-19921D01*
G54D20*
X31872Y-16072D02*
X34099Y-16072D01*
X34474Y-16072D02*
X37241Y-16072D01*
X31654Y-16151D02*
X34099Y-16151D01*
X34474Y-16151D02*
X37459Y-16151D01*
X31581Y-16229D02*
X34099Y-16229D01*
X34474Y-16229D02*
X37532Y-16229D01*
X31545Y-16308D02*
X34099Y-16308D01*
X34474Y-16308D02*
X37568Y-16308D01*
X31528Y-16386D02*
X34099Y-16386D01*
X34474Y-16386D02*
X37585Y-16386D01*
X31525Y-16464D02*
X34099Y-16464D01*
X34474Y-16464D02*
X37588Y-16464D01*
X31525Y-16543D02*
X34099Y-16543D01*
X34474Y-16543D02*
X37588Y-16543D01*
X31525Y-16621D02*
X34099Y-16621D01*
X34474Y-16621D02*
X37588Y-16621D01*
X31525Y-16700D02*
X34099Y-16700D01*
X34474Y-16700D02*
X37588Y-16700D01*
X31525Y-16778D02*
X34099Y-16778D01*
X34474Y-16778D02*
X37588Y-16778D01*
X31525Y-16857D02*
X34099Y-16857D01*
X34474Y-16857D02*
X37588Y-16857D01*
X31525Y-16935D02*
X34099Y-16935D01*
X34474Y-16935D02*
X37588Y-16935D01*
X31525Y-17013D02*
X34099Y-17013D01*
X34474Y-17013D02*
X37588Y-17013D01*
X31525Y-17092D02*
X34099Y-17092D01*
X34474Y-17092D02*
X37588Y-17092D01*
X31525Y-17170D02*
X34099Y-17170D01*
X34474Y-17170D02*
X37588Y-17170D01*
X31525Y-17249D02*
X34099Y-17249D01*
X34474Y-17249D02*
X37588Y-17249D01*
X31525Y-17327D02*
X34099Y-17327D01*
X34474Y-17327D02*
X37588Y-17327D01*
X31525Y-17406D02*
X34099Y-17406D01*
X34474Y-17406D02*
X37588Y-17406D01*
X31525Y-17484D02*
X34099Y-17484D01*
X34474Y-17484D02*
X37588Y-17484D01*
X31525Y-17562D02*
X34099Y-17562D01*
X34474Y-17562D02*
X37588Y-17562D01*
X31525Y-17641D02*
X34099Y-17641D01*
X34474Y-17641D02*
X37588Y-17641D01*
X31525Y-17719D02*
X34099Y-17719D01*
X34474Y-17719D02*
X37588Y-17719D01*
X31525Y-17798D02*
X34062Y-17798D01*
X34511Y-17798D02*
X37588Y-17798D01*
X31525Y-17876D02*
X34024Y-17876D01*
X34549Y-17876D02*
X37588Y-17876D01*
X31525Y-17955D02*
X34014Y-17955D01*
X34559Y-17955D02*
X37588Y-17955D01*
X31525Y-18033D02*
X34025Y-18033D01*
X34548Y-18033D02*
X37588Y-18033D01*
X31525Y-18111D02*
X34065Y-18111D01*
X34508Y-18111D02*
X37588Y-18111D01*
X31525Y-18190D02*
X34151Y-18190D01*
X34421Y-18190D02*
X37588Y-18190D01*
X31525Y-18268D02*
X37588Y-18268D01*
X31525Y-18347D02*
X37588Y-18347D01*
X31525Y-18425D02*
X37588Y-18425D01*
X31525Y-18504D02*
X37588Y-18504D01*
X31525Y-18582D02*
X37588Y-18582D01*
X31525Y-18660D02*
X37588Y-18660D01*
X31525Y-18739D02*
X37588Y-18739D01*
X31525Y-18817D02*
X37588Y-18817D01*
X31525Y-18896D02*
X37588Y-18896D01*
X31525Y-18974D02*
X37588Y-18974D01*
X31525Y-19052D02*
X37588Y-19052D01*
X31525Y-19131D02*
X37588Y-19131D01*
X31525Y-19209D02*
X37588Y-19209D01*
X31525Y-19288D02*
X37588Y-19288D01*
X31525Y-19366D02*
X37588Y-19366D01*
X31525Y-19445D02*
X37588Y-19445D01*
X31525Y-19523D02*
X37588Y-19523D01*
X31525Y-19601D02*
X37588Y-19601D01*
X31525Y-19680D02*
X37588Y-19680D01*
X31525Y-19758D02*
X37588Y-19758D01*
X31525Y-19837D02*
X37588Y-19837D01*
X31525Y-19915D02*
X37588Y-19915D01*
X31525Y-19994D02*
X37588Y-19994D01*
X31525Y-20072D02*
X37588Y-20072D01*
X31525Y-20150D02*
X37588Y-20150D01*
X31525Y-20229D02*
X37588Y-20229D01*
X31525Y-20307D02*
X37588Y-20307D01*
X31533Y-20386D02*
X37580Y-20386D01*
X31561Y-20464D02*
X37552Y-20464D01*
X31614Y-20543D02*
X37500Y-20543D01*
X31716Y-20621D02*
X37397Y-20621D01*
X37588Y-20312D02*
X37581Y-20382D01*
X37562Y-20446D01*
X37530Y-20506D01*
X37487Y-20558D01*
X37435Y-20601D01*
X37375Y-20633D01*
X37311Y-20652D01*
X37241Y-20659D01*
X31872Y-20659D01*
X31802Y-20652D01*
X31738Y-20633D01*
X31678Y-20601D01*
X31626Y-20558D01*
X31583Y-20506D01*
X31552Y-20446D01*
X31532Y-20382D01*
X31525Y-20312D01*
X31525Y-16419D01*
X31532Y-16350D01*
X31552Y-16285D01*
X31583Y-16226D01*
X31626Y-16173D01*
X31678Y-16131D01*
X31738Y-16099D01*
X31802Y-16079D01*
X31872Y-16072D01*
X34099Y-16072D01*
X34099Y-17754D01*
X34077Y-17776D01*
X34046Y-17820D01*
X34025Y-17869D01*
X34014Y-17922D01*
X34013Y-17975D01*
X34023Y-18028D01*
X34043Y-18077D01*
X34072Y-18122D01*
X34109Y-18161D01*
X34153Y-18191D01*
X34202Y-18213D01*
X34254Y-18224D01*
X34307Y-18225D01*
X34360Y-18216D01*
X34410Y-18197D01*
X34455Y-18168D01*
X34494Y-18131D01*
X34525Y-18088D01*
X34546Y-18039D01*
X34558Y-17987D01*
X34559Y-17925D01*
X34549Y-17873D01*
X34528Y-17824D01*
X34499Y-17779D01*
X34474Y-17754D01*
X34474Y-16072D01*
X37241Y-16072D01*
X37311Y-16079D01*
X37375Y-16099D01*
X37435Y-16131D01*
X37487Y-16173D01*
X37530Y-16226D01*
X37562Y-16285D01*
X37581Y-16350D01*
X37588Y-16419D01*
X37588Y-20312D01*
G54D10*
G36*
X39301Y-22805D02*
X30088Y-22805D01*
X30088Y-21387D01*
X31525Y-21387D01*
X31525Y-20954D01*
X37588Y-20954D01*
X37588Y-21387D01*
X39301Y-21387D01*
X39301Y-22805D01*
X39301Y-22805D01*
G37*
G54D20*
X39301Y-22805D02*
X30088Y-22805D01*
X30088Y-21387D01*
X31525Y-21387D01*
X31525Y-20954D01*
X37588Y-20954D01*
X37588Y-21387D01*
X39301Y-21387D01*
X39301Y-22805D01*
M02*
