G04 (created by PCBNEW (2013-01-24 BZR 3921)-testing) date Sun 27 Jan 2013 11:25:16 AM CET*
%MOIN*%
G04 Gerber Fmt 3.4, Leading zero omitted, Abs format*
%FSLAX34Y34*%
G01*
G70*
G90*
G04 APERTURE LIST*
%ADD10C,3.14961e-06*%
%ADD11C,0.015*%
%ADD12C,0.00984252*%
%ADD13R,0.06X0.06*%
%ADD14C,0.06*%
%ADD15R,0.11811X0.0787402*%
%ADD16O,0.11811X0.0787402*%
%ADD17R,0.059X0.0511*%
%ADD18R,0.0984252X0.0590551*%
%ADD19R,0.275591X0.275591*%
%ADD20R,0.0393X0.0433*%
%ADD21R,0.149606X0.0472441*%
%ADD22R,0.149606X0.0551181*%
%ADD23R,0.0433X0.0393*%
%ADD24R,0.0866142X0.0275591*%
%ADD25R,0.03X0.02*%
%ADD26R,0.019685X0.019685*%
%ADD27R,0.0472X0.0472*%
%ADD28C,0.025*%
%ADD29C,0.008*%
%ADD30C,0.012*%
G04 APERTURE END LIST*
G54D10*
G54D11*
X29921Y-13779D02*
X29921Y-22834D01*
X39763Y-22834D02*
X39763Y-13779D01*
X39763Y-13779D02*
X29921Y-13779D01*
X39763Y-22834D02*
X29921Y-22834D01*
G54D12*
X39330Y-16540D02*
X39330Y-16840D01*
X39430Y-16540D02*
X39430Y-16840D01*
X39380Y-16540D02*
X39380Y-16840D01*
G54D13*
X32870Y-14795D03*
G54D14*
X32870Y-15795D03*
X31870Y-14795D03*
X31870Y-15795D03*
X30870Y-14795D03*
X30870Y-15795D03*
G54D13*
X38893Y-15255D03*
G54D14*
X37893Y-15255D03*
X36893Y-15255D03*
G54D15*
X38877Y-21562D03*
G54D16*
X38877Y-20562D03*
G54D15*
X30787Y-21562D03*
G54D16*
X30787Y-20562D03*
G54D17*
X34881Y-15964D03*
X34881Y-15216D03*
X36889Y-18818D03*
X36889Y-18070D03*
X39192Y-18838D03*
X39192Y-18090D03*
X35767Y-15964D03*
X35767Y-15216D03*
G54D18*
X36476Y-21811D03*
X36476Y-20000D03*
G54D19*
X33760Y-20905D03*
G54D20*
X36221Y-20905D03*
X36889Y-20905D03*
G54D21*
X30964Y-16988D03*
G54D22*
X30964Y-17972D03*
G54D21*
X30964Y-18956D03*
G54D23*
X37736Y-21595D03*
X37736Y-22263D03*
G54D24*
X32692Y-17222D03*
X32692Y-17722D03*
X32692Y-18222D03*
X32692Y-18722D03*
X35692Y-18722D03*
X35692Y-18222D03*
X35692Y-17722D03*
X35692Y-17222D03*
G54D25*
X38511Y-18839D03*
X38511Y-18089D03*
X37511Y-18839D03*
X38511Y-18464D03*
X37511Y-18089D03*
G54D23*
X37657Y-16378D03*
X37657Y-17046D03*
G54D26*
X39380Y-16540D03*
X39380Y-16840D03*
G54D27*
X38800Y-17033D03*
X38800Y-16207D03*
G54D28*
X33444Y-15452D03*
X33444Y-16141D03*
X34173Y-15216D03*
X30314Y-16338D03*
X34980Y-16870D03*
X34448Y-16850D03*
X38051Y-19448D03*
X32874Y-20177D03*
X32874Y-19783D03*
X33267Y-19783D03*
X33267Y-20177D03*
X33661Y-20177D03*
X33661Y-19783D03*
X34055Y-19783D03*
X34055Y-20177D03*
X34448Y-20177D03*
X34448Y-19783D03*
X34842Y-19783D03*
X34842Y-20177D03*
X30787Y-18464D03*
X39212Y-17440D03*
X38610Y-17670D03*
X36889Y-15905D03*
G54D29*
X33444Y-16141D02*
X33838Y-16535D01*
X33444Y-15452D02*
X33444Y-14921D01*
X33444Y-14921D02*
X33318Y-14795D01*
X32870Y-14795D02*
X33318Y-14795D01*
X34704Y-17933D02*
X34994Y-18222D01*
X34704Y-16712D02*
X34704Y-17933D01*
X34527Y-16535D02*
X34704Y-16712D01*
X33838Y-16535D02*
X34527Y-16535D01*
X35692Y-18222D02*
X34994Y-18222D01*
X35692Y-18722D02*
X35692Y-20771D01*
X35692Y-20771D02*
X35826Y-20905D01*
X35826Y-20905D02*
X36221Y-20905D01*
X32696Y-16633D02*
X33248Y-16633D01*
X31870Y-15807D02*
X32696Y-16633D01*
X35692Y-18722D02*
X34726Y-18722D01*
X31870Y-15807D02*
X31870Y-15795D01*
X34468Y-18464D02*
X34726Y-18722D01*
X34468Y-17224D02*
X34468Y-18464D01*
X34212Y-16968D02*
X34468Y-17224D01*
X33582Y-16968D02*
X34212Y-16968D01*
X33248Y-16633D02*
X33582Y-16968D01*
X34173Y-15216D02*
X34173Y-15216D01*
X34173Y-15216D02*
X34881Y-15216D01*
X32086Y-16771D02*
X32086Y-17086D01*
X32086Y-17086D02*
X32224Y-17224D01*
X32224Y-17224D02*
X32690Y-17224D01*
X32692Y-17222D02*
X32690Y-17224D01*
X31889Y-16574D02*
X30551Y-16574D01*
X30551Y-16574D02*
X30314Y-16338D01*
X31889Y-16574D02*
X32086Y-16771D01*
X32692Y-17222D02*
X32692Y-17220D01*
X36771Y-17066D02*
X37637Y-17066D01*
X36116Y-17722D02*
X36771Y-17066D01*
X35692Y-17722D02*
X36116Y-17722D01*
X37637Y-17066D02*
X37657Y-17046D01*
X34980Y-17618D02*
X34980Y-16870D01*
X34448Y-16850D02*
X34350Y-16751D01*
X34350Y-16751D02*
X33700Y-16751D01*
X33700Y-16751D02*
X33287Y-16338D01*
X33287Y-16338D02*
X32677Y-16338D01*
X32677Y-16338D02*
X32381Y-16043D01*
X32381Y-16043D02*
X32381Y-15307D01*
X32381Y-15307D02*
X31870Y-14795D01*
X35084Y-17722D02*
X34980Y-17618D01*
X35692Y-17722D02*
X35084Y-17722D01*
G54D30*
X39192Y-18838D02*
X39192Y-19271D01*
X39192Y-19271D02*
X39015Y-19448D01*
X39015Y-19448D02*
X38051Y-19448D01*
X38511Y-18839D02*
X39191Y-18839D01*
X39191Y-18839D02*
X39192Y-18838D01*
X37511Y-18089D02*
X37912Y-18089D01*
X38130Y-18839D02*
X38511Y-18839D01*
X37992Y-18700D02*
X38130Y-18839D01*
X37992Y-18169D02*
X37992Y-18700D01*
X37912Y-18089D02*
X37992Y-18169D01*
G54D29*
X30964Y-16988D02*
X31771Y-16988D01*
X31994Y-17722D02*
X32692Y-17722D01*
X31929Y-17657D02*
X31994Y-17722D01*
X31929Y-17145D02*
X31929Y-17657D01*
X31771Y-16988D02*
X31929Y-17145D01*
X30964Y-18956D02*
X31791Y-18956D01*
X31994Y-18222D02*
X32692Y-18222D01*
X31909Y-18307D02*
X31994Y-18222D01*
X31909Y-18838D02*
X31909Y-18307D01*
X31791Y-18956D02*
X31909Y-18838D01*
X33760Y-20905D02*
X34114Y-20905D01*
X32874Y-20177D02*
X33760Y-20905D01*
X33267Y-19783D02*
X32874Y-19783D01*
X33661Y-20177D02*
X33267Y-20177D01*
X34055Y-19783D02*
X33661Y-19783D01*
X34448Y-20177D02*
X34055Y-20177D01*
X34842Y-19783D02*
X34448Y-19783D01*
X34114Y-20905D02*
X34842Y-20177D01*
X30787Y-20562D02*
X33417Y-20562D01*
X33417Y-20562D02*
X33760Y-20905D01*
G54D30*
X37893Y-15255D02*
X37893Y-15433D01*
X38326Y-15866D02*
X38326Y-16343D01*
X37893Y-15433D02*
X38326Y-15866D01*
X38326Y-17519D02*
X38326Y-16343D01*
X36889Y-18070D02*
X36889Y-17775D01*
X38169Y-17677D02*
X38326Y-17519D01*
X36988Y-17677D02*
X38169Y-17677D01*
X36889Y-17775D02*
X36988Y-17677D01*
X38463Y-16207D02*
X38800Y-16207D01*
X38326Y-16343D02*
X38463Y-16207D01*
X38800Y-16207D02*
X39237Y-16207D01*
X39380Y-16350D02*
X39380Y-16540D01*
X39237Y-16207D02*
X39380Y-16350D01*
X30964Y-17972D02*
X30964Y-18287D01*
X30964Y-18287D02*
X30787Y-18464D01*
X30300Y-14500D02*
X30600Y-14200D01*
X30736Y-15795D02*
X30300Y-15359D01*
X30300Y-15359D02*
X30300Y-14500D01*
X30600Y-14200D02*
X35125Y-14200D01*
X35767Y-14842D02*
X35125Y-14200D01*
X30736Y-15795D02*
X30870Y-15795D01*
X32480Y-16830D02*
X33149Y-16830D01*
X33226Y-18722D02*
X32692Y-18722D01*
X33425Y-18523D02*
X33226Y-18722D01*
X33425Y-17106D02*
X33425Y-18523D01*
X33149Y-16830D02*
X33425Y-17106D01*
X31948Y-16299D02*
X30964Y-16299D01*
X30964Y-16299D02*
X30870Y-16204D01*
X30870Y-15795D02*
X30870Y-16204D01*
X32480Y-16830D02*
X31948Y-16299D01*
X35767Y-15216D02*
X35767Y-14842D01*
X37047Y-14409D02*
X37893Y-15255D01*
X35767Y-14842D02*
X36200Y-14409D01*
X36200Y-14409D02*
X37047Y-14409D01*
X39380Y-16840D02*
X39380Y-17273D01*
X39380Y-17273D02*
X39212Y-17440D01*
X39192Y-18090D02*
X39192Y-17460D01*
X39192Y-17460D02*
X39212Y-17440D01*
X38511Y-18464D02*
X38759Y-18464D01*
X38956Y-18090D02*
X39192Y-18090D01*
X38818Y-18228D02*
X38956Y-18090D01*
X38818Y-18405D02*
X38818Y-18228D01*
X38759Y-18464D02*
X38818Y-18405D01*
X37736Y-21595D02*
X37736Y-20708D01*
X37736Y-20708D02*
X37881Y-20562D01*
X37881Y-20562D02*
X38877Y-20562D01*
G54D29*
X36476Y-21811D02*
X37165Y-21811D01*
X37420Y-22263D02*
X37736Y-22263D01*
X37283Y-22125D02*
X37420Y-22263D01*
X37283Y-21929D02*
X37283Y-22125D01*
X37165Y-21811D02*
X37283Y-21929D01*
X36476Y-21811D02*
X36476Y-21358D01*
X36889Y-21162D02*
X36889Y-20905D01*
X36712Y-21338D02*
X36889Y-21162D01*
X36496Y-21338D02*
X36712Y-21338D01*
X36476Y-21358D02*
X36496Y-21338D01*
X38800Y-17033D02*
X38800Y-17480D01*
X36889Y-15905D02*
X37362Y-16378D01*
X37362Y-16378D02*
X37657Y-16378D01*
X38800Y-17480D02*
X38610Y-17670D01*
G54D30*
X36397Y-17716D02*
X36653Y-17460D01*
X36889Y-18818D02*
X36476Y-18818D01*
X37543Y-15905D02*
X36893Y-15255D01*
X36397Y-18740D02*
X36397Y-17716D01*
X36476Y-18818D02*
X36397Y-18740D01*
X37952Y-15905D02*
X37543Y-15905D01*
X38110Y-16062D02*
X37952Y-15905D01*
X38110Y-17362D02*
X38110Y-16062D01*
X38011Y-17460D02*
X38110Y-17362D01*
X36653Y-17460D02*
X38011Y-17460D01*
X36889Y-18818D02*
X37491Y-18818D01*
X37491Y-18818D02*
X37511Y-18839D01*
G54D29*
X36751Y-15397D02*
X36893Y-15255D01*
G54D30*
X35692Y-17222D02*
X35692Y-16039D01*
X35692Y-16039D02*
X35767Y-15964D01*
X32870Y-15795D02*
X34023Y-15795D01*
X34192Y-15964D02*
X34881Y-15964D01*
X34023Y-15795D02*
X34192Y-15964D01*
X34881Y-15964D02*
X35767Y-15964D01*
X35767Y-15964D02*
X36185Y-15964D01*
X36185Y-15964D02*
X36893Y-15255D01*
G54D12*
X32443Y-19576D02*
X32851Y-19576D01*
X32406Y-19655D02*
X32983Y-19655D01*
X31476Y-19733D02*
X33001Y-19733D01*
X31430Y-19812D02*
X33001Y-19812D01*
X31427Y-19890D02*
X33001Y-19890D01*
X31427Y-19968D02*
X33001Y-19968D01*
X31416Y-20047D02*
X33001Y-20047D01*
X31377Y-20125D02*
X33001Y-20125D01*
X31276Y-20204D02*
X33001Y-20204D01*
X30607Y-20282D02*
X33001Y-20282D01*
X30581Y-20361D02*
X33001Y-20361D01*
X30580Y-20439D02*
X33001Y-20439D01*
X30580Y-20517D02*
X33001Y-20517D01*
X30580Y-20596D02*
X33001Y-20596D01*
X30580Y-20674D02*
X33001Y-20674D01*
X30580Y-20753D02*
X33001Y-20753D01*
X30601Y-20831D02*
X32981Y-20831D01*
X33001Y-20755D02*
X32998Y-20786D01*
X32990Y-20814D01*
X32976Y-20839D01*
X32958Y-20862D01*
X32936Y-20880D01*
X32910Y-20894D01*
X32883Y-20902D01*
X32851Y-20905D01*
X30730Y-20905D01*
X30699Y-20902D01*
X30671Y-20894D01*
X30646Y-20880D01*
X30624Y-20862D01*
X30605Y-20839D01*
X30592Y-20814D01*
X30583Y-20786D01*
X30580Y-20755D01*
X30580Y-20368D01*
X30583Y-20340D01*
X30589Y-20315D01*
X30600Y-20292D01*
X30615Y-20271D01*
X30634Y-20252D01*
X30655Y-20238D01*
X30679Y-20227D01*
X30704Y-20221D01*
X30732Y-20218D01*
X31180Y-20224D01*
X31221Y-20220D01*
X31263Y-20210D01*
X31302Y-20192D01*
X31338Y-20167D01*
X31368Y-20137D01*
X31393Y-20101D01*
X31412Y-20062D01*
X31423Y-20021D01*
X31427Y-19980D01*
X31427Y-19844D01*
X31430Y-19813D01*
X31438Y-19786D01*
X31452Y-19760D01*
X31470Y-19738D01*
X31492Y-19719D01*
X31518Y-19706D01*
X31546Y-19697D01*
X31577Y-19694D01*
X32325Y-19694D01*
X32344Y-19693D01*
X32364Y-19686D01*
X32383Y-19676D01*
X32399Y-19663D01*
X32413Y-19646D01*
X32423Y-19628D01*
X32429Y-19607D01*
X32430Y-19591D01*
X32431Y-19584D01*
X32432Y-19582D01*
X32432Y-19581D01*
X32434Y-19579D01*
X32435Y-19578D01*
X32437Y-19577D01*
X32439Y-19577D01*
X32443Y-19576D01*
X32851Y-19576D01*
X32883Y-19579D01*
X32910Y-19588D01*
X32936Y-19601D01*
X32958Y-19620D01*
X32976Y-19642D01*
X32990Y-19668D01*
X32998Y-19695D01*
X33001Y-19726D01*
X33001Y-20755D01*
X36242Y-19753D02*
X38068Y-19753D01*
X36110Y-19832D02*
X38200Y-19832D01*
X36092Y-19910D02*
X38218Y-19910D01*
X36092Y-19989D02*
X38219Y-19989D01*
X36092Y-20067D02*
X38234Y-20067D01*
X36101Y-20146D02*
X38283Y-20146D01*
X36164Y-20224D02*
X38442Y-20224D01*
X37203Y-20302D02*
X39055Y-20302D01*
X37265Y-20381D02*
X39074Y-20381D01*
X37290Y-20459D02*
X39074Y-20459D01*
X37293Y-20538D02*
X39074Y-20538D01*
X37293Y-20616D02*
X39074Y-20616D01*
X37293Y-20695D02*
X39074Y-20695D01*
X37295Y-20773D02*
X39073Y-20773D01*
X37328Y-20851D02*
X39039Y-20851D01*
X39074Y-20755D02*
X39071Y-20786D01*
X39063Y-20814D01*
X39049Y-20839D01*
X39031Y-20862D01*
X39009Y-20880D01*
X38983Y-20894D01*
X38955Y-20902D01*
X38924Y-20905D01*
X37443Y-20905D01*
X37412Y-20902D01*
X37384Y-20894D01*
X37359Y-20880D01*
X37336Y-20862D01*
X37318Y-20839D01*
X37304Y-20814D01*
X37296Y-20786D01*
X37293Y-20755D01*
X37293Y-20489D01*
X37288Y-20444D01*
X37274Y-20397D01*
X37252Y-20355D01*
X37221Y-20317D01*
X37184Y-20287D01*
X37141Y-20264D01*
X37095Y-20250D01*
X37049Y-20246D01*
X36242Y-20246D01*
X36211Y-20242D01*
X36183Y-20234D01*
X36158Y-20220D01*
X36135Y-20202D01*
X36117Y-20180D01*
X36103Y-20154D01*
X36095Y-20127D01*
X36092Y-20096D01*
X36092Y-19903D01*
X36095Y-19872D01*
X36103Y-19845D01*
X36117Y-19819D01*
X36135Y-19797D01*
X36158Y-19779D01*
X36183Y-19765D01*
X36211Y-19757D01*
X36242Y-19753D01*
X38068Y-19753D01*
X38099Y-19757D01*
X38127Y-19765D01*
X38152Y-19779D01*
X38175Y-19797D01*
X38193Y-19819D01*
X38207Y-19845D01*
X38215Y-19872D01*
X38218Y-19903D01*
X38218Y-19982D01*
X38222Y-20028D01*
X38237Y-20074D01*
X38259Y-20117D01*
X38290Y-20154D01*
X38327Y-20185D01*
X38370Y-20207D01*
X38416Y-20221D01*
X38462Y-20226D01*
X38924Y-20226D01*
X38955Y-20229D01*
X38983Y-20237D01*
X39009Y-20251D01*
X39031Y-20269D01*
X39049Y-20292D01*
X39063Y-20317D01*
X39071Y-20345D01*
X39074Y-20376D01*
X39074Y-20755D01*
M02*
