G04 (created by PCBNEW (2012-11-23 BZR 3812)-testing) date Wed 28 Nov 2012 12:32:29 PM CET*
%MOIN*%
G04 Gerber Fmt 3.4, Leading zero omitted, Abs format*
%FSLAX34Y34*%
G01*
G70*
G90*
G04 APERTURE LIST*
%ADD10C,3.14961e-06*%
%ADD11C,0.015*%
%ADD12R,0.11811X0.0787402*%
%ADD13O,0.11811X0.0787402*%
%ADD14R,0.055X0.055*%
%ADD15C,0.055*%
%ADD16R,0.06X0.06*%
%ADD17C,0.06*%
%ADD18R,0.0511X0.059*%
%ADD19R,0.0866X0.0236*%
%ADD20R,0.0984252X0.0590551*%
%ADD21R,0.275591X0.275591*%
%ADD22R,0.0393X0.0433*%
%ADD23R,0.149606X0.0472441*%
%ADD24R,0.149606X0.0551181*%
%ADD25R,0.0433X0.0393*%
%ADD26C,0.025*%
%ADD27C,0.008*%
%ADD28C,0.00984252*%
G04 APERTURE END LIST*
G54D10*
G54D11*
X29783Y-23031D02*
X29783Y-13188D01*
X39625Y-23031D02*
X29783Y-23031D01*
X39625Y-13188D02*
X39625Y-23031D01*
X29783Y-13188D02*
X39625Y-13188D01*
G54D12*
X38740Y-21759D03*
G54D13*
X38740Y-20759D03*
G54D12*
X30649Y-21759D03*
G54D13*
X30649Y-20759D03*
G54D14*
X37929Y-14685D03*
G54D15*
X36929Y-14685D03*
X35929Y-14685D03*
G54D16*
X32889Y-14263D03*
G54D17*
X32889Y-15263D03*
X31889Y-14263D03*
X31889Y-15263D03*
X30889Y-14263D03*
X30889Y-15263D03*
G54D18*
X35118Y-16338D03*
X34370Y-16338D03*
X36889Y-16338D03*
X36141Y-16338D03*
X38661Y-16338D03*
X37913Y-16338D03*
X33346Y-16338D03*
X32598Y-16338D03*
G54D19*
X33032Y-17458D03*
X33032Y-17958D03*
X33032Y-18458D03*
X33032Y-18958D03*
X35078Y-18958D03*
X35078Y-18458D03*
X35078Y-17958D03*
X35078Y-17458D03*
X36477Y-17458D03*
X36477Y-17958D03*
X36477Y-18458D03*
X36477Y-18958D03*
X38523Y-18958D03*
X38523Y-18458D03*
X38523Y-17958D03*
X38523Y-17458D03*
G54D20*
X36338Y-22007D03*
X36338Y-20196D03*
G54D21*
X33622Y-21102D03*
G54D22*
X36083Y-21102D03*
X36751Y-21102D03*
G54D23*
X31102Y-17224D03*
G54D24*
X31102Y-18208D03*
G54D23*
X31102Y-19192D03*
G54D25*
X37598Y-21791D03*
X37598Y-22459D03*
G54D26*
X30472Y-16692D03*
X38681Y-16338D03*
X32637Y-20511D03*
X33031Y-20511D03*
X33425Y-20511D03*
X33818Y-20511D03*
X34212Y-20511D03*
X34606Y-20511D03*
X34803Y-20314D03*
X34409Y-20314D03*
X34015Y-20314D03*
X33622Y-20314D03*
X33228Y-20314D03*
X32834Y-20314D03*
X32440Y-20314D03*
X32637Y-20118D03*
X33031Y-20118D03*
X33425Y-20118D03*
X33818Y-20118D03*
X34212Y-20118D03*
X34606Y-20118D03*
X34803Y-19921D03*
X34409Y-19921D03*
X34015Y-19921D03*
X33622Y-19921D03*
X33228Y-19921D03*
X32834Y-19921D03*
X32440Y-19921D03*
G54D27*
X33309Y-14263D02*
X34200Y-14263D01*
X32889Y-14263D02*
X33309Y-14263D01*
X37929Y-14188D02*
X37929Y-14685D01*
X37755Y-14015D02*
X37929Y-14188D01*
X34448Y-14015D02*
X37755Y-14015D01*
X34200Y-14263D02*
X34448Y-14015D01*
X35078Y-18458D02*
X35683Y-18458D01*
X37929Y-15377D02*
X37929Y-14685D01*
X37522Y-15784D02*
X37929Y-15377D01*
X37522Y-18777D02*
X37522Y-15784D01*
X36968Y-19330D02*
X37522Y-18777D01*
X35866Y-19330D02*
X36968Y-19330D01*
X35787Y-19251D02*
X35866Y-19330D01*
X35787Y-18562D02*
X35787Y-19251D01*
X35683Y-18458D02*
X35787Y-18562D01*
X29992Y-15466D02*
X29992Y-19559D01*
X29992Y-19559D02*
X30118Y-19685D01*
X30118Y-19685D02*
X31968Y-19685D01*
X32263Y-19389D02*
X34093Y-19389D01*
X34525Y-18958D02*
X34093Y-19389D01*
X34525Y-18958D02*
X35078Y-18958D01*
X31968Y-19685D02*
X32263Y-19389D01*
X31889Y-15263D02*
X31389Y-14763D01*
X30694Y-14763D02*
X31389Y-14763D01*
X29992Y-15466D02*
X30694Y-14763D01*
X35078Y-18958D02*
X35078Y-19192D01*
X35629Y-21102D02*
X36083Y-21102D01*
X35433Y-20905D02*
X35629Y-21102D01*
X35433Y-19547D02*
X35433Y-20905D01*
X35078Y-19192D02*
X35433Y-19547D01*
X33032Y-17458D02*
X33761Y-17458D01*
X34370Y-16850D02*
X34370Y-16338D01*
X33761Y-17458D02*
X34370Y-16850D01*
X32007Y-15944D02*
X32007Y-15905D01*
X32181Y-14763D02*
X31649Y-14763D01*
X31649Y-14763D02*
X31149Y-14263D01*
X30889Y-14263D02*
X31149Y-14263D01*
X32007Y-16624D02*
X32007Y-15944D01*
X32273Y-16889D02*
X32007Y-16624D01*
X32559Y-16889D02*
X32273Y-16889D01*
X33032Y-17362D02*
X32559Y-16889D01*
X33032Y-17362D02*
X33032Y-17458D01*
X32401Y-14984D02*
X32181Y-14763D01*
X32401Y-15511D02*
X32401Y-14984D01*
X32007Y-15905D02*
X32401Y-15511D01*
X32463Y-17716D02*
X32362Y-17615D01*
X32362Y-17615D02*
X32362Y-17440D01*
X32362Y-17440D02*
X32007Y-17086D01*
X32007Y-17086D02*
X32007Y-16850D01*
X32007Y-16850D02*
X31850Y-16692D01*
X34100Y-17958D02*
X35078Y-17958D01*
X33858Y-17716D02*
X32480Y-17716D01*
X34100Y-17958D02*
X33858Y-17716D01*
X32480Y-17716D02*
X32463Y-17716D01*
X30472Y-16692D02*
X31850Y-16692D01*
X38661Y-16338D02*
X38681Y-16338D01*
X38523Y-17458D02*
X38523Y-16476D01*
X38523Y-16476D02*
X38661Y-16338D01*
X31102Y-17263D02*
X31929Y-17263D01*
X32185Y-17519D02*
X32185Y-17814D01*
X32185Y-17814D02*
X32328Y-17958D01*
X32328Y-17958D02*
X33032Y-17958D01*
X31929Y-17263D02*
X32185Y-17519D01*
X31102Y-19153D02*
X31929Y-19153D01*
X32185Y-18897D02*
X32185Y-18602D01*
X32185Y-18602D02*
X32328Y-18458D01*
X32328Y-18458D02*
X33032Y-18458D01*
X31929Y-19153D02*
X32185Y-18897D01*
X33622Y-21102D02*
X33622Y-21102D01*
X32637Y-20511D02*
X33622Y-21102D01*
X33425Y-20511D02*
X33031Y-20511D01*
X34212Y-20511D02*
X33818Y-20511D01*
X34803Y-20314D02*
X34606Y-20511D01*
X34015Y-20314D02*
X34409Y-20314D01*
X33228Y-20314D02*
X33622Y-20314D01*
X32440Y-20314D02*
X32834Y-20314D01*
X33031Y-20118D02*
X32637Y-20118D01*
X33818Y-20118D02*
X33425Y-20118D01*
X34606Y-20118D02*
X34212Y-20118D01*
X34409Y-19921D02*
X34803Y-19921D01*
X33622Y-19921D02*
X34015Y-19921D01*
X32834Y-19921D02*
X33228Y-19921D01*
X33622Y-21102D02*
X32440Y-19921D01*
X30649Y-20759D02*
X33279Y-20759D01*
X33279Y-20759D02*
X33622Y-21102D01*
X32598Y-16338D02*
X32598Y-16614D01*
X36456Y-14212D02*
X36929Y-14685D01*
X34685Y-14212D02*
X36456Y-14212D01*
X33858Y-15039D02*
X34685Y-14212D01*
X33858Y-16968D02*
X33858Y-15039D01*
X33740Y-17086D02*
X33858Y-16968D01*
X33070Y-17086D02*
X33740Y-17086D01*
X32598Y-16614D02*
X33070Y-17086D01*
X31102Y-18208D02*
X30250Y-18208D01*
X30152Y-15629D02*
X30152Y-15635D01*
X30152Y-18110D02*
X30152Y-15629D01*
X30250Y-18208D02*
X30152Y-18110D01*
X30523Y-15263D02*
X30889Y-15263D01*
X30152Y-15635D02*
X30523Y-15263D01*
X30157Y-15629D02*
X30152Y-15635D01*
X37322Y-15795D02*
X36929Y-15401D01*
X37322Y-15795D02*
X37322Y-17795D01*
X37322Y-17795D02*
X37159Y-17958D01*
X36477Y-17958D02*
X37159Y-17958D01*
X36929Y-15401D02*
X36929Y-14685D01*
X36141Y-15629D02*
X36929Y-14842D01*
X36929Y-14842D02*
X36929Y-14685D01*
X36141Y-16338D02*
X36141Y-15629D01*
X36477Y-17958D02*
X36477Y-18458D01*
X33032Y-18958D02*
X33797Y-18958D01*
X33858Y-18897D02*
X33858Y-18208D01*
X33797Y-18958D02*
X33858Y-18897D01*
X36477Y-18458D02*
X36407Y-18458D01*
X36173Y-18458D02*
X35923Y-18208D01*
X36407Y-18458D02*
X36173Y-18458D01*
X35923Y-18208D02*
X33858Y-18208D01*
X33858Y-18208D02*
X31102Y-18208D01*
X37598Y-21791D02*
X37598Y-20968D01*
X37598Y-20968D02*
X37807Y-20759D01*
X36338Y-20196D02*
X37244Y-20196D01*
X37807Y-20759D02*
X38740Y-20759D01*
X37244Y-20196D02*
X37807Y-20759D01*
X38523Y-18458D02*
X38523Y-17958D01*
X38740Y-20759D02*
X38740Y-20078D01*
X39167Y-18458D02*
X38523Y-18458D01*
X39291Y-18582D02*
X39167Y-18458D01*
X39291Y-19527D02*
X39291Y-18582D01*
X38740Y-20078D02*
X39291Y-19527D01*
X38484Y-20759D02*
X38492Y-20767D01*
X38523Y-17958D02*
X37879Y-17958D01*
X37879Y-17958D02*
X37736Y-17814D01*
X37736Y-17814D02*
X37736Y-16515D01*
X37736Y-16515D02*
X37913Y-16338D01*
X38522Y-17958D02*
X38246Y-17958D01*
X38522Y-18458D02*
X38246Y-18458D01*
X36338Y-22007D02*
X36790Y-22459D01*
X36790Y-22459D02*
X37598Y-22459D01*
X36338Y-22007D02*
X36751Y-21595D01*
X36751Y-21595D02*
X36751Y-21102D01*
X33346Y-16338D02*
X33346Y-15720D01*
X33346Y-15720D02*
X32889Y-15263D01*
X35118Y-15358D02*
X35791Y-14685D01*
X35118Y-16338D02*
X35118Y-15358D01*
X35791Y-14685D02*
X35929Y-14685D01*
X36515Y-17224D02*
X36811Y-16929D01*
X36515Y-17419D02*
X36515Y-17224D01*
X36477Y-17458D02*
X36515Y-17419D01*
X36811Y-16417D02*
X36889Y-16338D01*
X36811Y-16929D02*
X36811Y-16417D01*
X35078Y-17458D02*
X36477Y-17458D01*
X35078Y-17458D02*
X35078Y-16378D01*
X35078Y-16378D02*
X35118Y-16338D01*
G54D10*
G36*
X32864Y-21092D02*
X30482Y-21092D01*
X30482Y-20423D01*
X31289Y-20423D01*
X31289Y-19891D01*
X32864Y-19891D01*
X32864Y-21092D01*
X32864Y-21092D01*
G37*
G54D28*
X32864Y-21092D02*
X30482Y-21092D01*
X30482Y-20423D01*
X31289Y-20423D01*
X31289Y-19891D01*
X32864Y-19891D01*
X32864Y-21092D01*
G54D10*
G36*
X38907Y-21092D02*
X37135Y-21092D01*
X37135Y-20620D01*
X35895Y-20620D01*
X35895Y-19675D01*
X38021Y-19675D01*
X38021Y-20423D01*
X38543Y-20423D01*
X38907Y-20423D01*
X38907Y-21092D01*
X38907Y-21092D01*
G37*
G54D28*
X38907Y-21092D02*
X37135Y-21092D01*
X37135Y-20620D01*
X35895Y-20620D01*
X35895Y-19675D01*
X38021Y-19675D01*
X38021Y-20423D01*
X38543Y-20423D01*
X38907Y-20423D01*
X38907Y-21092D01*
M02*
