M48
METRIC,TZ
T1C0.330
T2C0.500
T3C1.016
T4C1.200
%
G90
G05
T1
X077700Y-043400
X085600Y-050000
X085600Y-050800
X085600Y-051600
X085600Y-052400
X086400Y-050000
X086400Y-050800
X086400Y-051600
X086400Y-052400
X087200Y-050000
X087200Y-050800
X087200Y-051600
X087200Y-052400
X088000Y-050000
X088000Y-050800
X088000Y-051600
X088000Y-052400
X088800Y-050000
X088800Y-050800
X088800Y-051600
X088800Y-052400
X089600Y-050000
X089600Y-050800
X089600Y-051600
X089600Y-052400
X090400Y-050000
X090400Y-050800
X090400Y-051600
X090400Y-052400
X090500Y-048200
X091200Y-050000
X091200Y-050800
X091200Y-051600
X091200Y-052400
X094200Y-045000
X094700Y-046300
X099100Y-046100
X101000Y-043600
X102500Y-048600
T2
X088365Y-044430
X088365Y-045700
X088365Y-046970
X089635Y-044430
X089635Y-045700
X089635Y-046970
T3
X106000Y-043960
X106000Y-046500
X106000Y-049040
T4
X078200Y-052230
X078200Y-054770
X106000Y-052230
X106000Y-054770
T0
M30
