G04 (created by PCBNEW (2012-11-23 BZR 3812)-testing) date Sun 25 Nov 2012 03:49:25 PM CET*
%MOIN*%
G04 Gerber Fmt 3.4, Leading zero omitted, Abs format*
%FSLAX34Y34*%
G01*
G70*
G90*
G04 APERTURE LIST*
%ADD10C,3.14961e-06*%
%ADD11R,0.055X0.055*%
%ADD12C,0.055*%
%ADD13R,0.06X0.06*%
%ADD14C,0.06*%
%ADD15C,0.025*%
%ADD16C,0.008*%
%ADD17C,0.00984252*%
G04 APERTURE END LIST*
G54D10*
G54D11*
X37929Y-14685D03*
G54D12*
X36929Y-14685D03*
X35929Y-14685D03*
G54D13*
X32889Y-14263D03*
G54D14*
X32889Y-15263D03*
X31889Y-14263D03*
X31889Y-15263D03*
X30889Y-14263D03*
X30889Y-15263D03*
G54D11*
X31003Y-20759D03*
G54D12*
X31003Y-21759D03*
G54D11*
X38484Y-20759D03*
G54D12*
X38484Y-21759D03*
G54D15*
X34286Y-17952D03*
X38681Y-16338D03*
G54D16*
X34286Y-17952D02*
X32371Y-16037D01*
X32371Y-14745D02*
X31889Y-14263D01*
X32371Y-16037D02*
X32371Y-14745D01*
X38484Y-20759D02*
X38484Y-20177D01*
X38681Y-16830D02*
X38681Y-16338D01*
X38484Y-17027D02*
X38681Y-16830D01*
X37893Y-17027D02*
X38484Y-17027D01*
X37795Y-17125D02*
X37893Y-17027D01*
X37795Y-19488D02*
X37795Y-17125D01*
X38484Y-20177D02*
X37795Y-19488D01*
X38484Y-20759D02*
X31003Y-20759D01*
G54D17*
X30462Y-18159D02*
X34107Y-18159D01*
X34465Y-18159D02*
X38927Y-18159D01*
X30462Y-18237D02*
X38927Y-18237D01*
X30462Y-18316D02*
X38927Y-18316D01*
X30462Y-18394D02*
X38927Y-18394D01*
X30462Y-18473D02*
X38927Y-18473D01*
X30462Y-18551D02*
X38927Y-18551D01*
X30462Y-18630D02*
X38927Y-18630D01*
X30462Y-18708D02*
X38927Y-18708D01*
X30462Y-18786D02*
X38927Y-18786D01*
X30462Y-18865D02*
X38927Y-18865D01*
X30462Y-18943D02*
X38927Y-18943D01*
X30462Y-19022D02*
X38927Y-19022D01*
X30462Y-19100D02*
X38927Y-19100D01*
X30462Y-19178D02*
X38927Y-19178D01*
X30462Y-19257D02*
X38927Y-19257D01*
X30462Y-19335D02*
X38927Y-19335D01*
X30462Y-19414D02*
X38927Y-19414D01*
X30462Y-19492D02*
X38927Y-19492D01*
X30462Y-19571D02*
X38927Y-19571D01*
X30462Y-19649D02*
X38927Y-19649D01*
X30462Y-19727D02*
X38927Y-19727D01*
X30462Y-19806D02*
X38927Y-19806D01*
X30462Y-19884D02*
X38927Y-19884D01*
X30462Y-19963D02*
X38927Y-19963D01*
X30462Y-20041D02*
X38927Y-20041D01*
X30462Y-20120D02*
X38927Y-20120D01*
X30462Y-20198D02*
X38927Y-20198D01*
X30462Y-20276D02*
X38927Y-20276D01*
X30462Y-20355D02*
X30656Y-20355D01*
X30935Y-20355D02*
X31071Y-20355D01*
X31350Y-20355D02*
X38137Y-20355D01*
X38416Y-20355D02*
X38552Y-20355D01*
X38831Y-20355D02*
X38927Y-20355D01*
X30462Y-20433D02*
X30590Y-20433D01*
X30954Y-20433D02*
X31053Y-20433D01*
X31417Y-20433D02*
X38070Y-20433D01*
X38435Y-20433D02*
X38533Y-20433D01*
X38897Y-20433D02*
X38927Y-20433D01*
X30462Y-20512D02*
X30581Y-20512D01*
X30954Y-20512D02*
X31053Y-20512D01*
X31426Y-20512D02*
X31426Y-20512D01*
X31426Y-20512D02*
X38061Y-20512D01*
X38435Y-20512D02*
X38533Y-20512D01*
X38906Y-20512D02*
X38906Y-20512D01*
X38906Y-20512D02*
X38927Y-20512D01*
X30462Y-20590D02*
X30581Y-20590D01*
X30954Y-20590D02*
X31053Y-20590D01*
X31426Y-20590D02*
X31426Y-20590D01*
X31426Y-20590D02*
X38061Y-20590D01*
X38435Y-20590D02*
X38533Y-20590D01*
X38906Y-20590D02*
X38906Y-20590D01*
X38906Y-20590D02*
X38927Y-20590D01*
X30462Y-20669D02*
X30581Y-20669D01*
X30954Y-20669D02*
X31053Y-20669D01*
X31426Y-20669D02*
X31426Y-20669D01*
X31426Y-20669D02*
X38061Y-20669D01*
X38435Y-20669D02*
X38533Y-20669D01*
X38906Y-20669D02*
X38906Y-20669D01*
X38906Y-20669D02*
X38927Y-20669D01*
X30462Y-20747D02*
X30954Y-20747D01*
X30954Y-20747D02*
X31426Y-20747D01*
X31426Y-20747D02*
X38435Y-20747D01*
X38435Y-20747D02*
X38906Y-20747D01*
X38906Y-20747D02*
X38927Y-20747D01*
X30462Y-20825D02*
X30601Y-20825D01*
X30954Y-20825D02*
X31053Y-20825D01*
X31406Y-20825D02*
X31426Y-20825D01*
X31426Y-20825D02*
X38081Y-20825D01*
X38435Y-20825D02*
X38533Y-20825D01*
X38886Y-20825D02*
X38906Y-20825D01*
X38906Y-20825D02*
X38927Y-20825D01*
X30462Y-20904D02*
X30581Y-20904D01*
X30954Y-20904D02*
X31053Y-20904D01*
X31426Y-20904D02*
X31426Y-20904D01*
X31426Y-20904D02*
X38061Y-20904D01*
X38435Y-20904D02*
X38533Y-20904D01*
X38906Y-20904D02*
X38906Y-20904D01*
X38906Y-20904D02*
X38927Y-20904D01*
X30462Y-20982D02*
X30581Y-20982D01*
X30954Y-20982D02*
X31053Y-20982D01*
X31426Y-20982D02*
X31426Y-20982D01*
X31426Y-20982D02*
X38061Y-20982D01*
X38435Y-20982D02*
X38533Y-20982D01*
X38906Y-20982D02*
X38906Y-20982D01*
X38906Y-20982D02*
X38927Y-20982D01*
X30462Y-21061D02*
X30583Y-21061D01*
X30954Y-21061D02*
X31053Y-21061D01*
X31424Y-21061D02*
X31426Y-21061D01*
X31426Y-21061D02*
X38063Y-21061D01*
X38435Y-21061D02*
X38533Y-21061D01*
X38904Y-21061D02*
X38906Y-21061D01*
X38906Y-21061D02*
X38927Y-21061D01*
X30462Y-21139D02*
X30624Y-21139D01*
X30954Y-21139D02*
X31053Y-21139D01*
X31382Y-21139D02*
X31426Y-21139D01*
X31426Y-21139D02*
X38105Y-21139D01*
X38435Y-21139D02*
X38533Y-21139D01*
X38863Y-21139D02*
X38906Y-21139D01*
X38906Y-21139D02*
X38927Y-21139D01*
X38927Y-21210D02*
X38906Y-21210D01*
X38906Y-21049D01*
X38906Y-20470D01*
X38901Y-20441D01*
X38890Y-20415D01*
X38874Y-20391D01*
X38853Y-20370D01*
X38829Y-20354D01*
X38803Y-20343D01*
X38774Y-20337D01*
X38745Y-20337D01*
X38570Y-20337D01*
X38533Y-20374D01*
X38533Y-20710D01*
X38869Y-20710D01*
X38906Y-20673D01*
X38906Y-20470D01*
X38906Y-21049D01*
X38906Y-20845D01*
X38869Y-20809D01*
X38533Y-20809D01*
X38533Y-21145D01*
X38570Y-21182D01*
X38745Y-21182D01*
X38774Y-21182D01*
X38803Y-21176D01*
X38829Y-21165D01*
X38853Y-21149D01*
X38874Y-21128D01*
X38890Y-21104D01*
X38901Y-21077D01*
X38906Y-21049D01*
X38906Y-21210D01*
X38435Y-21210D01*
X38435Y-21145D01*
X38435Y-20809D01*
X38435Y-20710D01*
X38435Y-20374D01*
X38398Y-20337D01*
X38222Y-20337D01*
X38193Y-20337D01*
X38165Y-20343D01*
X38138Y-20354D01*
X38114Y-20370D01*
X38094Y-20391D01*
X38078Y-20415D01*
X38067Y-20441D01*
X38061Y-20470D01*
X38061Y-20673D01*
X38098Y-20710D01*
X38435Y-20710D01*
X38435Y-20809D01*
X38098Y-20809D01*
X38061Y-20845D01*
X38061Y-21049D01*
X38067Y-21077D01*
X38078Y-21104D01*
X38094Y-21128D01*
X38114Y-21149D01*
X38138Y-21165D01*
X38165Y-21176D01*
X38193Y-21182D01*
X38222Y-21182D01*
X38398Y-21182D01*
X38435Y-21145D01*
X38435Y-21210D01*
X31426Y-21210D01*
X31426Y-21049D01*
X31426Y-20470D01*
X31420Y-20441D01*
X31409Y-20415D01*
X31393Y-20391D01*
X31373Y-20370D01*
X31349Y-20354D01*
X31322Y-20343D01*
X31294Y-20337D01*
X31265Y-20337D01*
X31090Y-20337D01*
X31053Y-20374D01*
X31053Y-20710D01*
X31389Y-20710D01*
X31426Y-20673D01*
X31426Y-20470D01*
X31426Y-21049D01*
X31426Y-20845D01*
X31389Y-20809D01*
X31053Y-20809D01*
X31053Y-21145D01*
X31090Y-21182D01*
X31265Y-21182D01*
X31294Y-21182D01*
X31322Y-21176D01*
X31349Y-21165D01*
X31373Y-21149D01*
X31393Y-21128D01*
X31409Y-21104D01*
X31420Y-21077D01*
X31426Y-21049D01*
X31426Y-21210D01*
X30954Y-21210D01*
X30954Y-21145D01*
X30954Y-20809D01*
X30954Y-20710D01*
X30954Y-20374D01*
X30917Y-20337D01*
X30742Y-20337D01*
X30713Y-20337D01*
X30685Y-20343D01*
X30658Y-20354D01*
X30634Y-20370D01*
X30613Y-20391D01*
X30597Y-20415D01*
X30586Y-20441D01*
X30581Y-20470D01*
X30581Y-20673D01*
X30618Y-20710D01*
X30954Y-20710D01*
X30954Y-20809D01*
X30618Y-20809D01*
X30581Y-20845D01*
X30581Y-21049D01*
X30586Y-21077D01*
X30597Y-21104D01*
X30613Y-21128D01*
X30634Y-21149D01*
X30658Y-21165D01*
X30685Y-21176D01*
X30713Y-21182D01*
X30742Y-21182D01*
X30917Y-21182D01*
X30954Y-21145D01*
X30954Y-21210D01*
X30462Y-21210D01*
X30462Y-18159D01*
X34107Y-18159D01*
X34109Y-18161D01*
X34153Y-18191D01*
X34202Y-18213D01*
X34254Y-18224D01*
X34307Y-18225D01*
X34360Y-18216D01*
X34410Y-18197D01*
X34455Y-18168D01*
X34465Y-18159D01*
X38927Y-18159D01*
X38927Y-21210D01*
M02*
