G04 (created by PCBNEW (2012-11-23 BZR 3812)-testing) date Sun 25 Nov 2012 03:49:25 PM CET*
%MOIN*%
G04 Gerber Fmt 3.4, Leading zero omitted, Abs format*
%FSLAX34Y34*%
G01*
G70*
G90*
G04 APERTURE LIST*
%ADD10C,3.14961e-06*%
%ADD11R,0.055X0.055*%
%ADD12C,0.055*%
%ADD13R,0.149606X0.0472441*%
%ADD14R,0.0629X0.0393*%
%ADD15R,0.244X0.2125*%
%ADD16R,0.06X0.06*%
%ADD17C,0.06*%
%ADD18R,0.0511X0.059*%
%ADD19R,0.059X0.0511*%
%ADD20R,0.0866X0.0236*%
%ADD21C,0.025*%
%ADD22C,0.008*%
%ADD23C,0.00984252*%
G04 APERTURE END LIST*
G54D10*
G54D11*
X37929Y-14685D03*
G54D12*
X36929Y-14685D03*
X35929Y-14685D03*
G54D13*
X31102Y-17263D03*
X31102Y-18208D03*
X31102Y-19153D03*
G54D14*
X37125Y-22058D03*
X37125Y-20264D03*
G54D15*
X34252Y-21161D03*
G54D16*
X32889Y-14263D03*
G54D17*
X32889Y-15263D03*
X31889Y-14263D03*
X31889Y-15263D03*
X30889Y-14263D03*
X30889Y-15263D03*
G54D18*
X35118Y-16338D03*
X34370Y-16338D03*
G54D19*
X32185Y-20098D03*
X32185Y-20846D03*
G54D18*
X36889Y-16338D03*
X36141Y-16338D03*
X38661Y-16338D03*
X37913Y-16338D03*
X33346Y-16338D03*
X32598Y-16338D03*
G54D20*
X33032Y-17458D03*
X33032Y-17958D03*
X33032Y-18458D03*
X33032Y-18958D03*
X35078Y-18958D03*
X35078Y-18458D03*
X35078Y-17958D03*
X35078Y-17458D03*
X36477Y-17458D03*
X36477Y-17958D03*
X36477Y-18458D03*
X36477Y-18958D03*
X38523Y-18958D03*
X38523Y-18458D03*
X38523Y-17958D03*
X38523Y-17458D03*
G54D11*
X31003Y-20759D03*
G54D12*
X31003Y-21759D03*
G54D11*
X38484Y-20759D03*
G54D12*
X38484Y-21759D03*
G54D21*
X34286Y-17952D03*
X38681Y-16338D03*
G54D22*
X35078Y-18458D02*
X35683Y-18458D01*
X37929Y-15259D02*
X37929Y-14685D01*
X37482Y-15706D02*
X37929Y-15259D01*
X37482Y-18816D02*
X37482Y-15706D01*
X36968Y-19330D02*
X37482Y-18816D01*
X35866Y-19330D02*
X36968Y-19330D01*
X35787Y-19251D02*
X35866Y-19330D01*
X35787Y-18562D02*
X35787Y-19251D01*
X35683Y-18458D02*
X35787Y-18562D01*
X33570Y-14003D02*
X33582Y-14015D01*
X37401Y-14015D02*
X37755Y-14015D01*
X33582Y-14015D02*
X37401Y-14015D01*
X37755Y-14015D02*
X37929Y-14188D01*
X37929Y-14188D02*
X37929Y-14685D01*
X32889Y-14263D02*
X33309Y-14263D01*
X33573Y-14000D02*
X33570Y-14003D01*
X33570Y-14003D02*
X33309Y-14263D01*
X32185Y-20098D02*
X32185Y-19685D01*
X32480Y-19389D02*
X34093Y-19389D01*
X34093Y-19389D02*
X34286Y-19196D01*
X34525Y-18958D02*
X34286Y-19196D01*
X34525Y-18958D02*
X35078Y-18958D01*
X32185Y-19685D02*
X32480Y-19389D01*
X32185Y-20098D02*
X30236Y-20098D01*
X30216Y-20078D02*
X29992Y-19854D01*
X30236Y-20098D02*
X30216Y-20078D01*
X29992Y-19854D02*
X29992Y-19462D01*
X31389Y-14763D02*
X31889Y-15263D01*
X30694Y-14763D02*
X31389Y-14763D01*
X29992Y-15466D02*
X30694Y-14763D01*
X29992Y-19462D02*
X29992Y-15466D01*
X34370Y-16338D02*
X34182Y-16338D01*
X31149Y-14263D02*
X30889Y-14263D01*
X31649Y-14763D02*
X31149Y-14263D01*
X32181Y-14763D02*
X31649Y-14763D01*
X32408Y-14990D02*
X32181Y-14763D01*
X32408Y-15581D02*
X32408Y-14990D01*
X32607Y-15780D02*
X32408Y-15581D01*
X33624Y-15780D02*
X32607Y-15780D01*
X34182Y-16338D02*
X33624Y-15780D01*
X33880Y-16640D02*
X34182Y-16338D01*
X33880Y-17458D02*
X33880Y-16640D01*
X33032Y-17458D02*
X33880Y-17458D01*
X35078Y-17958D02*
X34292Y-17958D01*
X34292Y-17958D02*
X34286Y-17952D01*
X38523Y-17458D02*
X38523Y-16476D01*
X38523Y-16476D02*
X38661Y-16338D01*
X38681Y-16338D02*
X38661Y-16338D01*
X31102Y-17263D02*
X31929Y-17263D01*
X32185Y-17519D02*
X32185Y-17814D01*
X32185Y-17814D02*
X32328Y-17958D01*
X32328Y-17958D02*
X33032Y-17958D01*
X31929Y-17263D02*
X32185Y-17519D01*
X31102Y-19153D02*
X31929Y-19153D01*
X32185Y-18897D02*
X32185Y-18602D01*
X32185Y-18602D02*
X32328Y-18458D01*
X32328Y-18458D02*
X33032Y-18458D01*
X31929Y-19153D02*
X32185Y-18897D01*
X32912Y-21934D02*
X32912Y-21161D01*
X32738Y-22107D02*
X32912Y-21934D01*
X31352Y-22107D02*
X32738Y-22107D01*
X31003Y-21759D02*
X31352Y-22107D01*
X34252Y-21161D02*
X32912Y-21161D01*
X37322Y-15795D02*
X36929Y-15401D01*
X37322Y-15795D02*
X37322Y-17795D01*
X37322Y-17795D02*
X37159Y-17958D01*
X36477Y-17958D02*
X37159Y-17958D01*
X36929Y-15401D02*
X36929Y-14685D01*
X36614Y-15157D02*
X36929Y-14842D01*
X36929Y-14842D02*
X36929Y-14685D01*
X36141Y-16338D02*
X36141Y-15629D01*
X36141Y-15629D02*
X36614Y-15157D01*
X36477Y-17958D02*
X36477Y-18458D01*
X33032Y-18958D02*
X33797Y-18958D01*
X33858Y-18897D02*
X33858Y-18208D01*
X33797Y-18958D02*
X33858Y-18897D01*
X32598Y-16338D02*
X32222Y-16338D01*
X30889Y-15263D02*
X30889Y-16338D01*
X30469Y-16338D02*
X30889Y-16338D01*
X30155Y-16652D02*
X30469Y-16338D01*
X30155Y-18208D02*
X30155Y-16652D01*
X30889Y-16338D02*
X32222Y-16338D01*
X31102Y-18208D02*
X30155Y-18208D01*
X31102Y-18208D02*
X31872Y-18208D01*
X33585Y-18208D02*
X31872Y-18208D01*
X36477Y-18458D02*
X36407Y-18458D01*
X36173Y-18458D02*
X35923Y-18208D01*
X36407Y-18458D02*
X36173Y-18458D01*
X35923Y-18208D02*
X33858Y-18208D01*
X33858Y-18208D02*
X33585Y-18208D01*
X38523Y-17958D02*
X37879Y-17958D01*
X37736Y-16515D02*
X37913Y-16338D01*
X37736Y-17814D02*
X37736Y-16515D01*
X37879Y-17958D02*
X37736Y-17814D01*
X37125Y-20264D02*
X37125Y-20806D01*
X38078Y-21759D02*
X38484Y-21759D01*
X37125Y-20806D02*
X38078Y-21759D01*
X37125Y-19410D02*
X38076Y-18458D01*
X38246Y-18458D02*
X38076Y-18458D01*
X37125Y-20264D02*
X37125Y-19410D01*
X38246Y-18458D02*
X38246Y-17958D01*
X38522Y-17958D02*
X38246Y-17958D01*
X38522Y-18458D02*
X38246Y-18458D01*
X32185Y-20846D02*
X32598Y-20846D01*
X36625Y-22058D02*
X37125Y-22058D01*
X36220Y-21653D02*
X36625Y-22058D01*
X36220Y-20078D02*
X36220Y-21653D01*
X35728Y-19586D02*
X36220Y-20078D01*
X32775Y-19586D02*
X35728Y-19586D01*
X32677Y-19685D02*
X32775Y-19586D01*
X32677Y-20767D02*
X32677Y-19685D01*
X32598Y-20846D02*
X32677Y-20767D01*
X35118Y-15358D02*
X35791Y-14685D01*
X35791Y-14685D02*
X35929Y-14685D01*
X32381Y-17224D02*
X32381Y-17547D01*
X32381Y-17224D02*
X32480Y-17125D01*
X32480Y-17125D02*
X33169Y-17125D01*
X33169Y-17125D02*
X33346Y-16948D01*
X33346Y-16338D02*
X33346Y-16948D01*
X32531Y-17696D02*
X32381Y-17547D01*
X34286Y-17696D02*
X32531Y-17696D01*
X34525Y-17458D02*
X34286Y-17696D01*
X34871Y-17458D02*
X35078Y-17458D01*
X34871Y-17458D02*
X34525Y-17458D01*
X36515Y-17224D02*
X36811Y-16929D01*
X36515Y-17419D02*
X36515Y-17224D01*
X36477Y-17458D02*
X36515Y-17419D01*
X36811Y-16417D02*
X36889Y-16338D01*
X36811Y-16929D02*
X36811Y-16417D01*
X35078Y-17458D02*
X36477Y-17458D01*
X35078Y-17458D02*
X35078Y-16378D01*
X35078Y-16378D02*
X35118Y-16338D01*
X32984Y-15358D02*
X32889Y-15263D01*
X35118Y-15358D02*
X32984Y-15358D01*
X35118Y-16338D02*
X35118Y-15358D01*
G54D23*
X32923Y-19774D02*
X35650Y-19774D01*
X32923Y-19852D02*
X35679Y-19852D01*
X32923Y-19931D02*
X35679Y-19931D01*
X32923Y-20009D02*
X35679Y-20009D01*
X32923Y-20087D02*
X35679Y-20087D01*
X32923Y-20166D02*
X35679Y-20166D01*
X32923Y-20244D02*
X35679Y-20244D01*
X32923Y-20323D02*
X35679Y-20323D01*
X32923Y-20401D02*
X35679Y-20401D01*
X32923Y-20480D02*
X35679Y-20480D01*
X32923Y-20558D02*
X35679Y-20558D01*
X32923Y-20636D02*
X35679Y-20636D01*
X32923Y-20715D02*
X35679Y-20715D01*
X32923Y-20793D02*
X35679Y-20793D01*
X32923Y-20872D02*
X35679Y-20872D01*
X32923Y-20950D02*
X35679Y-20950D01*
X32923Y-21029D02*
X35679Y-21029D01*
X32923Y-21107D02*
X35679Y-21107D01*
X32923Y-21185D02*
X35679Y-21185D01*
X32917Y-21264D02*
X35679Y-21264D01*
X32876Y-21342D02*
X35679Y-21342D01*
X30504Y-21421D02*
X30781Y-21421D01*
X31226Y-21421D02*
X35679Y-21421D01*
X30462Y-21499D02*
X30813Y-21499D01*
X31194Y-21499D02*
X35679Y-21499D01*
X30462Y-21578D02*
X30622Y-21578D01*
X30752Y-21578D02*
X30891Y-21578D01*
X31116Y-21578D02*
X31255Y-21578D01*
X31386Y-21578D02*
X35679Y-21578D01*
X30462Y-21656D02*
X30593Y-21656D01*
X30830Y-21656D02*
X30970Y-21656D01*
X31037Y-21656D02*
X31176Y-21656D01*
X31414Y-21656D02*
X35679Y-21656D01*
X30462Y-21734D02*
X30581Y-21734D01*
X30909Y-21734D02*
X31098Y-21734D01*
X31427Y-21734D02*
X31427Y-21734D01*
X31427Y-21734D02*
X35679Y-21734D01*
X30462Y-21813D02*
X30584Y-21813D01*
X30880Y-21813D02*
X30934Y-21813D01*
X30934Y-21813D02*
X31126Y-21813D01*
X31425Y-21813D02*
X31427Y-21813D01*
X31427Y-21813D02*
X35679Y-21813D01*
X30462Y-21891D02*
X30601Y-21891D01*
X30802Y-21891D02*
X30934Y-21891D01*
X30934Y-21891D02*
X30941Y-21891D01*
X31066Y-21891D02*
X31205Y-21891D01*
X31407Y-21891D02*
X31427Y-21891D01*
X31427Y-21891D02*
X35679Y-21891D01*
X30462Y-21970D02*
X30638Y-21970D01*
X30724Y-21970D02*
X30863Y-21970D01*
X31144Y-21970D02*
X31283Y-21970D01*
X31369Y-21970D02*
X31427Y-21970D01*
X31427Y-21970D02*
X35679Y-21970D01*
X30462Y-22048D02*
X30784Y-22048D01*
X31223Y-22048D02*
X31427Y-22048D01*
X31427Y-22048D02*
X35679Y-22048D01*
X30462Y-22127D02*
X30794Y-22127D01*
X31213Y-22127D02*
X31241Y-22127D01*
X31241Y-22127D02*
X31427Y-22127D01*
X31427Y-22127D02*
X35679Y-22127D01*
X30462Y-22205D02*
X31241Y-22205D01*
X31241Y-22205D02*
X31427Y-22205D01*
X31427Y-22205D02*
X35679Y-22205D01*
X30462Y-22283D02*
X31241Y-22283D01*
X31241Y-22283D02*
X31427Y-22283D01*
X31427Y-22283D02*
X35679Y-22283D01*
X30462Y-22362D02*
X31241Y-22362D01*
X31241Y-22362D02*
X31427Y-22362D01*
X31427Y-22362D02*
X35679Y-22362D01*
X30462Y-22440D02*
X31241Y-22440D01*
X31241Y-22440D02*
X31427Y-22440D01*
X31427Y-22440D02*
X35679Y-22440D01*
X30462Y-22519D02*
X31241Y-22519D01*
X31241Y-22519D02*
X31427Y-22519D01*
X31427Y-22519D02*
X35679Y-22519D01*
X30462Y-22597D02*
X31241Y-22597D01*
X31241Y-22597D02*
X31427Y-22597D01*
X31427Y-22597D02*
X35679Y-22597D01*
X30462Y-22675D02*
X31241Y-22675D01*
X31241Y-22675D02*
X31427Y-22675D01*
X31427Y-22675D02*
X35679Y-22675D01*
X30484Y-22754D02*
X31241Y-22754D01*
X31241Y-22754D02*
X31427Y-22754D01*
X31427Y-22754D02*
X35657Y-22754D01*
X35679Y-22694D02*
X35677Y-22714D01*
X35672Y-22730D01*
X35664Y-22745D01*
X35653Y-22759D01*
X35639Y-22770D01*
X35624Y-22778D01*
X35607Y-22783D01*
X35588Y-22785D01*
X31427Y-22785D01*
X31427Y-21728D01*
X31413Y-21646D01*
X31383Y-21569D01*
X31374Y-21551D01*
X31310Y-21522D01*
X31073Y-21759D01*
X31310Y-21997D01*
X31374Y-21967D01*
X31407Y-21892D01*
X31425Y-21811D01*
X31427Y-21728D01*
X31427Y-22785D01*
X31241Y-22785D01*
X31241Y-22066D01*
X31003Y-21829D01*
X30934Y-21899D01*
X30934Y-21759D01*
X30697Y-21522D01*
X30633Y-21551D01*
X30600Y-21627D01*
X30582Y-21708D01*
X30580Y-21791D01*
X30594Y-21873D01*
X30624Y-21950D01*
X30633Y-21967D01*
X30697Y-21997D01*
X30934Y-21759D01*
X30934Y-21899D01*
X30766Y-22066D01*
X30795Y-22130D01*
X30871Y-22163D01*
X30952Y-22181D01*
X31035Y-22183D01*
X31117Y-22169D01*
X31194Y-22139D01*
X31212Y-22130D01*
X31241Y-22066D01*
X31241Y-22785D01*
X30553Y-22785D01*
X30533Y-22783D01*
X30517Y-22778D01*
X30502Y-22770D01*
X30488Y-22759D01*
X30477Y-22745D01*
X30469Y-22730D01*
X30464Y-22714D01*
X30462Y-22694D01*
X30462Y-21498D01*
X30464Y-21478D01*
X30469Y-21462D01*
X30477Y-21446D01*
X30488Y-21433D01*
X30502Y-21422D01*
X30517Y-21414D01*
X30533Y-21409D01*
X30553Y-21407D01*
X30787Y-21407D01*
X30766Y-21453D01*
X31003Y-21690D01*
X31241Y-21453D01*
X31220Y-21407D01*
X32738Y-21407D01*
X32772Y-21404D01*
X32807Y-21393D01*
X32840Y-21376D01*
X32868Y-21352D01*
X32891Y-21324D01*
X32909Y-21292D01*
X32919Y-21257D01*
X32923Y-21222D01*
X32923Y-19774D01*
X35650Y-19774D01*
X35679Y-19802D01*
X35679Y-22694D01*
X36655Y-19931D02*
X39131Y-19931D01*
X36566Y-20009D02*
X39221Y-20009D01*
X36564Y-20087D02*
X39222Y-20087D01*
X36564Y-20166D02*
X39222Y-20166D01*
X36564Y-20244D02*
X39222Y-20244D01*
X36564Y-20323D02*
X39222Y-20323D01*
X36564Y-20401D02*
X38087Y-20401D01*
X38881Y-20401D02*
X39222Y-20401D01*
X36564Y-20480D02*
X38061Y-20480D01*
X38906Y-20480D02*
X39222Y-20480D01*
X36564Y-20558D02*
X38061Y-20558D01*
X38906Y-20558D02*
X39222Y-20558D01*
X36564Y-20636D02*
X38061Y-20636D01*
X38906Y-20636D02*
X39222Y-20636D01*
X36564Y-20715D02*
X38061Y-20715D01*
X38906Y-20715D02*
X39222Y-20715D01*
X36564Y-20793D02*
X38061Y-20793D01*
X38906Y-20793D02*
X39222Y-20793D01*
X36564Y-20872D02*
X38061Y-20872D01*
X38906Y-20872D02*
X39222Y-20872D01*
X36564Y-20950D02*
X38061Y-20950D01*
X38906Y-20950D02*
X39222Y-20950D01*
X36564Y-21029D02*
X38061Y-21029D01*
X38906Y-21029D02*
X38906Y-21029D01*
X38906Y-21029D02*
X39222Y-21029D01*
X36564Y-21107D02*
X38080Y-21107D01*
X38888Y-21107D02*
X38906Y-21107D01*
X38906Y-21107D02*
X39222Y-21107D01*
X36564Y-21185D02*
X38906Y-21185D01*
X38906Y-21185D02*
X39222Y-21185D01*
X36564Y-21264D02*
X38906Y-21264D01*
X38906Y-21264D02*
X39222Y-21264D01*
X36564Y-21342D02*
X38415Y-21342D01*
X38555Y-21342D02*
X38906Y-21342D01*
X38906Y-21342D02*
X39222Y-21342D01*
X36565Y-21421D02*
X38261Y-21421D01*
X38706Y-21421D02*
X38906Y-21421D01*
X38906Y-21421D02*
X39222Y-21421D01*
X36621Y-21499D02*
X38293Y-21499D01*
X38674Y-21499D02*
X38721Y-21499D01*
X38721Y-21499D02*
X38906Y-21499D01*
X38906Y-21499D02*
X39222Y-21499D01*
X37607Y-21578D02*
X38102Y-21578D01*
X38232Y-21578D02*
X38372Y-21578D01*
X38596Y-21578D02*
X38721Y-21578D01*
X38721Y-21578D02*
X38735Y-21578D01*
X38867Y-21578D02*
X38906Y-21578D01*
X38906Y-21578D02*
X39222Y-21578D01*
X37644Y-21656D02*
X38074Y-21656D01*
X38311Y-21656D02*
X38450Y-21656D01*
X38518Y-21656D02*
X38657Y-21656D01*
X38895Y-21656D02*
X38906Y-21656D01*
X38906Y-21656D02*
X39222Y-21656D01*
X37647Y-21734D02*
X38062Y-21734D01*
X38389Y-21734D02*
X38578Y-21734D01*
X38907Y-21734D02*
X38907Y-21734D01*
X38907Y-21734D02*
X39222Y-21734D01*
X37647Y-21813D02*
X38064Y-21813D01*
X38361Y-21813D02*
X38414Y-21813D01*
X38414Y-21813D02*
X38607Y-21813D01*
X38905Y-21813D02*
X38907Y-21813D01*
X38907Y-21813D02*
X39222Y-21813D01*
X37647Y-21891D02*
X38082Y-21891D01*
X38282Y-21891D02*
X38414Y-21891D01*
X38414Y-21891D02*
X38421Y-21891D01*
X38546Y-21891D02*
X38685Y-21891D01*
X38887Y-21891D02*
X38907Y-21891D01*
X38907Y-21891D02*
X39222Y-21891D01*
X37647Y-21970D02*
X38118Y-21970D01*
X38204Y-21970D02*
X38343Y-21970D01*
X38624Y-21970D02*
X38764Y-21970D01*
X38849Y-21970D02*
X38907Y-21970D01*
X38907Y-21970D02*
X39222Y-21970D01*
X37647Y-22048D02*
X38265Y-22048D01*
X38703Y-22048D02*
X38907Y-22048D01*
X38907Y-22048D02*
X39222Y-22048D01*
X37647Y-22127D02*
X38274Y-22127D01*
X38693Y-22127D02*
X38721Y-22127D01*
X38721Y-22127D02*
X38907Y-22127D01*
X38907Y-22127D02*
X39222Y-22127D01*
X37647Y-22205D02*
X38721Y-22205D01*
X38721Y-22205D02*
X38907Y-22205D01*
X38907Y-22205D02*
X39222Y-22205D01*
X37697Y-22283D02*
X38721Y-22283D01*
X38721Y-22283D02*
X38907Y-22283D01*
X38907Y-22283D02*
X39172Y-22283D01*
X39222Y-22202D02*
X39220Y-22221D01*
X39215Y-22238D01*
X39207Y-22253D01*
X39196Y-22267D01*
X39182Y-22278D01*
X39167Y-22286D01*
X39151Y-22291D01*
X39131Y-22293D01*
X38907Y-22293D01*
X38907Y-21728D01*
X38906Y-21723D01*
X38906Y-21021D01*
X38906Y-20470D01*
X38901Y-20441D01*
X38890Y-20415D01*
X38874Y-20391D01*
X38853Y-20370D01*
X38829Y-20354D01*
X38803Y-20343D01*
X38774Y-20337D01*
X38745Y-20337D01*
X38194Y-20337D01*
X38166Y-20342D01*
X38139Y-20353D01*
X38115Y-20369D01*
X38094Y-20390D01*
X38078Y-20414D01*
X38067Y-20440D01*
X38061Y-20469D01*
X38061Y-20498D01*
X38061Y-21049D01*
X38067Y-21077D01*
X38078Y-21104D01*
X38094Y-21128D01*
X38114Y-21149D01*
X38138Y-21165D01*
X38165Y-21176D01*
X38193Y-21182D01*
X38222Y-21182D01*
X38773Y-21182D01*
X38802Y-21176D01*
X38828Y-21165D01*
X38853Y-21149D01*
X38873Y-21129D01*
X38889Y-21105D01*
X38900Y-21078D01*
X38906Y-21050D01*
X38906Y-21021D01*
X38906Y-21723D01*
X38893Y-21646D01*
X38863Y-21569D01*
X38854Y-21551D01*
X38791Y-21522D01*
X38721Y-21592D01*
X38721Y-21453D01*
X38692Y-21389D01*
X38616Y-21356D01*
X38535Y-21338D01*
X38452Y-21336D01*
X38371Y-21350D01*
X38293Y-21380D01*
X38276Y-21389D01*
X38247Y-21453D01*
X38484Y-21690D01*
X38721Y-21453D01*
X38721Y-21592D01*
X38553Y-21759D01*
X38791Y-21997D01*
X38854Y-21967D01*
X38887Y-21892D01*
X38905Y-21811D01*
X38907Y-21728D01*
X38907Y-22293D01*
X38721Y-22293D01*
X38721Y-22066D01*
X38484Y-21829D01*
X38414Y-21899D01*
X38414Y-21759D01*
X38177Y-21522D01*
X38114Y-21551D01*
X38080Y-21627D01*
X38062Y-21708D01*
X38060Y-21791D01*
X38074Y-21873D01*
X38104Y-21950D01*
X38114Y-21967D01*
X38177Y-21997D01*
X38414Y-21759D01*
X38414Y-21899D01*
X38247Y-22066D01*
X38276Y-22130D01*
X38351Y-22163D01*
X38432Y-22181D01*
X38515Y-22183D01*
X38597Y-22169D01*
X38674Y-22139D01*
X38692Y-22130D01*
X38721Y-22066D01*
X38721Y-22293D01*
X37738Y-22293D01*
X37718Y-22291D01*
X37702Y-22286D01*
X37687Y-22278D01*
X37673Y-22267D01*
X37662Y-22253D01*
X37654Y-22238D01*
X37649Y-22221D01*
X37647Y-22202D01*
X37647Y-21690D01*
X37644Y-21656D01*
X37633Y-21621D01*
X37616Y-21588D01*
X37593Y-21560D01*
X37564Y-21537D01*
X37532Y-21519D01*
X37497Y-21509D01*
X37463Y-21505D01*
X36655Y-21505D01*
X36636Y-21503D01*
X36619Y-21498D01*
X36604Y-21490D01*
X36591Y-21479D01*
X36580Y-21466D01*
X36571Y-21451D01*
X36566Y-21434D01*
X36564Y-21414D01*
X36564Y-20022D01*
X36566Y-20002D01*
X36571Y-19985D01*
X36580Y-19970D01*
X36591Y-19957D01*
X36604Y-19946D01*
X36619Y-19938D01*
X36636Y-19933D01*
X36655Y-19931D01*
X39131Y-19931D01*
X39151Y-19933D01*
X39167Y-19938D01*
X39182Y-19946D01*
X39196Y-19957D01*
X39207Y-19970D01*
X39215Y-19985D01*
X39220Y-20002D01*
X39222Y-20022D01*
X39222Y-22202D01*
M02*
