M48
INCH,TZ
T1C0.013
T2C0.032
T3C0.040
T4C0.049
%
G90
G05
T1
X032579Y-019724
X032579Y-020118
X032776Y-019921
X032776Y-020315
X032972Y-019724
X032972Y-020118
X033169Y-019921
X033169Y-020315
X033366Y-019724
X033366Y-020118
X033563Y-019921
X033563Y-020315
X033760Y-019724
X033760Y-020118
X033957Y-019921
X033957Y-020315
X034154Y-019724
X034154Y-020118
X034350Y-019921
X034350Y-020315
X034547Y-019724
X034547Y-020118
X034567Y-013445
X034744Y-019921
X034744Y-020315
X034921Y-013957
X034941Y-019724
X034941Y-020118
X038937Y-016142
T2
X036067Y-014488
X037067Y-014488
X038067Y-014488
T3
X031028Y-014067
X031028Y-015067
X032028Y-014067
X032028Y-015067
X033028Y-014067
X033028Y-015067
T4
X030787Y-020563
X030787Y-021563
X038878Y-020563
X038878Y-021563
T0
M30
