M48
INCH,TZ
T1C0.013
T2C0.032
T3C0.040
T4C0.049
%
G90
G05
T1
X030315Y-016339
X030965Y-017972
X032874Y-019783
X032874Y-020177
X033268Y-019783
X033268Y-020177
X033445Y-015453
X033445Y-016142
X033661Y-019783
X033661Y-020177
X034055Y-019783
X034055Y-020177
X034173Y-014429
X034173Y-014961
X034449Y-016850
X034449Y-019783
X034449Y-020177
X034843Y-019783
X034843Y-020177
X034980Y-016870
X036870Y-017381
X037992Y-019390
X038543Y-017480
T2
X036894Y-015256
X037894Y-015256
X038894Y-015256
T3
X030870Y-014795
X030870Y-015795
X031870Y-014795
X031870Y-015795
X032870Y-014795
X032870Y-015795
T4
X030787Y-020563
X030787Y-021563
X038878Y-020563
X038878Y-021563
T0
M30
