G04 (created by PCBNEW (2012-11-23 BZR 3812)-testing) date Tue 27 Nov 2012 03:27:19 PM CET*
%MOIN*%
G04 Gerber Fmt 3.4, Leading zero omitted, Abs format*
%FSLAX34Y34*%
G01*
G70*
G90*
G04 APERTURE LIST*
%ADD10C,3.14961e-06*%
%ADD11C,0.015*%
%ADD12R,0.11811X0.0787402*%
%ADD13O,0.11811X0.0787402*%
%ADD14R,0.055X0.055*%
%ADD15C,0.055*%
%ADD16R,0.06X0.06*%
%ADD17C,0.06*%
%ADD18R,0.0511X0.059*%
%ADD19R,0.0866X0.0236*%
%ADD20R,0.0984252X0.0590551*%
%ADD21R,0.275591X0.275591*%
%ADD22R,0.0393X0.0433*%
%ADD23R,0.149606X0.0472441*%
%ADD24R,0.149606X0.0551181*%
%ADD25C,0.025*%
%ADD26C,0.008*%
%ADD27C,0.00984252*%
G04 APERTURE END LIST*
G54D10*
G54D11*
X29783Y-23031D02*
X29783Y-13188D01*
X39625Y-23031D02*
X29783Y-23031D01*
X39625Y-13188D02*
X39625Y-23031D01*
X29783Y-13188D02*
X39625Y-13188D01*
G54D12*
X38484Y-21759D03*
G54D13*
X38484Y-20759D03*
G54D12*
X30649Y-21759D03*
G54D13*
X30649Y-20759D03*
G54D14*
X37929Y-14685D03*
G54D15*
X36929Y-14685D03*
X35929Y-14685D03*
G54D16*
X32889Y-14263D03*
G54D17*
X32889Y-15263D03*
X31889Y-14263D03*
X31889Y-15263D03*
X30889Y-14263D03*
X30889Y-15263D03*
G54D18*
X35118Y-16338D03*
X34370Y-16338D03*
X36889Y-16338D03*
X36141Y-16338D03*
X38661Y-16338D03*
X37913Y-16338D03*
X33346Y-16338D03*
X32598Y-16338D03*
G54D19*
X33032Y-17458D03*
X33032Y-17958D03*
X33032Y-18458D03*
X33032Y-18958D03*
X35078Y-18958D03*
X35078Y-18458D03*
X35078Y-17958D03*
X35078Y-17458D03*
X36477Y-17458D03*
X36477Y-17958D03*
X36477Y-18458D03*
X36477Y-18958D03*
X38523Y-18958D03*
X38523Y-18458D03*
X38523Y-17958D03*
X38523Y-17458D03*
G54D20*
X36574Y-22007D03*
X36574Y-20196D03*
G54D21*
X33858Y-21102D03*
G54D22*
X36339Y-21102D03*
X37007Y-21102D03*
G54D23*
X31102Y-17224D03*
G54D24*
X31102Y-18208D03*
G54D23*
X31102Y-19192D03*
G54D25*
X34286Y-17952D03*
X38681Y-16338D03*
X32834Y-19980D03*
X33326Y-19980D03*
X33818Y-19980D03*
X34311Y-19980D03*
X34803Y-19980D03*
X34803Y-20472D03*
X34311Y-20472D03*
X33818Y-20472D03*
X33326Y-20472D03*
X32834Y-20472D03*
G54D26*
X35078Y-18458D02*
X35683Y-18458D01*
X37929Y-15259D02*
X37929Y-14685D01*
X37482Y-15706D02*
X37929Y-15259D01*
X37482Y-18816D02*
X37482Y-15706D01*
X36968Y-19330D02*
X37482Y-18816D01*
X35866Y-19330D02*
X36968Y-19330D01*
X35787Y-19251D02*
X35866Y-19330D01*
X35787Y-18562D02*
X35787Y-19251D01*
X35683Y-18458D02*
X35787Y-18562D01*
X33570Y-14003D02*
X33582Y-14015D01*
X37401Y-14015D02*
X37755Y-14015D01*
X33582Y-14015D02*
X37401Y-14015D01*
X37755Y-14015D02*
X37929Y-14188D01*
X37929Y-14188D02*
X37929Y-14685D01*
X32889Y-14263D02*
X33309Y-14263D01*
X33573Y-14000D02*
X33570Y-14003D01*
X33570Y-14003D02*
X33309Y-14263D01*
X35078Y-18958D02*
X35078Y-19172D01*
X35885Y-21102D02*
X36339Y-21102D01*
X35649Y-20866D02*
X35885Y-21102D01*
X35649Y-19606D02*
X35649Y-20866D01*
X35492Y-19448D02*
X35649Y-19606D01*
X35354Y-19448D02*
X35492Y-19448D01*
X35078Y-19172D02*
X35354Y-19448D01*
X29992Y-15466D02*
X29992Y-19559D01*
X29992Y-15466D02*
X30694Y-14763D01*
X30694Y-14763D02*
X31389Y-14763D01*
X31889Y-15263D02*
X31389Y-14763D01*
X32185Y-19685D02*
X32480Y-19389D01*
X34525Y-18958D02*
X35078Y-18958D01*
X34525Y-18958D02*
X34286Y-19196D01*
X34093Y-19389D02*
X34286Y-19196D01*
X32480Y-19389D02*
X34093Y-19389D01*
X30118Y-19685D02*
X32185Y-19685D01*
X29992Y-19559D02*
X30118Y-19685D01*
X34370Y-16338D02*
X34182Y-16338D01*
X31149Y-14263D02*
X30889Y-14263D01*
X31649Y-14763D02*
X31149Y-14263D01*
X32181Y-14763D02*
X31649Y-14763D01*
X32408Y-14990D02*
X32181Y-14763D01*
X32408Y-15581D02*
X32408Y-14990D01*
X32607Y-15780D02*
X32408Y-15581D01*
X33624Y-15780D02*
X32607Y-15780D01*
X34182Y-16338D02*
X33624Y-15780D01*
X33880Y-16640D02*
X34182Y-16338D01*
X33880Y-17458D02*
X33880Y-16640D01*
X33032Y-17458D02*
X33880Y-17458D01*
X34292Y-17958D02*
X34286Y-17952D01*
X34292Y-17958D02*
X35078Y-17958D01*
X38661Y-16338D02*
X38681Y-16338D01*
X38523Y-17458D02*
X38523Y-16476D01*
X38523Y-16476D02*
X38661Y-16338D01*
X31102Y-17263D02*
X31929Y-17263D01*
X32185Y-17519D02*
X32185Y-17814D01*
X32185Y-17814D02*
X32328Y-17958D01*
X32328Y-17958D02*
X33032Y-17958D01*
X31929Y-17263D02*
X32185Y-17519D01*
X31102Y-19153D02*
X31929Y-19153D01*
X32185Y-18897D02*
X32185Y-18602D01*
X32185Y-18602D02*
X32328Y-18458D01*
X32328Y-18458D02*
X33032Y-18458D01*
X31929Y-19153D02*
X32185Y-18897D01*
X33858Y-21102D02*
X33858Y-21102D01*
X33858Y-21102D02*
X32834Y-19980D01*
X33326Y-19980D02*
X33818Y-19980D01*
X34311Y-19980D02*
X34803Y-19980D01*
X34803Y-20472D02*
X34311Y-20472D01*
X33818Y-20472D02*
X33326Y-20472D01*
X30649Y-20759D02*
X33516Y-20759D01*
X33516Y-20759D02*
X33858Y-21102D01*
X37322Y-15795D02*
X36929Y-15401D01*
X37322Y-15795D02*
X37322Y-17795D01*
X37322Y-17795D02*
X37159Y-17958D01*
X36477Y-17958D02*
X37159Y-17958D01*
X36929Y-15401D02*
X36929Y-14685D01*
X36614Y-15157D02*
X36929Y-14842D01*
X36929Y-14842D02*
X36929Y-14685D01*
X36141Y-16338D02*
X36141Y-15629D01*
X36141Y-15629D02*
X36614Y-15157D01*
X36477Y-17958D02*
X36477Y-18458D01*
X33032Y-18958D02*
X33797Y-18958D01*
X33858Y-18897D02*
X33858Y-18208D01*
X33797Y-18958D02*
X33858Y-18897D01*
X32598Y-16338D02*
X32222Y-16338D01*
X30889Y-15263D02*
X30889Y-16338D01*
X30469Y-16338D02*
X30889Y-16338D01*
X30155Y-16652D02*
X30469Y-16338D01*
X30155Y-18208D02*
X30155Y-16652D01*
X30889Y-16338D02*
X32222Y-16338D01*
X31102Y-18208D02*
X30155Y-18208D01*
X31102Y-18208D02*
X31872Y-18208D01*
X33585Y-18208D02*
X31872Y-18208D01*
X36477Y-18458D02*
X36407Y-18458D01*
X36173Y-18458D02*
X35923Y-18208D01*
X36407Y-18458D02*
X36173Y-18458D01*
X35923Y-18208D02*
X33858Y-18208D01*
X33858Y-18208D02*
X33585Y-18208D01*
X38484Y-20759D02*
X38492Y-20767D01*
X39370Y-20472D02*
X39370Y-18602D01*
X39226Y-18458D02*
X39370Y-18602D01*
X39226Y-18458D02*
X38523Y-18458D01*
X39370Y-20669D02*
X39370Y-20472D01*
X39271Y-20767D02*
X39370Y-20669D01*
X38492Y-20767D02*
X39271Y-20767D01*
X38523Y-17958D02*
X37879Y-17958D01*
X37736Y-16515D02*
X37913Y-16338D01*
X37736Y-17814D02*
X37736Y-16515D01*
X37879Y-17958D02*
X37736Y-17814D01*
X38246Y-18458D02*
X38246Y-17958D01*
X38522Y-17958D02*
X38246Y-17958D01*
X38522Y-18458D02*
X38246Y-18458D01*
X36574Y-22007D02*
X36574Y-21614D01*
X37007Y-21477D02*
X37007Y-21102D01*
X36948Y-21535D02*
X37007Y-21477D01*
X36653Y-21535D02*
X36948Y-21535D01*
X36574Y-21614D02*
X36653Y-21535D01*
X35118Y-15358D02*
X35791Y-14685D01*
X35791Y-14685D02*
X35929Y-14685D01*
X32381Y-17224D02*
X32381Y-17547D01*
X32381Y-17224D02*
X32480Y-17125D01*
X32480Y-17125D02*
X33169Y-17125D01*
X33169Y-17125D02*
X33346Y-16948D01*
X33346Y-16338D02*
X33346Y-16948D01*
X32531Y-17696D02*
X32381Y-17547D01*
X34286Y-17696D02*
X32531Y-17696D01*
X34525Y-17458D02*
X34286Y-17696D01*
X34871Y-17458D02*
X35078Y-17458D01*
X34871Y-17458D02*
X34525Y-17458D01*
X36515Y-17224D02*
X36811Y-16929D01*
X36515Y-17419D02*
X36515Y-17224D01*
X36477Y-17458D02*
X36515Y-17419D01*
X36811Y-16417D02*
X36889Y-16338D01*
X36811Y-16929D02*
X36811Y-16417D01*
X35078Y-17458D02*
X36477Y-17458D01*
X35078Y-17458D02*
X35078Y-16378D01*
X35078Y-16378D02*
X35118Y-16338D01*
X32984Y-15358D02*
X32889Y-15263D01*
X35118Y-15358D02*
X32984Y-15358D01*
X35118Y-16338D02*
X35118Y-15358D01*
G54D27*
X36281Y-19950D02*
X38973Y-19950D01*
X36150Y-20029D02*
X39105Y-20029D01*
X36131Y-20107D02*
X39124Y-20107D01*
X36131Y-20186D02*
X39124Y-20186D01*
X36131Y-20264D02*
X39124Y-20264D01*
X36140Y-20342D02*
X39124Y-20342D01*
X36204Y-20421D02*
X39124Y-20421D01*
X37321Y-20499D02*
X39124Y-20499D01*
X37384Y-20578D02*
X39124Y-20578D01*
X37408Y-20656D02*
X39124Y-20656D01*
X37411Y-20735D02*
X39124Y-20735D01*
X37411Y-20813D02*
X39124Y-20813D01*
X37411Y-20891D02*
X39124Y-20891D01*
X37412Y-20970D02*
X39123Y-20970D01*
X37438Y-21048D02*
X39097Y-21048D01*
X39124Y-20962D02*
X39120Y-20993D01*
X39112Y-21020D01*
X39098Y-21046D01*
X39080Y-21068D01*
X39058Y-21087D01*
X39032Y-21100D01*
X39005Y-21109D01*
X38973Y-21112D01*
X37561Y-21112D01*
X37530Y-21109D01*
X37502Y-21100D01*
X37477Y-21087D01*
X37454Y-21068D01*
X37436Y-21046D01*
X37422Y-21020D01*
X37414Y-20993D01*
X37411Y-20962D01*
X37411Y-20686D01*
X37406Y-20640D01*
X37392Y-20594D01*
X37370Y-20552D01*
X37339Y-20514D01*
X37302Y-20484D01*
X37259Y-20461D01*
X37213Y-20447D01*
X37167Y-20442D01*
X36281Y-20442D01*
X36250Y-20439D01*
X36223Y-20431D01*
X36197Y-20417D01*
X36175Y-20399D01*
X36156Y-20377D01*
X36143Y-20351D01*
X36134Y-20324D01*
X36131Y-20292D01*
X36131Y-20100D01*
X36134Y-20069D01*
X36143Y-20042D01*
X36156Y-20016D01*
X36175Y-19994D01*
X36197Y-19975D01*
X36223Y-19962D01*
X36250Y-19953D01*
X36281Y-19950D01*
X38973Y-19950D01*
X39005Y-19953D01*
X39032Y-19962D01*
X39058Y-19975D01*
X39080Y-19994D01*
X39098Y-20016D01*
X39112Y-20042D01*
X39120Y-20069D01*
X39124Y-20100D01*
X39124Y-20962D01*
G54D10*
G36*
X33061Y-20962D02*
X33057Y-20993D01*
X33049Y-21020D01*
X33035Y-21046D01*
X33017Y-21068D01*
X32995Y-21087D01*
X32969Y-21100D01*
X32942Y-21109D01*
X32910Y-21112D01*
X30179Y-21112D01*
X30148Y-21109D01*
X30120Y-21100D01*
X30095Y-21087D01*
X30072Y-21068D01*
X30054Y-21046D01*
X30040Y-21020D01*
X30032Y-20993D01*
X30029Y-20962D01*
X30029Y-20100D01*
X30032Y-20069D01*
X30040Y-20042D01*
X30054Y-20016D01*
X30072Y-19994D01*
X30095Y-19975D01*
X30120Y-19962D01*
X30148Y-19953D01*
X30179Y-19950D01*
X32910Y-19950D01*
X32942Y-19953D01*
X32969Y-19962D01*
X32995Y-19975D01*
X33017Y-19994D01*
X33035Y-20016D01*
X33049Y-20042D01*
X33057Y-20069D01*
X33061Y-20100D01*
X33061Y-20962D01*
X33061Y-20962D01*
G37*
G54D27*
X33061Y-20962D02*
X33057Y-20993D01*
X33049Y-21020D01*
X33035Y-21046D01*
X33017Y-21068D01*
X32995Y-21087D01*
X32969Y-21100D01*
X32942Y-21109D01*
X32910Y-21112D01*
X30179Y-21112D01*
X30148Y-21109D01*
X30120Y-21100D01*
X30095Y-21087D01*
X30072Y-21068D01*
X30054Y-21046D01*
X30040Y-21020D01*
X30032Y-20993D01*
X30029Y-20962D01*
X30029Y-20100D01*
X30032Y-20069D01*
X30040Y-20042D01*
X30054Y-20016D01*
X30072Y-19994D01*
X30095Y-19975D01*
X30120Y-19962D01*
X30148Y-19953D01*
X30179Y-19950D01*
X32910Y-19950D01*
X32942Y-19953D01*
X32969Y-19962D01*
X32995Y-19975D01*
X33017Y-19994D01*
X33035Y-20016D01*
X33049Y-20042D01*
X33057Y-20069D01*
X33061Y-20100D01*
X33061Y-20962D01*
M02*
