G04 (created by PCBNEW (2013-01-25 BZR 3922)-testing) date Sat 26 Jan 2013 03:59:31 PM CET*
%MOIN*%
G04 Gerber Fmt 3.4, Leading zero omitted, Abs format*
%FSLAX34Y34*%
G01*
G70*
G90*
G04 APERTURE LIST*
%ADD10C,3.14961e-06*%
%ADD11C,0.008*%
%ADD12C,0.015*%
G04 APERTURE END LIST*
G54D10*
G54D11*
X40717Y-16649D02*
X40736Y-16668D01*
X40755Y-16707D01*
X40755Y-16802D01*
X40736Y-16840D01*
X40717Y-16859D01*
X40679Y-16878D01*
X40641Y-16878D01*
X40584Y-16859D01*
X40355Y-16630D01*
X40355Y-16878D01*
X40755Y-17011D02*
X40755Y-17259D01*
X40603Y-17126D01*
X40603Y-17183D01*
X40584Y-17221D01*
X40565Y-17240D01*
X40527Y-17259D01*
X40431Y-17259D01*
X40393Y-17240D01*
X40374Y-17221D01*
X40355Y-17183D01*
X40355Y-17068D01*
X40374Y-17030D01*
X40393Y-17011D01*
X40393Y-17430D02*
X40374Y-17449D01*
X40355Y-17430D01*
X40374Y-17411D01*
X40393Y-17430D01*
X40355Y-17430D01*
X40755Y-17697D02*
X40755Y-17735D01*
X40736Y-17773D01*
X40717Y-17792D01*
X40679Y-17811D01*
X40603Y-17830D01*
X40507Y-17830D01*
X40431Y-17811D01*
X40393Y-17792D01*
X40374Y-17773D01*
X40355Y-17735D01*
X40355Y-17697D01*
X40374Y-17659D01*
X40393Y-17640D01*
X40431Y-17621D01*
X40507Y-17602D01*
X40603Y-17602D01*
X40679Y-17621D01*
X40717Y-17640D01*
X40736Y-17659D01*
X40755Y-17697D01*
X40755Y-18078D02*
X40755Y-18116D01*
X40736Y-18154D01*
X40717Y-18173D01*
X40679Y-18192D01*
X40603Y-18211D01*
X40507Y-18211D01*
X40431Y-18192D01*
X40393Y-18173D01*
X40374Y-18154D01*
X40355Y-18116D01*
X40355Y-18078D01*
X40374Y-18040D01*
X40393Y-18021D01*
X40431Y-18002D01*
X40507Y-17983D01*
X40603Y-17983D01*
X40679Y-18002D01*
X40717Y-18021D01*
X40736Y-18040D01*
X40755Y-18078D01*
X40755Y-18459D02*
X40755Y-18497D01*
X40736Y-18535D01*
X40717Y-18554D01*
X40679Y-18573D01*
X40603Y-18592D01*
X40507Y-18592D01*
X40431Y-18573D01*
X40393Y-18554D01*
X40374Y-18535D01*
X40355Y-18497D01*
X40355Y-18459D01*
X40374Y-18421D01*
X40393Y-18402D01*
X40431Y-18383D01*
X40507Y-18364D01*
X40603Y-18364D01*
X40679Y-18383D01*
X40717Y-18402D01*
X40736Y-18421D01*
X40755Y-18459D01*
X40355Y-19068D02*
X40622Y-19068D01*
X40584Y-19068D02*
X40603Y-19088D01*
X40622Y-19126D01*
X40622Y-19183D01*
X40603Y-19221D01*
X40565Y-19240D01*
X40355Y-19240D01*
X40565Y-19240D02*
X40603Y-19259D01*
X40622Y-19297D01*
X40622Y-19354D01*
X40603Y-19392D01*
X40565Y-19411D01*
X40355Y-19411D01*
X40355Y-19602D02*
X40622Y-19602D01*
X40584Y-19602D02*
X40603Y-19621D01*
X40622Y-19659D01*
X40622Y-19716D01*
X40603Y-19754D01*
X40565Y-19773D01*
X40355Y-19773D01*
X40565Y-19773D02*
X40603Y-19792D01*
X40622Y-19830D01*
X40622Y-19888D01*
X40603Y-19926D01*
X40565Y-19945D01*
X40355Y-19945D01*
X40157Y-13779D02*
X40157Y-22834D01*
X39763Y-13779D02*
X40877Y-13779D01*
X39763Y-22834D02*
X40877Y-22834D01*
X40157Y-22834D02*
X39926Y-22391D01*
X40157Y-22834D02*
X40388Y-22391D01*
X40157Y-13779D02*
X39926Y-14223D01*
X40157Y-13779D02*
X40388Y-14223D01*
X33185Y-12825D02*
X33204Y-12806D01*
X33242Y-12787D01*
X33337Y-12787D01*
X33375Y-12806D01*
X33394Y-12825D01*
X33413Y-12863D01*
X33413Y-12902D01*
X33394Y-12959D01*
X33166Y-13187D01*
X33413Y-13187D01*
X33775Y-12787D02*
X33585Y-12787D01*
X33566Y-12978D01*
X33585Y-12959D01*
X33623Y-12940D01*
X33718Y-12940D01*
X33756Y-12959D01*
X33775Y-12978D01*
X33794Y-13016D01*
X33794Y-13111D01*
X33775Y-13149D01*
X33756Y-13168D01*
X33718Y-13187D01*
X33623Y-13187D01*
X33585Y-13168D01*
X33566Y-13149D01*
X33966Y-13149D02*
X33985Y-13168D01*
X33966Y-13187D01*
X33947Y-13168D01*
X33966Y-13149D01*
X33966Y-13187D01*
X34232Y-12787D02*
X34271Y-12787D01*
X34309Y-12806D01*
X34328Y-12825D01*
X34347Y-12863D01*
X34366Y-12940D01*
X34366Y-13035D01*
X34347Y-13111D01*
X34328Y-13149D01*
X34309Y-13168D01*
X34271Y-13187D01*
X34232Y-13187D01*
X34194Y-13168D01*
X34175Y-13149D01*
X34156Y-13111D01*
X34137Y-13035D01*
X34137Y-12940D01*
X34156Y-12863D01*
X34175Y-12825D01*
X34194Y-12806D01*
X34232Y-12787D01*
X34613Y-12787D02*
X34652Y-12787D01*
X34690Y-12806D01*
X34709Y-12825D01*
X34728Y-12863D01*
X34747Y-12940D01*
X34747Y-13035D01*
X34728Y-13111D01*
X34709Y-13149D01*
X34690Y-13168D01*
X34652Y-13187D01*
X34613Y-13187D01*
X34575Y-13168D01*
X34556Y-13149D01*
X34537Y-13111D01*
X34518Y-13035D01*
X34518Y-12940D01*
X34537Y-12863D01*
X34556Y-12825D01*
X34575Y-12806D01*
X34613Y-12787D01*
X34994Y-12787D02*
X35032Y-12787D01*
X35071Y-12806D01*
X35090Y-12825D01*
X35109Y-12863D01*
X35128Y-12940D01*
X35128Y-13035D01*
X35109Y-13111D01*
X35090Y-13149D01*
X35071Y-13168D01*
X35032Y-13187D01*
X34994Y-13187D01*
X34956Y-13168D01*
X34937Y-13149D01*
X34918Y-13111D01*
X34899Y-13035D01*
X34899Y-12940D01*
X34918Y-12863D01*
X34937Y-12825D01*
X34956Y-12806D01*
X34994Y-12787D01*
X35604Y-13187D02*
X35604Y-12921D01*
X35604Y-12959D02*
X35623Y-12940D01*
X35661Y-12921D01*
X35718Y-12921D01*
X35756Y-12940D01*
X35775Y-12978D01*
X35775Y-13187D01*
X35775Y-12978D02*
X35794Y-12940D01*
X35832Y-12921D01*
X35890Y-12921D01*
X35928Y-12940D01*
X35947Y-12978D01*
X35947Y-13187D01*
X36137Y-13187D02*
X36137Y-12921D01*
X36137Y-12959D02*
X36156Y-12940D01*
X36194Y-12921D01*
X36252Y-12921D01*
X36290Y-12940D01*
X36309Y-12978D01*
X36309Y-13187D01*
X36309Y-12978D02*
X36328Y-12940D01*
X36366Y-12921D01*
X36423Y-12921D01*
X36461Y-12940D01*
X36480Y-12978D01*
X36480Y-13187D01*
X29921Y-13385D02*
X39763Y-13385D01*
X29921Y-13779D02*
X29921Y-12665D01*
X39763Y-13779D02*
X39763Y-12665D01*
X39763Y-13385D02*
X39320Y-13616D01*
X39763Y-13385D02*
X39320Y-13154D01*
X29921Y-13385D02*
X30364Y-13616D01*
X29921Y-13385D02*
X30364Y-13154D01*
G54D12*
X29921Y-13779D02*
X29921Y-22834D01*
X39763Y-22834D02*
X39763Y-13779D01*
X39763Y-13779D02*
X29921Y-13779D01*
X39763Y-22834D02*
X29921Y-22834D01*
M02*
