G04 (created by PCBNEW (2013-05-16 BZR 4153)-testing) date Fri 17 May 2013 11:34:26 PM CEST*
%MOIN*%
G04 Gerber Fmt 3.4, Leading zero omitted, Abs format*
%FSLAX34Y34*%
G01*
G70*
G90*
G04 APERTURE LIST*
%ADD10C,0.005906*%
%ADD11C,0.007874*%
%ADD12C,0.009843*%
%ADD13O,0.098425X0.078740*%
%ADD14R,0.070866X0.070866*%
%ADD15C,0.070866*%
%ADD16R,0.098425X0.059055*%
%ADD17R,0.275591X0.275591*%
%ADD18R,0.059000X0.051100*%
%ADD19R,0.051100X0.059000*%
%ADD20R,0.039300X0.043300*%
%ADD21R,0.043300X0.039300*%
%ADD22R,0.019685X0.019685*%
%ADD23R,0.047200X0.047200*%
%ADD24R,0.021600X0.047200*%
%ADD25R,0.086614X0.027559*%
%ADD26R,0.098425X0.023622*%
%ADD27R,0.108300X0.108300*%
%ADD28C,0.025000*%
%ADD29C,0.008000*%
%ADD30C,0.012000*%
%ADD31C,0.098425*%
%ADD32C,0.078740*%
G04 APERTURE END LIST*
G54D10*
G54D11*
X29921Y-14173D02*
X29921Y-22834D01*
X39763Y-22834D02*
X39763Y-14173D01*
X39763Y-14173D02*
X29921Y-14173D01*
X39763Y-22834D02*
X29921Y-22834D01*
G54D12*
X39201Y-16464D02*
X39201Y-16764D01*
X39301Y-16464D02*
X39301Y-16764D01*
X39251Y-16464D02*
X39251Y-16764D01*
G54D13*
X38890Y-21562D03*
X38890Y-20562D03*
G54D14*
X32670Y-15073D03*
G54D15*
X32670Y-16073D03*
X31670Y-15073D03*
X31670Y-16073D03*
X30670Y-15073D03*
X30670Y-16073D03*
G54D16*
X37519Y-21811D03*
X37519Y-20000D03*
G54D17*
X34803Y-20905D03*
G54D14*
X38901Y-15070D03*
G54D15*
X37901Y-15070D03*
X36901Y-15070D03*
G54D13*
X30787Y-21562D03*
X30787Y-20562D03*
G54D18*
X34488Y-15531D03*
X34488Y-14783D03*
G54D19*
X37893Y-16614D03*
X38641Y-16614D03*
G54D18*
X39220Y-18784D03*
X39220Y-18036D03*
X35354Y-15531D03*
X35354Y-14783D03*
G54D20*
X37303Y-20905D03*
X37971Y-20905D03*
X34587Y-16338D03*
X35255Y-16338D03*
G54D21*
X30590Y-18603D03*
X30590Y-19271D03*
G54D22*
X39251Y-16464D03*
X39251Y-16764D03*
G54D23*
X30590Y-17932D03*
X30590Y-17106D03*
G54D24*
X37696Y-18881D03*
X38070Y-18881D03*
X38444Y-18881D03*
X38444Y-17859D03*
X37696Y-17859D03*
G54D25*
X33510Y-17220D03*
X33510Y-17720D03*
X33510Y-18220D03*
X33510Y-18720D03*
X36510Y-18720D03*
X36510Y-18220D03*
X36510Y-17720D03*
X36510Y-17220D03*
G54D26*
X32125Y-17480D03*
X32125Y-17952D03*
X32125Y-18424D03*
G54D27*
X32322Y-19921D03*
X32322Y-21889D03*
G54D28*
X37559Y-17244D03*
X35669Y-18503D03*
X35255Y-16338D03*
X34133Y-16259D03*
X33858Y-15511D03*
X33858Y-16653D03*
X31170Y-19260D03*
X32650Y-22250D03*
X32320Y-22250D03*
X31950Y-22260D03*
X38464Y-17362D03*
X39220Y-18020D03*
X37887Y-16634D03*
G54D29*
X36510Y-18220D02*
X37055Y-18220D01*
X37244Y-17559D02*
X37559Y-17244D01*
X37244Y-18031D02*
X37244Y-17559D01*
X37055Y-18220D02*
X37244Y-18031D01*
X31670Y-16073D02*
X31670Y-16197D01*
X35669Y-18503D02*
X35885Y-18720D01*
X35885Y-18720D02*
X36510Y-18720D01*
X33543Y-16259D02*
X34133Y-16259D01*
X33110Y-16692D02*
X33543Y-16259D01*
X32165Y-16692D02*
X33110Y-16692D01*
X31670Y-16197D02*
X32165Y-16692D01*
X31670Y-16073D02*
X31670Y-16355D01*
X36510Y-18720D02*
X36510Y-20690D01*
X36510Y-20690D02*
X36725Y-20905D01*
X36725Y-20905D02*
X37303Y-20905D01*
X33510Y-16653D02*
X33858Y-16653D01*
X33858Y-15078D02*
X34153Y-14783D01*
X33858Y-15511D02*
X33858Y-15078D01*
X34173Y-14448D02*
X34173Y-14783D01*
X34173Y-14783D02*
X34153Y-14783D01*
X30670Y-15073D02*
X30670Y-14763D01*
X30984Y-14448D02*
X34173Y-14448D01*
X30670Y-14763D02*
X30984Y-14448D01*
X33510Y-17220D02*
X33510Y-16653D01*
X34153Y-14783D02*
X34685Y-14783D01*
X34685Y-14606D02*
X34685Y-14980D01*
X31170Y-19260D02*
X31350Y-19260D01*
X35354Y-18543D02*
X35354Y-18149D01*
X35354Y-18149D02*
X35783Y-17720D01*
X35783Y-17720D02*
X36510Y-17720D01*
X34757Y-19140D02*
X35354Y-18543D01*
X31470Y-19140D02*
X34757Y-19140D01*
X31350Y-19260D02*
X31470Y-19140D01*
X31150Y-19030D02*
X31150Y-19240D01*
X31150Y-19240D02*
X31170Y-19260D01*
X30831Y-19030D02*
X31150Y-19030D01*
X30831Y-19030D02*
X30590Y-19271D01*
G54D30*
X32650Y-22250D02*
X32322Y-21889D01*
X31960Y-22250D02*
X32320Y-22250D01*
X31950Y-22260D02*
X31960Y-22250D01*
X38444Y-17382D02*
X38464Y-17362D01*
X38444Y-17382D02*
X38444Y-17859D01*
X37696Y-18881D02*
X37696Y-19356D01*
X39220Y-19380D02*
X39220Y-18784D01*
X39200Y-19400D02*
X39220Y-19380D01*
X37740Y-19400D02*
X39200Y-19400D01*
X37696Y-19356D02*
X37740Y-19400D01*
X37696Y-18881D02*
X37696Y-18454D01*
X38251Y-17859D02*
X38444Y-17859D01*
X38100Y-18010D02*
X38251Y-17859D01*
X38100Y-18112D02*
X38100Y-18010D01*
X37902Y-18310D02*
X38100Y-18112D01*
X37840Y-18310D02*
X37902Y-18310D01*
X37696Y-18454D02*
X37840Y-18310D01*
G54D29*
X32125Y-17480D02*
X32638Y-17480D01*
X32877Y-17720D02*
X33510Y-17720D01*
X32638Y-17480D02*
X32877Y-17720D01*
X32125Y-18424D02*
X32638Y-18424D01*
X32842Y-18220D02*
X33510Y-18220D01*
X32638Y-18424D02*
X32842Y-18220D01*
G54D31*
X32322Y-19921D02*
X33819Y-19921D01*
X33819Y-19921D02*
X34803Y-20905D01*
X30787Y-20562D02*
X31428Y-19921D01*
X31428Y-19921D02*
X32322Y-19921D01*
G54D30*
X34960Y-17677D02*
X34960Y-17244D01*
X34587Y-16870D02*
X34587Y-16338D01*
X34960Y-17244D02*
X34587Y-16870D01*
X36082Y-14783D02*
X35354Y-14783D01*
X35354Y-14783D02*
X35354Y-14783D01*
X36456Y-14409D02*
X37598Y-14409D01*
X37598Y-14409D02*
X37901Y-14712D01*
X37901Y-14712D02*
X37901Y-15070D01*
X36082Y-14783D02*
X36456Y-14409D01*
X32125Y-17952D02*
X31338Y-17952D01*
X31338Y-18818D02*
X31338Y-17952D01*
X31338Y-17952D02*
X31338Y-17125D01*
X31338Y-18818D02*
X32834Y-18818D01*
X32834Y-18818D02*
X32913Y-18740D01*
X32913Y-18740D02*
X33489Y-18740D01*
X33510Y-18720D02*
X33489Y-18740D01*
X31319Y-17106D02*
X30590Y-17106D01*
X31338Y-17125D02*
X31319Y-17106D01*
X37901Y-15070D02*
X37901Y-15381D01*
X37901Y-15381D02*
X38641Y-16122D01*
X38641Y-16122D02*
X38641Y-16614D01*
X39251Y-16464D02*
X38791Y-16464D01*
X38791Y-16464D02*
X38641Y-16614D01*
X37901Y-15070D02*
X37901Y-15366D01*
X34468Y-18720D02*
X33510Y-18720D01*
X34960Y-18228D02*
X34468Y-18720D01*
X34960Y-17677D02*
X34960Y-18228D01*
X35826Y-16811D02*
X34960Y-17677D01*
X36456Y-16811D02*
X35826Y-16811D01*
X37901Y-15366D02*
X36456Y-16811D01*
X30670Y-16073D02*
X30670Y-17027D01*
X30670Y-17027D02*
X30590Y-17106D01*
X30720Y-16976D02*
X30590Y-17106D01*
G54D32*
X37519Y-20000D02*
X38327Y-20000D01*
X38327Y-20000D02*
X38890Y-20562D01*
G54D30*
X39251Y-16764D02*
X39250Y-18006D01*
X39250Y-18006D02*
X39220Y-18036D01*
X39220Y-18020D02*
X39220Y-18036D01*
X38070Y-18881D02*
X38070Y-18460D01*
X39076Y-18180D02*
X39220Y-18036D01*
X38820Y-18180D02*
X39076Y-18180D01*
X38660Y-18340D02*
X38820Y-18180D01*
X38190Y-18340D02*
X38660Y-18340D01*
X38070Y-18460D02*
X38190Y-18340D01*
G54D29*
X30590Y-17932D02*
X30590Y-18603D01*
X37971Y-20905D02*
X37971Y-21358D01*
X37971Y-21358D02*
X37519Y-21811D01*
G54D30*
X33346Y-15826D02*
X34192Y-15826D01*
X33099Y-16073D02*
X33346Y-15826D01*
X32670Y-16073D02*
X33099Y-16073D01*
X34192Y-15826D02*
X34488Y-15531D01*
X35354Y-15531D02*
X34488Y-15531D01*
X35354Y-15531D02*
X36440Y-15531D01*
X36440Y-15531D02*
X36901Y-15070D01*
X37887Y-16634D02*
X37893Y-16628D01*
X37893Y-16628D02*
X37893Y-16614D01*
X36510Y-17220D02*
X37031Y-17220D01*
X37031Y-17220D02*
X37283Y-16968D01*
X37283Y-16968D02*
X37283Y-16692D01*
X37283Y-16692D02*
X37362Y-16614D01*
X37362Y-16614D02*
X37893Y-16614D01*
X37876Y-17399D02*
X37876Y-16631D01*
X37876Y-17399D02*
X37696Y-17579D01*
X37696Y-17859D02*
X37696Y-17579D01*
X37876Y-16631D02*
X37893Y-16614D01*
X36510Y-17220D02*
X36874Y-17220D01*
M02*
