G04 (created by PCBNEW (2013-01-07 BZR 3892)-testing) date Tue 08 Jan 2013 03:33:43 PM CET*
%MOIN*%
G04 Gerber Fmt 3.4, Leading zero omitted, Abs format*
%FSLAX34Y34*%
G01*
G70*
G90*
G04 APERTURE LIST*
%ADD10C,3.14961e-06*%
%ADD11C,0.015*%
%ADD12R,0.11811X0.0787402*%
%ADD13O,0.11811X0.0787402*%
%ADD14R,0.055X0.055*%
%ADD15C,0.055*%
%ADD16R,0.06X0.06*%
%ADD17C,0.06*%
%ADD18C,0.025*%
%ADD19C,0.008*%
%ADD20C,0.00984252*%
G04 APERTURE END LIST*
G54D10*
G54D11*
X29921Y-22834D02*
X29921Y-12992D01*
X39763Y-22834D02*
X29921Y-22834D01*
X39763Y-12992D02*
X39763Y-22834D01*
X29921Y-12992D02*
X39763Y-12992D01*
G54D12*
X38877Y-21562D03*
G54D13*
X38877Y-20562D03*
G54D12*
X30787Y-21562D03*
G54D13*
X30787Y-20562D03*
G54D14*
X38066Y-14488D03*
G54D15*
X37066Y-14488D03*
X36066Y-14488D03*
G54D16*
X33027Y-14066D03*
G54D17*
X33027Y-15066D03*
X32027Y-14066D03*
X32027Y-15066D03*
X31027Y-14066D03*
X31027Y-15066D03*
G54D18*
X34921Y-13956D03*
X34566Y-13444D03*
X38937Y-16141D03*
X32775Y-20314D03*
X33169Y-20314D03*
X33562Y-20314D03*
X33956Y-20314D03*
X34350Y-20314D03*
X34744Y-20314D03*
X34940Y-20118D03*
X34547Y-20118D03*
X34153Y-20118D03*
X33759Y-20118D03*
X33366Y-20118D03*
X32972Y-20118D03*
X32578Y-20118D03*
X32775Y-19921D03*
X33169Y-19921D03*
X33562Y-19921D03*
X33956Y-19921D03*
X34350Y-19921D03*
X34744Y-19921D03*
X34940Y-19724D03*
X34547Y-19724D03*
X34153Y-19724D03*
X33759Y-19724D03*
X33366Y-19724D03*
X32972Y-19724D03*
X32578Y-19724D03*
G54D19*
X34921Y-13799D02*
X34921Y-13956D01*
X34566Y-13444D02*
X34921Y-13799D01*
X38937Y-16141D02*
X39232Y-16141D01*
X39232Y-16141D02*
X39370Y-16279D01*
X39370Y-16279D02*
X39370Y-19232D01*
X39370Y-19232D02*
X38858Y-19744D01*
X38858Y-19744D02*
X38366Y-19744D01*
X38366Y-19744D02*
X37952Y-20157D01*
X37952Y-20157D02*
X37952Y-21496D01*
X37952Y-21496D02*
X38019Y-21562D01*
X38877Y-21562D02*
X38019Y-21562D01*
X33169Y-20314D02*
X32775Y-20314D01*
X33956Y-20314D02*
X33562Y-20314D01*
X34744Y-20314D02*
X34350Y-20314D01*
X34547Y-20118D02*
X34940Y-20118D01*
X33759Y-20118D02*
X34153Y-20118D01*
X32972Y-20118D02*
X33366Y-20118D01*
X32775Y-19921D02*
X32578Y-20118D01*
X33562Y-19921D02*
X33169Y-19921D01*
X34350Y-19921D02*
X33956Y-19921D01*
X34940Y-19724D02*
X34744Y-19921D01*
X34153Y-19724D02*
X34547Y-19724D01*
X33366Y-19724D02*
X33759Y-19724D01*
X32578Y-19724D02*
X32972Y-19724D01*
X31027Y-15066D02*
X31027Y-14700D01*
X36377Y-13799D02*
X37066Y-14488D01*
X35570Y-13799D02*
X36377Y-13799D01*
X34822Y-14547D02*
X35570Y-13799D01*
X31181Y-14547D02*
X34822Y-14547D01*
X31027Y-14700D02*
X31181Y-14547D01*
X33027Y-15066D02*
X35488Y-15066D01*
X35488Y-15066D02*
X36066Y-14488D01*
G54D20*
X31813Y-15875D02*
X37576Y-15875D01*
X31681Y-15954D02*
X37708Y-15954D01*
X31663Y-16032D02*
X37726Y-16032D01*
X31663Y-16111D02*
X37726Y-16111D01*
X31663Y-16189D02*
X37726Y-16189D01*
X31663Y-16268D02*
X37726Y-16268D01*
X31663Y-16346D02*
X37726Y-16346D01*
X31663Y-16424D02*
X37726Y-16424D01*
X31663Y-16503D02*
X37726Y-16503D01*
X31663Y-16581D02*
X37726Y-16581D01*
X31663Y-16660D02*
X37726Y-16660D01*
X31663Y-16738D02*
X37726Y-16738D01*
X31663Y-16817D02*
X37726Y-16817D01*
X31663Y-16895D02*
X37726Y-16895D01*
X31663Y-16973D02*
X37726Y-16973D01*
X31663Y-17052D02*
X37726Y-17052D01*
X31663Y-17130D02*
X37726Y-17130D01*
X31663Y-17209D02*
X37726Y-17209D01*
X31663Y-17287D02*
X37726Y-17287D01*
X31663Y-17366D02*
X37726Y-17366D01*
X31663Y-17444D02*
X37726Y-17444D01*
X31663Y-17522D02*
X37726Y-17522D01*
X31663Y-17601D02*
X37726Y-17601D01*
X31663Y-17679D02*
X37726Y-17679D01*
X31663Y-17758D02*
X37726Y-17758D01*
X31663Y-17836D02*
X37726Y-17836D01*
X31663Y-17915D02*
X37726Y-17915D01*
X31663Y-17993D02*
X37726Y-17993D01*
X31663Y-18071D02*
X37726Y-18071D01*
X31663Y-18150D02*
X37726Y-18150D01*
X31663Y-18228D02*
X37726Y-18228D01*
X31663Y-18307D02*
X37726Y-18307D01*
X31663Y-18385D02*
X37726Y-18385D01*
X31663Y-18464D02*
X37726Y-18464D01*
X31663Y-18542D02*
X37726Y-18542D01*
X31663Y-18620D02*
X37726Y-18620D01*
X31663Y-18699D02*
X37726Y-18699D01*
X31663Y-18777D02*
X37726Y-18777D01*
X31663Y-18856D02*
X37726Y-18856D01*
X31663Y-18934D02*
X37726Y-18934D01*
X31663Y-19012D02*
X37726Y-19012D01*
X31663Y-19091D02*
X37726Y-19091D01*
X31663Y-19169D02*
X37726Y-19169D01*
X31663Y-19248D02*
X37726Y-19248D01*
X31663Y-19326D02*
X37726Y-19326D01*
X31663Y-19405D02*
X37726Y-19405D01*
X31663Y-19483D02*
X37726Y-19483D01*
X31663Y-19561D02*
X37726Y-19561D01*
X31663Y-19640D02*
X37726Y-19640D01*
X31663Y-19718D02*
X37726Y-19718D01*
X31663Y-19797D02*
X37726Y-19797D01*
X31663Y-19875D02*
X37726Y-19875D01*
X31663Y-19954D02*
X37726Y-19954D01*
X31663Y-20032D02*
X37726Y-20032D01*
X31663Y-20110D02*
X37726Y-20110D01*
X31663Y-20189D02*
X37726Y-20189D01*
X31663Y-20267D02*
X37726Y-20267D01*
X31667Y-20346D02*
X37722Y-20346D01*
X31713Y-20424D02*
X37676Y-20424D01*
X37726Y-20312D02*
X37723Y-20343D01*
X37714Y-20371D01*
X37701Y-20396D01*
X37682Y-20419D01*
X37660Y-20437D01*
X37635Y-20451D01*
X37607Y-20459D01*
X37576Y-20462D01*
X31813Y-20462D01*
X31782Y-20459D01*
X31754Y-20451D01*
X31729Y-20437D01*
X31706Y-20419D01*
X31688Y-20396D01*
X31674Y-20371D01*
X31666Y-20343D01*
X31663Y-20312D01*
X31663Y-16026D01*
X31666Y-15994D01*
X31674Y-15967D01*
X31688Y-15941D01*
X31706Y-15919D01*
X31729Y-15901D01*
X31754Y-15887D01*
X31782Y-15879D01*
X31813Y-15875D01*
X37576Y-15875D01*
X37607Y-15879D01*
X37635Y-15887D01*
X37660Y-15901D01*
X37682Y-15919D01*
X37701Y-15941D01*
X37714Y-15967D01*
X37723Y-15994D01*
X37726Y-16026D01*
X37726Y-20312D01*
X31813Y-20757D02*
X37576Y-20757D01*
X31681Y-20836D02*
X37708Y-20836D01*
X31663Y-20914D02*
X37726Y-20914D01*
X31658Y-20993D02*
X37730Y-20993D01*
X31627Y-21071D02*
X37762Y-21071D01*
X31553Y-21150D02*
X37836Y-21150D01*
X30277Y-21228D02*
X39388Y-21228D01*
X30230Y-21306D02*
X39435Y-21306D01*
X30226Y-21385D02*
X39438Y-21385D01*
X30226Y-21463D02*
X39438Y-21463D01*
X30226Y-21542D02*
X39438Y-21542D01*
X30226Y-21620D02*
X39438Y-21620D01*
X30226Y-21698D02*
X39438Y-21698D01*
X30226Y-21777D02*
X39438Y-21777D01*
X30226Y-21855D02*
X39438Y-21855D01*
X30226Y-21934D02*
X39438Y-21934D01*
X30226Y-22012D02*
X39438Y-22012D01*
X30226Y-22091D02*
X39438Y-22091D01*
X30226Y-22169D02*
X39438Y-22169D01*
X30226Y-22247D02*
X39438Y-22247D01*
X30226Y-22326D02*
X39438Y-22326D01*
X30226Y-22404D02*
X39438Y-22404D01*
X30228Y-22483D02*
X39436Y-22483D01*
X30267Y-22561D02*
X39398Y-22561D01*
X39438Y-22458D02*
X39435Y-22489D01*
X39427Y-22517D01*
X39413Y-22542D01*
X39395Y-22564D01*
X39373Y-22583D01*
X39347Y-22596D01*
X39320Y-22605D01*
X39288Y-22608D01*
X30376Y-22608D01*
X30345Y-22605D01*
X30317Y-22596D01*
X30292Y-22583D01*
X30269Y-22564D01*
X30251Y-22542D01*
X30237Y-22517D01*
X30229Y-22489D01*
X30226Y-22458D01*
X30226Y-21341D01*
X30229Y-21309D01*
X30237Y-21282D01*
X30251Y-21256D01*
X30269Y-21234D01*
X30292Y-21216D01*
X30317Y-21202D01*
X30345Y-21194D01*
X30376Y-21190D01*
X31419Y-21190D01*
X31465Y-21186D01*
X31511Y-21172D01*
X31554Y-21149D01*
X31591Y-21119D01*
X31622Y-21081D01*
X31644Y-21039D01*
X31658Y-20992D01*
X31663Y-20947D01*
X31663Y-20907D01*
X31666Y-20876D01*
X31674Y-20849D01*
X31688Y-20823D01*
X31706Y-20801D01*
X31729Y-20782D01*
X31754Y-20769D01*
X31782Y-20760D01*
X31813Y-20757D01*
X37576Y-20757D01*
X37607Y-20760D01*
X37635Y-20769D01*
X37660Y-20782D01*
X37682Y-20801D01*
X37701Y-20823D01*
X37714Y-20849D01*
X37723Y-20876D01*
X37726Y-20907D01*
X37726Y-20947D01*
X37730Y-20992D01*
X37744Y-21039D01*
X37767Y-21081D01*
X37798Y-21119D01*
X37835Y-21149D01*
X37878Y-21172D01*
X37924Y-21186D01*
X37970Y-21190D01*
X39288Y-21190D01*
X39320Y-21194D01*
X39347Y-21202D01*
X39373Y-21216D01*
X39395Y-21234D01*
X39413Y-21256D01*
X39427Y-21282D01*
X39435Y-21309D01*
X39438Y-21341D01*
X39438Y-22458D01*
M02*
