M48
INCH,TZ
T1C0.013
T2C0.032
T3C0.040
T4C0.049
%
G90
G05
T1
X032835Y-019980
X032835Y-020472
X033327Y-019980
X033327Y-020472
X033819Y-019980
X033819Y-020472
X034287Y-017953
X034311Y-019980
X034311Y-020472
X034803Y-019980
X034803Y-020472
X038681Y-016339
T2
X035929Y-014685
X036929Y-014685
X037929Y-014685
T3
X030890Y-014264
X030890Y-015264
X031890Y-014264
X031890Y-015264
X032890Y-014264
X032890Y-015264
T4
X030650Y-020760
X030650Y-021760
X038484Y-020760
X038484Y-021760
T0
M30
