G04 (created by PCBNEW (2013-01-07 BZR 3892)-testing) date Tue 08 Jan 2013 03:33:43 PM CET*
%MOIN*%
G04 Gerber Fmt 3.4, Leading zero omitted, Abs format*
%FSLAX34Y34*%
G01*
G70*
G90*
G04 APERTURE LIST*
%ADD10C,3.14961e-06*%
%ADD11C,0.008*%
%ADD12C,0.015*%
%ADD13C,0.011811*%
%ADD14C,0.012*%
%ADD15C,0.0026*%
%ADD16C,0.006*%
%ADD17C,0.002*%
%ADD18C,0.004*%
%ADD19C,0.0078*%
%ADD20C,0.00984252*%
%ADD21C,0.00393701*%
%ADD22C,0.00738189*%
%ADD23R,0.11811X0.0787402*%
%ADD24O,0.11811X0.0787402*%
%ADD25R,0.055X0.055*%
%ADD26C,0.055*%
%ADD27R,0.06X0.06*%
%ADD28C,0.06*%
%ADD29R,0.0511X0.059*%
%ADD30R,0.0866X0.0236*%
%ADD31R,0.0984252X0.0590551*%
%ADD32R,0.275591X0.275591*%
%ADD33R,0.0393X0.0433*%
%ADD34R,0.149606X0.0472441*%
%ADD35R,0.149606X0.0551181*%
%ADD36R,0.0433X0.0393*%
%ADD37R,0.0866142X0.0275591*%
G04 APERTURE END LIST*
G54D10*
G54D11*
X38650Y-19886D02*
X38421Y-19886D01*
X38535Y-19886D02*
X38535Y-19486D01*
X38497Y-19543D01*
X38459Y-19581D01*
X38421Y-19600D01*
X38802Y-19524D02*
X38821Y-19505D01*
X38859Y-19486D01*
X38954Y-19486D01*
X38992Y-19505D01*
X39011Y-19524D01*
X39030Y-19562D01*
X39030Y-19600D01*
X39011Y-19657D01*
X38783Y-19886D01*
X39030Y-19886D01*
X39145Y-19486D02*
X39278Y-19886D01*
X39411Y-19486D01*
X30387Y-22202D02*
X30463Y-22202D01*
X30501Y-22221D01*
X30539Y-22259D01*
X30558Y-22336D01*
X30558Y-22469D01*
X30539Y-22545D01*
X30501Y-22583D01*
X30463Y-22602D01*
X30387Y-22602D01*
X30349Y-22583D01*
X30311Y-22545D01*
X30292Y-22469D01*
X30292Y-22336D01*
X30311Y-22259D01*
X30349Y-22221D01*
X30387Y-22202D01*
X30730Y-22202D02*
X30730Y-22526D01*
X30749Y-22564D01*
X30768Y-22583D01*
X30806Y-22602D01*
X30882Y-22602D01*
X30920Y-22583D01*
X30939Y-22564D01*
X30958Y-22526D01*
X30958Y-22202D01*
X31092Y-22202D02*
X31320Y-22202D01*
X31206Y-22602D02*
X31206Y-22202D01*
X35223Y-13265D02*
X35451Y-13265D01*
X35337Y-13665D02*
X35337Y-13265D01*
X35565Y-13646D02*
X35623Y-13665D01*
X35718Y-13665D01*
X35756Y-13646D01*
X35775Y-13627D01*
X35794Y-13589D01*
X35794Y-13551D01*
X35775Y-13513D01*
X35756Y-13494D01*
X35718Y-13475D01*
X35642Y-13456D01*
X35604Y-13437D01*
X35585Y-13418D01*
X35565Y-13380D01*
X35565Y-13342D01*
X35585Y-13303D01*
X35604Y-13284D01*
X35642Y-13265D01*
X35737Y-13265D01*
X35794Y-13284D01*
X36042Y-13265D02*
X36118Y-13265D01*
X36156Y-13284D01*
X36194Y-13322D01*
X36213Y-13399D01*
X36213Y-13532D01*
X36194Y-13608D01*
X36156Y-13646D01*
X36118Y-13665D01*
X36042Y-13665D01*
X36004Y-13646D01*
X35965Y-13608D01*
X35946Y-13532D01*
X35946Y-13399D01*
X35965Y-13322D01*
X36004Y-13284D01*
X36042Y-13265D01*
X36385Y-13665D02*
X36385Y-13265D01*
X36537Y-13265D01*
X36575Y-13284D01*
X36594Y-13303D01*
X36613Y-13342D01*
X36613Y-13399D01*
X36594Y-13437D01*
X36575Y-13456D01*
X36537Y-13475D01*
X36385Y-13475D01*
X36746Y-13265D02*
X36994Y-13265D01*
X36861Y-13418D01*
X36918Y-13418D01*
X36956Y-13437D01*
X36975Y-13456D01*
X36994Y-13494D01*
X36994Y-13589D01*
X36975Y-13627D01*
X36956Y-13646D01*
X36918Y-13665D01*
X36804Y-13665D01*
X36765Y-13646D01*
X36746Y-13627D01*
X37223Y-13437D02*
X37185Y-13418D01*
X37165Y-13399D01*
X37146Y-13361D01*
X37146Y-13342D01*
X37165Y-13303D01*
X37185Y-13284D01*
X37223Y-13265D01*
X37299Y-13265D01*
X37337Y-13284D01*
X37356Y-13303D01*
X37375Y-13342D01*
X37375Y-13361D01*
X37356Y-13399D01*
X37337Y-13418D01*
X37299Y-13437D01*
X37223Y-13437D01*
X37185Y-13456D01*
X37165Y-13475D01*
X37146Y-13513D01*
X37146Y-13589D01*
X37165Y-13627D01*
X37185Y-13646D01*
X37223Y-13665D01*
X37299Y-13665D01*
X37337Y-13646D01*
X37356Y-13627D01*
X37375Y-13589D01*
X37375Y-13513D01*
X37356Y-13475D01*
X37337Y-13456D01*
X37299Y-13437D01*
X37527Y-13303D02*
X37546Y-13284D01*
X37585Y-13265D01*
X37680Y-13265D01*
X37718Y-13284D01*
X37737Y-13303D01*
X37756Y-13342D01*
X37756Y-13380D01*
X37737Y-13437D01*
X37508Y-13665D01*
X37756Y-13665D01*
X37889Y-13265D02*
X38137Y-13265D01*
X38004Y-13418D01*
X38061Y-13418D01*
X38099Y-13437D01*
X38118Y-13456D01*
X38137Y-13494D01*
X38137Y-13589D01*
X38118Y-13627D01*
X38099Y-13646D01*
X38061Y-13665D01*
X37946Y-13665D01*
X37908Y-13646D01*
X37889Y-13627D01*
X38365Y-13437D02*
X38327Y-13418D01*
X38308Y-13399D01*
X38289Y-13361D01*
X38289Y-13342D01*
X38308Y-13303D01*
X38327Y-13284D01*
X38365Y-13265D01*
X38442Y-13265D01*
X38480Y-13284D01*
X38499Y-13303D01*
X38518Y-13342D01*
X38518Y-13361D01*
X38499Y-13399D01*
X38480Y-13418D01*
X38442Y-13437D01*
X38365Y-13437D01*
X38327Y-13456D01*
X38308Y-13475D01*
X38289Y-13513D01*
X38289Y-13589D01*
X38308Y-13627D01*
X38327Y-13646D01*
X38365Y-13665D01*
X38442Y-13665D01*
X38480Y-13646D01*
X38499Y-13627D01*
X38518Y-13589D01*
X38518Y-13513D01*
X38499Y-13475D01*
X38480Y-13456D01*
X38442Y-13437D01*
X39178Y-22411D02*
X39483Y-22411D01*
X39330Y-22563D02*
X39330Y-22258D01*
X31619Y-20560D02*
X31924Y-20560D01*
X31619Y-21584D02*
X31924Y-21584D01*
X31771Y-21736D02*
X31771Y-21431D01*
G54D12*
X29921Y-22834D02*
X29921Y-12992D01*
X39763Y-22834D02*
X29921Y-22834D01*
X39763Y-12992D02*
X39763Y-22834D01*
X29921Y-12992D02*
X39763Y-12992D01*
G54D13*
X37066Y-13818D02*
G75*
G03X36909Y-13976I0J-157D01*
G74*
G01*
X37224Y-13976D02*
G75*
G03X37066Y-13818I-157J0D01*
G74*
G01*
G54D14*
X38566Y-13988D02*
X38566Y-14988D01*
X38566Y-14988D02*
X35566Y-14988D01*
X35566Y-14988D02*
X35566Y-13988D01*
X35566Y-13988D02*
X38566Y-13988D01*
X37566Y-14988D02*
X37566Y-13988D01*
G54D12*
X33523Y-15550D02*
X33523Y-13582D01*
X30531Y-13582D02*
X30531Y-15550D01*
X30531Y-15550D02*
X33523Y-15550D01*
X33523Y-13582D02*
X30570Y-13582D01*
X30570Y-13582D02*
X30531Y-13582D01*
X33759Y-13346D02*
X33759Y-14566D01*
X33759Y-13346D02*
X32499Y-13346D01*
G54D15*
X34721Y-15866D02*
X34466Y-15866D01*
X34466Y-15866D02*
X34466Y-16417D01*
X34721Y-16417D02*
X34466Y-16417D01*
X34721Y-15866D02*
X34721Y-16417D01*
X35301Y-15866D02*
X35045Y-15866D01*
X35045Y-15866D02*
X35045Y-16417D01*
X35301Y-16417D02*
X35045Y-16417D01*
X35301Y-15866D02*
X35301Y-16417D01*
X34959Y-15945D02*
X34803Y-15945D01*
X34803Y-15945D02*
X34803Y-16337D01*
X34959Y-16337D02*
X34803Y-16337D01*
X34959Y-15945D02*
X34959Y-16337D01*
G54D16*
X35042Y-16391D02*
X34720Y-16391D01*
X35042Y-15891D02*
X34720Y-15891D01*
G54D17*
X35657Y-16528D02*
X34105Y-16528D01*
X34105Y-16528D02*
X34105Y-15754D01*
X34105Y-15754D02*
X35657Y-15754D01*
X35657Y-15754D02*
X35657Y-16528D01*
G54D15*
X37082Y-15856D02*
X36787Y-15856D01*
X36787Y-15856D02*
X36787Y-16426D01*
X37082Y-16426D02*
X36787Y-16426D01*
X37082Y-15856D02*
X37082Y-16426D01*
X36513Y-15856D02*
X36218Y-15856D01*
X36218Y-15856D02*
X36218Y-16426D01*
X36513Y-16426D02*
X36218Y-16426D01*
X36513Y-15856D02*
X36513Y-16426D01*
X36692Y-15984D02*
X36614Y-15984D01*
X36614Y-15984D02*
X36614Y-16298D01*
X36692Y-16298D02*
X36614Y-16298D01*
X36692Y-15984D02*
X36692Y-16298D01*
G54D17*
X37429Y-16528D02*
X35877Y-16528D01*
X35877Y-15754D02*
X37429Y-15754D01*
X37429Y-15754D02*
X37429Y-16528D01*
G54D18*
X36803Y-16400D02*
X36503Y-16400D01*
X36793Y-15882D02*
X36503Y-15882D01*
G54D17*
X35877Y-16528D02*
X35877Y-15754D01*
G54D15*
X38972Y-15856D02*
X38677Y-15856D01*
X38677Y-15856D02*
X38677Y-16426D01*
X38972Y-16426D02*
X38677Y-16426D01*
X38972Y-15856D02*
X38972Y-16426D01*
X38403Y-15856D02*
X38108Y-15856D01*
X38108Y-15856D02*
X38108Y-16426D01*
X38403Y-16426D02*
X38108Y-16426D01*
X38403Y-15856D02*
X38403Y-16426D01*
X38582Y-15984D02*
X38504Y-15984D01*
X38504Y-15984D02*
X38504Y-16298D01*
X38582Y-16298D02*
X38504Y-16298D01*
X38582Y-15984D02*
X38582Y-16298D01*
G54D17*
X39319Y-16528D02*
X37767Y-16528D01*
X37767Y-15754D02*
X39319Y-15754D01*
X39319Y-15754D02*
X39319Y-16528D01*
G54D18*
X38693Y-16400D02*
X38393Y-16400D01*
X38683Y-15882D02*
X38393Y-15882D01*
G54D17*
X37767Y-16528D02*
X37767Y-15754D01*
G54D15*
X33539Y-15856D02*
X33244Y-15856D01*
X33244Y-15856D02*
X33244Y-16426D01*
X33539Y-16426D02*
X33244Y-16426D01*
X33539Y-15856D02*
X33539Y-16426D01*
X32970Y-15856D02*
X32675Y-15856D01*
X32675Y-15856D02*
X32675Y-16426D01*
X32970Y-16426D02*
X32675Y-16426D01*
X32970Y-15856D02*
X32970Y-16426D01*
X33149Y-15984D02*
X33071Y-15984D01*
X33071Y-15984D02*
X33071Y-16298D01*
X33149Y-16298D02*
X33071Y-16298D01*
X33149Y-15984D02*
X33149Y-16298D01*
G54D17*
X33886Y-16528D02*
X32334Y-16528D01*
X32334Y-15754D02*
X33886Y-15754D01*
X33886Y-15754D02*
X33886Y-16528D01*
G54D18*
X33260Y-16400D02*
X32960Y-16400D01*
X33250Y-15882D02*
X32960Y-15882D01*
G54D17*
X32334Y-16528D02*
X32334Y-15754D01*
G54D15*
X36732Y-17165D02*
X36732Y-17358D01*
X36732Y-17358D02*
X37165Y-17358D01*
X37165Y-17165D02*
X37165Y-17358D01*
X36732Y-17165D02*
X37165Y-17165D01*
X36732Y-17665D02*
X36732Y-17858D01*
X36732Y-17858D02*
X37165Y-17858D01*
X37165Y-17665D02*
X37165Y-17858D01*
X36732Y-17665D02*
X37165Y-17665D01*
X36732Y-18164D02*
X36732Y-18357D01*
X36732Y-18357D02*
X37165Y-18357D01*
X37165Y-18164D02*
X37165Y-18357D01*
X36732Y-18164D02*
X37165Y-18164D01*
X36732Y-18664D02*
X36732Y-18857D01*
X36732Y-18857D02*
X37165Y-18857D01*
X37165Y-18664D02*
X37165Y-18857D01*
X36732Y-18664D02*
X37165Y-18664D01*
X38739Y-18664D02*
X38739Y-18857D01*
X38739Y-18857D02*
X39172Y-18857D01*
X39172Y-18664D02*
X39172Y-18857D01*
X38739Y-18664D02*
X39172Y-18664D01*
X38739Y-18164D02*
X38739Y-18357D01*
X38739Y-18357D02*
X39172Y-18357D01*
X39172Y-18164D02*
X39172Y-18357D01*
X38739Y-18164D02*
X39172Y-18164D01*
X38739Y-17665D02*
X38739Y-17858D01*
X38739Y-17858D02*
X39172Y-17858D01*
X39172Y-17665D02*
X39172Y-17858D01*
X38739Y-17665D02*
X39172Y-17665D01*
X38739Y-17165D02*
X38739Y-17358D01*
X38739Y-17358D02*
X39172Y-17358D01*
X39172Y-17165D02*
X39172Y-17358D01*
X38739Y-17165D02*
X39172Y-17165D01*
G54D19*
X39487Y-16870D02*
X39487Y-19152D01*
X39487Y-19152D02*
X36417Y-19152D01*
X36417Y-19152D02*
X36417Y-16870D01*
X36417Y-16870D02*
X39487Y-16870D01*
G54D11*
X38700Y-18955D02*
X37401Y-18955D01*
X37401Y-18955D02*
X37204Y-18955D01*
X37204Y-18955D02*
X37204Y-17067D01*
X37204Y-17067D02*
X37401Y-17067D01*
X37401Y-17067D02*
X38700Y-17067D01*
X38700Y-17067D02*
X38700Y-18955D01*
X37401Y-18955D02*
X37401Y-17067D01*
G54D13*
X32185Y-22480D02*
X32185Y-19330D01*
X32185Y-19330D02*
X37185Y-19330D01*
X37185Y-19330D02*
X37185Y-22480D01*
X37185Y-22480D02*
X32185Y-22480D01*
X36774Y-21975D02*
X36774Y-21635D01*
X36774Y-21635D02*
X35634Y-21635D01*
X35634Y-21975D02*
X35634Y-21635D01*
X36774Y-21975D02*
X35634Y-21975D01*
X36774Y-20175D02*
X36774Y-19835D01*
X36774Y-19835D02*
X35634Y-19835D01*
X35634Y-20175D02*
X35634Y-19835D01*
X36774Y-20175D02*
X35634Y-20175D01*
X35934Y-21075D02*
X35934Y-20735D01*
X35934Y-20735D02*
X35634Y-20735D01*
X35634Y-21075D02*
X35634Y-20735D01*
X35934Y-21075D02*
X35634Y-21075D01*
X33234Y-19615D02*
X35594Y-19615D01*
X35594Y-19615D02*
X35594Y-22195D01*
X35594Y-22195D02*
X33234Y-22195D01*
X33235Y-22195D02*
X33235Y-19615D01*
X33194Y-21915D02*
X32914Y-21915D01*
X32914Y-21915D02*
X32734Y-21735D01*
X32734Y-21735D02*
X32734Y-20075D01*
X32734Y-20075D02*
X32914Y-19895D01*
X32914Y-19895D02*
X33194Y-19895D01*
X33194Y-19895D02*
X33194Y-21915D01*
X33194Y-21915D02*
X32914Y-21915D01*
X32914Y-21915D02*
X32734Y-21735D01*
X32734Y-21735D02*
X32734Y-20075D01*
X32734Y-20075D02*
X32914Y-19895D01*
X32914Y-19895D02*
X33194Y-19895D01*
X33194Y-19895D02*
X33194Y-21915D01*
G54D15*
X36725Y-21075D02*
X36885Y-21075D01*
X36885Y-21075D02*
X36885Y-20735D01*
X36725Y-20735D02*
X36885Y-20735D01*
X36725Y-21075D02*
X36725Y-20735D01*
X36225Y-21075D02*
X36385Y-21075D01*
X36385Y-21075D02*
X36385Y-20735D01*
X36225Y-20735D02*
X36385Y-20735D01*
X36225Y-21075D02*
X36225Y-20735D01*
X36477Y-21062D02*
X36633Y-21062D01*
X36633Y-21062D02*
X36633Y-20748D01*
X36477Y-20748D02*
X36633Y-20748D01*
X36477Y-21062D02*
X36477Y-20748D01*
G54D16*
X36385Y-21045D02*
X36725Y-21045D01*
X36725Y-20765D02*
X36385Y-20765D01*
G54D17*
X35976Y-20518D02*
X37134Y-20518D01*
X37134Y-20518D02*
X37134Y-21292D01*
X37134Y-21292D02*
X35976Y-21292D01*
X35976Y-21292D02*
X35976Y-20518D01*
G54D12*
X31555Y-16555D02*
X31555Y-19389D01*
X31555Y-19389D02*
X30374Y-19389D01*
X30374Y-19389D02*
X30374Y-16555D01*
X30374Y-16555D02*
X31555Y-16555D01*
G54D15*
X37566Y-22099D02*
X37566Y-22259D01*
X37566Y-22259D02*
X37906Y-22259D01*
X37906Y-22099D02*
X37906Y-22259D01*
X37566Y-22099D02*
X37906Y-22099D01*
X37566Y-21599D02*
X37566Y-21759D01*
X37566Y-21759D02*
X37906Y-21759D01*
X37906Y-21599D02*
X37906Y-21759D01*
X37566Y-21599D02*
X37906Y-21599D01*
X37579Y-21851D02*
X37579Y-22007D01*
X37579Y-22007D02*
X37893Y-22007D01*
X37893Y-21851D02*
X37893Y-22007D01*
X37579Y-21851D02*
X37893Y-21851D01*
G54D16*
X37596Y-21759D02*
X37596Y-22099D01*
X37876Y-22099D02*
X37876Y-21759D01*
G54D17*
X38123Y-21350D02*
X38123Y-22508D01*
X38123Y-22508D02*
X37349Y-22508D01*
X37349Y-22508D02*
X37349Y-21350D01*
X37349Y-21350D02*
X38123Y-21350D01*
G54D20*
X36200Y-16791D02*
X36200Y-19153D01*
X36200Y-19153D02*
X31870Y-19153D01*
X31870Y-19153D02*
X31870Y-16791D01*
X31870Y-16791D02*
X36200Y-16791D01*
G54D21*
X32985Y-17297D02*
X32435Y-17297D01*
X32435Y-17297D02*
X32435Y-17147D01*
X32435Y-17147D02*
X32985Y-17147D01*
X32985Y-17797D02*
X32435Y-17797D01*
X32435Y-17797D02*
X32435Y-17647D01*
X32435Y-17647D02*
X32985Y-17647D01*
X32985Y-18297D02*
X32435Y-18297D01*
X32435Y-18297D02*
X32435Y-18147D01*
X32435Y-18147D02*
X32985Y-18147D01*
X32985Y-18797D02*
X32435Y-18797D01*
X32435Y-18797D02*
X32435Y-18647D01*
X32435Y-18647D02*
X32985Y-18647D01*
X35085Y-17147D02*
X35635Y-17147D01*
X35635Y-17147D02*
X35635Y-17297D01*
X35635Y-17297D02*
X35085Y-17297D01*
X35085Y-17647D02*
X35635Y-17647D01*
X35635Y-17647D02*
X35635Y-17797D01*
X35635Y-17797D02*
X35085Y-17797D01*
X35085Y-18147D02*
X35635Y-18147D01*
X35635Y-18147D02*
X35635Y-18297D01*
X35635Y-18297D02*
X35085Y-18297D01*
X35635Y-18647D02*
X35635Y-18797D01*
X35085Y-18647D02*
X35635Y-18647D01*
X35635Y-18797D02*
X35085Y-18797D01*
G54D20*
X33370Y-17283D02*
G75*
G03X33370Y-17283I-44J0D01*
G74*
G01*
X35078Y-18996D02*
X32992Y-18996D01*
X32992Y-18996D02*
X32992Y-16948D01*
X32992Y-16948D02*
X35078Y-16948D01*
X35078Y-16948D02*
X35078Y-18996D01*
X38803Y-14230D02*
X38803Y-14580D01*
X38824Y-14622D01*
X38845Y-14642D01*
X38886Y-14663D01*
X38968Y-14663D01*
X39010Y-14642D01*
X39030Y-14622D01*
X39051Y-14580D01*
X39051Y-14230D01*
X39484Y-14663D02*
X39236Y-14663D01*
X39360Y-14663D02*
X39360Y-14230D01*
X39319Y-14292D01*
X39278Y-14333D01*
X39236Y-14354D01*
X34486Y-14399D02*
X34053Y-14399D01*
X34465Y-14213D02*
X34486Y-14151D01*
X34486Y-14048D01*
X34465Y-14007D01*
X34445Y-13986D01*
X34403Y-13966D01*
X34362Y-13966D01*
X34321Y-13986D01*
X34300Y-14007D01*
X34280Y-14048D01*
X34259Y-14131D01*
X34238Y-14172D01*
X34218Y-14192D01*
X34176Y-14213D01*
X34135Y-14213D01*
X34094Y-14192D01*
X34073Y-14172D01*
X34053Y-14131D01*
X34053Y-14027D01*
X34073Y-13966D01*
X34486Y-13780D02*
X34053Y-13780D01*
X34053Y-13615D01*
X34073Y-13574D01*
X34094Y-13553D01*
X34135Y-13532D01*
X34197Y-13532D01*
X34238Y-13553D01*
X34259Y-13574D01*
X34280Y-13615D01*
X34280Y-13780D01*
X34809Y-15628D02*
X34665Y-15421D01*
X34562Y-15628D02*
X34562Y-15194D01*
X34727Y-15194D01*
X34768Y-15215D01*
X34789Y-15236D01*
X34809Y-15277D01*
X34809Y-15339D01*
X34789Y-15380D01*
X34768Y-15401D01*
X34727Y-15421D01*
X34562Y-15421D01*
X35222Y-15628D02*
X34974Y-15628D01*
X35098Y-15628D02*
X35098Y-15194D01*
X35057Y-15256D01*
X35015Y-15298D01*
X34974Y-15318D01*
X36482Y-15586D02*
X36462Y-15607D01*
X36400Y-15628D01*
X36359Y-15628D01*
X36297Y-15607D01*
X36256Y-15566D01*
X36235Y-15524D01*
X36214Y-15442D01*
X36214Y-15380D01*
X36235Y-15298D01*
X36256Y-15256D01*
X36297Y-15215D01*
X36359Y-15194D01*
X36400Y-15194D01*
X36462Y-15215D01*
X36482Y-15236D01*
X36627Y-15194D02*
X36895Y-15194D01*
X36751Y-15359D01*
X36812Y-15359D01*
X36854Y-15380D01*
X36874Y-15401D01*
X36895Y-15442D01*
X36895Y-15545D01*
X36874Y-15586D01*
X36854Y-15607D01*
X36812Y-15628D01*
X36689Y-15628D01*
X36647Y-15607D01*
X36627Y-15586D01*
X38471Y-15586D02*
X38450Y-15607D01*
X38388Y-15628D01*
X38347Y-15628D01*
X38285Y-15607D01*
X38244Y-15566D01*
X38223Y-15524D01*
X38203Y-15442D01*
X38203Y-15380D01*
X38223Y-15298D01*
X38244Y-15256D01*
X38285Y-15215D01*
X38347Y-15194D01*
X38388Y-15194D01*
X38450Y-15215D01*
X38471Y-15236D01*
X38636Y-15236D02*
X38656Y-15215D01*
X38697Y-15194D01*
X38801Y-15194D01*
X38842Y-15215D01*
X38862Y-15236D01*
X38883Y-15277D01*
X38883Y-15318D01*
X38862Y-15380D01*
X38615Y-15628D01*
X38883Y-15628D01*
X31856Y-16275D02*
X31836Y-16296D01*
X31774Y-16317D01*
X31733Y-16317D01*
X31671Y-16296D01*
X31630Y-16255D01*
X31609Y-16213D01*
X31588Y-16131D01*
X31588Y-16069D01*
X31609Y-15987D01*
X31630Y-15945D01*
X31671Y-15904D01*
X31733Y-15883D01*
X31774Y-15883D01*
X31836Y-15904D01*
X31856Y-15925D01*
X32269Y-16317D02*
X32021Y-16317D01*
X32145Y-16317D02*
X32145Y-15883D01*
X32104Y-15945D01*
X32063Y-15987D01*
X32021Y-16007D01*
X37714Y-18322D02*
X38065Y-18322D01*
X38106Y-18301D01*
X38127Y-18280D01*
X38147Y-18239D01*
X38147Y-18157D01*
X38127Y-18115D01*
X38106Y-18095D01*
X38065Y-18074D01*
X37714Y-18074D01*
X37755Y-17889D02*
X37735Y-17868D01*
X37714Y-17827D01*
X37714Y-17724D01*
X37735Y-17682D01*
X37755Y-17662D01*
X37797Y-17641D01*
X37838Y-17641D01*
X37900Y-17662D01*
X38147Y-17909D01*
X38147Y-17641D01*
X37360Y-20054D02*
X37360Y-19806D01*
X37793Y-19930D02*
X37360Y-19930D01*
X37793Y-19435D02*
X37793Y-19683D01*
X37793Y-19559D02*
X37360Y-19559D01*
X37422Y-19600D01*
X37463Y-19641D01*
X37484Y-19683D01*
G54D22*
X37658Y-20954D02*
X37518Y-21053D01*
X37658Y-21123D02*
X37363Y-21123D01*
X37363Y-21010D01*
X37377Y-20982D01*
X37391Y-20968D01*
X37419Y-20954D01*
X37462Y-20954D01*
X37490Y-20968D01*
X37504Y-20982D01*
X37518Y-21010D01*
X37518Y-21123D01*
X37391Y-20842D02*
X37377Y-20828D01*
X37363Y-20800D01*
X37363Y-20729D01*
X37377Y-20701D01*
X37391Y-20687D01*
X37419Y-20673D01*
X37447Y-20673D01*
X37490Y-20687D01*
X37658Y-20856D01*
X37658Y-20673D01*
G54D20*
X30628Y-16318D02*
X30586Y-16298D01*
X30545Y-16257D01*
X30483Y-16195D01*
X30442Y-16174D01*
X30401Y-16174D01*
X30421Y-16277D02*
X30380Y-16257D01*
X30339Y-16215D01*
X30318Y-16133D01*
X30318Y-15988D01*
X30339Y-15906D01*
X30380Y-15865D01*
X30421Y-15844D01*
X30504Y-15844D01*
X30545Y-15865D01*
X30586Y-15906D01*
X30607Y-15988D01*
X30607Y-16133D01*
X30586Y-16215D01*
X30545Y-16257D01*
X30504Y-16277D01*
X30421Y-16277D01*
X31019Y-16277D02*
X30772Y-16277D01*
X30896Y-16277D02*
X30896Y-15844D01*
X30854Y-15906D01*
X30813Y-15947D01*
X30772Y-15968D01*
G54D22*
X38435Y-22521D02*
X38336Y-22380D01*
X38266Y-22521D02*
X38266Y-22225D01*
X38378Y-22225D01*
X38406Y-22239D01*
X38420Y-22253D01*
X38435Y-22282D01*
X38435Y-22324D01*
X38420Y-22352D01*
X38406Y-22366D01*
X38378Y-22380D01*
X38266Y-22380D01*
X38533Y-22225D02*
X38716Y-22225D01*
X38617Y-22338D01*
X38660Y-22338D01*
X38688Y-22352D01*
X38702Y-22366D01*
X38716Y-22394D01*
X38716Y-22464D01*
X38702Y-22492D01*
X38688Y-22507D01*
X38660Y-22521D01*
X38575Y-22521D01*
X38547Y-22507D01*
X38533Y-22492D01*
G54D20*
X34250Y-18355D02*
X33817Y-18355D01*
X34208Y-17902D02*
X34229Y-17922D01*
X34250Y-17984D01*
X34250Y-18025D01*
X34229Y-18087D01*
X34188Y-18128D01*
X34146Y-18149D01*
X34064Y-18170D01*
X34002Y-18170D01*
X33920Y-18149D01*
X33878Y-18128D01*
X33837Y-18087D01*
X33817Y-18025D01*
X33817Y-17984D01*
X33837Y-17922D01*
X33858Y-17902D01*
X34250Y-17489D02*
X34250Y-17737D01*
X34250Y-17613D02*
X33817Y-17613D01*
X33878Y-17654D01*
X33920Y-17695D01*
X33940Y-17737D01*
%LPC*%
G54D23*
X38877Y-21562D03*
G54D24*
X38877Y-20562D03*
G54D23*
X30787Y-21562D03*
G54D24*
X30787Y-20562D03*
G54D25*
X38066Y-14488D03*
G54D26*
X37066Y-14488D03*
X36066Y-14488D03*
G54D27*
X33027Y-14066D03*
G54D28*
X33027Y-15066D03*
X32027Y-14066D03*
X32027Y-15066D03*
X31027Y-14066D03*
X31027Y-15066D03*
G54D29*
X35255Y-16141D03*
X34507Y-16141D03*
X37027Y-16141D03*
X36279Y-16141D03*
X38917Y-16141D03*
X38169Y-16141D03*
X33484Y-16141D03*
X32736Y-16141D03*
G54D30*
X36929Y-17261D03*
X36929Y-17761D03*
X36929Y-18261D03*
X36929Y-18761D03*
X38975Y-18761D03*
X38975Y-18261D03*
X38975Y-17761D03*
X38975Y-17261D03*
G54D31*
X36476Y-21811D03*
X36476Y-20000D03*
G54D32*
X33760Y-20905D03*
G54D33*
X36221Y-20905D03*
X36889Y-20905D03*
G54D34*
X30964Y-16988D03*
G54D35*
X30964Y-17972D03*
G54D34*
X30964Y-18956D03*
G54D36*
X37736Y-21595D03*
X37736Y-22263D03*
G54D37*
X32535Y-17222D03*
X32535Y-17722D03*
X32535Y-18222D03*
X32535Y-18722D03*
X35535Y-18722D03*
X35535Y-18222D03*
X35535Y-17722D03*
X35535Y-17222D03*
M02*
