G04 (created by PCBNEW (2013-01-07 BZR 3892)-testing) date Tue 08 Jan 2013 03:46:08 PM CET*
%MOIN*%
G04 Gerber Fmt 3.4, Leading zero omitted, Abs format*
%FSLAX34Y34*%
G01*
G70*
G90*
G04 APERTURE LIST*
%ADD10C,3.14961e-06*%
%ADD11C,0.015*%
%ADD12R,0.11811X0.0787402*%
%ADD13O,0.11811X0.0787402*%
%ADD14R,0.055X0.055*%
%ADD15C,0.055*%
%ADD16R,0.06X0.06*%
%ADD17C,0.06*%
%ADD18R,0.0511X0.059*%
%ADD19R,0.0866X0.0236*%
%ADD20R,0.0984252X0.0590551*%
%ADD21R,0.275591X0.275591*%
%ADD22R,0.0393X0.0433*%
%ADD23R,0.149606X0.0472441*%
%ADD24R,0.149606X0.0551181*%
%ADD25R,0.0433X0.0393*%
%ADD26R,0.0866142X0.0275591*%
G04 APERTURE END LIST*
G54D10*
G54D11*
X29921Y-22834D02*
X29921Y-12992D01*
X39763Y-22834D02*
X29921Y-22834D01*
X39763Y-12992D02*
X39763Y-22834D01*
X29921Y-12992D02*
X39763Y-12992D01*
G54D12*
X38877Y-21562D03*
G54D13*
X38877Y-20562D03*
G54D12*
X30787Y-21562D03*
G54D13*
X30787Y-20562D03*
G54D14*
X38066Y-14488D03*
G54D15*
X37066Y-14488D03*
X36066Y-14488D03*
G54D16*
X33027Y-14066D03*
G54D17*
X33027Y-15066D03*
X32027Y-14066D03*
X32027Y-15066D03*
X31027Y-14066D03*
X31027Y-15066D03*
G54D18*
X35255Y-16141D03*
X34507Y-16141D03*
X37027Y-16141D03*
X36279Y-16141D03*
X38917Y-16141D03*
X38169Y-16141D03*
X33484Y-16141D03*
X32736Y-16141D03*
G54D19*
X36929Y-17261D03*
X36929Y-17761D03*
X36929Y-18261D03*
X36929Y-18761D03*
X38975Y-18761D03*
X38975Y-18261D03*
X38975Y-17761D03*
X38975Y-17261D03*
G54D20*
X36476Y-21811D03*
X36476Y-20000D03*
G54D21*
X33760Y-20905D03*
G54D22*
X36221Y-20905D03*
X36889Y-20905D03*
G54D23*
X30964Y-16988D03*
G54D24*
X30964Y-17972D03*
G54D23*
X30964Y-18956D03*
G54D25*
X37736Y-21595D03*
X37736Y-22263D03*
G54D26*
X32535Y-17222D03*
X32535Y-17722D03*
X32535Y-18222D03*
X32535Y-18722D03*
X35535Y-18722D03*
X35535Y-18222D03*
X35535Y-17722D03*
X35535Y-17222D03*
M02*
