G04 (created by PCBNEW (2012-11-23 BZR 3812)-testing) date Sun 25 Nov 2012 04:10:31 PM CET*
%MOIN*%
G04 Gerber Fmt 3.4, Leading zero omitted, Abs format*
%FSLAX34Y34*%
G01*
G70*
G90*
G04 APERTURE LIST*
%ADD10C,3.14961e-06*%
%ADD11C,0.008*%
%ADD12C,0.011811*%
%ADD13C,0.012*%
%ADD14C,0.015*%
%ADD15C,0.0026*%
%ADD16C,0.006*%
%ADD17C,0.002*%
%ADD18C,0.004*%
%ADD19C,0.0078*%
%ADD20C,0.00984252*%
%ADD21R,0.055X0.055*%
%ADD22C,0.055*%
%ADD23R,0.149606X0.0472441*%
%ADD24R,0.0629X0.0393*%
%ADD25R,0.244X0.2125*%
%ADD26R,0.06X0.06*%
%ADD27C,0.06*%
%ADD28R,0.0511X0.059*%
%ADD29R,0.059X0.0511*%
%ADD30R,0.0866X0.0236*%
G04 APERTURE END LIST*
G54D10*
G54D11*
X38216Y-22839D02*
X37988Y-22839D01*
X38102Y-22839D02*
X38102Y-22439D01*
X38064Y-22496D01*
X38026Y-22534D01*
X37988Y-22553D01*
X38369Y-22477D02*
X38388Y-22458D01*
X38426Y-22439D01*
X38521Y-22439D01*
X38559Y-22458D01*
X38578Y-22477D01*
X38597Y-22515D01*
X38597Y-22553D01*
X38578Y-22610D01*
X38350Y-22839D01*
X38597Y-22839D01*
X38712Y-22439D02*
X38845Y-22839D01*
X38978Y-22439D01*
X30623Y-22439D02*
X30699Y-22439D01*
X30737Y-22458D01*
X30776Y-22496D01*
X30795Y-22572D01*
X30795Y-22705D01*
X30776Y-22781D01*
X30737Y-22820D01*
X30699Y-22839D01*
X30623Y-22839D01*
X30585Y-22820D01*
X30547Y-22781D01*
X30528Y-22705D01*
X30528Y-22572D01*
X30547Y-22496D01*
X30585Y-22458D01*
X30623Y-22439D01*
X30966Y-22439D02*
X30966Y-22762D01*
X30985Y-22800D01*
X31004Y-22820D01*
X31042Y-22839D01*
X31118Y-22839D01*
X31156Y-22820D01*
X31176Y-22800D01*
X31195Y-22762D01*
X31195Y-22439D01*
X31328Y-22439D02*
X31556Y-22439D01*
X31442Y-22839D02*
X31442Y-22439D01*
X35223Y-13383D02*
X35451Y-13383D01*
X35337Y-13783D02*
X35337Y-13383D01*
X35565Y-13764D02*
X35623Y-13783D01*
X35718Y-13783D01*
X35756Y-13764D01*
X35775Y-13745D01*
X35794Y-13707D01*
X35794Y-13669D01*
X35775Y-13631D01*
X35756Y-13612D01*
X35718Y-13593D01*
X35642Y-13574D01*
X35604Y-13555D01*
X35585Y-13536D01*
X35565Y-13498D01*
X35565Y-13460D01*
X35585Y-13422D01*
X35604Y-13402D01*
X35642Y-13383D01*
X35737Y-13383D01*
X35794Y-13402D01*
X36042Y-13383D02*
X36118Y-13383D01*
X36156Y-13402D01*
X36194Y-13441D01*
X36213Y-13517D01*
X36213Y-13650D01*
X36194Y-13726D01*
X36156Y-13764D01*
X36118Y-13783D01*
X36042Y-13783D01*
X36004Y-13764D01*
X35965Y-13726D01*
X35946Y-13650D01*
X35946Y-13517D01*
X35965Y-13441D01*
X36004Y-13402D01*
X36042Y-13383D01*
X36385Y-13783D02*
X36385Y-13383D01*
X36537Y-13383D01*
X36575Y-13402D01*
X36594Y-13422D01*
X36613Y-13460D01*
X36613Y-13517D01*
X36594Y-13555D01*
X36575Y-13574D01*
X36537Y-13593D01*
X36385Y-13593D01*
X36746Y-13383D02*
X36994Y-13383D01*
X36861Y-13536D01*
X36918Y-13536D01*
X36956Y-13555D01*
X36975Y-13574D01*
X36994Y-13612D01*
X36994Y-13707D01*
X36975Y-13745D01*
X36956Y-13764D01*
X36918Y-13783D01*
X36804Y-13783D01*
X36765Y-13764D01*
X36746Y-13745D01*
X37223Y-13555D02*
X37185Y-13536D01*
X37165Y-13517D01*
X37146Y-13479D01*
X37146Y-13460D01*
X37165Y-13422D01*
X37185Y-13402D01*
X37223Y-13383D01*
X37299Y-13383D01*
X37337Y-13402D01*
X37356Y-13422D01*
X37375Y-13460D01*
X37375Y-13479D01*
X37356Y-13517D01*
X37337Y-13536D01*
X37299Y-13555D01*
X37223Y-13555D01*
X37185Y-13574D01*
X37165Y-13593D01*
X37146Y-13631D01*
X37146Y-13707D01*
X37165Y-13745D01*
X37185Y-13764D01*
X37223Y-13783D01*
X37299Y-13783D01*
X37337Y-13764D01*
X37356Y-13745D01*
X37375Y-13707D01*
X37375Y-13631D01*
X37356Y-13593D01*
X37337Y-13574D01*
X37299Y-13555D01*
X37527Y-13422D02*
X37546Y-13402D01*
X37585Y-13383D01*
X37680Y-13383D01*
X37718Y-13402D01*
X37737Y-13422D01*
X37756Y-13460D01*
X37756Y-13498D01*
X37737Y-13555D01*
X37508Y-13783D01*
X37756Y-13783D01*
X37889Y-13383D02*
X38137Y-13383D01*
X38004Y-13536D01*
X38061Y-13536D01*
X38099Y-13555D01*
X38118Y-13574D01*
X38137Y-13612D01*
X38137Y-13707D01*
X38118Y-13745D01*
X38099Y-13764D01*
X38061Y-13783D01*
X37946Y-13783D01*
X37908Y-13764D01*
X37889Y-13745D01*
X38365Y-13555D02*
X38327Y-13536D01*
X38308Y-13517D01*
X38289Y-13479D01*
X38289Y-13460D01*
X38308Y-13422D01*
X38327Y-13402D01*
X38365Y-13383D01*
X38442Y-13383D01*
X38480Y-13402D01*
X38499Y-13422D01*
X38518Y-13460D01*
X38518Y-13479D01*
X38499Y-13517D01*
X38480Y-13536D01*
X38442Y-13555D01*
X38365Y-13555D01*
X38327Y-13574D01*
X38308Y-13593D01*
X38289Y-13631D01*
X38289Y-13707D01*
X38308Y-13745D01*
X38327Y-13764D01*
X38365Y-13783D01*
X38442Y-13783D01*
X38480Y-13764D01*
X38499Y-13745D01*
X38518Y-13707D01*
X38518Y-13631D01*
X38499Y-13593D01*
X38480Y-13574D01*
X38442Y-13555D01*
X39158Y-21781D02*
X39463Y-21781D01*
X39158Y-20796D02*
X39463Y-20796D01*
X39311Y-20949D02*
X39311Y-20644D01*
X30024Y-21781D02*
X30329Y-21781D01*
X30024Y-20757D02*
X30329Y-20757D01*
X30177Y-20909D02*
X30177Y-20605D01*
G54D12*
X36929Y-14015D02*
G75*
G03X36771Y-14173I0J-157D01*
G74*
G01*
X37086Y-14173D02*
G75*
G03X36929Y-14015I-157J0D01*
G74*
G01*
G54D13*
X38429Y-14185D02*
X38429Y-15185D01*
X38429Y-15185D02*
X35429Y-15185D01*
X35429Y-15185D02*
X35429Y-14185D01*
X35429Y-14185D02*
X38429Y-14185D01*
X37429Y-15185D02*
X37429Y-14185D01*
G54D14*
X31692Y-16791D02*
X31692Y-19625D01*
X31692Y-19625D02*
X30511Y-19625D01*
X30511Y-19625D02*
X30511Y-16791D01*
X30511Y-16791D02*
X31692Y-16791D01*
G54D12*
X37266Y-22231D02*
X37266Y-21891D01*
X37266Y-21891D02*
X36126Y-21891D01*
X36126Y-22231D02*
X36126Y-21891D01*
X37266Y-22231D02*
X36126Y-22231D01*
X37266Y-20431D02*
X37266Y-20091D01*
X37266Y-20091D02*
X36126Y-20091D01*
X36126Y-20431D02*
X36126Y-20091D01*
X37266Y-20431D02*
X36126Y-20431D01*
X36426Y-21331D02*
X36426Y-20991D01*
X36426Y-20991D02*
X36126Y-20991D01*
X36126Y-21331D02*
X36126Y-20991D01*
X36426Y-21331D02*
X36126Y-21331D01*
X33726Y-19871D02*
X36086Y-19871D01*
X36086Y-19871D02*
X36086Y-22451D01*
X36086Y-22451D02*
X33726Y-22451D01*
X33727Y-22451D02*
X33727Y-19871D01*
X32881Y-22725D02*
X32881Y-19597D01*
X37591Y-19597D02*
X37591Y-22725D01*
X37591Y-22725D02*
X32881Y-22725D01*
X32881Y-19597D02*
X37591Y-19597D01*
X33686Y-22171D02*
X33406Y-22171D01*
X33406Y-22171D02*
X33226Y-21991D01*
X33226Y-21991D02*
X33226Y-20331D01*
X33226Y-20331D02*
X33406Y-20151D01*
X33406Y-20151D02*
X33686Y-20151D01*
X33686Y-20151D02*
X33686Y-22171D01*
X33686Y-22171D02*
X33406Y-22171D01*
X33406Y-22171D02*
X33226Y-21991D01*
X33226Y-21991D02*
X33226Y-20331D01*
X33226Y-20331D02*
X33406Y-20151D01*
X33406Y-20151D02*
X33686Y-20151D01*
X33686Y-20151D02*
X33686Y-22171D01*
G54D14*
X33385Y-15747D02*
X33385Y-13779D01*
X30393Y-13779D02*
X30393Y-15747D01*
X30393Y-15747D02*
X33385Y-15747D01*
X33385Y-13779D02*
X30432Y-13779D01*
X30432Y-13779D02*
X30393Y-13779D01*
X33621Y-13543D02*
X33621Y-14763D01*
X33621Y-13543D02*
X32361Y-13543D01*
G54D15*
X34584Y-16063D02*
X34329Y-16063D01*
X34329Y-16063D02*
X34329Y-16614D01*
X34584Y-16614D02*
X34329Y-16614D01*
X34584Y-16063D02*
X34584Y-16614D01*
X35164Y-16063D02*
X34908Y-16063D01*
X34908Y-16063D02*
X34908Y-16614D01*
X35164Y-16614D02*
X34908Y-16614D01*
X35164Y-16063D02*
X35164Y-16614D01*
X34822Y-16142D02*
X34666Y-16142D01*
X34666Y-16142D02*
X34666Y-16534D01*
X34822Y-16534D02*
X34666Y-16534D01*
X34822Y-16142D02*
X34822Y-16534D01*
G54D16*
X34905Y-16588D02*
X34583Y-16588D01*
X34905Y-16088D02*
X34583Y-16088D01*
G54D17*
X35520Y-16725D02*
X33968Y-16725D01*
X33968Y-16725D02*
X33968Y-15951D01*
X33968Y-15951D02*
X35520Y-15951D01*
X35520Y-15951D02*
X35520Y-16725D01*
G54D15*
X31910Y-20632D02*
X31910Y-20887D01*
X31910Y-20887D02*
X32461Y-20887D01*
X32461Y-20632D02*
X32461Y-20887D01*
X31910Y-20632D02*
X32461Y-20632D01*
X31910Y-20052D02*
X31910Y-20308D01*
X31910Y-20308D02*
X32461Y-20308D01*
X32461Y-20052D02*
X32461Y-20308D01*
X31910Y-20052D02*
X32461Y-20052D01*
X31989Y-20394D02*
X31989Y-20550D01*
X31989Y-20550D02*
X32381Y-20550D01*
X32381Y-20394D02*
X32381Y-20550D01*
X31989Y-20394D02*
X32381Y-20394D01*
G54D16*
X32435Y-20311D02*
X32435Y-20633D01*
X31935Y-20311D02*
X31935Y-20633D01*
G54D17*
X32572Y-19696D02*
X32572Y-21248D01*
X32572Y-21248D02*
X31798Y-21248D01*
X31798Y-21248D02*
X31798Y-19696D01*
X31798Y-19696D02*
X32572Y-19696D01*
G54D15*
X36944Y-16053D02*
X36649Y-16053D01*
X36649Y-16053D02*
X36649Y-16623D01*
X36944Y-16623D02*
X36649Y-16623D01*
X36944Y-16053D02*
X36944Y-16623D01*
X36375Y-16053D02*
X36080Y-16053D01*
X36080Y-16053D02*
X36080Y-16623D01*
X36375Y-16623D02*
X36080Y-16623D01*
X36375Y-16053D02*
X36375Y-16623D01*
X36554Y-16181D02*
X36476Y-16181D01*
X36476Y-16181D02*
X36476Y-16495D01*
X36554Y-16495D02*
X36476Y-16495D01*
X36554Y-16181D02*
X36554Y-16495D01*
G54D17*
X37291Y-16725D02*
X35739Y-16725D01*
X35739Y-15951D02*
X37291Y-15951D01*
X37291Y-15951D02*
X37291Y-16725D01*
G54D18*
X36665Y-16597D02*
X36365Y-16597D01*
X36655Y-16079D02*
X36365Y-16079D01*
G54D17*
X35739Y-16725D02*
X35739Y-15951D01*
G54D15*
X38716Y-16053D02*
X38421Y-16053D01*
X38421Y-16053D02*
X38421Y-16623D01*
X38716Y-16623D02*
X38421Y-16623D01*
X38716Y-16053D02*
X38716Y-16623D01*
X38147Y-16053D02*
X37852Y-16053D01*
X37852Y-16053D02*
X37852Y-16623D01*
X38147Y-16623D02*
X37852Y-16623D01*
X38147Y-16053D02*
X38147Y-16623D01*
X38326Y-16181D02*
X38248Y-16181D01*
X38248Y-16181D02*
X38248Y-16495D01*
X38326Y-16495D02*
X38248Y-16495D01*
X38326Y-16181D02*
X38326Y-16495D01*
G54D17*
X39063Y-16725D02*
X37511Y-16725D01*
X37511Y-15951D02*
X39063Y-15951D01*
X39063Y-15951D02*
X39063Y-16725D01*
G54D18*
X38437Y-16597D02*
X38137Y-16597D01*
X38427Y-16079D02*
X38137Y-16079D01*
G54D17*
X37511Y-16725D02*
X37511Y-15951D01*
G54D15*
X33401Y-16053D02*
X33106Y-16053D01*
X33106Y-16053D02*
X33106Y-16623D01*
X33401Y-16623D02*
X33106Y-16623D01*
X33401Y-16053D02*
X33401Y-16623D01*
X32832Y-16053D02*
X32537Y-16053D01*
X32537Y-16053D02*
X32537Y-16623D01*
X32832Y-16623D02*
X32537Y-16623D01*
X32832Y-16053D02*
X32832Y-16623D01*
X33011Y-16181D02*
X32933Y-16181D01*
X32933Y-16181D02*
X32933Y-16495D01*
X33011Y-16495D02*
X32933Y-16495D01*
X33011Y-16181D02*
X33011Y-16495D01*
G54D17*
X33748Y-16725D02*
X32196Y-16725D01*
X32196Y-15951D02*
X33748Y-15951D01*
X33748Y-15951D02*
X33748Y-16725D01*
G54D18*
X33122Y-16597D02*
X32822Y-16597D01*
X33112Y-16079D02*
X32822Y-16079D01*
G54D17*
X32196Y-16725D02*
X32196Y-15951D01*
G54D15*
X32835Y-17362D02*
X32835Y-17555D01*
X32835Y-17555D02*
X33268Y-17555D01*
X33268Y-17362D02*
X33268Y-17555D01*
X32835Y-17362D02*
X33268Y-17362D01*
X32835Y-17862D02*
X32835Y-18055D01*
X32835Y-18055D02*
X33268Y-18055D01*
X33268Y-17862D02*
X33268Y-18055D01*
X32835Y-17862D02*
X33268Y-17862D01*
X32835Y-18361D02*
X32835Y-18554D01*
X32835Y-18554D02*
X33268Y-18554D01*
X33268Y-18361D02*
X33268Y-18554D01*
X32835Y-18361D02*
X33268Y-18361D01*
X32835Y-18861D02*
X32835Y-19054D01*
X32835Y-19054D02*
X33268Y-19054D01*
X33268Y-18861D02*
X33268Y-19054D01*
X32835Y-18861D02*
X33268Y-18861D01*
X34842Y-18861D02*
X34842Y-19054D01*
X34842Y-19054D02*
X35275Y-19054D01*
X35275Y-18861D02*
X35275Y-19054D01*
X34842Y-18861D02*
X35275Y-18861D01*
X34842Y-18361D02*
X34842Y-18554D01*
X34842Y-18554D02*
X35275Y-18554D01*
X35275Y-18361D02*
X35275Y-18554D01*
X34842Y-18361D02*
X35275Y-18361D01*
X34842Y-17862D02*
X34842Y-18055D01*
X34842Y-18055D02*
X35275Y-18055D01*
X35275Y-17862D02*
X35275Y-18055D01*
X34842Y-17862D02*
X35275Y-17862D01*
X34842Y-17362D02*
X34842Y-17555D01*
X34842Y-17555D02*
X35275Y-17555D01*
X35275Y-17362D02*
X35275Y-17555D01*
X34842Y-17362D02*
X35275Y-17362D01*
G54D19*
X35590Y-17067D02*
X35590Y-19349D01*
X35590Y-19349D02*
X32520Y-19349D01*
X32520Y-19349D02*
X32520Y-17067D01*
X32520Y-17067D02*
X35590Y-17067D01*
G54D11*
X34803Y-19152D02*
X33504Y-19152D01*
X33504Y-19152D02*
X33307Y-19152D01*
X33307Y-19152D02*
X33307Y-17264D01*
X33307Y-17264D02*
X33504Y-17264D01*
X33504Y-17264D02*
X34803Y-17264D01*
X34803Y-17264D02*
X34803Y-19152D01*
X33504Y-19152D02*
X33504Y-17264D01*
G54D15*
X36280Y-17362D02*
X36280Y-17555D01*
X36280Y-17555D02*
X36713Y-17555D01*
X36713Y-17362D02*
X36713Y-17555D01*
X36280Y-17362D02*
X36713Y-17362D01*
X36280Y-17862D02*
X36280Y-18055D01*
X36280Y-18055D02*
X36713Y-18055D01*
X36713Y-17862D02*
X36713Y-18055D01*
X36280Y-17862D02*
X36713Y-17862D01*
X36280Y-18361D02*
X36280Y-18554D01*
X36280Y-18554D02*
X36713Y-18554D01*
X36713Y-18361D02*
X36713Y-18554D01*
X36280Y-18361D02*
X36713Y-18361D01*
X36280Y-18861D02*
X36280Y-19054D01*
X36280Y-19054D02*
X36713Y-19054D01*
X36713Y-18861D02*
X36713Y-19054D01*
X36280Y-18861D02*
X36713Y-18861D01*
X38287Y-18861D02*
X38287Y-19054D01*
X38287Y-19054D02*
X38720Y-19054D01*
X38720Y-18861D02*
X38720Y-19054D01*
X38287Y-18861D02*
X38720Y-18861D01*
X38287Y-18361D02*
X38287Y-18554D01*
X38287Y-18554D02*
X38720Y-18554D01*
X38720Y-18361D02*
X38720Y-18554D01*
X38287Y-18361D02*
X38720Y-18361D01*
X38287Y-17862D02*
X38287Y-18055D01*
X38287Y-18055D02*
X38720Y-18055D01*
X38720Y-17862D02*
X38720Y-18055D01*
X38287Y-17862D02*
X38720Y-17862D01*
X38287Y-17362D02*
X38287Y-17555D01*
X38287Y-17555D02*
X38720Y-17555D01*
X38720Y-17362D02*
X38720Y-17555D01*
X38287Y-17362D02*
X38720Y-17362D01*
G54D19*
X39035Y-17067D02*
X39035Y-19349D01*
X39035Y-19349D02*
X35965Y-19349D01*
X35965Y-19349D02*
X35965Y-17067D01*
X35965Y-17067D02*
X39035Y-17067D01*
G54D11*
X38248Y-19152D02*
X36949Y-19152D01*
X36949Y-19152D02*
X36752Y-19152D01*
X36752Y-19152D02*
X36752Y-17264D01*
X36752Y-17264D02*
X36949Y-17264D01*
X36949Y-17264D02*
X38248Y-17264D01*
X38248Y-17264D02*
X38248Y-19152D01*
X36949Y-19152D02*
X36949Y-17264D01*
G54D13*
X30503Y-20259D02*
X31503Y-20259D01*
X31503Y-20259D02*
X31503Y-22259D01*
X31503Y-22259D02*
X30503Y-22259D01*
X30503Y-22259D02*
X30503Y-20259D01*
X37984Y-20259D02*
X38984Y-20259D01*
X38984Y-20259D02*
X38984Y-22259D01*
X38984Y-22259D02*
X37984Y-22259D01*
X37984Y-22259D02*
X37984Y-20259D01*
G54D20*
X38666Y-14427D02*
X38666Y-14777D01*
X38686Y-14819D01*
X38707Y-14839D01*
X38748Y-14860D01*
X38831Y-14860D01*
X38872Y-14839D01*
X38892Y-14819D01*
X38913Y-14777D01*
X38913Y-14427D01*
X39346Y-14860D02*
X39099Y-14860D01*
X39222Y-14860D02*
X39222Y-14427D01*
X39181Y-14489D01*
X39140Y-14530D01*
X39099Y-14550D01*
X30765Y-16594D02*
X30724Y-16573D01*
X30683Y-16532D01*
X30621Y-16470D01*
X30580Y-16450D01*
X30538Y-16450D01*
X30559Y-16553D02*
X30518Y-16532D01*
X30477Y-16491D01*
X30456Y-16408D01*
X30456Y-16264D01*
X30477Y-16182D01*
X30518Y-16140D01*
X30559Y-16120D01*
X30642Y-16120D01*
X30683Y-16140D01*
X30724Y-16182D01*
X30745Y-16264D01*
X30745Y-16408D01*
X30724Y-16491D01*
X30683Y-16532D01*
X30642Y-16553D01*
X30559Y-16553D01*
X31157Y-16553D02*
X30910Y-16553D01*
X31033Y-16553D02*
X31033Y-16120D01*
X30992Y-16182D01*
X30951Y-16223D01*
X30910Y-16243D01*
X36756Y-20923D02*
X37004Y-20923D01*
X36880Y-21356D02*
X36880Y-20923D01*
X37375Y-21356D02*
X37127Y-21356D01*
X37251Y-21356D02*
X37251Y-20923D01*
X37210Y-20985D01*
X37169Y-21026D01*
X37127Y-21047D01*
X34348Y-14595D02*
X33915Y-14595D01*
X34327Y-14410D02*
X34348Y-14348D01*
X34348Y-14245D01*
X34327Y-14204D01*
X34307Y-14183D01*
X34266Y-14162D01*
X34224Y-14162D01*
X34183Y-14183D01*
X34162Y-14204D01*
X34142Y-14245D01*
X34121Y-14327D01*
X34101Y-14369D01*
X34080Y-14389D01*
X34039Y-14410D01*
X33997Y-14410D01*
X33956Y-14389D01*
X33936Y-14369D01*
X33915Y-14327D01*
X33915Y-14224D01*
X33936Y-14162D01*
X34348Y-13977D02*
X33915Y-13977D01*
X33915Y-13812D01*
X33936Y-13771D01*
X33956Y-13750D01*
X33997Y-13729D01*
X34059Y-13729D01*
X34101Y-13750D01*
X34121Y-13771D01*
X34142Y-13812D01*
X34142Y-13977D01*
X34671Y-15824D02*
X34527Y-15618D01*
X34424Y-15824D02*
X34424Y-15391D01*
X34589Y-15391D01*
X34630Y-15412D01*
X34651Y-15433D01*
X34671Y-15474D01*
X34671Y-15536D01*
X34651Y-15577D01*
X34630Y-15598D01*
X34589Y-15618D01*
X34424Y-15618D01*
X35084Y-15824D02*
X34836Y-15824D01*
X34960Y-15824D02*
X34960Y-15391D01*
X34919Y-15453D01*
X34878Y-15494D01*
X34836Y-15515D01*
X32112Y-21730D02*
X31968Y-21524D01*
X31865Y-21730D02*
X31865Y-21297D01*
X32030Y-21297D01*
X32071Y-21317D01*
X32092Y-21338D01*
X32112Y-21379D01*
X32112Y-21441D01*
X32092Y-21482D01*
X32071Y-21503D01*
X32030Y-21524D01*
X31865Y-21524D01*
X32277Y-21338D02*
X32298Y-21317D01*
X32339Y-21297D01*
X32442Y-21297D01*
X32484Y-21317D01*
X32504Y-21338D01*
X32525Y-21379D01*
X32525Y-21421D01*
X32504Y-21482D01*
X32257Y-21730D01*
X32525Y-21730D01*
X36345Y-15783D02*
X36324Y-15804D01*
X36262Y-15824D01*
X36221Y-15824D01*
X36159Y-15804D01*
X36118Y-15763D01*
X36097Y-15721D01*
X36077Y-15639D01*
X36077Y-15577D01*
X36097Y-15494D01*
X36118Y-15453D01*
X36159Y-15412D01*
X36221Y-15391D01*
X36262Y-15391D01*
X36324Y-15412D01*
X36345Y-15433D01*
X36489Y-15391D02*
X36757Y-15391D01*
X36613Y-15556D01*
X36675Y-15556D01*
X36716Y-15577D01*
X36736Y-15598D01*
X36757Y-15639D01*
X36757Y-15742D01*
X36736Y-15783D01*
X36716Y-15804D01*
X36675Y-15824D01*
X36551Y-15824D01*
X36510Y-15804D01*
X36489Y-15783D01*
X38215Y-15783D02*
X38194Y-15804D01*
X38132Y-15824D01*
X38091Y-15824D01*
X38029Y-15804D01*
X37988Y-15763D01*
X37967Y-15721D01*
X37947Y-15639D01*
X37947Y-15577D01*
X37967Y-15494D01*
X37988Y-15453D01*
X38029Y-15412D01*
X38091Y-15391D01*
X38132Y-15391D01*
X38194Y-15412D01*
X38215Y-15433D01*
X38380Y-15433D02*
X38400Y-15412D01*
X38442Y-15391D01*
X38545Y-15391D01*
X38586Y-15412D01*
X38607Y-15433D01*
X38627Y-15474D01*
X38627Y-15515D01*
X38607Y-15577D01*
X38359Y-15824D01*
X38627Y-15824D01*
X31719Y-16472D02*
X31698Y-16493D01*
X31636Y-16513D01*
X31595Y-16513D01*
X31533Y-16493D01*
X31492Y-16452D01*
X31471Y-16410D01*
X31451Y-16328D01*
X31451Y-16266D01*
X31471Y-16183D01*
X31492Y-16142D01*
X31533Y-16101D01*
X31595Y-16080D01*
X31636Y-16080D01*
X31698Y-16101D01*
X31719Y-16122D01*
X32131Y-16513D02*
X31884Y-16513D01*
X32007Y-16513D02*
X32007Y-16080D01*
X31966Y-16142D01*
X31925Y-16183D01*
X31884Y-16204D01*
X34230Y-18532D02*
X33797Y-18532D01*
X34189Y-18079D02*
X34209Y-18099D01*
X34230Y-18161D01*
X34230Y-18203D01*
X34209Y-18264D01*
X34168Y-18306D01*
X34127Y-18326D01*
X34044Y-18347D01*
X33982Y-18347D01*
X33900Y-18326D01*
X33859Y-18306D01*
X33817Y-18264D01*
X33797Y-18203D01*
X33797Y-18161D01*
X33817Y-18099D01*
X33838Y-18079D01*
X34230Y-17666D02*
X34230Y-17914D01*
X34230Y-17790D02*
X33797Y-17790D01*
X33859Y-17831D01*
X33900Y-17873D01*
X33921Y-17914D01*
X37261Y-18518D02*
X37612Y-18518D01*
X37653Y-18498D01*
X37674Y-18477D01*
X37694Y-18436D01*
X37694Y-18353D01*
X37674Y-18312D01*
X37653Y-18292D01*
X37612Y-18271D01*
X37261Y-18271D01*
X37303Y-18085D02*
X37282Y-18065D01*
X37261Y-18023D01*
X37261Y-17920D01*
X37282Y-17879D01*
X37303Y-17859D01*
X37344Y-17838D01*
X37385Y-17838D01*
X37447Y-17859D01*
X37694Y-18106D01*
X37694Y-17838D01*
%LPC*%
G54D21*
X37929Y-14685D03*
G54D22*
X36929Y-14685D03*
X35929Y-14685D03*
G54D23*
X31102Y-17263D03*
X31102Y-18208D03*
X31102Y-19153D03*
G54D24*
X37125Y-22058D03*
X37125Y-20264D03*
G54D25*
X34252Y-21161D03*
G54D26*
X32889Y-14263D03*
G54D27*
X32889Y-15263D03*
X31889Y-14263D03*
X31889Y-15263D03*
X30889Y-14263D03*
X30889Y-15263D03*
G54D28*
X35118Y-16338D03*
X34370Y-16338D03*
G54D29*
X32185Y-20098D03*
X32185Y-20846D03*
G54D28*
X36889Y-16338D03*
X36141Y-16338D03*
X38661Y-16338D03*
X37913Y-16338D03*
X33346Y-16338D03*
X32598Y-16338D03*
G54D30*
X33032Y-17458D03*
X33032Y-17958D03*
X33032Y-18458D03*
X33032Y-18958D03*
X35078Y-18958D03*
X35078Y-18458D03*
X35078Y-17958D03*
X35078Y-17458D03*
X36477Y-17458D03*
X36477Y-17958D03*
X36477Y-18458D03*
X36477Y-18958D03*
X38523Y-18958D03*
X38523Y-18458D03*
X38523Y-17958D03*
X38523Y-17458D03*
G54D21*
X31003Y-20759D03*
G54D22*
X31003Y-21759D03*
G54D21*
X38484Y-20759D03*
G54D22*
X38484Y-21759D03*
M02*
