G04 (created by PCBNEW (2013-05-18 BZR 4155)-testing) date Sun 19 May 2013 07:30:19 PM CEST*
%MOIN*%
G04 Gerber Fmt 3.4, Leading zero omitted, Abs format*
%FSLAX34Y34*%
G01*
G70*
G90*
G04 APERTURE LIST*
%ADD10C,0.005906*%
%ADD11C,0.007874*%
%ADD12R,0.059055X0.041339*%
%ADD13O,0.059055X0.041339*%
%ADD14O,0.098425X0.078740*%
%ADD15R,0.098425X0.059055*%
%ADD16R,0.275591X0.275591*%
%ADD17R,0.070866X0.070866*%
%ADD18C,0.070866*%
%ADD19R,0.059000X0.051100*%
%ADD20R,0.051100X0.059000*%
%ADD21R,0.043300X0.039300*%
%ADD22R,0.047200X0.047200*%
%ADD23R,0.021600X0.047200*%
%ADD24R,0.086614X0.027559*%
%ADD25R,0.098425X0.023622*%
%ADD26R,0.108300X0.108300*%
G04 APERTURE END LIST*
G54D10*
G54D11*
X39763Y-22834D02*
X42637Y-22834D01*
X42637Y-16614D02*
X42637Y-22834D01*
X39527Y-16614D02*
X42637Y-16614D01*
X29921Y-16614D02*
X39527Y-16614D01*
X29921Y-22834D02*
X29921Y-16614D01*
X39763Y-22834D02*
X29921Y-22834D01*
G54D12*
X34710Y-18492D03*
G54D13*
X35368Y-18492D03*
X34710Y-17992D03*
X35368Y-17992D03*
X34710Y-17492D03*
X35368Y-17492D03*
G54D14*
X41732Y-21562D03*
X41732Y-20562D03*
G54D15*
X37519Y-21811D03*
X37519Y-20000D03*
G54D16*
X34803Y-20905D03*
G54D17*
X41732Y-19307D03*
G54D18*
X41732Y-18307D03*
X41732Y-17307D03*
G54D14*
X30787Y-21562D03*
X30787Y-20562D03*
G54D19*
X37913Y-18090D03*
X37913Y-17342D03*
G54D20*
X38799Y-18149D03*
X39547Y-18149D03*
G54D19*
X40354Y-19074D03*
X40354Y-19822D03*
G54D20*
X38799Y-17283D03*
X39547Y-17283D03*
G54D21*
X39763Y-21752D03*
X39763Y-22420D03*
X30590Y-18603D03*
X30590Y-19271D03*
G54D22*
X30590Y-17932D03*
X30590Y-17106D03*
G54D23*
X38779Y-19940D03*
X39153Y-19940D03*
X39527Y-19940D03*
X39527Y-18918D03*
X38779Y-18918D03*
G54D24*
X33510Y-17220D03*
X33510Y-17720D03*
X33510Y-18220D03*
X33510Y-18720D03*
X36510Y-18720D03*
X36510Y-18220D03*
X36510Y-17720D03*
X36510Y-17220D03*
G54D25*
X32125Y-17480D03*
X32125Y-17952D03*
X32125Y-18424D03*
G54D26*
X32322Y-19921D03*
X32322Y-21889D03*
G54D21*
X38858Y-21752D03*
X38858Y-22420D03*
M02*
