G04 (created by PCBNEW (2013-05-18 BZR 4155)-testing) date Sun 19 May 2013 07:30:19 PM CEST*
%MOIN*%
G04 Gerber Fmt 3.4, Leading zero omitted, Abs format*
%FSLAX34Y34*%
G01*
G70*
G90*
G04 APERTURE LIST*
%ADD10C,0.005906*%
%ADD11C,0.007874*%
G04 APERTURE END LIST*
G54D10*
G54D11*
X43721Y-21130D02*
X43721Y-21355D01*
X43721Y-21242D02*
X43327Y-21242D01*
X43383Y-21280D01*
X43421Y-21317D01*
X43440Y-21355D01*
X43327Y-20774D02*
X43327Y-20961D01*
X43515Y-20980D01*
X43496Y-20961D01*
X43477Y-20924D01*
X43477Y-20830D01*
X43496Y-20793D01*
X43515Y-20774D01*
X43552Y-20755D01*
X43646Y-20755D01*
X43683Y-20774D01*
X43702Y-20793D01*
X43721Y-20830D01*
X43721Y-20924D01*
X43702Y-20961D01*
X43683Y-20980D01*
X43683Y-20586D02*
X43702Y-20568D01*
X43721Y-20586D01*
X43702Y-20605D01*
X43683Y-20586D01*
X43721Y-20586D01*
X43496Y-20343D02*
X43477Y-20380D01*
X43458Y-20399D01*
X43421Y-20418D01*
X43402Y-20418D01*
X43365Y-20399D01*
X43346Y-20380D01*
X43327Y-20343D01*
X43327Y-20268D01*
X43346Y-20230D01*
X43365Y-20211D01*
X43402Y-20193D01*
X43421Y-20193D01*
X43458Y-20211D01*
X43477Y-20230D01*
X43496Y-20268D01*
X43496Y-20343D01*
X43515Y-20380D01*
X43533Y-20399D01*
X43571Y-20418D01*
X43646Y-20418D01*
X43683Y-20399D01*
X43702Y-20380D01*
X43721Y-20343D01*
X43721Y-20268D01*
X43702Y-20230D01*
X43683Y-20211D01*
X43646Y-20193D01*
X43571Y-20193D01*
X43533Y-20211D01*
X43515Y-20230D01*
X43496Y-20268D01*
X43327Y-19949D02*
X43327Y-19911D01*
X43346Y-19874D01*
X43365Y-19855D01*
X43402Y-19836D01*
X43477Y-19818D01*
X43571Y-19818D01*
X43646Y-19836D01*
X43683Y-19855D01*
X43702Y-19874D01*
X43721Y-19911D01*
X43721Y-19949D01*
X43702Y-19986D01*
X43683Y-20005D01*
X43646Y-20024D01*
X43571Y-20043D01*
X43477Y-20043D01*
X43402Y-20024D01*
X43365Y-20005D01*
X43346Y-19986D01*
X43327Y-19949D01*
X43327Y-19574D02*
X43327Y-19536D01*
X43346Y-19499D01*
X43365Y-19480D01*
X43402Y-19461D01*
X43477Y-19443D01*
X43571Y-19443D01*
X43646Y-19461D01*
X43683Y-19480D01*
X43702Y-19499D01*
X43721Y-19536D01*
X43721Y-19574D01*
X43702Y-19611D01*
X43683Y-19630D01*
X43646Y-19649D01*
X43571Y-19668D01*
X43477Y-19668D01*
X43402Y-19649D01*
X43365Y-19630D01*
X43346Y-19611D01*
X43327Y-19574D01*
X43721Y-18974D02*
X43458Y-18974D01*
X43496Y-18974D02*
X43477Y-18955D01*
X43458Y-18918D01*
X43458Y-18862D01*
X43477Y-18824D01*
X43515Y-18805D01*
X43721Y-18805D01*
X43515Y-18805D02*
X43477Y-18787D01*
X43458Y-18749D01*
X43458Y-18693D01*
X43477Y-18655D01*
X43515Y-18637D01*
X43721Y-18637D01*
X43721Y-18449D02*
X43458Y-18449D01*
X43496Y-18449D02*
X43477Y-18430D01*
X43458Y-18393D01*
X43458Y-18337D01*
X43477Y-18299D01*
X43515Y-18280D01*
X43721Y-18280D01*
X43515Y-18280D02*
X43477Y-18262D01*
X43458Y-18224D01*
X43458Y-18168D01*
X43477Y-18130D01*
X43515Y-18112D01*
X43721Y-18112D01*
X43188Y-22834D02*
X43188Y-16614D01*
X42637Y-22834D02*
X43897Y-22834D01*
X42637Y-16614D02*
X43897Y-16614D01*
X43188Y-16614D02*
X43419Y-17057D01*
X43188Y-16614D02*
X42958Y-17057D01*
X43188Y-22834D02*
X43419Y-22391D01*
X43188Y-22834D02*
X42958Y-22391D01*
X34629Y-23445D02*
X34873Y-23445D01*
X34742Y-23595D01*
X34798Y-23595D01*
X34835Y-23614D01*
X34854Y-23633D01*
X34873Y-23670D01*
X34873Y-23764D01*
X34854Y-23802D01*
X34835Y-23820D01*
X34798Y-23839D01*
X34685Y-23839D01*
X34648Y-23820D01*
X34629Y-23802D01*
X35023Y-23483D02*
X35042Y-23464D01*
X35079Y-23445D01*
X35173Y-23445D01*
X35210Y-23464D01*
X35229Y-23483D01*
X35248Y-23520D01*
X35248Y-23558D01*
X35229Y-23614D01*
X35004Y-23839D01*
X35248Y-23839D01*
X35417Y-23802D02*
X35435Y-23820D01*
X35417Y-23839D01*
X35398Y-23820D01*
X35417Y-23802D01*
X35417Y-23839D01*
X35567Y-23445D02*
X35810Y-23445D01*
X35679Y-23595D01*
X35735Y-23595D01*
X35773Y-23614D01*
X35792Y-23633D01*
X35810Y-23670D01*
X35810Y-23764D01*
X35792Y-23802D01*
X35773Y-23820D01*
X35735Y-23839D01*
X35623Y-23839D01*
X35585Y-23820D01*
X35567Y-23802D01*
X36054Y-23445D02*
X36092Y-23445D01*
X36129Y-23464D01*
X36148Y-23483D01*
X36167Y-23520D01*
X36185Y-23595D01*
X36185Y-23689D01*
X36167Y-23764D01*
X36148Y-23802D01*
X36129Y-23820D01*
X36092Y-23839D01*
X36054Y-23839D01*
X36017Y-23820D01*
X35998Y-23802D01*
X35979Y-23764D01*
X35960Y-23689D01*
X35960Y-23595D01*
X35979Y-23520D01*
X35998Y-23483D01*
X36017Y-23464D01*
X36054Y-23445D01*
X36429Y-23445D02*
X36467Y-23445D01*
X36504Y-23464D01*
X36523Y-23483D01*
X36541Y-23520D01*
X36560Y-23595D01*
X36560Y-23689D01*
X36541Y-23764D01*
X36523Y-23802D01*
X36504Y-23820D01*
X36467Y-23839D01*
X36429Y-23839D01*
X36392Y-23820D01*
X36373Y-23802D01*
X36354Y-23764D01*
X36335Y-23689D01*
X36335Y-23595D01*
X36354Y-23520D01*
X36373Y-23483D01*
X36392Y-23464D01*
X36429Y-23445D01*
X37029Y-23839D02*
X37029Y-23577D01*
X37029Y-23614D02*
X37048Y-23595D01*
X37085Y-23577D01*
X37141Y-23577D01*
X37179Y-23595D01*
X37198Y-23633D01*
X37198Y-23839D01*
X37198Y-23633D02*
X37216Y-23595D01*
X37254Y-23577D01*
X37310Y-23577D01*
X37348Y-23595D01*
X37366Y-23633D01*
X37366Y-23839D01*
X37554Y-23839D02*
X37554Y-23577D01*
X37554Y-23614D02*
X37573Y-23595D01*
X37610Y-23577D01*
X37666Y-23577D01*
X37704Y-23595D01*
X37723Y-23633D01*
X37723Y-23839D01*
X37723Y-23633D02*
X37741Y-23595D01*
X37779Y-23577D01*
X37835Y-23577D01*
X37873Y-23595D01*
X37891Y-23633D01*
X37891Y-23839D01*
X29921Y-23307D02*
X42637Y-23307D01*
X29921Y-22834D02*
X29921Y-24015D01*
X42637Y-22834D02*
X42637Y-24015D01*
X42637Y-23307D02*
X42194Y-23537D01*
X42637Y-23307D02*
X42194Y-23076D01*
X29921Y-23307D02*
X30364Y-23537D01*
X29921Y-23307D02*
X30364Y-23076D01*
X39763Y-22834D02*
X42637Y-22834D01*
X42637Y-16614D02*
X42637Y-22834D01*
X39527Y-16614D02*
X42637Y-16614D01*
X29921Y-16614D02*
X39527Y-16614D01*
X29921Y-22834D02*
X29921Y-16614D01*
X39763Y-22834D02*
X29921Y-22834D01*
M02*
