G04 (created by PCBNEW (2013-05-16 BZR 4153)-testing) date Fri 17 May 2013 11:34:26 PM CEST*
%MOIN*%
G04 Gerber Fmt 3.4, Leading zero omitted, Abs format*
%FSLAX34Y34*%
G01*
G70*
G90*
G04 APERTURE LIST*
%ADD10C,0.005906*%
%ADD11C,0.007874*%
%ADD12O,0.098425X0.078740*%
%ADD13R,0.070866X0.070866*%
%ADD14C,0.070866*%
%ADD15C,0.025000*%
%ADD16C,0.008000*%
%ADD17C,0.012000*%
%ADD18C,0.009843*%
G04 APERTURE END LIST*
G54D10*
G54D11*
X29921Y-14173D02*
X29921Y-22834D01*
X39763Y-22834D02*
X39763Y-14173D01*
X39763Y-14173D02*
X29921Y-14173D01*
X39763Y-22834D02*
X29921Y-22834D01*
G54D12*
X38890Y-21562D03*
X38890Y-20562D03*
G54D13*
X32670Y-15073D03*
G54D14*
X32670Y-16073D03*
X31670Y-15073D03*
X31670Y-16073D03*
X30670Y-15073D03*
X30670Y-16073D03*
G54D13*
X38901Y-15070D03*
G54D14*
X37901Y-15070D03*
X36901Y-15070D03*
G54D12*
X30787Y-21562D03*
X30787Y-20562D03*
G54D15*
X37559Y-17244D03*
X35669Y-18503D03*
X35255Y-16338D03*
X34133Y-16259D03*
X33858Y-15511D03*
X33858Y-16653D03*
X31170Y-19260D03*
X32650Y-22250D03*
X32320Y-22250D03*
X31950Y-22260D03*
X38464Y-17362D03*
X39220Y-18020D03*
X37887Y-16634D03*
G54D16*
X38901Y-16413D02*
X38901Y-15070D01*
X38307Y-17007D02*
X38901Y-16413D01*
X37795Y-17007D02*
X38307Y-17007D01*
X37559Y-17244D02*
X37795Y-17007D01*
X32670Y-15073D02*
X33312Y-15073D01*
X38901Y-14452D02*
X38901Y-15070D01*
X38858Y-14409D02*
X38901Y-14452D01*
X33976Y-14409D02*
X38858Y-14409D01*
X33312Y-15073D02*
X33976Y-14409D01*
X35255Y-18089D02*
X35669Y-18503D01*
X35255Y-16338D02*
X35255Y-18089D01*
X34212Y-16338D02*
X35255Y-16338D01*
X34133Y-16259D02*
X34212Y-16338D01*
X33858Y-16653D02*
X33858Y-15511D01*
X31670Y-15101D02*
X31169Y-15602D01*
X31169Y-19212D02*
X31170Y-19260D01*
X31670Y-15073D02*
X31670Y-15101D01*
X31169Y-15602D02*
X31169Y-19212D01*
G54D17*
X32330Y-21890D02*
X32320Y-21890D01*
X32320Y-22250D02*
X32650Y-22250D01*
X32320Y-21890D02*
X31950Y-22260D01*
X37910Y-17750D02*
X38297Y-17362D01*
X38052Y-21562D02*
X37910Y-21420D01*
X37910Y-21420D02*
X37910Y-17750D01*
X38877Y-21562D02*
X38052Y-21562D01*
X38297Y-17362D02*
X38464Y-17362D01*
X38877Y-20562D02*
X39220Y-20220D01*
X39220Y-20220D02*
X39220Y-18020D01*
X36901Y-15787D02*
X37748Y-16634D01*
X37748Y-16634D02*
X37887Y-16634D01*
X36901Y-15070D02*
X36901Y-15787D01*
G54D18*
X31813Y-20757D02*
X36729Y-20757D01*
X31681Y-20836D02*
X36861Y-20836D01*
X31663Y-20914D02*
X36879Y-20914D01*
X31658Y-20993D02*
X36884Y-20993D01*
X31627Y-21071D02*
X36915Y-21071D01*
X31553Y-21150D02*
X36989Y-21150D01*
X30277Y-21228D02*
X39388Y-21228D01*
X30230Y-21306D02*
X39435Y-21306D01*
X30226Y-21385D02*
X39438Y-21385D01*
X30226Y-21463D02*
X39438Y-21463D01*
X30226Y-21542D02*
X39438Y-21542D01*
X30226Y-21620D02*
X39438Y-21620D01*
X30226Y-21698D02*
X39438Y-21698D01*
X30226Y-21777D02*
X39438Y-21777D01*
X30226Y-21855D02*
X39438Y-21855D01*
X30226Y-21934D02*
X39438Y-21934D01*
X30226Y-22012D02*
X39438Y-22012D01*
X30226Y-22091D02*
X39438Y-22091D01*
X30226Y-22169D02*
X39438Y-22169D01*
X30226Y-22247D02*
X39438Y-22247D01*
X30226Y-22326D02*
X39438Y-22326D01*
X30226Y-22404D02*
X39438Y-22404D01*
X30228Y-22483D02*
X39436Y-22483D01*
X30267Y-22561D02*
X39398Y-22561D01*
X39438Y-22458D02*
X39435Y-22489D01*
X39427Y-22517D01*
X39413Y-22542D01*
X39395Y-22564D01*
X39373Y-22583D01*
X39347Y-22596D01*
X39320Y-22605D01*
X39288Y-22608D01*
X30376Y-22608D01*
X30345Y-22605D01*
X30317Y-22596D01*
X30292Y-22583D01*
X30269Y-22564D01*
X30251Y-22542D01*
X30237Y-22517D01*
X30229Y-22489D01*
X30226Y-22458D01*
X30226Y-21341D01*
X30229Y-21309D01*
X30237Y-21282D01*
X30251Y-21256D01*
X30269Y-21234D01*
X30292Y-21216D01*
X30317Y-21202D01*
X30345Y-21194D01*
X30376Y-21190D01*
X31419Y-21190D01*
X31465Y-21186D01*
X31511Y-21172D01*
X31554Y-21149D01*
X31591Y-21119D01*
X31622Y-21081D01*
X31644Y-21039D01*
X31658Y-20992D01*
X31663Y-20947D01*
X31663Y-20907D01*
X31666Y-20876D01*
X31674Y-20849D01*
X31688Y-20823D01*
X31706Y-20801D01*
X31729Y-20782D01*
X31754Y-20769D01*
X31782Y-20760D01*
X31813Y-20757D01*
X36729Y-20757D01*
X36761Y-20760D01*
X36788Y-20769D01*
X36814Y-20782D01*
X36836Y-20801D01*
X36854Y-20823D01*
X36868Y-20849D01*
X36876Y-20876D01*
X36879Y-20907D01*
X36879Y-20947D01*
X36884Y-20992D01*
X36898Y-21039D01*
X36921Y-21081D01*
X36951Y-21119D01*
X36989Y-21149D01*
X37031Y-21172D01*
X37077Y-21186D01*
X37123Y-21190D01*
X39288Y-21190D01*
X39320Y-21194D01*
X39347Y-21202D01*
X39373Y-21216D01*
X39395Y-21234D01*
X39413Y-21256D01*
X39427Y-21282D01*
X39435Y-21309D01*
X39438Y-21341D01*
X39438Y-22458D01*
M02*
