G04 (created by PCBNEW (2012-11-23 BZR 3812)-testing) date Sun 25 Nov 2012 10:32:59 PM CET*
%MOIN*%
G04 Gerber Fmt 3.4, Leading zero omitted, Abs format*
%FSLAX34Y34*%
G01*
G70*
G90*
G04 APERTURE LIST*
%ADD10C,3.14961e-06*%
%ADD11C,0.015*%
%ADD12R,0.11811X0.0787402*%
%ADD13O,0.11811X0.0787402*%
%ADD14R,0.055X0.055*%
%ADD15C,0.055*%
%ADD16R,0.149606X0.0472441*%
%ADD17R,0.06X0.06*%
%ADD18C,0.06*%
%ADD19R,0.0511X0.059*%
%ADD20R,0.0866X0.0236*%
%ADD21R,0.0984252X0.0590551*%
%ADD22R,0.275591X0.275591*%
%ADD23R,0.0393X0.0433*%
%ADD24C,0.025*%
%ADD25C,0.008*%
%ADD26C,0.00984252*%
G04 APERTURE END LIST*
G54D10*
G54D11*
X29783Y-23031D02*
X29783Y-13188D01*
X39625Y-23031D02*
X29783Y-23031D01*
X39625Y-13188D02*
X39625Y-23031D01*
X29783Y-13188D02*
X39625Y-13188D01*
G54D12*
X38484Y-21759D03*
G54D13*
X38484Y-20759D03*
G54D12*
X30649Y-21759D03*
G54D13*
X30649Y-20759D03*
G54D14*
X37929Y-14685D03*
G54D15*
X36929Y-14685D03*
X35929Y-14685D03*
G54D16*
X31102Y-17263D03*
X31102Y-18208D03*
X31102Y-19153D03*
G54D17*
X32889Y-14263D03*
G54D18*
X32889Y-15263D03*
X31889Y-14263D03*
X31889Y-15263D03*
X30889Y-14263D03*
X30889Y-15263D03*
G54D19*
X35118Y-16338D03*
X34370Y-16338D03*
X36889Y-16338D03*
X36141Y-16338D03*
X38661Y-16338D03*
X37913Y-16338D03*
X33346Y-16338D03*
X32598Y-16338D03*
G54D20*
X33032Y-17458D03*
X33032Y-17958D03*
X33032Y-18458D03*
X33032Y-18958D03*
X35078Y-18958D03*
X35078Y-18458D03*
X35078Y-17958D03*
X35078Y-17458D03*
X36477Y-17458D03*
X36477Y-17958D03*
X36477Y-18458D03*
X36477Y-18958D03*
X38523Y-18958D03*
X38523Y-18458D03*
X38523Y-17958D03*
X38523Y-17458D03*
G54D21*
X36574Y-22007D03*
X36574Y-20196D03*
G54D22*
X33858Y-21102D03*
G54D23*
X36339Y-21102D03*
X37007Y-21102D03*
G54D24*
X34286Y-17952D03*
X38681Y-16338D03*
G54D25*
X35078Y-18458D02*
X35683Y-18458D01*
X37929Y-15259D02*
X37929Y-14685D01*
X37482Y-15706D02*
X37929Y-15259D01*
X37482Y-18816D02*
X37482Y-15706D01*
X36968Y-19330D02*
X37482Y-18816D01*
X35866Y-19330D02*
X36968Y-19330D01*
X35787Y-19251D02*
X35866Y-19330D01*
X35787Y-18562D02*
X35787Y-19251D01*
X35683Y-18458D02*
X35787Y-18562D01*
X33570Y-14003D02*
X33582Y-14015D01*
X37401Y-14015D02*
X37755Y-14015D01*
X33582Y-14015D02*
X37401Y-14015D01*
X37755Y-14015D02*
X37929Y-14188D01*
X37929Y-14188D02*
X37929Y-14685D01*
X32889Y-14263D02*
X33309Y-14263D01*
X33573Y-14000D02*
X33570Y-14003D01*
X33570Y-14003D02*
X33309Y-14263D01*
X35078Y-18958D02*
X35078Y-19172D01*
X35885Y-21102D02*
X36339Y-21102D01*
X35649Y-20866D02*
X35885Y-21102D01*
X35649Y-19606D02*
X35649Y-20866D01*
X35492Y-19448D02*
X35649Y-19606D01*
X35354Y-19448D02*
X35492Y-19448D01*
X35078Y-19172D02*
X35354Y-19448D01*
X29992Y-15466D02*
X29992Y-19559D01*
X29992Y-15466D02*
X30694Y-14763D01*
X30694Y-14763D02*
X31389Y-14763D01*
X31889Y-15263D02*
X31389Y-14763D01*
X32185Y-19685D02*
X32480Y-19389D01*
X34525Y-18958D02*
X35078Y-18958D01*
X34525Y-18958D02*
X34286Y-19196D01*
X34093Y-19389D02*
X34286Y-19196D01*
X32480Y-19389D02*
X34093Y-19389D01*
X30118Y-19685D02*
X32185Y-19685D01*
X29992Y-19559D02*
X30118Y-19685D01*
X34370Y-16338D02*
X34182Y-16338D01*
X31149Y-14263D02*
X30889Y-14263D01*
X31649Y-14763D02*
X31149Y-14263D01*
X32181Y-14763D02*
X31649Y-14763D01*
X32408Y-14990D02*
X32181Y-14763D01*
X32408Y-15581D02*
X32408Y-14990D01*
X32607Y-15780D02*
X32408Y-15581D01*
X33624Y-15780D02*
X32607Y-15780D01*
X34182Y-16338D02*
X33624Y-15780D01*
X33880Y-16640D02*
X34182Y-16338D01*
X33880Y-17458D02*
X33880Y-16640D01*
X33032Y-17458D02*
X33880Y-17458D01*
X35078Y-17958D02*
X34292Y-17958D01*
X34292Y-17958D02*
X34286Y-17952D01*
X38661Y-16338D02*
X38681Y-16338D01*
X38523Y-17458D02*
X38523Y-16476D01*
X38523Y-16476D02*
X38661Y-16338D01*
X31102Y-17263D02*
X31929Y-17263D01*
X32185Y-17519D02*
X32185Y-17814D01*
X32185Y-17814D02*
X32328Y-17958D01*
X32328Y-17958D02*
X33032Y-17958D01*
X31929Y-17263D02*
X32185Y-17519D01*
X31102Y-19153D02*
X31929Y-19153D01*
X32185Y-18897D02*
X32185Y-18602D01*
X32185Y-18602D02*
X32328Y-18458D01*
X32328Y-18458D02*
X33032Y-18458D01*
X31929Y-19153D02*
X32185Y-18897D01*
X30649Y-20759D02*
X33516Y-20759D01*
X33516Y-20759D02*
X33858Y-21102D01*
X37322Y-15795D02*
X36929Y-15401D01*
X37322Y-15795D02*
X37322Y-17795D01*
X37322Y-17795D02*
X37159Y-17958D01*
X36477Y-17958D02*
X37159Y-17958D01*
X36929Y-15401D02*
X36929Y-14685D01*
X36614Y-15157D02*
X36929Y-14842D01*
X36929Y-14842D02*
X36929Y-14685D01*
X36141Y-16338D02*
X36141Y-15629D01*
X36141Y-15629D02*
X36614Y-15157D01*
X36477Y-17958D02*
X36477Y-18458D01*
X33032Y-18958D02*
X33797Y-18958D01*
X33858Y-18897D02*
X33858Y-18208D01*
X33797Y-18958D02*
X33858Y-18897D01*
X32598Y-16338D02*
X32222Y-16338D01*
X30889Y-15263D02*
X30889Y-16338D01*
X30469Y-16338D02*
X30889Y-16338D01*
X30155Y-16652D02*
X30469Y-16338D01*
X30155Y-18208D02*
X30155Y-16652D01*
X30889Y-16338D02*
X32222Y-16338D01*
X31102Y-18208D02*
X30155Y-18208D01*
X31102Y-18208D02*
X31872Y-18208D01*
X33585Y-18208D02*
X31872Y-18208D01*
X36477Y-18458D02*
X36407Y-18458D01*
X36173Y-18458D02*
X35923Y-18208D01*
X36407Y-18458D02*
X36173Y-18458D01*
X35923Y-18208D02*
X33858Y-18208D01*
X33858Y-18208D02*
X33585Y-18208D01*
X38484Y-20759D02*
X38492Y-20767D01*
X39370Y-20472D02*
X39370Y-18602D01*
X39226Y-18458D02*
X39370Y-18602D01*
X39226Y-18458D02*
X38523Y-18458D01*
X39370Y-20669D02*
X39370Y-20472D01*
X39271Y-20767D02*
X39370Y-20669D01*
X38492Y-20767D02*
X39271Y-20767D01*
X38523Y-17958D02*
X37879Y-17958D01*
X37736Y-16515D02*
X37913Y-16338D01*
X37736Y-17814D02*
X37736Y-16515D01*
X37879Y-17958D02*
X37736Y-17814D01*
X38246Y-18458D02*
X38246Y-17958D01*
X38522Y-17958D02*
X38246Y-17958D01*
X38522Y-18458D02*
X38246Y-18458D01*
X36574Y-22007D02*
X36574Y-21614D01*
X37007Y-21477D02*
X37007Y-21102D01*
X36948Y-21535D02*
X37007Y-21477D01*
X36653Y-21535D02*
X36948Y-21535D01*
X36574Y-21614D02*
X36653Y-21535D01*
X35118Y-15358D02*
X35791Y-14685D01*
X35791Y-14685D02*
X35929Y-14685D01*
X32381Y-17224D02*
X32381Y-17547D01*
X32381Y-17224D02*
X32480Y-17125D01*
X32480Y-17125D02*
X33169Y-17125D01*
X33169Y-17125D02*
X33346Y-16948D01*
X33346Y-16338D02*
X33346Y-16948D01*
X32531Y-17696D02*
X32381Y-17547D01*
X34286Y-17696D02*
X32531Y-17696D01*
X34525Y-17458D02*
X34286Y-17696D01*
X34871Y-17458D02*
X35078Y-17458D01*
X34871Y-17458D02*
X34525Y-17458D01*
X36515Y-17224D02*
X36811Y-16929D01*
X36515Y-17419D02*
X36515Y-17224D01*
X36477Y-17458D02*
X36515Y-17419D01*
X36811Y-16417D02*
X36889Y-16338D01*
X36811Y-16929D02*
X36811Y-16417D01*
X35078Y-17458D02*
X36477Y-17458D01*
X35078Y-17458D02*
X35078Y-16378D01*
X35078Y-16378D02*
X35118Y-16338D01*
X32984Y-15358D02*
X32889Y-15263D01*
X35118Y-15358D02*
X32984Y-15358D01*
X35118Y-16338D02*
X35118Y-15358D01*
G54D26*
X36183Y-19931D02*
X39033Y-19931D01*
X36093Y-20009D02*
X39122Y-20009D01*
X36092Y-20087D02*
X39124Y-20087D01*
X36092Y-20166D02*
X39124Y-20166D01*
X36092Y-20244D02*
X39124Y-20244D01*
X36092Y-20323D02*
X39124Y-20323D01*
X36097Y-20401D02*
X39124Y-20401D01*
X37302Y-20480D02*
X39124Y-20480D01*
X37387Y-20558D02*
X39124Y-20558D01*
X37410Y-20636D02*
X39124Y-20636D01*
X37411Y-20715D02*
X39124Y-20715D01*
X37411Y-20793D02*
X39124Y-20793D01*
X37411Y-20872D02*
X39124Y-20872D01*
X37411Y-20950D02*
X39124Y-20950D01*
X37412Y-21029D02*
X39123Y-21029D01*
X37473Y-21107D02*
X39061Y-21107D01*
X39124Y-21021D02*
X39122Y-21040D01*
X39117Y-21057D01*
X39108Y-21072D01*
X39097Y-21086D01*
X39084Y-21097D01*
X39069Y-21105D01*
X39052Y-21110D01*
X39033Y-21112D01*
X37502Y-21112D01*
X37482Y-21110D01*
X37466Y-21105D01*
X37450Y-21097D01*
X37437Y-21086D01*
X37426Y-21072D01*
X37418Y-21057D01*
X37413Y-21040D01*
X37411Y-21021D01*
X37411Y-20647D01*
X37408Y-20613D01*
X37397Y-20577D01*
X37380Y-20545D01*
X37356Y-20517D01*
X37328Y-20493D01*
X37296Y-20476D01*
X37260Y-20465D01*
X37226Y-20462D01*
X36183Y-20462D01*
X36163Y-20460D01*
X36147Y-20455D01*
X36132Y-20447D01*
X36118Y-20436D01*
X36107Y-20423D01*
X36099Y-20407D01*
X36094Y-20391D01*
X36092Y-20371D01*
X36092Y-20022D01*
X36094Y-20002D01*
X36099Y-19985D01*
X36107Y-19970D01*
X36118Y-19957D01*
X36132Y-19946D01*
X36147Y-19938D01*
X36163Y-19933D01*
X36183Y-19931D01*
X39033Y-19931D01*
X39052Y-19933D01*
X39069Y-19938D01*
X39084Y-19946D01*
X39097Y-19957D01*
X39108Y-19970D01*
X39117Y-19985D01*
X39122Y-20002D01*
X39124Y-20022D01*
X39124Y-21021D01*
X31390Y-20127D02*
X33836Y-20127D01*
X31291Y-20206D02*
X34054Y-20206D01*
X31279Y-20284D02*
X34126Y-20284D01*
X31233Y-20363D02*
X34163Y-20363D01*
X30347Y-20441D02*
X34179Y-20441D01*
X30214Y-20520D02*
X34183Y-20520D01*
X30154Y-20598D02*
X34183Y-20598D01*
X30122Y-20676D02*
X34183Y-20676D01*
X30109Y-20755D02*
X34183Y-20755D01*
X30115Y-20833D02*
X34176Y-20833D01*
X30141Y-20912D02*
X34149Y-20912D01*
X30192Y-20990D02*
X34098Y-20990D01*
X30289Y-21069D02*
X34001Y-21069D01*
X34183Y-20765D02*
X34176Y-20834D01*
X34156Y-20899D01*
X34124Y-20958D01*
X34082Y-21011D01*
X34029Y-21053D01*
X33970Y-21085D01*
X33905Y-21105D01*
X33836Y-21112D01*
X30455Y-21112D01*
X30385Y-21105D01*
X30321Y-21085D01*
X30261Y-21053D01*
X30209Y-21011D01*
X30166Y-20958D01*
X30134Y-20899D01*
X30115Y-20834D01*
X30108Y-20767D01*
X30115Y-20700D01*
X30134Y-20635D01*
X30166Y-20576D01*
X30209Y-20524D01*
X30261Y-20481D01*
X30321Y-20449D01*
X30385Y-20430D01*
X30455Y-20423D01*
X31094Y-20423D01*
X31130Y-20419D01*
X31167Y-20408D01*
X31202Y-20390D01*
X31231Y-20365D01*
X31256Y-20335D01*
X31274Y-20301D01*
X31285Y-20264D01*
X31289Y-20231D01*
X31291Y-20207D01*
X31297Y-20188D01*
X31306Y-20171D01*
X31318Y-20156D01*
X31333Y-20144D01*
X31350Y-20135D01*
X31368Y-20130D01*
X31390Y-20127D01*
X33836Y-20127D01*
X33905Y-20134D01*
X33970Y-20154D01*
X34029Y-20186D01*
X34082Y-20229D01*
X34124Y-20281D01*
X34156Y-20340D01*
X34176Y-20405D01*
X34183Y-20474D01*
X34183Y-20765D01*
M02*
