G04 (created by PCBNEW (2012-11-23 BZR 3812)-testing) date Wed 28 Nov 2012 12:32:29 PM CET*
%MOIN*%
G04 Gerber Fmt 3.4, Leading zero omitted, Abs format*
%FSLAX34Y34*%
G01*
G70*
G90*
G04 APERTURE LIST*
%ADD10C,3.14961e-06*%
%ADD11C,0.015*%
%ADD12R,0.11811X0.0787402*%
%ADD13O,0.11811X0.0787402*%
%ADD14R,0.055X0.055*%
%ADD15C,0.055*%
%ADD16R,0.06X0.06*%
%ADD17C,0.06*%
%ADD18R,0.0511X0.059*%
%ADD19R,0.0866X0.0236*%
%ADD20R,0.0984252X0.0590551*%
%ADD21R,0.275591X0.275591*%
%ADD22R,0.0393X0.0433*%
%ADD23R,0.149606X0.0472441*%
%ADD24R,0.149606X0.0551181*%
%ADD25R,0.0433X0.0393*%
G04 APERTURE END LIST*
G54D10*
G54D11*
X29783Y-23031D02*
X29783Y-13188D01*
X39625Y-23031D02*
X29783Y-23031D01*
X39625Y-13188D02*
X39625Y-23031D01*
X29783Y-13188D02*
X39625Y-13188D01*
G54D12*
X38740Y-21759D03*
G54D13*
X38740Y-20759D03*
G54D12*
X30649Y-21759D03*
G54D13*
X30649Y-20759D03*
G54D14*
X37929Y-14685D03*
G54D15*
X36929Y-14685D03*
X35929Y-14685D03*
G54D16*
X32889Y-14263D03*
G54D17*
X32889Y-15263D03*
X31889Y-14263D03*
X31889Y-15263D03*
X30889Y-14263D03*
X30889Y-15263D03*
G54D18*
X35118Y-16338D03*
X34370Y-16338D03*
X36889Y-16338D03*
X36141Y-16338D03*
X38661Y-16338D03*
X37913Y-16338D03*
X33346Y-16338D03*
X32598Y-16338D03*
G54D19*
X33032Y-17458D03*
X33032Y-17958D03*
X33032Y-18458D03*
X33032Y-18958D03*
X35078Y-18958D03*
X35078Y-18458D03*
X35078Y-17958D03*
X35078Y-17458D03*
X36477Y-17458D03*
X36477Y-17958D03*
X36477Y-18458D03*
X36477Y-18958D03*
X38523Y-18958D03*
X38523Y-18458D03*
X38523Y-17958D03*
X38523Y-17458D03*
G54D20*
X36338Y-22007D03*
X36338Y-20196D03*
G54D21*
X33622Y-21102D03*
G54D22*
X36083Y-21102D03*
X36751Y-21102D03*
G54D23*
X31102Y-17224D03*
G54D24*
X31102Y-18208D03*
G54D23*
X31102Y-19192D03*
G54D25*
X37598Y-21791D03*
X37598Y-22459D03*
M02*
