G04 (created by PCBNEW (2013-05-16 BZR 4153)-testing) date Fri 17 May 2013 11:34:26 PM CEST*
%MOIN*%
G04 Gerber Fmt 3.4, Leading zero omitted, Abs format*
%FSLAX34Y34*%
G01*
G70*
G90*
G04 APERTURE LIST*
%ADD10C,0.005906*%
%ADD11C,0.007874*%
%ADD12O,0.098425X0.078740*%
%ADD13R,0.070866X0.070866*%
%ADD14C,0.070866*%
%ADD15R,0.098425X0.059055*%
%ADD16R,0.275591X0.275591*%
%ADD17R,0.059000X0.051100*%
%ADD18R,0.051100X0.059000*%
%ADD19R,0.039300X0.043300*%
%ADD20R,0.043300X0.039300*%
%ADD21R,0.047200X0.047200*%
%ADD22R,0.021600X0.047200*%
%ADD23R,0.086614X0.027559*%
%ADD24R,0.098425X0.023622*%
%ADD25R,0.108300X0.108300*%
G04 APERTURE END LIST*
G54D10*
G54D11*
X29921Y-14173D02*
X29921Y-22834D01*
X39763Y-22834D02*
X39763Y-14173D01*
X39763Y-14173D02*
X29921Y-14173D01*
X39763Y-22834D02*
X29921Y-22834D01*
G54D12*
X38890Y-21562D03*
X38890Y-20562D03*
G54D13*
X32670Y-15073D03*
G54D14*
X32670Y-16073D03*
X31670Y-15073D03*
X31670Y-16073D03*
X30670Y-15073D03*
X30670Y-16073D03*
G54D15*
X37519Y-21811D03*
X37519Y-20000D03*
G54D16*
X34803Y-20905D03*
G54D13*
X38901Y-15070D03*
G54D14*
X37901Y-15070D03*
X36901Y-15070D03*
G54D12*
X30787Y-21562D03*
X30787Y-20562D03*
G54D17*
X34488Y-15531D03*
X34488Y-14783D03*
G54D18*
X37893Y-16614D03*
X38641Y-16614D03*
G54D17*
X39220Y-18784D03*
X39220Y-18036D03*
X35354Y-15531D03*
X35354Y-14783D03*
G54D19*
X37303Y-20905D03*
X37971Y-20905D03*
X34587Y-16338D03*
X35255Y-16338D03*
G54D20*
X30590Y-18603D03*
X30590Y-19271D03*
G54D21*
X30590Y-17932D03*
X30590Y-17106D03*
G54D22*
X37696Y-18881D03*
X38070Y-18881D03*
X38444Y-18881D03*
X38444Y-17859D03*
X37696Y-17859D03*
G54D23*
X33510Y-17220D03*
X33510Y-17720D03*
X33510Y-18220D03*
X33510Y-18720D03*
X36510Y-18720D03*
X36510Y-18220D03*
X36510Y-17720D03*
X36510Y-17220D03*
G54D24*
X32125Y-17480D03*
X32125Y-17952D03*
X32125Y-18424D03*
G54D25*
X32322Y-19921D03*
X32322Y-21889D03*
M02*
