G04 (created by PCBNEW (2013-02-11 BZR 3943)-testing) date Wed 13 Feb 2013 12:45:18 PM CET*
%MOIN*%
G04 Gerber Fmt 3.4, Leading zero omitted, Abs format*
%FSLAX34Y34*%
G01*
G70*
G90*
G04 APERTURE LIST*
%ADD10C,3.14961e-06*%
%ADD11C,0.00787402*%
G04 APERTURE END LIST*
G54D10*
G54D11*
X40393Y-20134D02*
X40374Y-20116D01*
X40356Y-20078D01*
X40356Y-19985D01*
X40374Y-19947D01*
X40393Y-19928D01*
X40431Y-19910D01*
X40468Y-19910D01*
X40524Y-19928D01*
X40749Y-20153D01*
X40749Y-19910D01*
X40393Y-19760D02*
X40374Y-19741D01*
X40356Y-19703D01*
X40356Y-19610D01*
X40374Y-19572D01*
X40393Y-19553D01*
X40431Y-19535D01*
X40468Y-19535D01*
X40524Y-19553D01*
X40749Y-19778D01*
X40749Y-19535D01*
X40712Y-19366D02*
X40731Y-19347D01*
X40749Y-19366D01*
X40731Y-19385D01*
X40712Y-19366D01*
X40749Y-19366D01*
X40356Y-19103D02*
X40356Y-19066D01*
X40374Y-19028D01*
X40393Y-19010D01*
X40431Y-18991D01*
X40506Y-18972D01*
X40599Y-18972D01*
X40674Y-18991D01*
X40712Y-19010D01*
X40731Y-19028D01*
X40749Y-19066D01*
X40749Y-19103D01*
X40731Y-19141D01*
X40712Y-19160D01*
X40674Y-19178D01*
X40599Y-19197D01*
X40506Y-19197D01*
X40431Y-19178D01*
X40393Y-19160D01*
X40374Y-19141D01*
X40356Y-19103D01*
X40356Y-18728D02*
X40356Y-18691D01*
X40374Y-18653D01*
X40393Y-18635D01*
X40431Y-18616D01*
X40506Y-18597D01*
X40599Y-18597D01*
X40674Y-18616D01*
X40712Y-18635D01*
X40731Y-18653D01*
X40749Y-18691D01*
X40749Y-18728D01*
X40731Y-18766D01*
X40712Y-18785D01*
X40674Y-18803D01*
X40599Y-18822D01*
X40506Y-18822D01*
X40431Y-18803D01*
X40393Y-18785D01*
X40374Y-18766D01*
X40356Y-18728D01*
X40356Y-18353D02*
X40356Y-18316D01*
X40374Y-18278D01*
X40393Y-18260D01*
X40431Y-18241D01*
X40506Y-18222D01*
X40599Y-18222D01*
X40674Y-18241D01*
X40712Y-18260D01*
X40731Y-18278D01*
X40749Y-18316D01*
X40749Y-18353D01*
X40731Y-18391D01*
X40712Y-18410D01*
X40674Y-18428D01*
X40599Y-18447D01*
X40506Y-18447D01*
X40431Y-18428D01*
X40393Y-18410D01*
X40374Y-18391D01*
X40356Y-18353D01*
X40749Y-17754D02*
X40487Y-17754D01*
X40524Y-17754D02*
X40506Y-17735D01*
X40487Y-17697D01*
X40487Y-17641D01*
X40506Y-17604D01*
X40543Y-17585D01*
X40749Y-17585D01*
X40543Y-17585D02*
X40506Y-17566D01*
X40487Y-17529D01*
X40487Y-17472D01*
X40506Y-17435D01*
X40543Y-17416D01*
X40749Y-17416D01*
X40749Y-17229D02*
X40487Y-17229D01*
X40524Y-17229D02*
X40506Y-17210D01*
X40487Y-17172D01*
X40487Y-17116D01*
X40506Y-17079D01*
X40543Y-17060D01*
X40749Y-17060D01*
X40543Y-17060D02*
X40506Y-17041D01*
X40487Y-17004D01*
X40487Y-16947D01*
X40506Y-16910D01*
X40543Y-16891D01*
X40749Y-16891D01*
X40236Y-22834D02*
X40236Y-14173D01*
X39763Y-22834D02*
X40944Y-22834D01*
X39763Y-14173D02*
X40944Y-14173D01*
X40236Y-14173D02*
X40467Y-14616D01*
X40236Y-14173D02*
X40005Y-14616D01*
X40236Y-22834D02*
X40467Y-22391D01*
X40236Y-22834D02*
X40005Y-22391D01*
X33211Y-13149D02*
X33230Y-13130D01*
X33267Y-13112D01*
X33361Y-13112D01*
X33398Y-13130D01*
X33417Y-13149D01*
X33436Y-13187D01*
X33436Y-13224D01*
X33417Y-13280D01*
X33192Y-13505D01*
X33436Y-13505D01*
X33792Y-13112D02*
X33605Y-13112D01*
X33586Y-13299D01*
X33605Y-13280D01*
X33642Y-13262D01*
X33736Y-13262D01*
X33773Y-13280D01*
X33792Y-13299D01*
X33811Y-13337D01*
X33811Y-13430D01*
X33792Y-13468D01*
X33773Y-13487D01*
X33736Y-13505D01*
X33642Y-13505D01*
X33605Y-13487D01*
X33586Y-13468D01*
X33980Y-13468D02*
X33998Y-13487D01*
X33980Y-13505D01*
X33961Y-13487D01*
X33980Y-13468D01*
X33980Y-13505D01*
X34242Y-13112D02*
X34280Y-13112D01*
X34317Y-13130D01*
X34336Y-13149D01*
X34355Y-13187D01*
X34373Y-13262D01*
X34373Y-13355D01*
X34355Y-13430D01*
X34336Y-13468D01*
X34317Y-13487D01*
X34280Y-13505D01*
X34242Y-13505D01*
X34205Y-13487D01*
X34186Y-13468D01*
X34167Y-13430D01*
X34148Y-13355D01*
X34148Y-13262D01*
X34167Y-13187D01*
X34186Y-13149D01*
X34205Y-13130D01*
X34242Y-13112D01*
X34617Y-13112D02*
X34655Y-13112D01*
X34692Y-13130D01*
X34711Y-13149D01*
X34730Y-13187D01*
X34748Y-13262D01*
X34748Y-13355D01*
X34730Y-13430D01*
X34711Y-13468D01*
X34692Y-13487D01*
X34655Y-13505D01*
X34617Y-13505D01*
X34580Y-13487D01*
X34561Y-13468D01*
X34542Y-13430D01*
X34523Y-13355D01*
X34523Y-13262D01*
X34542Y-13187D01*
X34561Y-13149D01*
X34580Y-13130D01*
X34617Y-13112D01*
X34992Y-13112D02*
X35029Y-13112D01*
X35067Y-13130D01*
X35086Y-13149D01*
X35104Y-13187D01*
X35123Y-13262D01*
X35123Y-13355D01*
X35104Y-13430D01*
X35086Y-13468D01*
X35067Y-13487D01*
X35029Y-13505D01*
X34992Y-13505D01*
X34955Y-13487D01*
X34936Y-13468D01*
X34917Y-13430D01*
X34898Y-13355D01*
X34898Y-13262D01*
X34917Y-13187D01*
X34936Y-13149D01*
X34955Y-13130D01*
X34992Y-13112D01*
X35592Y-13505D02*
X35592Y-13243D01*
X35592Y-13280D02*
X35611Y-13262D01*
X35648Y-13243D01*
X35704Y-13243D01*
X35742Y-13262D01*
X35761Y-13299D01*
X35761Y-13505D01*
X35761Y-13299D02*
X35779Y-13262D01*
X35817Y-13243D01*
X35873Y-13243D01*
X35911Y-13262D01*
X35929Y-13299D01*
X35929Y-13505D01*
X36117Y-13505D02*
X36117Y-13243D01*
X36117Y-13280D02*
X36136Y-13262D01*
X36173Y-13243D01*
X36229Y-13243D01*
X36267Y-13262D01*
X36286Y-13299D01*
X36286Y-13505D01*
X36286Y-13299D02*
X36304Y-13262D01*
X36342Y-13243D01*
X36398Y-13243D01*
X36436Y-13262D01*
X36454Y-13299D01*
X36454Y-13505D01*
X29921Y-13700D02*
X39763Y-13700D01*
X29921Y-14173D02*
X29921Y-12992D01*
X39763Y-14173D02*
X39763Y-12992D01*
X39763Y-13700D02*
X39320Y-13931D01*
X39763Y-13700D02*
X39320Y-13469D01*
X29921Y-13700D02*
X30364Y-13931D01*
X29921Y-13700D02*
X30364Y-13469D01*
X29921Y-14173D02*
X29921Y-22834D01*
X39763Y-22834D02*
X39763Y-14173D01*
X39763Y-14173D02*
X29921Y-14173D01*
X39763Y-22834D02*
X29921Y-22834D01*
M02*
