G04 (created by PCBNEW (2012-11-23 BZR 3812)-testing) date Sun 25 Nov 2012 10:32:59 PM CET*
%MOIN*%
G04 Gerber Fmt 3.4, Leading zero omitted, Abs format*
%FSLAX34Y34*%
G01*
G70*
G90*
G04 APERTURE LIST*
%ADD10C,3.14961e-06*%
%ADD11C,0.015*%
%ADD12R,0.11811X0.0787402*%
%ADD13O,0.11811X0.0787402*%
%ADD14R,0.055X0.055*%
%ADD15C,0.055*%
%ADD16R,0.06X0.06*%
%ADD17C,0.06*%
%ADD18C,0.025*%
%ADD19C,0.008*%
%ADD20C,0.00393701*%
G04 APERTURE END LIST*
G54D10*
G54D11*
X29783Y-23031D02*
X29783Y-13188D01*
X39625Y-23031D02*
X29783Y-23031D01*
X39625Y-13188D02*
X39625Y-23031D01*
X29783Y-13188D02*
X39625Y-13188D01*
G54D12*
X38484Y-21759D03*
G54D13*
X38484Y-20759D03*
G54D12*
X30649Y-21759D03*
G54D13*
X30649Y-20759D03*
G54D14*
X37929Y-14685D03*
G54D15*
X36929Y-14685D03*
X35929Y-14685D03*
G54D16*
X32889Y-14263D03*
G54D17*
X32889Y-15263D03*
X31889Y-14263D03*
X31889Y-15263D03*
X30889Y-14263D03*
X30889Y-15263D03*
G54D18*
X34286Y-17952D03*
X38681Y-16338D03*
G54D19*
X34286Y-17952D02*
X32371Y-16037D01*
X32371Y-14745D02*
X31889Y-14263D01*
X32371Y-16037D02*
X32371Y-14745D01*
X39370Y-21653D02*
X39370Y-16633D01*
X39263Y-21759D02*
X39370Y-21653D01*
X39074Y-16338D02*
X38681Y-16338D01*
X39370Y-16633D02*
X39074Y-16338D01*
X39263Y-21759D02*
X38484Y-21759D01*
G54D10*
G36*
X39114Y-22046D02*
X39111Y-22070D01*
X39105Y-22092D01*
X39094Y-22112D01*
X39079Y-22130D01*
X39061Y-22145D01*
X39041Y-22156D01*
X39019Y-22162D01*
X38995Y-22165D01*
X30138Y-22165D01*
X30114Y-22162D01*
X30092Y-22156D01*
X30072Y-22145D01*
X30054Y-22130D01*
X30039Y-22112D01*
X30028Y-22092D01*
X30022Y-22070D01*
X30019Y-22046D01*
X30019Y-21477D01*
X30022Y-21453D01*
X30028Y-21431D01*
X30039Y-21410D01*
X30054Y-21392D01*
X30072Y-21378D01*
X30092Y-21367D01*
X30114Y-21360D01*
X30138Y-21358D01*
X31221Y-21358D01*
X31251Y-21355D01*
X31280Y-21346D01*
X31308Y-21331D01*
X31331Y-21312D01*
X31351Y-21288D01*
X31366Y-21261D01*
X31375Y-21231D01*
X31377Y-21201D01*
X31377Y-19764D01*
X31380Y-19740D01*
X31387Y-19718D01*
X31397Y-19698D01*
X31412Y-19680D01*
X31430Y-19665D01*
X31450Y-19654D01*
X31473Y-19648D01*
X31497Y-19645D01*
X37617Y-19645D01*
X37641Y-19648D01*
X37663Y-19654D01*
X37683Y-19665D01*
X37701Y-19680D01*
X37716Y-19698D01*
X37727Y-19718D01*
X37733Y-19740D01*
X37736Y-19764D01*
X37736Y-21182D01*
X37739Y-21211D01*
X37748Y-21241D01*
X37762Y-21268D01*
X37782Y-21292D01*
X37806Y-21312D01*
X37833Y-21326D01*
X37862Y-21335D01*
X37892Y-21338D01*
X38995Y-21338D01*
X39019Y-21340D01*
X39041Y-21347D01*
X39061Y-21358D01*
X39079Y-21373D01*
X39094Y-21391D01*
X39105Y-21411D01*
X39111Y-21433D01*
X39114Y-21457D01*
X39114Y-22046D01*
X39114Y-22046D01*
G37*
G54D20*
X39114Y-22046D02*
X39111Y-22070D01*
X39105Y-22092D01*
X39094Y-22112D01*
X39079Y-22130D01*
X39061Y-22145D01*
X39041Y-22156D01*
X39019Y-22162D01*
X38995Y-22165D01*
X30138Y-22165D01*
X30114Y-22162D01*
X30092Y-22156D01*
X30072Y-22145D01*
X30054Y-22130D01*
X30039Y-22112D01*
X30028Y-22092D01*
X30022Y-22070D01*
X30019Y-22046D01*
X30019Y-21477D01*
X30022Y-21453D01*
X30028Y-21431D01*
X30039Y-21410D01*
X30054Y-21392D01*
X30072Y-21378D01*
X30092Y-21367D01*
X30114Y-21360D01*
X30138Y-21358D01*
X31221Y-21358D01*
X31251Y-21355D01*
X31280Y-21346D01*
X31308Y-21331D01*
X31331Y-21312D01*
X31351Y-21288D01*
X31366Y-21261D01*
X31375Y-21231D01*
X31377Y-21201D01*
X31377Y-19764D01*
X31380Y-19740D01*
X31387Y-19718D01*
X31397Y-19698D01*
X31412Y-19680D01*
X31430Y-19665D01*
X31450Y-19654D01*
X31473Y-19648D01*
X31497Y-19645D01*
X37617Y-19645D01*
X37641Y-19648D01*
X37663Y-19654D01*
X37683Y-19665D01*
X37701Y-19680D01*
X37716Y-19698D01*
X37727Y-19718D01*
X37733Y-19740D01*
X37736Y-19764D01*
X37736Y-21182D01*
X37739Y-21211D01*
X37748Y-21241D01*
X37762Y-21268D01*
X37782Y-21292D01*
X37806Y-21312D01*
X37833Y-21326D01*
X37862Y-21335D01*
X37892Y-21338D01*
X38995Y-21338D01*
X39019Y-21340D01*
X39041Y-21347D01*
X39061Y-21358D01*
X39079Y-21373D01*
X39094Y-21391D01*
X39105Y-21411D01*
X39111Y-21433D01*
X39114Y-21457D01*
X39114Y-22046D01*
M02*
