G04 (created by PCBNEW (2013-02-15 BZR 3956)-testing) date Fri 15 Feb 2013 08:25:39 PM CET*
%MOIN*%
G04 Gerber Fmt 3.4, Leading zero omitted, Abs format*
%FSLAX34Y34*%
G01*
G70*
G90*
G04 APERTURE LIST*
%ADD10C,3.14961e-06*%
%ADD11C,0.00787402*%
%ADD12C,0.0001*%
%ADD13R,0.0708661X0.0708661*%
%ADD14C,0.0708661*%
%ADD15R,0.11811X0.0787402*%
%ADD16O,0.11811X0.0787402*%
G04 APERTURE END LIST*
G54D10*
G54D11*
X29921Y-14173D02*
X29921Y-22834D01*
X39763Y-22834D02*
X39763Y-14173D01*
X39763Y-14173D02*
X29921Y-14173D01*
X39763Y-22834D02*
X29921Y-22834D01*
G54D12*
G36*
X34480Y-14826D02*
X34481Y-14834D01*
X34485Y-14850D01*
X34492Y-14863D01*
X34500Y-14872D01*
X34500Y-14872D01*
X34507Y-14876D01*
X34516Y-14882D01*
X34530Y-14888D01*
X34544Y-14895D01*
X34544Y-14820D01*
X34546Y-14812D01*
X34550Y-14803D01*
X34557Y-14793D01*
X34566Y-14782D01*
X34576Y-14772D01*
X34587Y-14763D01*
X34597Y-14756D01*
X34598Y-14756D01*
X34606Y-14752D01*
X34611Y-14750D01*
X34618Y-14749D01*
X34626Y-14749D01*
X34627Y-14749D01*
X34647Y-14751D01*
X34669Y-14756D01*
X34691Y-14764D01*
X34712Y-14774D01*
X34732Y-14786D01*
X34734Y-14787D01*
X34746Y-14797D01*
X34760Y-14809D01*
X34773Y-14823D01*
X34786Y-14838D01*
X34798Y-14853D01*
X34802Y-14859D01*
X34807Y-14867D01*
X34813Y-14877D01*
X34819Y-14887D01*
X34825Y-14899D01*
X34830Y-14910D01*
X34835Y-14920D01*
X34839Y-14930D01*
X34843Y-14937D01*
X34844Y-14943D01*
X34844Y-14945D01*
X34844Y-14945D01*
X34842Y-14944D01*
X34837Y-14942D01*
X34828Y-14939D01*
X34818Y-14935D01*
X34805Y-14931D01*
X34794Y-14926D01*
X34764Y-14915D01*
X34734Y-14904D01*
X34705Y-14893D01*
X34678Y-14882D01*
X34652Y-14872D01*
X34628Y-14862D01*
X34607Y-14854D01*
X34589Y-14846D01*
X34574Y-14839D01*
X34564Y-14835D01*
X34555Y-14831D01*
X34549Y-14828D01*
X34546Y-14825D01*
X34544Y-14823D01*
X34544Y-14820D01*
X34544Y-14895D01*
X34547Y-14896D01*
X34567Y-14905D01*
X34591Y-14915D01*
X34618Y-14926D01*
X34648Y-14938D01*
X34681Y-14950D01*
X34716Y-14964D01*
X34754Y-14978D01*
X34759Y-14980D01*
X34822Y-15004D01*
X34816Y-15020D01*
X34814Y-15024D01*
X34811Y-15033D01*
X34807Y-15044D01*
X34802Y-15058D01*
X34796Y-15075D01*
X34789Y-15093D01*
X34782Y-15112D01*
X34774Y-15132D01*
X34771Y-15141D01*
X34732Y-15247D01*
X34739Y-15425D01*
X34741Y-15452D01*
X34742Y-15476D01*
X34743Y-15501D01*
X34744Y-15523D01*
X34745Y-15544D01*
X34745Y-15562D01*
X34746Y-15578D01*
X34747Y-15590D01*
X34747Y-15599D01*
X34747Y-15605D01*
X34747Y-15607D01*
X34748Y-15609D01*
X34751Y-15613D01*
X34755Y-15618D01*
X34763Y-15624D01*
X34768Y-15628D01*
X34778Y-15636D01*
X34790Y-15645D01*
X34795Y-15648D01*
X34795Y-15255D01*
X34843Y-15127D01*
X34851Y-15104D01*
X34859Y-15083D01*
X34867Y-15064D01*
X34874Y-15046D01*
X34880Y-15030D01*
X34885Y-15016D01*
X34889Y-15006D01*
X34892Y-14998D01*
X34894Y-14994D01*
X34894Y-14993D01*
X34898Y-14990D01*
X34904Y-14984D01*
X34913Y-14978D01*
X34923Y-14971D01*
X34935Y-14965D01*
X34946Y-14958D01*
X34957Y-14952D01*
X34959Y-14951D01*
X34984Y-14941D01*
X35008Y-14934D01*
X35032Y-14929D01*
X35054Y-14927D01*
X35067Y-14927D01*
X35087Y-14930D01*
X35110Y-14934D01*
X35133Y-14939D01*
X35157Y-14945D01*
X35170Y-14948D01*
X35178Y-14951D01*
X35183Y-14953D01*
X35186Y-14955D01*
X35186Y-14957D01*
X35186Y-14957D01*
X35184Y-14962D01*
X35181Y-14970D01*
X35177Y-14981D01*
X35171Y-14995D01*
X35165Y-15012D01*
X35157Y-15030D01*
X35149Y-15050D01*
X35140Y-15072D01*
X35130Y-15096D01*
X35120Y-15120D01*
X35110Y-15145D01*
X35100Y-15170D01*
X35089Y-15195D01*
X35079Y-15221D01*
X35069Y-15245D01*
X35059Y-15269D01*
X35049Y-15292D01*
X35041Y-15314D01*
X35032Y-15334D01*
X35025Y-15352D01*
X35018Y-15368D01*
X35013Y-15381D01*
X35008Y-15392D01*
X35005Y-15399D01*
X35003Y-15403D01*
X35003Y-15404D01*
X35001Y-15403D01*
X34995Y-15402D01*
X34988Y-15400D01*
X34986Y-15399D01*
X34953Y-15391D01*
X34919Y-15385D01*
X34899Y-15384D01*
X34884Y-15383D01*
X34868Y-15383D01*
X34851Y-15383D01*
X34836Y-15384D01*
X34821Y-15385D01*
X34810Y-15386D01*
X34809Y-15386D01*
X34800Y-15387D01*
X34798Y-15321D01*
X34795Y-15255D01*
X34795Y-15648D01*
X34800Y-15652D01*
X34802Y-15653D01*
X34802Y-15427D01*
X34802Y-15421D01*
X34802Y-15418D01*
X34804Y-15416D01*
X34804Y-15416D01*
X34807Y-15415D01*
X34814Y-15414D01*
X34823Y-15414D01*
X34833Y-15413D01*
X34841Y-15412D01*
X34879Y-15411D01*
X34916Y-15413D01*
X34952Y-15419D01*
X34984Y-15428D01*
X35006Y-15437D01*
X35030Y-15448D01*
X35030Y-15415D01*
X35121Y-15193D01*
X35133Y-15164D01*
X35145Y-15136D01*
X35156Y-15110D01*
X35166Y-15085D01*
X35176Y-15061D01*
X35183Y-15040D01*
X35191Y-15021D01*
X35198Y-15004D01*
X35204Y-14991D01*
X35208Y-14980D01*
X35211Y-14972D01*
X35213Y-14968D01*
X35213Y-14968D01*
X35215Y-14967D01*
X35218Y-14967D01*
X35223Y-14969D01*
X35230Y-14972D01*
X35233Y-14973D01*
X35261Y-14989D01*
X35288Y-15009D01*
X35313Y-15031D01*
X35336Y-15056D01*
X35351Y-15076D01*
X35360Y-15091D01*
X35370Y-15108D01*
X35381Y-15127D01*
X35390Y-15146D01*
X35399Y-15165D01*
X35405Y-15178D01*
X35413Y-15198D01*
X35364Y-15329D01*
X35316Y-15459D01*
X35270Y-15504D01*
X35257Y-15517D01*
X35246Y-15527D01*
X35238Y-15535D01*
X35232Y-15541D01*
X35227Y-15545D01*
X35224Y-15547D01*
X35222Y-15548D01*
X35220Y-15548D01*
X35220Y-15548D01*
X35218Y-15546D01*
X35212Y-15541D01*
X35205Y-15535D01*
X35197Y-15529D01*
X35193Y-15525D01*
X35167Y-15504D01*
X35143Y-15484D01*
X35120Y-15469D01*
X35099Y-15454D01*
X35079Y-15442D01*
X35060Y-15431D01*
X35055Y-15428D01*
X35030Y-15415D01*
X35030Y-15448D01*
X35031Y-15448D01*
X35057Y-15462D01*
X35083Y-15477D01*
X35109Y-15495D01*
X35112Y-15497D01*
X35119Y-15502D01*
X35127Y-15509D01*
X35137Y-15517D01*
X35148Y-15525D01*
X35158Y-15534D01*
X35169Y-15543D01*
X35178Y-15551D01*
X35187Y-15558D01*
X35194Y-15564D01*
X35199Y-15569D01*
X35201Y-15571D01*
X35201Y-15571D01*
X35200Y-15573D01*
X35196Y-15577D01*
X35189Y-15584D01*
X35181Y-15592D01*
X35172Y-15602D01*
X35160Y-15614D01*
X35148Y-15627D01*
X35141Y-15633D01*
X35080Y-15694D01*
X35071Y-15693D01*
X35065Y-15692D01*
X35056Y-15691D01*
X35047Y-15691D01*
X35024Y-15687D01*
X34999Y-15681D01*
X34972Y-15673D01*
X34944Y-15662D01*
X34916Y-15648D01*
X34888Y-15633D01*
X34877Y-15627D01*
X34868Y-15621D01*
X34857Y-15614D01*
X34846Y-15607D01*
X34836Y-15600D01*
X34826Y-15593D01*
X34818Y-15587D01*
X34813Y-15583D01*
X34810Y-15581D01*
X34810Y-15578D01*
X34809Y-15572D01*
X34808Y-15563D01*
X34808Y-15551D01*
X34807Y-15537D01*
X34806Y-15522D01*
X34806Y-15516D01*
X34805Y-15499D01*
X34805Y-15483D01*
X34804Y-15469D01*
X34803Y-15455D01*
X34803Y-15444D01*
X34802Y-15437D01*
X34802Y-15436D01*
X34802Y-15427D01*
X34802Y-15653D01*
X34807Y-15657D01*
X34815Y-15663D01*
X34821Y-15668D01*
X34824Y-15671D01*
X34824Y-15674D01*
X34824Y-15677D01*
X34824Y-15684D01*
X34823Y-15694D01*
X34823Y-15707D01*
X34822Y-15723D01*
X34821Y-15741D01*
X34820Y-15761D01*
X34819Y-15783D01*
X34818Y-15806D01*
X34817Y-15817D01*
X34816Y-15841D01*
X34815Y-15864D01*
X34814Y-15885D01*
X34813Y-15904D01*
X34812Y-15921D01*
X34812Y-15935D01*
X34811Y-15947D01*
X34811Y-15955D01*
X34811Y-15960D01*
X34811Y-15961D01*
X34811Y-15963D01*
X34811Y-15965D01*
X34808Y-15966D01*
X34803Y-15967D01*
X34794Y-15968D01*
X34788Y-15969D01*
X34778Y-15971D01*
X34765Y-15973D01*
X34751Y-15976D01*
X34737Y-15979D01*
X34725Y-15983D01*
X34714Y-15986D01*
X34710Y-15988D01*
X34690Y-15998D01*
X34670Y-16012D01*
X34652Y-16028D01*
X34635Y-16046D01*
X34627Y-16057D01*
X34617Y-16074D01*
X34608Y-16092D01*
X34600Y-16112D01*
X34595Y-16129D01*
X34591Y-16146D01*
X34589Y-16164D01*
X34589Y-16181D01*
X34590Y-16198D01*
X34593Y-16211D01*
X34593Y-16213D01*
X34600Y-16227D01*
X34608Y-16239D01*
X34619Y-16248D01*
X34624Y-16252D01*
X34635Y-16257D01*
X34651Y-16257D01*
X34651Y-16195D01*
X34651Y-16175D01*
X34651Y-16162D01*
X34653Y-16152D01*
X34655Y-16143D01*
X34656Y-16139D01*
X34665Y-16116D01*
X34677Y-16095D01*
X34692Y-16077D01*
X34708Y-16062D01*
X34725Y-16050D01*
X34738Y-16045D01*
X34745Y-16042D01*
X34756Y-16040D01*
X34768Y-16037D01*
X34781Y-16034D01*
X34794Y-16032D01*
X34806Y-16030D01*
X34811Y-16029D01*
X34818Y-16028D01*
X34822Y-16029D01*
X34824Y-16030D01*
X34825Y-16032D01*
X34825Y-16033D01*
X34826Y-16036D01*
X34828Y-16043D01*
X34830Y-16053D01*
X34832Y-16063D01*
X34832Y-16066D01*
X34835Y-16077D01*
X34836Y-16085D01*
X34837Y-16091D01*
X34837Y-16096D01*
X34836Y-16099D01*
X34835Y-16102D01*
X34833Y-16112D01*
X34830Y-16125D01*
X34828Y-16139D01*
X34826Y-16154D01*
X34825Y-16167D01*
X34824Y-16176D01*
X34824Y-16197D01*
X34738Y-16196D01*
X34651Y-16195D01*
X34651Y-16257D01*
X34872Y-16257D01*
X34872Y-15950D01*
X34878Y-15836D01*
X34880Y-15814D01*
X34881Y-15794D01*
X34882Y-15774D01*
X34883Y-15757D01*
X34883Y-15742D01*
X34884Y-15730D01*
X34885Y-15720D01*
X34885Y-15715D01*
X34885Y-15713D01*
X34886Y-15704D01*
X34907Y-15714D01*
X34940Y-15728D01*
X34974Y-15739D01*
X35009Y-15748D01*
X35036Y-15753D01*
X35040Y-15754D01*
X35043Y-15755D01*
X35046Y-15758D01*
X35049Y-15764D01*
X35054Y-15772D01*
X35055Y-15773D01*
X35069Y-15796D01*
X35083Y-15816D01*
X35095Y-15830D01*
X35104Y-15840D01*
X35116Y-15903D01*
X35116Y-15753D01*
X35117Y-15751D01*
X35118Y-15749D01*
X35121Y-15745D01*
X35125Y-15740D01*
X35132Y-15733D01*
X35140Y-15724D01*
X35152Y-15712D01*
X35161Y-15703D01*
X35173Y-15691D01*
X35182Y-15681D01*
X35191Y-15672D01*
X35199Y-15665D01*
X35205Y-15660D01*
X35208Y-15657D01*
X35208Y-15656D01*
X35211Y-15658D01*
X35215Y-15661D01*
X35222Y-15666D01*
X35230Y-15672D01*
X35231Y-15674D01*
X35242Y-15683D01*
X35252Y-15692D01*
X35263Y-15702D01*
X35272Y-15712D01*
X35280Y-15721D01*
X35287Y-15728D01*
X35291Y-15734D01*
X35292Y-15736D01*
X35292Y-15743D01*
X35288Y-15751D01*
X35281Y-15759D01*
X35272Y-15768D01*
X35262Y-15777D01*
X35249Y-15786D01*
X35236Y-15793D01*
X35223Y-15800D01*
X35210Y-15805D01*
X35197Y-15808D01*
X35194Y-15809D01*
X35185Y-15809D01*
X35175Y-15808D01*
X35165Y-15805D01*
X35164Y-15805D01*
X35157Y-15801D01*
X35149Y-15794D01*
X35140Y-15786D01*
X35132Y-15776D01*
X35125Y-15767D01*
X35119Y-15758D01*
X35116Y-15753D01*
X35116Y-15903D01*
X35123Y-15938D01*
X35127Y-15957D01*
X35131Y-15976D01*
X35134Y-15992D01*
X35137Y-16007D01*
X35138Y-16015D01*
X35138Y-15864D01*
X35140Y-15864D01*
X35144Y-15865D01*
X35150Y-15867D01*
X35161Y-15870D01*
X35175Y-15871D01*
X35190Y-15871D01*
X35205Y-15870D01*
X35220Y-15867D01*
X35223Y-15867D01*
X35244Y-15859D01*
X35265Y-15850D01*
X35285Y-15838D01*
X35304Y-15824D01*
X35320Y-15810D01*
X35334Y-15794D01*
X35345Y-15778D01*
X35352Y-15762D01*
X35352Y-15762D01*
X35354Y-15754D01*
X35355Y-15744D01*
X35356Y-15738D01*
X35355Y-15731D01*
X35354Y-15725D01*
X35352Y-15718D01*
X35348Y-15709D01*
X35347Y-15707D01*
X35343Y-15699D01*
X35337Y-15691D01*
X35331Y-15683D01*
X35323Y-15673D01*
X35317Y-15668D01*
X35307Y-15658D01*
X35296Y-15647D01*
X35285Y-15636D01*
X35275Y-15628D01*
X35253Y-15610D01*
X35280Y-15583D01*
X35288Y-15575D01*
X35296Y-15568D01*
X35302Y-15562D01*
X35306Y-15559D01*
X35308Y-15558D01*
X35309Y-15560D01*
X35312Y-15566D01*
X35317Y-15574D01*
X35323Y-15585D01*
X35330Y-15598D01*
X35338Y-15612D01*
X35347Y-15628D01*
X35353Y-15639D01*
X35396Y-15718D01*
X35426Y-15834D01*
X35431Y-15856D01*
X35436Y-15878D01*
X35441Y-15899D01*
X35446Y-15919D01*
X35450Y-15937D01*
X35454Y-15952D01*
X35456Y-15965D01*
X35458Y-15974D01*
X35459Y-15978D01*
X35463Y-16006D01*
X35457Y-16016D01*
X35453Y-16022D01*
X35450Y-16024D01*
X35448Y-16024D01*
X35446Y-16023D01*
X35426Y-16010D01*
X35405Y-16001D01*
X35382Y-15994D01*
X35381Y-15994D01*
X35369Y-15992D01*
X35355Y-15991D01*
X35339Y-15990D01*
X35323Y-15990D01*
X35308Y-15991D01*
X35294Y-15992D01*
X35291Y-15993D01*
X35264Y-15999D01*
X35239Y-16009D01*
X35217Y-16021D01*
X35197Y-16035D01*
X35189Y-16043D01*
X35183Y-16049D01*
X35178Y-16053D01*
X35177Y-16056D01*
X35176Y-16056D01*
X35176Y-16054D01*
X35174Y-16049D01*
X35173Y-16040D01*
X35170Y-16028D01*
X35167Y-16013D01*
X35164Y-15997D01*
X35160Y-15979D01*
X35157Y-15960D01*
X35153Y-15941D01*
X35150Y-15923D01*
X35146Y-15906D01*
X35143Y-15892D01*
X35141Y-15880D01*
X35139Y-15871D01*
X35138Y-15866D01*
X35138Y-15864D01*
X35138Y-16015D01*
X35139Y-16019D01*
X35141Y-16029D01*
X35142Y-16035D01*
X35142Y-16037D01*
X35141Y-16037D01*
X35137Y-16035D01*
X35134Y-16032D01*
X35128Y-16027D01*
X35120Y-16021D01*
X35114Y-16018D01*
X35093Y-16007D01*
X35069Y-15999D01*
X35044Y-15993D01*
X35018Y-15990D01*
X34992Y-15989D01*
X34966Y-15992D01*
X34942Y-15997D01*
X34920Y-16004D01*
X34914Y-16008D01*
X34906Y-16012D01*
X34899Y-16016D01*
X34895Y-16018D01*
X34888Y-16024D01*
X34880Y-15987D01*
X34872Y-15950D01*
X34872Y-16257D01*
X34886Y-16257D01*
X34886Y-16199D01*
X34887Y-16172D01*
X34890Y-16146D01*
X34895Y-16124D01*
X34902Y-16104D01*
X34913Y-16088D01*
X34926Y-16075D01*
X34937Y-16067D01*
X34950Y-16061D01*
X34962Y-16056D01*
X34975Y-16054D01*
X34991Y-16053D01*
X35003Y-16053D01*
X35024Y-16053D01*
X35042Y-16056D01*
X35059Y-16061D01*
X35075Y-16068D01*
X35076Y-16069D01*
X35092Y-16080D01*
X35107Y-16094D01*
X35118Y-16111D01*
X35127Y-16131D01*
X35133Y-16152D01*
X35136Y-16176D01*
X35136Y-16183D01*
X35136Y-16196D01*
X35043Y-16197D01*
X35022Y-16197D01*
X35002Y-16197D01*
X34982Y-16197D01*
X34963Y-16198D01*
X34947Y-16198D01*
X34933Y-16198D01*
X34922Y-16198D01*
X34918Y-16198D01*
X34886Y-16199D01*
X34886Y-16257D01*
X35083Y-16258D01*
X35128Y-16258D01*
X35172Y-16258D01*
X35197Y-16258D01*
X35197Y-16196D01*
X35198Y-16178D01*
X35202Y-16152D01*
X35208Y-16130D01*
X35216Y-16110D01*
X35227Y-16094D01*
X35241Y-16080D01*
X35258Y-16069D01*
X35279Y-16061D01*
X35290Y-16057D01*
X35302Y-16055D01*
X35316Y-16053D01*
X35331Y-16053D01*
X35346Y-16053D01*
X35359Y-16054D01*
X35368Y-16055D01*
X35387Y-16061D01*
X35403Y-16071D01*
X35417Y-16083D01*
X35429Y-16099D01*
X35437Y-16118D01*
X35443Y-16140D01*
X35447Y-16166D01*
X35448Y-16175D01*
X35449Y-16196D01*
X35323Y-16196D01*
X35197Y-16196D01*
X35197Y-16258D01*
X35215Y-16258D01*
X35258Y-16258D01*
X35300Y-16258D01*
X35341Y-16258D01*
X35381Y-16258D01*
X35419Y-16258D01*
X35455Y-16259D01*
X35488Y-16259D01*
X35491Y-16259D01*
X35491Y-16080D01*
X35491Y-16078D01*
X35492Y-16075D01*
X35496Y-16069D01*
X35501Y-16062D01*
X35507Y-16054D01*
X35507Y-16054D01*
X35514Y-16045D01*
X35518Y-16039D01*
X35522Y-16035D01*
X35525Y-16032D01*
X35529Y-16031D01*
X35533Y-16030D01*
X35543Y-16029D01*
X35556Y-16029D01*
X35564Y-16029D01*
X35564Y-15963D01*
X35564Y-15963D01*
X35566Y-15961D01*
X35570Y-15956D01*
X35575Y-15948D01*
X35582Y-15939D01*
X35589Y-15929D01*
X35592Y-15925D01*
X35599Y-15916D01*
X35604Y-15909D01*
X35609Y-15902D01*
X35613Y-15896D01*
X35616Y-15890D01*
X35619Y-15883D01*
X35622Y-15875D01*
X35625Y-15866D01*
X35629Y-15854D01*
X35633Y-15840D01*
X35638Y-15823D01*
X35642Y-15808D01*
X35645Y-15797D01*
X35648Y-15787D01*
X35650Y-15780D01*
X35652Y-15776D01*
X35652Y-15775D01*
X35653Y-15777D01*
X35655Y-15782D01*
X35657Y-15789D01*
X35659Y-15799D01*
X35661Y-15809D01*
X35662Y-15818D01*
X35663Y-15823D01*
X35664Y-15837D01*
X35664Y-15850D01*
X35662Y-15864D01*
X35659Y-15879D01*
X35655Y-15894D01*
X35648Y-15912D01*
X35640Y-15932D01*
X35629Y-15954D01*
X35628Y-15956D01*
X35620Y-15973D01*
X35612Y-15971D01*
X35606Y-15971D01*
X35597Y-15969D01*
X35588Y-15968D01*
X35583Y-15968D01*
X35573Y-15966D01*
X35567Y-15965D01*
X35564Y-15963D01*
X35564Y-16029D01*
X35571Y-16029D01*
X35588Y-16031D01*
X35605Y-16034D01*
X35621Y-16037D01*
X35637Y-16041D01*
X35647Y-16045D01*
X35665Y-16054D01*
X35682Y-16066D01*
X35697Y-16082D01*
X35710Y-16100D01*
X35721Y-16121D01*
X35729Y-16143D01*
X35732Y-16155D01*
X35734Y-16167D01*
X35735Y-16175D01*
X35735Y-16182D01*
X35734Y-16186D01*
X35732Y-16195D01*
X35657Y-16197D01*
X35638Y-16197D01*
X35619Y-16197D01*
X35600Y-16197D01*
X35582Y-16198D01*
X35566Y-16198D01*
X35553Y-16198D01*
X35547Y-16198D01*
X35511Y-16199D01*
X35511Y-16185D01*
X35510Y-16167D01*
X35508Y-16148D01*
X35505Y-16129D01*
X35501Y-16111D01*
X35496Y-16096D01*
X35494Y-16091D01*
X35492Y-16085D01*
X35491Y-16080D01*
X35491Y-16259D01*
X35520Y-16259D01*
X35548Y-16259D01*
X35573Y-16259D01*
X35596Y-16259D01*
X35614Y-16259D01*
X35629Y-16259D01*
X35637Y-16260D01*
X35661Y-16260D01*
X35681Y-16260D01*
X35698Y-16260D01*
X35711Y-16260D01*
X35722Y-16260D01*
X35731Y-16260D01*
X35738Y-16260D01*
X35743Y-16259D01*
X35747Y-16259D01*
X35750Y-16258D01*
X35753Y-16257D01*
X35765Y-16251D01*
X35776Y-16241D01*
X35785Y-16228D01*
X35792Y-16213D01*
X35796Y-16196D01*
X35797Y-16178D01*
X35797Y-16166D01*
X35792Y-16138D01*
X35784Y-16110D01*
X35773Y-16084D01*
X35759Y-16059D01*
X35742Y-16037D01*
X35722Y-16018D01*
X35701Y-16002D01*
X35695Y-15998D01*
X35682Y-15990D01*
X35692Y-15969D01*
X35700Y-15951D01*
X35707Y-15934D01*
X35713Y-15918D01*
X35718Y-15904D01*
X35720Y-15898D01*
X35723Y-15879D01*
X35725Y-15857D01*
X35725Y-15834D01*
X35724Y-15810D01*
X35721Y-15789D01*
X35720Y-15782D01*
X35720Y-15777D01*
X35722Y-15774D01*
X35727Y-15773D01*
X35734Y-15773D01*
X35741Y-15773D01*
X35758Y-15772D01*
X35772Y-15768D01*
X35782Y-15763D01*
X35790Y-15756D01*
X35793Y-15747D01*
X35794Y-15736D01*
X35793Y-15735D01*
X35791Y-15728D01*
X35788Y-15721D01*
X35783Y-15716D01*
X35775Y-15712D01*
X35765Y-15708D01*
X35752Y-15705D01*
X35735Y-15703D01*
X35720Y-15700D01*
X35693Y-15697D01*
X35686Y-15683D01*
X35680Y-15670D01*
X35687Y-15664D01*
X35702Y-15651D01*
X35713Y-15636D01*
X35721Y-15620D01*
X35725Y-15602D01*
X35727Y-15584D01*
X35725Y-15566D01*
X35719Y-15549D01*
X35710Y-15533D01*
X35699Y-15520D01*
X35684Y-15508D01*
X35669Y-15499D01*
X35652Y-15494D01*
X35633Y-15493D01*
X35625Y-15493D01*
X35614Y-15494D01*
X35606Y-15495D01*
X35598Y-15498D01*
X35591Y-15501D01*
X35574Y-15512D01*
X35560Y-15525D01*
X35549Y-15540D01*
X35542Y-15557D01*
X35538Y-15577D01*
X35537Y-15588D01*
X35539Y-15608D01*
X35545Y-15626D01*
X35554Y-15642D01*
X35567Y-15657D01*
X35580Y-15667D01*
X35588Y-15671D01*
X35592Y-15674D01*
X35592Y-15591D01*
X35593Y-15578D01*
X35598Y-15567D01*
X35605Y-15557D01*
X35616Y-15551D01*
X35622Y-15549D01*
X35634Y-15547D01*
X35645Y-15549D01*
X35655Y-15555D01*
X35662Y-15562D01*
X35668Y-15571D01*
X35671Y-15582D01*
X35671Y-15592D01*
X35668Y-15603D01*
X35664Y-15609D01*
X35655Y-15619D01*
X35645Y-15625D01*
X35633Y-15627D01*
X35621Y-15625D01*
X35615Y-15623D01*
X35604Y-15615D01*
X35597Y-15605D01*
X35593Y-15594D01*
X35592Y-15591D01*
X35592Y-15674D01*
X35596Y-15675D01*
X35602Y-15677D01*
X35608Y-15679D01*
X35611Y-15681D01*
X35612Y-15684D01*
X35611Y-15687D01*
X35610Y-15689D01*
X35609Y-15691D01*
X35605Y-15691D01*
X35599Y-15692D01*
X35593Y-15692D01*
X35581Y-15692D01*
X35569Y-15693D01*
X35558Y-15694D01*
X35549Y-15696D01*
X35542Y-15698D01*
X35541Y-15698D01*
X35532Y-15705D01*
X35527Y-15713D01*
X35524Y-15723D01*
X35525Y-15733D01*
X35530Y-15742D01*
X35533Y-15746D01*
X35541Y-15751D01*
X35550Y-15756D01*
X35562Y-15759D01*
X35573Y-15761D01*
X35579Y-15763D01*
X35584Y-15764D01*
X35586Y-15764D01*
X35586Y-15767D01*
X35585Y-15773D01*
X35584Y-15781D01*
X35581Y-15791D01*
X35578Y-15803D01*
X35575Y-15815D01*
X35571Y-15828D01*
X35567Y-15840D01*
X35564Y-15850D01*
X35560Y-15859D01*
X35558Y-15864D01*
X35557Y-15866D01*
X35549Y-15877D01*
X35542Y-15887D01*
X35534Y-15897D01*
X35527Y-15906D01*
X35521Y-15914D01*
X35517Y-15920D01*
X35514Y-15922D01*
X35513Y-15923D01*
X35512Y-15921D01*
X35511Y-15915D01*
X35508Y-15905D01*
X35505Y-15893D01*
X35501Y-15879D01*
X35497Y-15862D01*
X35492Y-15843D01*
X35487Y-15822D01*
X35483Y-15807D01*
X35454Y-15692D01*
X35404Y-15601D01*
X35353Y-15510D01*
X35361Y-15502D01*
X35363Y-15500D01*
X35365Y-15497D01*
X35367Y-15494D01*
X35369Y-15490D01*
X35371Y-15485D01*
X35374Y-15478D01*
X35378Y-15470D01*
X35382Y-15459D01*
X35388Y-15446D01*
X35394Y-15430D01*
X35401Y-15410D01*
X35410Y-15388D01*
X35417Y-15369D01*
X35425Y-15347D01*
X35433Y-15326D01*
X35440Y-15307D01*
X35446Y-15289D01*
X35452Y-15274D01*
X35457Y-15261D01*
X35461Y-15251D01*
X35463Y-15244D01*
X35465Y-15240D01*
X35465Y-15240D01*
X35466Y-15239D01*
X35468Y-15238D01*
X35471Y-15238D01*
X35477Y-15239D01*
X35485Y-15240D01*
X35486Y-15240D01*
X35486Y-15175D01*
X35488Y-15174D01*
X35492Y-15170D01*
X35498Y-15165D01*
X35503Y-15162D01*
X35534Y-15141D01*
X35564Y-15124D01*
X35594Y-15111D01*
X35624Y-15103D01*
X35653Y-15098D01*
X35676Y-15097D01*
X35693Y-15097D01*
X35708Y-15098D01*
X35722Y-15101D01*
X35737Y-15105D01*
X35740Y-15106D01*
X35757Y-15112D01*
X35769Y-15117D01*
X35779Y-15123D01*
X35786Y-15129D01*
X35789Y-15133D01*
X35798Y-15148D01*
X35805Y-15165D01*
X35808Y-15175D01*
X35810Y-15184D01*
X35810Y-15194D01*
X35811Y-15205D01*
X35810Y-15214D01*
X35809Y-15221D01*
X35808Y-15223D01*
X35807Y-15225D01*
X35805Y-15226D01*
X35801Y-15227D01*
X35796Y-15227D01*
X35788Y-15226D01*
X35777Y-15225D01*
X35772Y-15224D01*
X35755Y-15222D01*
X35734Y-15219D01*
X35711Y-15215D01*
X35686Y-15212D01*
X35660Y-15207D01*
X35634Y-15203D01*
X35608Y-15198D01*
X35597Y-15196D01*
X35573Y-15192D01*
X35552Y-15188D01*
X35535Y-15185D01*
X35521Y-15183D01*
X35509Y-15181D01*
X35501Y-15179D01*
X35495Y-15178D01*
X35490Y-15177D01*
X35488Y-15176D01*
X35486Y-15176D01*
X35486Y-15175D01*
X35486Y-15240D01*
X35496Y-15242D01*
X35504Y-15243D01*
X35526Y-15248D01*
X35552Y-15252D01*
X35579Y-15257D01*
X35607Y-15262D01*
X35635Y-15266D01*
X35662Y-15271D01*
X35687Y-15275D01*
X35710Y-15279D01*
X35722Y-15281D01*
X35742Y-15283D01*
X35759Y-15286D01*
X35773Y-15287D01*
X35786Y-15288D01*
X35798Y-15288D01*
X35800Y-15288D01*
X35828Y-15289D01*
X35838Y-15282D01*
X35851Y-15270D01*
X35862Y-15256D01*
X35869Y-15239D01*
X35873Y-15220D01*
X35874Y-15198D01*
X35872Y-15183D01*
X35868Y-15158D01*
X35861Y-15135D01*
X35851Y-15114D01*
X35840Y-15096D01*
X35826Y-15080D01*
X35810Y-15068D01*
X35801Y-15062D01*
X35769Y-15049D01*
X35737Y-15040D01*
X35704Y-15035D01*
X35670Y-15034D01*
X35636Y-15037D01*
X35602Y-15043D01*
X35567Y-15054D01*
X35535Y-15068D01*
X35522Y-15075D01*
X35508Y-15083D01*
X35494Y-15092D01*
X35480Y-15101D01*
X35467Y-15109D01*
X35458Y-15116D01*
X35449Y-15123D01*
X35442Y-15107D01*
X35421Y-15069D01*
X35398Y-15034D01*
X35374Y-15003D01*
X35347Y-14976D01*
X35319Y-14952D01*
X35292Y-14934D01*
X35263Y-14918D01*
X35230Y-14903D01*
X35196Y-14891D01*
X35187Y-14888D01*
X35152Y-14878D01*
X35118Y-14871D01*
X35087Y-14867D01*
X35057Y-14865D01*
X35029Y-14866D01*
X35001Y-14870D01*
X34975Y-14878D01*
X34948Y-14888D01*
X34925Y-14898D01*
X34899Y-14911D01*
X34894Y-14897D01*
X34877Y-14861D01*
X34857Y-14827D01*
X34836Y-14797D01*
X34812Y-14771D01*
X34786Y-14747D01*
X34758Y-14728D01*
X34728Y-14711D01*
X34696Y-14699D01*
X34669Y-14691D01*
X34650Y-14688D01*
X34631Y-14686D01*
X34613Y-14687D01*
X34597Y-14689D01*
X34587Y-14692D01*
X34568Y-14701D01*
X34550Y-14712D01*
X34533Y-14726D01*
X34518Y-14741D01*
X34505Y-14757D01*
X34494Y-14774D01*
X34486Y-14792D01*
X34482Y-14809D01*
X34480Y-14826D01*
X34480Y-14826D01*
X34480Y-14826D01*
G37*
G36*
X35176Y-15994D02*
X35176Y-16001D01*
X35179Y-16007D01*
X35180Y-16007D01*
X35185Y-16011D01*
X35189Y-16011D01*
X35195Y-16010D01*
X35200Y-16006D01*
X35203Y-16000D01*
X35202Y-15994D01*
X35200Y-15988D01*
X35195Y-15984D01*
X35189Y-15983D01*
X35182Y-15984D01*
X35177Y-15988D01*
X35176Y-15994D01*
X35176Y-15994D01*
X35176Y-15994D01*
G37*
G36*
X35161Y-15941D02*
X35161Y-15947D01*
X35164Y-15953D01*
X35165Y-15954D01*
X35170Y-15957D01*
X35177Y-15957D01*
X35182Y-15955D01*
X35183Y-15954D01*
X35187Y-15948D01*
X35187Y-15942D01*
X35186Y-15938D01*
X35182Y-15932D01*
X35177Y-15930D01*
X35170Y-15930D01*
X35164Y-15933D01*
X35162Y-15936D01*
X35161Y-15941D01*
X35161Y-15941D01*
X35161Y-15941D01*
G37*
G36*
X35148Y-15894D02*
X35150Y-15900D01*
X35155Y-15905D01*
X35161Y-15908D01*
X35167Y-15908D01*
X35167Y-15908D01*
X35174Y-15904D01*
X35177Y-15898D01*
X35177Y-15891D01*
X35174Y-15885D01*
X35169Y-15881D01*
X35163Y-15881D01*
X35157Y-15882D01*
X35152Y-15886D01*
X35149Y-15891D01*
X35148Y-15894D01*
X35148Y-15894D01*
X35148Y-15894D01*
G37*
G36*
X34876Y-15498D02*
X34877Y-15503D01*
X34877Y-15506D01*
X34880Y-15520D01*
X34887Y-15535D01*
X34897Y-15550D01*
X34909Y-15565D01*
X34924Y-15578D01*
X34940Y-15590D01*
X34957Y-15600D01*
X34974Y-15607D01*
X34980Y-15609D01*
X34996Y-15612D01*
X35012Y-15614D01*
X35028Y-15613D01*
X35030Y-15613D01*
X35040Y-15611D01*
X35049Y-15608D01*
X35053Y-15606D01*
X35061Y-15603D01*
X35069Y-15598D01*
X35077Y-15594D01*
X35083Y-15590D01*
X35087Y-15586D01*
X35087Y-15585D01*
X35085Y-15583D01*
X35080Y-15580D01*
X35072Y-15576D01*
X35062Y-15571D01*
X35050Y-15565D01*
X35036Y-15558D01*
X35022Y-15551D01*
X35007Y-15545D01*
X34993Y-15538D01*
X34979Y-15532D01*
X34967Y-15526D01*
X34956Y-15521D01*
X34944Y-15516D01*
X34931Y-15511D01*
X34918Y-15506D01*
X34906Y-15502D01*
X34895Y-15498D01*
X34886Y-15496D01*
X34881Y-15494D01*
X34879Y-15494D01*
X34877Y-15495D01*
X34876Y-15498D01*
X34876Y-15498D01*
X34876Y-15498D01*
G37*
G36*
X34878Y-15435D02*
X34879Y-15442D01*
X34884Y-15447D01*
X34890Y-15449D01*
X34896Y-15449D01*
X34901Y-15446D01*
X34905Y-15439D01*
X34905Y-15433D01*
X34903Y-15427D01*
X34898Y-15422D01*
X34891Y-15421D01*
X34885Y-15422D01*
X34880Y-15427D01*
X34878Y-15434D01*
X34878Y-15435D01*
X34878Y-15435D01*
X34878Y-15435D01*
G37*
G36*
X34829Y-15435D02*
X34830Y-15442D01*
X34835Y-15447D01*
X34841Y-15449D01*
X34848Y-15448D01*
X34852Y-15446D01*
X34855Y-15440D01*
X34856Y-15433D01*
X34854Y-15427D01*
X34852Y-15425D01*
X34847Y-15421D01*
X34841Y-15421D01*
X34835Y-15423D01*
X34830Y-15428D01*
X34829Y-15435D01*
X34829Y-15435D01*
X34829Y-15435D01*
X34829Y-15435D01*
G37*
G36*
X35149Y-15316D02*
X35151Y-15335D01*
X35156Y-15353D01*
X35164Y-15370D01*
X35177Y-15386D01*
X35177Y-15387D01*
X35191Y-15399D01*
X35204Y-15405D01*
X35204Y-15324D01*
X35204Y-15313D01*
X35208Y-15302D01*
X35214Y-15292D01*
X35222Y-15285D01*
X35229Y-15282D01*
X35239Y-15280D01*
X35242Y-15280D01*
X35249Y-15280D01*
X35255Y-15280D01*
X35260Y-15283D01*
X35264Y-15285D01*
X35273Y-15293D01*
X35279Y-15303D01*
X35282Y-15314D01*
X35282Y-15325D01*
X35279Y-15335D01*
X35274Y-15345D01*
X35265Y-15352D01*
X35255Y-15357D01*
X35252Y-15358D01*
X35242Y-15359D01*
X35232Y-15357D01*
X35222Y-15352D01*
X35213Y-15345D01*
X35207Y-15335D01*
X35204Y-15324D01*
X35204Y-15405D01*
X35208Y-15408D01*
X35227Y-15413D01*
X35246Y-15414D01*
X35265Y-15412D01*
X35268Y-15411D01*
X35286Y-15404D01*
X35301Y-15394D01*
X35314Y-15382D01*
X35325Y-15368D01*
X35332Y-15352D01*
X35337Y-15335D01*
X35338Y-15318D01*
X35336Y-15300D01*
X35331Y-15283D01*
X35323Y-15267D01*
X35310Y-15252D01*
X35310Y-15252D01*
X35295Y-15239D01*
X35279Y-15231D01*
X35262Y-15226D01*
X35244Y-15224D01*
X35226Y-15225D01*
X35209Y-15230D01*
X35193Y-15238D01*
X35179Y-15249D01*
X35168Y-15263D01*
X35159Y-15278D01*
X35152Y-15297D01*
X35149Y-15316D01*
X35149Y-15316D01*
X35149Y-15316D01*
G37*
G36*
X34846Y-15203D02*
X34846Y-15221D01*
X34850Y-15238D01*
X34856Y-15255D01*
X34866Y-15270D01*
X34874Y-15279D01*
X34889Y-15291D01*
X34901Y-15297D01*
X34901Y-15208D01*
X34903Y-15198D01*
X34908Y-15188D01*
X34917Y-15179D01*
X34923Y-15175D01*
X34935Y-15172D01*
X34947Y-15172D01*
X34958Y-15175D01*
X34967Y-15181D01*
X34974Y-15190D01*
X34979Y-15201D01*
X34980Y-15212D01*
X34978Y-15223D01*
X34973Y-15234D01*
X34965Y-15242D01*
X34956Y-15247D01*
X34945Y-15250D01*
X34933Y-15250D01*
X34922Y-15246D01*
X34913Y-15239D01*
X34906Y-15230D01*
X34902Y-15220D01*
X34901Y-15208D01*
X34901Y-15297D01*
X34907Y-15300D01*
X34925Y-15305D01*
X34944Y-15306D01*
X34963Y-15304D01*
X34965Y-15303D01*
X34983Y-15296D01*
X35000Y-15286D01*
X35013Y-15272D01*
X35024Y-15257D01*
X35032Y-15239D01*
X35032Y-15237D01*
X35034Y-15229D01*
X35035Y-15220D01*
X35035Y-15210D01*
X35035Y-15210D01*
X35033Y-15190D01*
X35028Y-15172D01*
X35018Y-15156D01*
X35005Y-15142D01*
X34989Y-15130D01*
X34972Y-15121D01*
X34953Y-15117D01*
X34934Y-15116D01*
X34924Y-15117D01*
X34906Y-15122D01*
X34889Y-15131D01*
X34875Y-15142D01*
X34864Y-15155D01*
X34855Y-15170D01*
X34849Y-15186D01*
X34846Y-15203D01*
X34846Y-15203D01*
X34846Y-15203D01*
G37*
G36*
X35101Y-15080D02*
X35102Y-15087D01*
X35107Y-15092D01*
X35114Y-15094D01*
X35114Y-15094D01*
X35119Y-15093D01*
X35123Y-15091D01*
X35126Y-15087D01*
X35128Y-15081D01*
X35128Y-15080D01*
X35127Y-15073D01*
X35124Y-15069D01*
X35123Y-15069D01*
X35116Y-15066D01*
X35109Y-15066D01*
X35104Y-15070D01*
X35101Y-15076D01*
X35101Y-15080D01*
X35101Y-15080D01*
X35101Y-15080D01*
G37*
G36*
X35120Y-15038D02*
X35122Y-15044D01*
X35123Y-15045D01*
X35129Y-15048D01*
X35136Y-15048D01*
X35142Y-15046D01*
X35143Y-15045D01*
X35146Y-15039D01*
X35147Y-15032D01*
X35145Y-15026D01*
X35144Y-15024D01*
X35139Y-15022D01*
X35132Y-15021D01*
X35126Y-15022D01*
X35122Y-15025D01*
X35120Y-15031D01*
X35120Y-15038D01*
X35120Y-15038D01*
X35120Y-15038D01*
G37*
G36*
X35142Y-14986D02*
X35143Y-14992D01*
X35144Y-14994D01*
X35148Y-14998D01*
X35154Y-14999D01*
X35161Y-14999D01*
X35161Y-14999D01*
X35166Y-14996D01*
X35169Y-14991D01*
X35169Y-14985D01*
X35168Y-14978D01*
X35163Y-14973D01*
X35156Y-14972D01*
X35150Y-14973D01*
X35146Y-14975D01*
X35145Y-14975D01*
X35143Y-14980D01*
X35142Y-14986D01*
X35142Y-14986D01*
X35142Y-14986D01*
G37*
G54D13*
X32670Y-15073D03*
G54D14*
X32670Y-16073D03*
X31670Y-15073D03*
X31670Y-16073D03*
X30670Y-15073D03*
X30670Y-16073D03*
G54D13*
X38901Y-15070D03*
G54D14*
X37901Y-15070D03*
X36901Y-15070D03*
G54D15*
X38877Y-21562D03*
G54D16*
X38877Y-20562D03*
G54D15*
X30787Y-21562D03*
G54D16*
X30787Y-20562D03*
M02*
