M48
METRIC,TZ
T1C0.330
T2C1.016
T3C1.250
%
G90
G05
T1
X079172Y-048920
X081153Y-056540
X082093Y-056515
X082931Y-056515
X086000Y-039400
X086000Y-042300
X086700Y-041300
X089548Y-041500
X090600Y-047000
X095400Y-043800
X096235Y-042251
X097700Y-044100
X099619Y-045771
T2
X077902Y-038287
X077902Y-040827
X080442Y-038287
X080442Y-040827
X082982Y-038287
X082982Y-040827
X093730Y-038280
X096270Y-038280
X098810Y-038280
T3
X078200Y-052230
X078200Y-054770
X098781Y-052230
X098781Y-054770
T0
M30
