M48
INCH,TZ
T1C0.013
T2C0.032
T3C0.040
T4C0.049
%
G90
G05
T1
X032441Y-019921
X032441Y-020315
X032638Y-020118
X032638Y-020512
X032835Y-019921
X032835Y-020315
X033031Y-020118
X033031Y-020512
X033228Y-019921
X033228Y-020315
X033425Y-020118
X033425Y-020512
X033622Y-019921
X033622Y-020315
X033819Y-020118
X033819Y-020512
X034016Y-019921
X034016Y-020315
X034213Y-020118
X034213Y-020512
X034287Y-017953
X034409Y-019921
X034409Y-020315
X034606Y-020118
X034606Y-020512
X034803Y-019921
X034803Y-020315
X038681Y-016339
T2
X035929Y-014685
X036929Y-014685
X037929Y-014685
T3
X030890Y-014264
X030890Y-015264
X031890Y-014264
X031890Y-015264
X032890Y-014264
X032890Y-015264
T4
X030650Y-020760
X030650Y-021760
X038740Y-020760
X038740Y-021760
T0
M30
