G04 (created by PCBNEW (2013-06-15 BZR 4214)-testing) date Sun 16 Jun 2013 11:12:00 PM CEST*
%MOIN*%
G04 Gerber Fmt 3.4, Leading zero omitted, Abs format*
%FSLAX34Y34*%
G01*
G70*
G90*
G04 APERTURE LIST*
%ADD10C,0.005906*%
%ADD11C,0.007874*%
%ADD12R,0.025591X0.049213*%
%ADD13R,0.086614X0.027559*%
%ADD14R,0.059055X0.047244*%
%ADD15R,0.043300X0.039300*%
%ADD16R,0.070866X0.070866*%
%ADD17R,0.098425X0.059055*%
%ADD18R,0.275591X0.275591*%
%ADD19R,0.059055X0.041339*%
%ADD20O,0.059055X0.041339*%
%ADD21R,0.064961X0.064961*%
%ADD22C,0.064961*%
%ADD23R,0.098425X0.023622*%
%ADD24R,0.098425X0.078740*%
%ADD25O,0.098425X0.078740*%
%ADD26R,0.059000X0.051100*%
%ADD27R,0.051100X0.059000*%
G04 APERTURE END LIST*
G54D10*
G54D11*
X30314Y-22834D02*
X42125Y-22834D01*
X29921Y-16929D02*
X29921Y-22440D01*
X42125Y-16535D02*
X30314Y-16535D01*
X42519Y-22440D02*
X42519Y-16929D01*
X42519Y-16929D02*
G75*
G03X42125Y-16535I-393J0D01*
G74*
G01*
X42125Y-22834D02*
G75*
G03X42519Y-22440I0J393D01*
G74*
G01*
X29921Y-22440D02*
G75*
G03X30314Y-22834I393J0D01*
G74*
G01*
X30314Y-16535D02*
G75*
G03X29921Y-16929I0J-393D01*
G74*
G01*
G54D12*
X38799Y-20000D03*
X39173Y-20000D03*
X39547Y-20000D03*
X39547Y-18976D03*
X38799Y-18976D03*
G54D13*
X33510Y-17220D03*
X33510Y-17720D03*
X33510Y-18220D03*
X33510Y-18720D03*
X36510Y-18720D03*
X36510Y-18220D03*
X36510Y-17720D03*
X36510Y-17220D03*
G54D14*
X30590Y-17932D03*
X30590Y-17106D03*
G54D15*
X30590Y-18603D03*
X30590Y-19271D03*
G54D16*
X32322Y-20236D03*
X32322Y-21574D03*
G54D17*
X37519Y-21811D03*
X37519Y-20000D03*
G54D18*
X34803Y-20905D03*
G54D19*
X34710Y-18492D03*
G54D20*
X35368Y-18492D03*
X34710Y-17992D03*
X35368Y-17992D03*
X34710Y-17492D03*
X35368Y-17492D03*
G54D21*
X41732Y-19307D03*
G54D22*
X41732Y-18307D03*
X41732Y-17307D03*
G54D23*
X32125Y-17480D03*
X32125Y-17952D03*
X32125Y-18424D03*
G54D24*
X41732Y-21562D03*
G54D25*
X41732Y-20562D03*
G54D24*
X30787Y-21562D03*
G54D25*
X30787Y-20562D03*
G54D26*
X37913Y-18090D03*
X37913Y-17342D03*
G54D27*
X38996Y-17165D03*
X39744Y-17165D03*
G54D26*
X40354Y-19153D03*
X40354Y-19901D03*
G54D27*
X38996Y-18149D03*
X39744Y-18149D03*
G54D15*
X39763Y-21595D03*
X39763Y-22263D03*
X38858Y-21595D03*
X38858Y-22263D03*
M02*
