G04 (created by PCBNEW (2012-11-23 BZR 3812)-testing) date Sun 25 Nov 2012 05:29:08 PM CET*
%MOIN*%
G04 Gerber Fmt 3.4, Leading zero omitted, Abs format*
%FSLAX34Y34*%
G01*
G70*
G90*
G04 APERTURE LIST*
%ADD10C,3.14961e-06*%
%ADD11C,0.015*%
%ADD12R,0.11811X0.0787402*%
%ADD13O,0.11811X0.0787402*%
%ADD14R,0.055X0.055*%
%ADD15C,0.055*%
%ADD16R,0.06X0.06*%
%ADD17C,0.06*%
%ADD18C,0.025*%
%ADD19C,0.008*%
%ADD20C,0.00984252*%
G04 APERTURE END LIST*
G54D10*
G54D11*
X29783Y-23031D02*
X29783Y-13188D01*
X39625Y-23031D02*
X29783Y-23031D01*
X39625Y-13188D02*
X39625Y-23031D01*
X29783Y-13188D02*
X39625Y-13188D01*
G54D12*
X31003Y-21759D03*
G54D13*
X31003Y-20759D03*
G54D12*
X38484Y-21759D03*
G54D13*
X38484Y-20759D03*
G54D14*
X37929Y-14685D03*
G54D15*
X36929Y-14685D03*
X35929Y-14685D03*
G54D16*
X32889Y-14263D03*
G54D17*
X32889Y-15263D03*
X31889Y-14263D03*
X31889Y-15263D03*
X30889Y-14263D03*
X30889Y-15263D03*
G54D18*
X34286Y-17952D03*
X38681Y-16338D03*
G54D19*
X34286Y-17952D02*
X32371Y-16037D01*
X32371Y-14745D02*
X31889Y-14263D01*
X32371Y-16037D02*
X32371Y-14745D01*
X39370Y-21653D02*
X39370Y-16633D01*
X39263Y-21759D02*
X39370Y-21653D01*
X39074Y-16338D02*
X38681Y-16338D01*
X39370Y-16633D02*
X39074Y-16338D01*
X39263Y-21759D02*
X38484Y-21759D01*
G54D20*
X32089Y-19734D02*
X37399Y-19734D01*
X31957Y-19812D02*
X37530Y-19812D01*
X31938Y-19891D02*
X37549Y-19891D01*
X31938Y-19969D02*
X37549Y-19969D01*
X31938Y-20047D02*
X37549Y-20047D01*
X31938Y-20126D02*
X37549Y-20126D01*
X31938Y-20204D02*
X37549Y-20204D01*
X31938Y-20283D02*
X37549Y-20283D01*
X31938Y-20361D02*
X37549Y-20361D01*
X31938Y-20440D02*
X37549Y-20440D01*
X31938Y-20518D02*
X37549Y-20518D01*
X31938Y-20596D02*
X37549Y-20596D01*
X31938Y-20675D02*
X37549Y-20675D01*
X31938Y-20753D02*
X37549Y-20753D01*
X31938Y-20832D02*
X37549Y-20832D01*
X31938Y-20910D02*
X37549Y-20910D01*
X31938Y-20989D02*
X37549Y-20989D01*
X31938Y-21067D02*
X37549Y-21067D01*
X31938Y-21145D02*
X37549Y-21145D01*
X31929Y-21224D02*
X37558Y-21224D01*
X31894Y-21302D02*
X37594Y-21302D01*
X31801Y-21381D02*
X37686Y-21381D01*
X30302Y-21459D02*
X39186Y-21459D01*
X30267Y-21538D02*
X39220Y-21538D01*
X30265Y-21616D02*
X39222Y-21616D01*
X30265Y-21694D02*
X39222Y-21694D01*
X30265Y-21773D02*
X39222Y-21773D01*
X30265Y-21851D02*
X39222Y-21851D01*
X30265Y-21930D02*
X39222Y-21930D01*
X30265Y-22008D02*
X39222Y-22008D01*
X30265Y-22087D02*
X39222Y-22087D01*
X30265Y-22165D02*
X39222Y-22165D01*
X30265Y-22243D02*
X39222Y-22243D01*
X30265Y-22322D02*
X39222Y-22322D01*
X30265Y-22400D02*
X39222Y-22400D01*
X30265Y-22479D02*
X39222Y-22479D01*
X30265Y-22557D02*
X39222Y-22557D01*
X30265Y-22635D02*
X39222Y-22635D01*
X30288Y-22714D02*
X39200Y-22714D01*
X39222Y-22635D02*
X39219Y-22666D01*
X39210Y-22694D01*
X39197Y-22719D01*
X39179Y-22742D01*
X39156Y-22760D01*
X39131Y-22773D01*
X39103Y-22782D01*
X39072Y-22785D01*
X30415Y-22785D01*
X30384Y-22782D01*
X30356Y-22773D01*
X30331Y-22760D01*
X30309Y-22742D01*
X30290Y-22719D01*
X30277Y-22694D01*
X30268Y-22666D01*
X30265Y-22635D01*
X30265Y-21557D01*
X30268Y-21526D01*
X30277Y-21498D01*
X30290Y-21473D01*
X30309Y-21450D01*
X30331Y-21432D01*
X30356Y-21418D01*
X30384Y-21410D01*
X30415Y-21407D01*
X31695Y-21407D01*
X31740Y-21402D01*
X31787Y-21388D01*
X31829Y-21366D01*
X31867Y-21335D01*
X31897Y-21298D01*
X31920Y-21255D01*
X31934Y-21209D01*
X31938Y-21163D01*
X31938Y-19884D01*
X31942Y-19853D01*
X31950Y-19825D01*
X31964Y-19799D01*
X31982Y-19777D01*
X32004Y-19759D01*
X32030Y-19745D01*
X32057Y-19737D01*
X32089Y-19734D01*
X37399Y-19734D01*
X37430Y-19737D01*
X37457Y-19745D01*
X37483Y-19759D01*
X37505Y-19777D01*
X37524Y-19799D01*
X37537Y-19825D01*
X37546Y-19853D01*
X37549Y-19884D01*
X37549Y-21163D01*
X37553Y-21209D01*
X37567Y-21255D01*
X37590Y-21298D01*
X37621Y-21335D01*
X37658Y-21366D01*
X37701Y-21388D01*
X37747Y-21402D01*
X37792Y-21407D01*
X39072Y-21407D01*
X39103Y-21410D01*
X39131Y-21418D01*
X39156Y-21432D01*
X39179Y-21450D01*
X39197Y-21473D01*
X39210Y-21498D01*
X39219Y-21526D01*
X39222Y-21557D01*
X39222Y-22635D01*
M02*
