G04 (created by PCBNEW (2012-11-23 BZR 3812)-testing) date Sun 25 Nov 2012 05:29:08 PM CET*
%MOIN*%
G04 Gerber Fmt 3.4, Leading zero omitted, Abs format*
%FSLAX34Y34*%
G01*
G70*
G90*
G04 APERTURE LIST*
%ADD10C,3.14961e-06*%
%ADD11C,0.015*%
%ADD12R,0.11811X0.0787402*%
%ADD13O,0.11811X0.0787402*%
%ADD14R,0.055X0.055*%
%ADD15C,0.055*%
%ADD16R,0.149606X0.0472441*%
%ADD17R,0.0629X0.0393*%
%ADD18R,0.244X0.2125*%
%ADD19R,0.06X0.06*%
%ADD20C,0.06*%
%ADD21R,0.0511X0.059*%
%ADD22R,0.059X0.0511*%
%ADD23R,0.0866X0.0236*%
%ADD24C,0.025*%
%ADD25C,0.008*%
%ADD26C,0.00984252*%
G04 APERTURE END LIST*
G54D10*
G54D11*
X29783Y-23031D02*
X29783Y-13188D01*
X39625Y-23031D02*
X29783Y-23031D01*
X39625Y-13188D02*
X39625Y-23031D01*
X29783Y-13188D02*
X39625Y-13188D01*
G54D12*
X31003Y-21759D03*
G54D13*
X31003Y-20759D03*
G54D12*
X38484Y-21759D03*
G54D13*
X38484Y-20759D03*
G54D14*
X37929Y-14685D03*
G54D15*
X36929Y-14685D03*
X35929Y-14685D03*
G54D16*
X31102Y-17263D03*
X31102Y-18208D03*
X31102Y-19153D03*
G54D17*
X37125Y-22058D03*
X37125Y-20264D03*
G54D18*
X34252Y-21161D03*
G54D19*
X32889Y-14263D03*
G54D20*
X32889Y-15263D03*
X31889Y-14263D03*
X31889Y-15263D03*
X30889Y-14263D03*
X30889Y-15263D03*
G54D21*
X35118Y-16338D03*
X34370Y-16338D03*
G54D22*
X32283Y-21771D03*
X32283Y-22519D03*
G54D21*
X36889Y-16338D03*
X36141Y-16338D03*
X38661Y-16338D03*
X37913Y-16338D03*
X33346Y-16338D03*
X32598Y-16338D03*
G54D23*
X33032Y-17458D03*
X33032Y-17958D03*
X33032Y-18458D03*
X33032Y-18958D03*
X35078Y-18958D03*
X35078Y-18458D03*
X35078Y-17958D03*
X35078Y-17458D03*
X36477Y-17458D03*
X36477Y-17958D03*
X36477Y-18458D03*
X36477Y-18958D03*
X38523Y-18958D03*
X38523Y-18458D03*
X38523Y-17958D03*
X38523Y-17458D03*
G54D24*
X34286Y-17952D03*
X38681Y-16338D03*
G54D25*
X35078Y-18458D02*
X35683Y-18458D01*
X37929Y-15259D02*
X37929Y-14685D01*
X37482Y-15706D02*
X37929Y-15259D01*
X37482Y-18816D02*
X37482Y-15706D01*
X36968Y-19330D02*
X37482Y-18816D01*
X35866Y-19330D02*
X36968Y-19330D01*
X35787Y-19251D02*
X35866Y-19330D01*
X35787Y-18562D02*
X35787Y-19251D01*
X35683Y-18458D02*
X35787Y-18562D01*
X33570Y-14003D02*
X33582Y-14015D01*
X37401Y-14015D02*
X37755Y-14015D01*
X33582Y-14015D02*
X37401Y-14015D01*
X37755Y-14015D02*
X37929Y-14188D01*
X37929Y-14188D02*
X37929Y-14685D01*
X32889Y-14263D02*
X33309Y-14263D01*
X33573Y-14000D02*
X33570Y-14003D01*
X33570Y-14003D02*
X33309Y-14263D01*
X31791Y-22440D02*
X31791Y-21850D01*
X30118Y-19685D02*
X30118Y-22440D01*
X31594Y-22637D02*
X31791Y-22440D01*
X30314Y-22637D02*
X31594Y-22637D01*
X30118Y-22440D02*
X30314Y-22637D01*
X31870Y-21771D02*
X32283Y-21771D01*
X31791Y-21850D02*
X31870Y-21771D01*
X29992Y-15466D02*
X29992Y-19559D01*
X29992Y-15466D02*
X30694Y-14763D01*
X30694Y-14763D02*
X31389Y-14763D01*
X31889Y-15263D02*
X31389Y-14763D01*
X32185Y-19685D02*
X32480Y-19389D01*
X34525Y-18958D02*
X35078Y-18958D01*
X34525Y-18958D02*
X34286Y-19196D01*
X34093Y-19389D02*
X34286Y-19196D01*
X32480Y-19389D02*
X34093Y-19389D01*
X30118Y-19685D02*
X32185Y-19685D01*
X29992Y-19559D02*
X30118Y-19685D01*
X34370Y-16338D02*
X34182Y-16338D01*
X31149Y-14263D02*
X30889Y-14263D01*
X31649Y-14763D02*
X31149Y-14263D01*
X32181Y-14763D02*
X31649Y-14763D01*
X32408Y-14990D02*
X32181Y-14763D01*
X32408Y-15581D02*
X32408Y-14990D01*
X32607Y-15780D02*
X32408Y-15581D01*
X33624Y-15780D02*
X32607Y-15780D01*
X34182Y-16338D02*
X33624Y-15780D01*
X33880Y-16640D02*
X34182Y-16338D01*
X33880Y-17458D02*
X33880Y-16640D01*
X33032Y-17458D02*
X33880Y-17458D01*
X35078Y-17958D02*
X34292Y-17958D01*
X34292Y-17958D02*
X34286Y-17952D01*
X38661Y-16338D02*
X38681Y-16338D01*
X38523Y-17458D02*
X38523Y-16476D01*
X38523Y-16476D02*
X38661Y-16338D01*
X31102Y-17263D02*
X31929Y-17263D01*
X32185Y-17519D02*
X32185Y-17814D01*
X32185Y-17814D02*
X32328Y-17958D01*
X32328Y-17958D02*
X33032Y-17958D01*
X31929Y-17263D02*
X32185Y-17519D01*
X31102Y-19153D02*
X31929Y-19153D01*
X32185Y-18897D02*
X32185Y-18602D01*
X32185Y-18602D02*
X32328Y-18458D01*
X32328Y-18458D02*
X33032Y-18458D01*
X31929Y-19153D02*
X32185Y-18897D01*
X31003Y-20759D02*
X33850Y-20759D01*
X33850Y-20759D02*
X34252Y-21161D01*
X37322Y-15795D02*
X36929Y-15401D01*
X37322Y-15795D02*
X37322Y-17795D01*
X37322Y-17795D02*
X37159Y-17958D01*
X36477Y-17958D02*
X37159Y-17958D01*
X36929Y-15401D02*
X36929Y-14685D01*
X36614Y-15157D02*
X36929Y-14842D01*
X36929Y-14842D02*
X36929Y-14685D01*
X36141Y-16338D02*
X36141Y-15629D01*
X36141Y-15629D02*
X36614Y-15157D01*
X36477Y-17958D02*
X36477Y-18458D01*
X33032Y-18958D02*
X33797Y-18958D01*
X33858Y-18897D02*
X33858Y-18208D01*
X33797Y-18958D02*
X33858Y-18897D01*
X32598Y-16338D02*
X32222Y-16338D01*
X30889Y-15263D02*
X30889Y-16338D01*
X30469Y-16338D02*
X30889Y-16338D01*
X30155Y-16652D02*
X30469Y-16338D01*
X30155Y-18208D02*
X30155Y-16652D01*
X30889Y-16338D02*
X32222Y-16338D01*
X31102Y-18208D02*
X30155Y-18208D01*
X31102Y-18208D02*
X31872Y-18208D01*
X33585Y-18208D02*
X31872Y-18208D01*
X36477Y-18458D02*
X36407Y-18458D01*
X36173Y-18458D02*
X35923Y-18208D01*
X36407Y-18458D02*
X36173Y-18458D01*
X35923Y-18208D02*
X33858Y-18208D01*
X33858Y-18208D02*
X33585Y-18208D01*
X38484Y-20759D02*
X38492Y-20767D01*
X39370Y-20472D02*
X39370Y-18602D01*
X39226Y-18458D02*
X39370Y-18602D01*
X39226Y-18458D02*
X38523Y-18458D01*
X39370Y-20669D02*
X39370Y-20472D01*
X39271Y-20767D02*
X39370Y-20669D01*
X38492Y-20767D02*
X39271Y-20767D01*
X38523Y-17958D02*
X37879Y-17958D01*
X37736Y-16515D02*
X37913Y-16338D01*
X37736Y-17814D02*
X37736Y-16515D01*
X37879Y-17958D02*
X37736Y-17814D01*
X38246Y-18458D02*
X38246Y-17958D01*
X38522Y-17958D02*
X38246Y-17958D01*
X38522Y-18458D02*
X38246Y-18458D01*
X32283Y-22519D02*
X32854Y-22519D01*
X33070Y-22736D02*
X36811Y-22736D01*
X37125Y-22422D02*
X37125Y-22058D01*
X36811Y-22736D02*
X37125Y-22422D01*
X32854Y-22519D02*
X33070Y-22736D01*
X35118Y-15358D02*
X35791Y-14685D01*
X35791Y-14685D02*
X35929Y-14685D01*
X32381Y-17224D02*
X32381Y-17547D01*
X32381Y-17224D02*
X32480Y-17125D01*
X32480Y-17125D02*
X33169Y-17125D01*
X33169Y-17125D02*
X33346Y-16948D01*
X33346Y-16338D02*
X33346Y-16948D01*
X32531Y-17696D02*
X32381Y-17547D01*
X34286Y-17696D02*
X32531Y-17696D01*
X34525Y-17458D02*
X34286Y-17696D01*
X34871Y-17458D02*
X35078Y-17458D01*
X34871Y-17458D02*
X34525Y-17458D01*
X36515Y-17224D02*
X36811Y-16929D01*
X36515Y-17419D02*
X36515Y-17224D01*
X36477Y-17458D02*
X36515Y-17419D01*
X36811Y-16417D02*
X36889Y-16338D01*
X36811Y-16929D02*
X36811Y-16417D01*
X35078Y-17458D02*
X36477Y-17458D01*
X35078Y-17458D02*
X35078Y-16378D01*
X35078Y-16378D02*
X35118Y-16338D01*
X32984Y-15358D02*
X32889Y-15263D01*
X35118Y-15358D02*
X32984Y-15358D01*
X35118Y-16338D02*
X35118Y-15358D01*
G54D26*
X36655Y-19931D02*
X39033Y-19931D01*
X36566Y-20009D02*
X39122Y-20009D01*
X36564Y-20087D02*
X39124Y-20087D01*
X36564Y-20166D02*
X39124Y-20166D01*
X36564Y-20244D02*
X39124Y-20244D01*
X36564Y-20323D02*
X39124Y-20323D01*
X36564Y-20401D02*
X39124Y-20401D01*
X36564Y-20480D02*
X39124Y-20480D01*
X36564Y-20558D02*
X39124Y-20558D01*
X36565Y-20636D02*
X39124Y-20636D01*
X36632Y-20715D02*
X39124Y-20715D01*
X37609Y-20793D02*
X39124Y-20793D01*
X37644Y-20872D02*
X39124Y-20872D01*
X37647Y-20950D02*
X39124Y-20950D01*
X37648Y-21029D02*
X39123Y-21029D01*
X37709Y-21107D02*
X39061Y-21107D01*
X39124Y-21021D02*
X39122Y-21040D01*
X39117Y-21057D01*
X39108Y-21072D01*
X39097Y-21086D01*
X39084Y-21097D01*
X39069Y-21105D01*
X39052Y-21110D01*
X39033Y-21112D01*
X37738Y-21112D01*
X37718Y-21110D01*
X37702Y-21105D01*
X37687Y-21097D01*
X37673Y-21086D01*
X37662Y-21072D01*
X37654Y-21057D01*
X37649Y-21040D01*
X37647Y-21021D01*
X37647Y-20903D01*
X37644Y-20868D01*
X37633Y-20833D01*
X37616Y-20801D01*
X37593Y-20773D01*
X37564Y-20749D01*
X37532Y-20732D01*
X37497Y-20721D01*
X37463Y-20718D01*
X36655Y-20718D01*
X36636Y-20716D01*
X36619Y-20711D01*
X36604Y-20703D01*
X36591Y-20692D01*
X36580Y-20679D01*
X36571Y-20663D01*
X36566Y-20647D01*
X36564Y-20627D01*
X36564Y-20022D01*
X36566Y-20002D01*
X36571Y-19985D01*
X36580Y-19970D01*
X36591Y-19957D01*
X36604Y-19946D01*
X36619Y-19938D01*
X36636Y-19933D01*
X36655Y-19931D01*
X39033Y-19931D01*
X39052Y-19933D01*
X39069Y-19938D01*
X39084Y-19946D01*
X39097Y-19957D01*
X39108Y-19970D01*
X39117Y-19985D01*
X39122Y-20002D01*
X39124Y-20022D01*
X39124Y-21021D01*
X31744Y-20127D02*
X35036Y-20127D01*
X31646Y-20206D02*
X35255Y-20206D01*
X31634Y-20284D02*
X35327Y-20284D01*
X31588Y-20363D02*
X35364Y-20363D01*
X30701Y-20441D02*
X35380Y-20441D01*
X30568Y-20520D02*
X35383Y-20520D01*
X30509Y-20598D02*
X35383Y-20598D01*
X30476Y-20676D02*
X35383Y-20676D01*
X30464Y-20755D02*
X35383Y-20755D01*
X30469Y-20833D02*
X35383Y-20833D01*
X30495Y-20912D02*
X35383Y-20912D01*
X30546Y-20990D02*
X35381Y-20990D01*
X30644Y-21069D02*
X35365Y-21069D01*
X31787Y-21147D02*
X35330Y-21147D01*
X31836Y-21225D02*
X35260Y-21225D01*
X31869Y-21304D02*
X35084Y-21304D01*
X35383Y-20962D02*
X35377Y-21031D01*
X35357Y-21096D01*
X35325Y-21155D01*
X35282Y-21207D01*
X35230Y-21250D01*
X35171Y-21282D01*
X35106Y-21302D01*
X35036Y-21309D01*
X31892Y-21309D01*
X31880Y-21307D01*
X31871Y-21305D01*
X31862Y-21300D01*
X31855Y-21294D01*
X31849Y-21287D01*
X31844Y-21278D01*
X31841Y-21269D01*
X31840Y-21255D01*
X31837Y-21230D01*
X31829Y-21203D01*
X31815Y-21177D01*
X31797Y-21155D01*
X31775Y-21136D01*
X31749Y-21123D01*
X31721Y-21114D01*
X31695Y-21112D01*
X30809Y-21112D01*
X30739Y-21105D01*
X30675Y-21085D01*
X30615Y-21053D01*
X30563Y-21011D01*
X30520Y-20958D01*
X30489Y-20899D01*
X30469Y-20834D01*
X30462Y-20767D01*
X30469Y-20700D01*
X30489Y-20635D01*
X30520Y-20576D01*
X30563Y-20524D01*
X30615Y-20481D01*
X30675Y-20449D01*
X30739Y-20430D01*
X30809Y-20423D01*
X31449Y-20423D01*
X31485Y-20419D01*
X31522Y-20408D01*
X31556Y-20390D01*
X31586Y-20365D01*
X31610Y-20335D01*
X31628Y-20301D01*
X31640Y-20264D01*
X31643Y-20231D01*
X31645Y-20207D01*
X31651Y-20188D01*
X31660Y-20171D01*
X31672Y-20156D01*
X31687Y-20144D01*
X31704Y-20135D01*
X31722Y-20130D01*
X31744Y-20127D01*
X35036Y-20127D01*
X35106Y-20134D01*
X35171Y-20154D01*
X35230Y-20186D01*
X35282Y-20229D01*
X35325Y-20281D01*
X35357Y-20340D01*
X35377Y-20405D01*
X35383Y-20474D01*
X35383Y-20962D01*
M02*
