M48
INCH,TZ
T1C0.013
T2C0.020
T3C0.040
T4C0.047
%
G90
G05
T1
X030591Y-017087
X033701Y-019685
X033701Y-020000
X033701Y-020315
X033701Y-020630
X034016Y-019685
X034016Y-020000
X034016Y-020315
X034016Y-020630
X034331Y-019685
X034331Y-020000
X034331Y-020315
X034331Y-020630
X034646Y-019685
X034646Y-020000
X034646Y-020315
X034646Y-020630
X034961Y-019685
X034961Y-020000
X034961Y-020315
X034961Y-020630
X035276Y-019685
X035276Y-020000
X035276Y-020315
X035276Y-020630
X035591Y-019685
X035591Y-020000
X035591Y-020315
X035591Y-020630
X035630Y-018976
X035906Y-019685
X035906Y-020000
X035906Y-020315
X035906Y-020630
X037087Y-017717
X037283Y-018228
X039016Y-018150
X039764Y-017165
X040354Y-019134
T2
X034789Y-017492
X034789Y-017992
X034789Y-018492
X035289Y-017492
X035289Y-017992
X035289Y-018492
T3
X041732Y-017307
X041732Y-018307
X041732Y-019307
T4
X030787Y-020563
X030787Y-021563
X041732Y-020563
X041732Y-021563
T0
M30
