G04 (created by PCBNEW (2013-02-07 BZR 3937)-testing) date Sat 09 Feb 2013 08:51:53 PM CET*
%MOIN*%
G04 Gerber Fmt 3.4, Leading zero omitted, Abs format*
%FSLAX34Y34*%
G01*
G70*
G90*
G04 APERTURE LIST*
%ADD10C,3.14961e-06*%
%ADD11C,0.00787402*%
%ADD12C,0.015*%
%ADD13C,0.008*%
%ADD14C,0.0001*%
%ADD15R,0.0708661X0.0708661*%
%ADD16C,0.0708661*%
%ADD17R,0.11811X0.0787402*%
%ADD18O,0.11811X0.0787402*%
G04 APERTURE END LIST*
G54D10*
G54D11*
X35003Y-14962D02*
X35003Y-14568D01*
X34872Y-14850D01*
X34741Y-14568D01*
X34741Y-14962D01*
X34478Y-14568D02*
X34403Y-14568D01*
X34366Y-14587D01*
X34328Y-14625D01*
X34310Y-14700D01*
X34310Y-14831D01*
X34328Y-14906D01*
X34366Y-14943D01*
X34403Y-14962D01*
X34478Y-14962D01*
X34516Y-14943D01*
X34553Y-14906D01*
X34572Y-14831D01*
X34572Y-14700D01*
X34553Y-14625D01*
X34516Y-14587D01*
X34478Y-14568D01*
X34141Y-14962D02*
X34141Y-14568D01*
X34047Y-14568D01*
X33991Y-14587D01*
X33953Y-14625D01*
X33935Y-14662D01*
X33916Y-14737D01*
X33916Y-14793D01*
X33935Y-14868D01*
X33953Y-14906D01*
X33991Y-14943D01*
X34047Y-14962D01*
X34141Y-14962D01*
X33747Y-14756D02*
X33616Y-14756D01*
X33560Y-14962D02*
X33747Y-14962D01*
X33747Y-14568D01*
X33560Y-14568D01*
X31417Y-14133D02*
X31161Y-14133D01*
X31633Y-14448D02*
X31417Y-14133D01*
X31633Y-14448D02*
X31456Y-14409D01*
X31633Y-14448D02*
X31673Y-14271D01*
X31166Y-13958D02*
X30941Y-13958D01*
X31053Y-14352D02*
X31053Y-13958D01*
X30847Y-13958D02*
X30584Y-14352D01*
X30584Y-13958D02*
X30847Y-14352D01*
X29921Y-13779D02*
X29921Y-22834D01*
X39763Y-22834D02*
X39763Y-13779D01*
X39763Y-13779D02*
X29921Y-13779D01*
G54D12*
X32834Y-21200D02*
X33228Y-21200D01*
X32834Y-20708D02*
X32834Y-21200D01*
X36574Y-21200D02*
X36181Y-21200D01*
X36574Y-20708D02*
X36574Y-21200D01*
X33031Y-20905D02*
X32834Y-20708D01*
X32637Y-20905D02*
X33031Y-20905D01*
X32834Y-20708D02*
X32637Y-20905D01*
X36771Y-20905D02*
X36574Y-20708D01*
X36377Y-20905D02*
X36771Y-20905D01*
X36574Y-20708D02*
X36377Y-20905D01*
G54D13*
X35857Y-21362D02*
X35857Y-20962D01*
X35685Y-21362D02*
X35685Y-21153D01*
X35704Y-21115D01*
X35742Y-21096D01*
X35799Y-21096D01*
X35838Y-21115D01*
X35857Y-21134D01*
X35342Y-21343D02*
X35380Y-21362D01*
X35457Y-21362D01*
X35495Y-21343D01*
X35514Y-21305D01*
X35514Y-21153D01*
X35495Y-21115D01*
X35457Y-21096D01*
X35380Y-21096D01*
X35342Y-21115D01*
X35323Y-21153D01*
X35323Y-21191D01*
X35514Y-21229D01*
X34980Y-21362D02*
X34980Y-21153D01*
X34999Y-21115D01*
X35038Y-21096D01*
X35114Y-21096D01*
X35152Y-21115D01*
X34980Y-21343D02*
X35019Y-21362D01*
X35114Y-21362D01*
X35152Y-21343D01*
X35171Y-21305D01*
X35171Y-21267D01*
X35152Y-21229D01*
X35114Y-21210D01*
X35019Y-21210D01*
X34980Y-21191D01*
X34847Y-21096D02*
X34695Y-21096D01*
X34790Y-20962D02*
X34790Y-21305D01*
X34771Y-21343D01*
X34733Y-21362D01*
X34695Y-21362D01*
X34580Y-21343D02*
X34542Y-21362D01*
X34466Y-21362D01*
X34428Y-21343D01*
X34409Y-21305D01*
X34409Y-21286D01*
X34428Y-21248D01*
X34466Y-21229D01*
X34523Y-21229D01*
X34561Y-21210D01*
X34580Y-21172D01*
X34580Y-21153D01*
X34561Y-21115D01*
X34523Y-21096D01*
X34466Y-21096D01*
X34428Y-21115D01*
X34238Y-21362D02*
X34238Y-21096D01*
X34238Y-20962D02*
X34257Y-20981D01*
X34238Y-21000D01*
X34219Y-20981D01*
X34238Y-20962D01*
X34238Y-21000D01*
X34047Y-21096D02*
X34047Y-21362D01*
X34047Y-21134D02*
X34028Y-21115D01*
X33990Y-21096D01*
X33933Y-21096D01*
X33895Y-21115D01*
X33876Y-21153D01*
X33876Y-21362D01*
X33685Y-21362D02*
X33685Y-20962D01*
X33647Y-21210D02*
X33533Y-21362D01*
X33533Y-21096D02*
X33685Y-21248D01*
G54D12*
X37381Y-20511D02*
X36889Y-20511D01*
X37381Y-20511D02*
X37381Y-20019D01*
X31614Y-20511D02*
X32106Y-20511D01*
X31614Y-20511D02*
X31614Y-20019D01*
X37381Y-16417D02*
X37381Y-16909D01*
X37381Y-16417D02*
X36889Y-16417D01*
X31614Y-16417D02*
X32106Y-16417D01*
X31614Y-16417D02*
X31614Y-16909D01*
G54D13*
X35504Y-17163D02*
X35371Y-17563D01*
X35238Y-17163D01*
X35028Y-17163D02*
X34990Y-17163D01*
X34952Y-17182D01*
X34933Y-17201D01*
X34914Y-17239D01*
X34895Y-17315D01*
X34895Y-17411D01*
X34914Y-17487D01*
X34933Y-17525D01*
X34952Y-17544D01*
X34990Y-17563D01*
X35028Y-17563D01*
X35066Y-17544D01*
X35085Y-17525D01*
X35104Y-17487D01*
X35123Y-17411D01*
X35123Y-17315D01*
X35104Y-17239D01*
X35085Y-17201D01*
X35066Y-17182D01*
X35028Y-17163D01*
X34723Y-17525D02*
X34704Y-17544D01*
X34723Y-17563D01*
X34742Y-17544D01*
X34723Y-17525D01*
X34723Y-17563D01*
X34552Y-17201D02*
X34533Y-17182D01*
X34495Y-17163D01*
X34399Y-17163D01*
X34361Y-17182D01*
X34342Y-17201D01*
X34323Y-17239D01*
X34323Y-17277D01*
X34342Y-17334D01*
X34571Y-17563D01*
X34323Y-17563D01*
X33942Y-17563D02*
X34171Y-17563D01*
X34057Y-17563D02*
X34057Y-17163D01*
X34095Y-17220D01*
X34133Y-17258D01*
X34171Y-17277D01*
X37323Y-18203D02*
X37323Y-17803D01*
X36904Y-18203D02*
X37038Y-18013D01*
X37133Y-18203D02*
X37133Y-17803D01*
X36980Y-17803D01*
X36942Y-17822D01*
X36923Y-17841D01*
X36904Y-17879D01*
X36904Y-17936D01*
X36923Y-17974D01*
X36942Y-17993D01*
X36980Y-18013D01*
X37133Y-18013D01*
X36428Y-18203D02*
X36428Y-17803D01*
X36276Y-17803D01*
X36238Y-17822D01*
X36219Y-17841D01*
X36199Y-17879D01*
X36199Y-17936D01*
X36219Y-17974D01*
X36238Y-17993D01*
X36276Y-18013D01*
X36428Y-18013D01*
X36066Y-17803D02*
X35971Y-18203D01*
X35895Y-17917D01*
X35819Y-18203D01*
X35723Y-17803D01*
X35571Y-18203D02*
X35571Y-17803D01*
X35438Y-18089D01*
X35304Y-17803D01*
X35304Y-18203D01*
X34638Y-18184D02*
X34676Y-18203D01*
X34752Y-18203D01*
X34790Y-18184D01*
X34809Y-18165D01*
X34828Y-18127D01*
X34828Y-18013D01*
X34809Y-17974D01*
X34790Y-17955D01*
X34752Y-17936D01*
X34676Y-17936D01*
X34638Y-17955D01*
X34409Y-18203D02*
X34447Y-18184D01*
X34466Y-18165D01*
X34485Y-18127D01*
X34485Y-18013D01*
X34466Y-17974D01*
X34447Y-17955D01*
X34409Y-17936D01*
X34352Y-17936D01*
X34314Y-17955D01*
X34295Y-17974D01*
X34276Y-18013D01*
X34276Y-18127D01*
X34295Y-18165D01*
X34314Y-18184D01*
X34352Y-18203D01*
X34409Y-18203D01*
X34104Y-17936D02*
X34104Y-18203D01*
X34104Y-17974D02*
X34085Y-17955D01*
X34047Y-17936D01*
X33990Y-17936D01*
X33952Y-17955D01*
X33933Y-17993D01*
X33933Y-18203D01*
X33799Y-17936D02*
X33647Y-17936D01*
X33742Y-17803D02*
X33742Y-18146D01*
X33723Y-18184D01*
X33685Y-18203D01*
X33647Y-18203D01*
X33514Y-18203D02*
X33514Y-17936D01*
X33514Y-18013D02*
X33495Y-17974D01*
X33476Y-17955D01*
X33438Y-17936D01*
X33399Y-17936D01*
X33209Y-18203D02*
X33247Y-18184D01*
X33266Y-18165D01*
X33285Y-18127D01*
X33285Y-18013D01*
X33266Y-17974D01*
X33247Y-17955D01*
X33209Y-17936D01*
X33152Y-17936D01*
X33114Y-17955D01*
X33095Y-17974D01*
X33076Y-18013D01*
X33076Y-18127D01*
X33095Y-18165D01*
X33114Y-18184D01*
X33152Y-18203D01*
X33209Y-18203D01*
X32847Y-18203D02*
X32885Y-18184D01*
X32904Y-18146D01*
X32904Y-17803D01*
X32638Y-18203D02*
X32676Y-18184D01*
X32695Y-18146D01*
X32695Y-17803D01*
X32333Y-18184D02*
X32371Y-18203D01*
X32447Y-18203D01*
X32485Y-18184D01*
X32504Y-18146D01*
X32504Y-17993D01*
X32485Y-17955D01*
X32447Y-17936D01*
X32371Y-17936D01*
X32333Y-17955D01*
X32314Y-17993D01*
X32314Y-18032D01*
X32504Y-18070D01*
X32142Y-18203D02*
X32142Y-17936D01*
X32142Y-18013D02*
X32123Y-17974D01*
X32104Y-17955D01*
X32066Y-17936D01*
X32028Y-17936D01*
X38980Y-18717D02*
X38961Y-18698D01*
X38923Y-18679D01*
X38827Y-18679D01*
X38789Y-18698D01*
X38770Y-18717D01*
X38751Y-18755D01*
X38751Y-18793D01*
X38770Y-18850D01*
X38999Y-19079D01*
X38751Y-19079D01*
X38504Y-18679D02*
X38465Y-18679D01*
X38427Y-18698D01*
X38408Y-18717D01*
X38389Y-18755D01*
X38370Y-18831D01*
X38370Y-18926D01*
X38389Y-19003D01*
X38408Y-19041D01*
X38427Y-19060D01*
X38465Y-19079D01*
X38504Y-19079D01*
X38542Y-19060D01*
X38561Y-19041D01*
X38580Y-19003D01*
X38599Y-18926D01*
X38599Y-18831D01*
X38580Y-18755D01*
X38561Y-18717D01*
X38542Y-18698D01*
X38504Y-18679D01*
X37989Y-19079D02*
X38218Y-19079D01*
X38104Y-19079D02*
X38104Y-18679D01*
X38142Y-18736D01*
X38180Y-18774D01*
X38218Y-18793D01*
X37856Y-18679D02*
X37608Y-18679D01*
X37742Y-18831D01*
X37685Y-18831D01*
X37646Y-18850D01*
X37627Y-18869D01*
X37608Y-18907D01*
X37608Y-19003D01*
X37627Y-19041D01*
X37646Y-19060D01*
X37685Y-19079D01*
X37799Y-19079D01*
X37837Y-19060D01*
X37856Y-19041D01*
X37132Y-18926D02*
X36827Y-18926D01*
X36332Y-19079D02*
X36332Y-18679D01*
X36332Y-18831D02*
X36294Y-18812D01*
X36218Y-18812D01*
X36180Y-18831D01*
X36161Y-18850D01*
X36142Y-18888D01*
X36142Y-19003D01*
X36161Y-19041D01*
X36180Y-19060D01*
X36218Y-19079D01*
X36294Y-19079D01*
X36332Y-19060D01*
X35913Y-19079D02*
X35951Y-19060D01*
X35970Y-19022D01*
X35970Y-18679D01*
X35704Y-19079D02*
X35742Y-19060D01*
X35761Y-19041D01*
X35780Y-19003D01*
X35780Y-18888D01*
X35761Y-18850D01*
X35742Y-18831D01*
X35704Y-18812D01*
X35646Y-18812D01*
X35608Y-18831D01*
X35589Y-18850D01*
X35570Y-18888D01*
X35570Y-19003D01*
X35589Y-19041D01*
X35608Y-19060D01*
X35646Y-19079D01*
X35704Y-19079D01*
X35227Y-18812D02*
X35227Y-19136D01*
X35246Y-19174D01*
X35265Y-19193D01*
X35304Y-19212D01*
X35361Y-19212D01*
X35399Y-19193D01*
X35227Y-19060D02*
X35265Y-19079D01*
X35342Y-19079D01*
X35380Y-19060D01*
X35399Y-19041D01*
X35418Y-19003D01*
X35418Y-18888D01*
X35399Y-18850D01*
X35380Y-18831D01*
X35342Y-18812D01*
X35265Y-18812D01*
X35227Y-18831D01*
X35037Y-19041D02*
X35018Y-19060D01*
X35037Y-19079D01*
X35056Y-19060D01*
X35037Y-19041D01*
X35037Y-19079D01*
X34865Y-19060D02*
X34827Y-19079D01*
X34751Y-19079D01*
X34713Y-19060D01*
X34694Y-19022D01*
X34694Y-19003D01*
X34713Y-18964D01*
X34751Y-18945D01*
X34808Y-18945D01*
X34846Y-18926D01*
X34865Y-18888D01*
X34865Y-18869D01*
X34846Y-18831D01*
X34808Y-18812D01*
X34751Y-18812D01*
X34713Y-18831D01*
X34523Y-18812D02*
X34523Y-19212D01*
X34523Y-18831D02*
X34485Y-18812D01*
X34408Y-18812D01*
X34370Y-18831D01*
X34351Y-18850D01*
X34332Y-18888D01*
X34332Y-19003D01*
X34351Y-19041D01*
X34370Y-19060D01*
X34408Y-19079D01*
X34485Y-19079D01*
X34523Y-19060D01*
X34161Y-19079D02*
X34161Y-18812D01*
X34161Y-18679D02*
X34180Y-18698D01*
X34161Y-18717D01*
X34142Y-18698D01*
X34161Y-18679D01*
X34161Y-18717D01*
X34027Y-18812D02*
X33875Y-18812D01*
X33970Y-18679D02*
X33970Y-19022D01*
X33951Y-19060D01*
X33913Y-19079D01*
X33875Y-19079D01*
X33780Y-18812D02*
X33570Y-18812D01*
X33780Y-19079D01*
X33570Y-19079D01*
X33265Y-19060D02*
X33304Y-19079D01*
X33380Y-19079D01*
X33418Y-19060D01*
X33437Y-19022D01*
X33437Y-18869D01*
X33418Y-18831D01*
X33380Y-18812D01*
X33304Y-18812D01*
X33265Y-18831D01*
X33246Y-18869D01*
X33246Y-18907D01*
X33437Y-18945D01*
X33075Y-18812D02*
X33075Y-19079D01*
X33075Y-18850D02*
X33056Y-18831D01*
X33018Y-18812D01*
X32961Y-18812D01*
X32923Y-18831D01*
X32904Y-18869D01*
X32904Y-19079D01*
X32713Y-18812D02*
X32713Y-19212D01*
X32713Y-18831D02*
X32675Y-18812D01*
X32599Y-18812D01*
X32561Y-18831D01*
X32542Y-18850D01*
X32523Y-18888D01*
X32523Y-19003D01*
X32542Y-19041D01*
X32561Y-19060D01*
X32599Y-19079D01*
X32675Y-19079D01*
X32713Y-19060D01*
X32408Y-18812D02*
X32256Y-18812D01*
X32351Y-19079D02*
X32351Y-18736D01*
X32332Y-18698D01*
X32294Y-18679D01*
X32256Y-18679D01*
X31970Y-19060D02*
X32008Y-19079D01*
X32085Y-19079D01*
X32123Y-19060D01*
X32142Y-19022D01*
X32142Y-18869D01*
X32123Y-18831D01*
X32085Y-18812D01*
X32008Y-18812D01*
X31970Y-18831D01*
X31951Y-18869D01*
X31951Y-18907D01*
X32142Y-18945D01*
X31780Y-19079D02*
X31780Y-18812D01*
X31780Y-18679D02*
X31799Y-18698D01*
X31780Y-18717D01*
X31761Y-18698D01*
X31780Y-18679D01*
X31780Y-18717D01*
X31532Y-19079D02*
X31570Y-19060D01*
X31589Y-19022D01*
X31589Y-18679D01*
X31380Y-19041D02*
X31361Y-19060D01*
X31380Y-19079D01*
X31399Y-19060D01*
X31380Y-19041D01*
X31380Y-19079D01*
X31132Y-19079D02*
X31170Y-19060D01*
X31189Y-19041D01*
X31208Y-19003D01*
X31208Y-18888D01*
X31189Y-18850D01*
X31170Y-18831D01*
X31132Y-18812D01*
X31075Y-18812D01*
X31037Y-18831D01*
X31018Y-18850D01*
X30999Y-18888D01*
X30999Y-19003D01*
X31018Y-19041D01*
X31037Y-19060D01*
X31075Y-19079D01*
X31132Y-19079D01*
X30827Y-19079D02*
X30827Y-18812D01*
X30827Y-18888D02*
X30808Y-18850D01*
X30789Y-18831D01*
X30751Y-18812D01*
X30713Y-18812D01*
X30408Y-18812D02*
X30408Y-19136D01*
X30427Y-19174D01*
X30446Y-19193D01*
X30485Y-19212D01*
X30542Y-19212D01*
X30580Y-19193D01*
X30408Y-19060D02*
X30446Y-19079D01*
X30523Y-19079D01*
X30561Y-19060D01*
X30580Y-19041D01*
X30599Y-19003D01*
X30599Y-18888D01*
X30580Y-18850D01*
X30561Y-18831D01*
X30523Y-18812D01*
X30446Y-18812D01*
X30408Y-18831D01*
G54D11*
X39763Y-22834D02*
X29921Y-22834D01*
X32381Y-15295D02*
X31358Y-15295D01*
X31358Y-16279D02*
X31358Y-15295D01*
X31358Y-15295D02*
X30374Y-15295D01*
X30374Y-15295D02*
X30374Y-16279D01*
X30374Y-16279D02*
X31358Y-16279D01*
X33366Y-15295D02*
X32381Y-15295D01*
X32381Y-15295D02*
X32381Y-14311D01*
X32381Y-14311D02*
X33366Y-14311D01*
X33366Y-14311D02*
X33366Y-15295D01*
G54D14*
G36*
X38738Y-18482D02*
X38755Y-18480D01*
X38771Y-18475D01*
X38778Y-18471D01*
X38792Y-18461D01*
X38803Y-18449D01*
X38812Y-18435D01*
X38818Y-18419D01*
X38820Y-18403D01*
X38820Y-18386D01*
X38816Y-18370D01*
X38808Y-18354D01*
X38803Y-18347D01*
X38796Y-18339D01*
X38789Y-18332D01*
X38781Y-18327D01*
X38779Y-18325D01*
X38765Y-18319D01*
X38750Y-18315D01*
X38733Y-18314D01*
X38727Y-18315D01*
X38718Y-18316D01*
X38710Y-18318D01*
X38701Y-18322D01*
X38691Y-18327D01*
X38677Y-18338D01*
X38666Y-18351D01*
X38658Y-18367D01*
X38655Y-18374D01*
X38653Y-18382D01*
X38652Y-18389D01*
X38652Y-18390D01*
X38652Y-18390D01*
X38651Y-18387D01*
X38651Y-18386D01*
X38649Y-18375D01*
X38645Y-18364D01*
X38640Y-18354D01*
X38630Y-18342D01*
X38617Y-18330D01*
X38603Y-18321D01*
X38586Y-18316D01*
X38568Y-18314D01*
X38564Y-18314D01*
X38550Y-18316D01*
X38538Y-18319D01*
X38535Y-18320D01*
X38521Y-18328D01*
X38508Y-18339D01*
X38498Y-18351D01*
X38490Y-18366D01*
X38485Y-18381D01*
X38485Y-18381D01*
X38484Y-18385D01*
X38484Y-18387D01*
X38484Y-18387D01*
X38484Y-18385D01*
X38483Y-18381D01*
X38482Y-18379D01*
X38477Y-18364D01*
X38469Y-18350D01*
X38458Y-18337D01*
X38448Y-18329D01*
X38434Y-18321D01*
X38418Y-18316D01*
X38400Y-18314D01*
X38387Y-18315D01*
X38370Y-18319D01*
X38355Y-18327D01*
X38342Y-18338D01*
X38330Y-18351D01*
X38329Y-18353D01*
X38325Y-18359D01*
X38323Y-18364D01*
X38321Y-18368D01*
X38319Y-18376D01*
X38317Y-18383D01*
X38316Y-18389D01*
X38316Y-18390D01*
X38316Y-18390D01*
X38315Y-18386D01*
X38313Y-18377D01*
X38309Y-18365D01*
X38304Y-18355D01*
X38294Y-18342D01*
X38281Y-18330D01*
X38266Y-18321D01*
X38250Y-18316D01*
X38232Y-18314D01*
X38216Y-18315D01*
X38200Y-18320D01*
X38185Y-18328D01*
X38171Y-18340D01*
X38165Y-18347D01*
X38158Y-18356D01*
X38153Y-18367D01*
X38150Y-18376D01*
X38148Y-18393D01*
X38148Y-18409D01*
X38152Y-18425D01*
X38158Y-18440D01*
X38168Y-18453D01*
X38179Y-18464D01*
X38193Y-18473D01*
X38208Y-18479D01*
X38225Y-18482D01*
X38227Y-18482D01*
X38244Y-18481D01*
X38260Y-18478D01*
X38276Y-18470D01*
X38281Y-18467D01*
X38292Y-18457D01*
X38302Y-18445D01*
X38309Y-18432D01*
X38311Y-18427D01*
X38313Y-18420D01*
X38315Y-18413D01*
X38316Y-18407D01*
X38316Y-18404D01*
X38316Y-18407D01*
X38317Y-18410D01*
X38318Y-18417D01*
X38321Y-18426D01*
X38323Y-18433D01*
X38327Y-18440D01*
X38338Y-18454D01*
X38350Y-18466D01*
X38365Y-18475D01*
X38382Y-18481D01*
X38385Y-18481D01*
X38397Y-18482D01*
X38409Y-18482D01*
X38420Y-18480D01*
X38431Y-18477D01*
X38447Y-18468D01*
X38461Y-18457D01*
X38462Y-18456D01*
X38471Y-18444D01*
X38478Y-18430D01*
X38483Y-18416D01*
X38483Y-18415D01*
X38484Y-18411D01*
X38484Y-18409D01*
X38484Y-18410D01*
X38485Y-18414D01*
X38485Y-18415D01*
X38487Y-18424D01*
X38491Y-18433D01*
X38496Y-18443D01*
X38504Y-18453D01*
X38516Y-18465D01*
X38531Y-18474D01*
X38548Y-18480D01*
X38551Y-18481D01*
X38562Y-18482D01*
X38574Y-18482D01*
X38585Y-18481D01*
X38595Y-18478D01*
X38610Y-18471D01*
X38624Y-18460D01*
X38636Y-18448D01*
X38645Y-18433D01*
X38647Y-18428D01*
X38649Y-18420D01*
X38651Y-18413D01*
X38652Y-18407D01*
X38652Y-18406D01*
X38652Y-18406D01*
X38653Y-18410D01*
X38653Y-18410D01*
X38655Y-18421D01*
X38659Y-18432D01*
X38664Y-18442D01*
X38667Y-18445D01*
X38677Y-18458D01*
X38691Y-18469D01*
X38705Y-18477D01*
X38721Y-18481D01*
X38738Y-18482D01*
X38738Y-18482D01*
G37*
G36*
X38058Y-18314D02*
X38068Y-18314D01*
X38078Y-18313D01*
X38089Y-18310D01*
X38105Y-18303D01*
X38119Y-18293D01*
X38131Y-18280D01*
X38139Y-18266D01*
X38145Y-18250D01*
X38147Y-18232D01*
X38146Y-18215D01*
X38142Y-18199D01*
X38134Y-18184D01*
X38124Y-18171D01*
X38110Y-18160D01*
X38106Y-18157D01*
X38090Y-18149D01*
X38073Y-18146D01*
X38055Y-18146D01*
X38038Y-18149D01*
X38024Y-18155D01*
X38009Y-18165D01*
X37997Y-18177D01*
X37988Y-18192D01*
X37981Y-18209D01*
X37980Y-18217D01*
X37979Y-18228D01*
X37979Y-18239D01*
X37981Y-18248D01*
X37982Y-18251D01*
X37988Y-18268D01*
X37998Y-18283D01*
X38011Y-18296D01*
X38026Y-18305D01*
X38033Y-18308D01*
X38043Y-18312D01*
X38052Y-18313D01*
X38058Y-18314D01*
X38058Y-18314D01*
G37*
G36*
X38907Y-18314D02*
X38924Y-18312D01*
X38941Y-18306D01*
X38956Y-18296D01*
X38960Y-18294D01*
X38971Y-18281D01*
X38981Y-18267D01*
X38987Y-18250D01*
X38988Y-18242D01*
X38989Y-18231D01*
X38989Y-18220D01*
X38987Y-18211D01*
X38986Y-18207D01*
X38979Y-18190D01*
X38970Y-18176D01*
X38958Y-18164D01*
X38943Y-18155D01*
X38927Y-18148D01*
X38909Y-18145D01*
X38903Y-18145D01*
X38886Y-18147D01*
X38870Y-18153D01*
X38856Y-18161D01*
X38844Y-18172D01*
X38834Y-18185D01*
X38826Y-18200D01*
X38822Y-18216D01*
X38821Y-18233D01*
X38822Y-18244D01*
X38824Y-18253D01*
X38827Y-18263D01*
X38834Y-18276D01*
X38845Y-18289D01*
X38858Y-18300D01*
X38873Y-18308D01*
X38889Y-18313D01*
X38907Y-18314D01*
X38907Y-18314D01*
G37*
G36*
X37890Y-18145D02*
X37902Y-18145D01*
X37912Y-18144D01*
X37924Y-18140D01*
X37940Y-18132D01*
X37954Y-18121D01*
X37963Y-18110D01*
X37972Y-18096D01*
X37977Y-18079D01*
X37978Y-18072D01*
X37979Y-18062D01*
X37978Y-18052D01*
X37977Y-18044D01*
X37976Y-18038D01*
X37969Y-18022D01*
X37960Y-18007D01*
X37947Y-17995D01*
X37932Y-17986D01*
X37926Y-17983D01*
X37915Y-17979D01*
X37904Y-17977D01*
X37892Y-17977D01*
X37884Y-17978D01*
X37875Y-17979D01*
X37866Y-17981D01*
X37857Y-17986D01*
X37852Y-17988D01*
X37838Y-17999D01*
X37826Y-18012D01*
X37817Y-18027D01*
X37812Y-18044D01*
X37811Y-18048D01*
X37810Y-18058D01*
X37811Y-18069D01*
X37812Y-18078D01*
X37813Y-18084D01*
X37820Y-18100D01*
X37829Y-18115D01*
X37842Y-18127D01*
X37857Y-18136D01*
X37874Y-18143D01*
X37879Y-18144D01*
X37890Y-18145D01*
X37890Y-18145D01*
G37*
G36*
X38566Y-18145D02*
X38583Y-18144D01*
X38599Y-18140D01*
X38608Y-18135D01*
X38622Y-18125D01*
X38634Y-18113D01*
X38644Y-18098D01*
X38649Y-18081D01*
X38650Y-18078D01*
X38652Y-18064D01*
X38652Y-18051D01*
X38648Y-18037D01*
X38642Y-18020D01*
X38632Y-18006D01*
X38619Y-17994D01*
X38604Y-17985D01*
X38587Y-17979D01*
X38576Y-17976D01*
X38582Y-17976D01*
X38583Y-17975D01*
X38595Y-17972D01*
X38608Y-17967D01*
X38619Y-17959D01*
X38621Y-17957D01*
X38634Y-17945D01*
X38643Y-17931D01*
X38649Y-17915D01*
X38652Y-17899D01*
X38651Y-17883D01*
X38648Y-17866D01*
X38640Y-17851D01*
X38640Y-17850D01*
X38630Y-17836D01*
X38617Y-17825D01*
X38603Y-17817D01*
X38587Y-17812D01*
X38571Y-17809D01*
X38555Y-17810D01*
X38539Y-17814D01*
X38524Y-17822D01*
X38510Y-17832D01*
X38502Y-17840D01*
X38494Y-17853D01*
X38488Y-17866D01*
X38485Y-17878D01*
X38484Y-17881D01*
X38484Y-17883D01*
X38484Y-17882D01*
X38483Y-17878D01*
X38480Y-17867D01*
X38475Y-17855D01*
X38468Y-17844D01*
X38464Y-17838D01*
X38451Y-17826D01*
X38437Y-17817D01*
X38420Y-17812D01*
X38403Y-17809D01*
X38386Y-17810D01*
X38376Y-17813D01*
X38359Y-17820D01*
X38345Y-17830D01*
X38333Y-17842D01*
X38324Y-17857D01*
X38318Y-17873D01*
X38317Y-17882D01*
X38316Y-17898D01*
X38319Y-17915D01*
X38325Y-17931D01*
X38335Y-17945D01*
X38347Y-17957D01*
X38362Y-17967D01*
X38368Y-17970D01*
X38376Y-17973D01*
X38383Y-17975D01*
X38389Y-17976D01*
X38390Y-17976D01*
X38389Y-17977D01*
X38386Y-17978D01*
X38377Y-17980D01*
X38366Y-17984D01*
X38356Y-17989D01*
X38351Y-17992D01*
X38340Y-18002D01*
X38330Y-18014D01*
X38323Y-18027D01*
X38318Y-18041D01*
X38316Y-18056D01*
X38316Y-18071D01*
X38317Y-18074D01*
X38322Y-18091D01*
X38329Y-18107D01*
X38341Y-18121D01*
X38350Y-18129D01*
X38365Y-18138D01*
X38382Y-18144D01*
X38389Y-18144D01*
X38398Y-18145D01*
X38407Y-18144D01*
X38416Y-18144D01*
X38423Y-18142D01*
X38429Y-18141D01*
X38445Y-18132D01*
X38459Y-18121D01*
X38470Y-18108D01*
X38474Y-18101D01*
X38480Y-18090D01*
X38483Y-18079D01*
X38483Y-18078D01*
X38484Y-18074D01*
X38484Y-18072D01*
X38484Y-18072D01*
X38484Y-18050D01*
X38484Y-18050D01*
X38484Y-18048D01*
X38483Y-18044D01*
X38483Y-18042D01*
X38478Y-18027D01*
X38469Y-18013D01*
X38459Y-18001D01*
X38446Y-17990D01*
X38432Y-17983D01*
X38431Y-17982D01*
X38423Y-17980D01*
X38416Y-17978D01*
X38409Y-17977D01*
X38416Y-17975D01*
X38426Y-17973D01*
X38441Y-17966D01*
X38455Y-17957D01*
X38466Y-17945D01*
X38475Y-17931D01*
X38479Y-17924D01*
X38482Y-17915D01*
X38483Y-17908D01*
X38484Y-17905D01*
X38484Y-17903D01*
X38484Y-17904D01*
X38485Y-17908D01*
X38486Y-17914D01*
X38489Y-17923D01*
X38493Y-17931D01*
X38498Y-17940D01*
X38509Y-17952D01*
X38522Y-17963D01*
X38537Y-17971D01*
X38552Y-17975D01*
X38560Y-17977D01*
X38552Y-17978D01*
X38551Y-17978D01*
X38544Y-17980D01*
X38536Y-17983D01*
X38535Y-17983D01*
X38521Y-17991D01*
X38508Y-18002D01*
X38498Y-18014D01*
X38490Y-18029D01*
X38485Y-18043D01*
X38485Y-18044D01*
X38484Y-18048D01*
X38484Y-18050D01*
X38484Y-18072D01*
X38484Y-18072D01*
X38484Y-18074D01*
X38485Y-18079D01*
X38488Y-18089D01*
X38495Y-18104D01*
X38506Y-18118D01*
X38518Y-18129D01*
X38533Y-18138D01*
X38533Y-18138D01*
X38549Y-18143D01*
X38566Y-18145D01*
X38566Y-18145D01*
G37*
G36*
X39067Y-18145D02*
X39081Y-18145D01*
X39093Y-18143D01*
X39101Y-18141D01*
X39117Y-18133D01*
X39131Y-18123D01*
X39142Y-18110D01*
X39151Y-18095D01*
X39156Y-18079D01*
X39158Y-18061D01*
X39157Y-18054D01*
X39154Y-18037D01*
X39147Y-18020D01*
X39137Y-18005D01*
X39134Y-18002D01*
X39122Y-17992D01*
X39108Y-17984D01*
X39093Y-17979D01*
X39093Y-17979D01*
X39080Y-17977D01*
X39066Y-17977D01*
X39054Y-17979D01*
X39049Y-17980D01*
X39033Y-17987D01*
X39019Y-17996D01*
X39008Y-18008D01*
X38999Y-18022D01*
X38992Y-18037D01*
X38989Y-18054D01*
X38990Y-18071D01*
X38993Y-18088D01*
X38999Y-18101D01*
X39009Y-18115D01*
X39021Y-18127D01*
X39036Y-18136D01*
X39052Y-18143D01*
X39054Y-18143D01*
X39067Y-18145D01*
X39067Y-18145D01*
G37*
G36*
X38234Y-17641D02*
X38251Y-17639D01*
X38267Y-17633D01*
X38275Y-17629D01*
X38282Y-17624D01*
X38290Y-17617D01*
X38299Y-17607D01*
X38308Y-17593D01*
X38314Y-17577D01*
X38315Y-17572D01*
X38316Y-17561D01*
X38316Y-17549D01*
X38314Y-17539D01*
X38310Y-17525D01*
X38302Y-17510D01*
X38292Y-17497D01*
X38290Y-17495D01*
X38282Y-17489D01*
X38273Y-17483D01*
X38265Y-17479D01*
X38262Y-17478D01*
X38255Y-17475D01*
X38248Y-17474D01*
X38243Y-17473D01*
X38240Y-17473D01*
X38243Y-17472D01*
X38247Y-17471D01*
X38253Y-17470D01*
X38259Y-17468D01*
X38271Y-17462D01*
X38284Y-17454D01*
X38294Y-17445D01*
X38295Y-17443D01*
X38306Y-17429D01*
X38312Y-17413D01*
X38316Y-17396D01*
X38316Y-17379D01*
X38315Y-17375D01*
X38310Y-17358D01*
X38302Y-17342D01*
X38291Y-17328D01*
X38281Y-17319D01*
X38266Y-17311D01*
X38250Y-17305D01*
X38246Y-17305D01*
X38235Y-17304D01*
X38223Y-17304D01*
X38212Y-17306D01*
X38203Y-17309D01*
X38187Y-17316D01*
X38174Y-17327D01*
X38163Y-17339D01*
X38154Y-17354D01*
X38149Y-17370D01*
X38149Y-17372D01*
X38148Y-17376D01*
X38147Y-17378D01*
X38147Y-17376D01*
X38146Y-17372D01*
X38144Y-17365D01*
X38142Y-17358D01*
X38139Y-17351D01*
X38136Y-17346D01*
X38126Y-17332D01*
X38113Y-17320D01*
X38098Y-17311D01*
X38082Y-17306D01*
X38064Y-17304D01*
X38050Y-17305D01*
X38034Y-17309D01*
X38019Y-17316D01*
X38010Y-17322D01*
X37998Y-17334D01*
X37989Y-17349D01*
X37982Y-17364D01*
X37979Y-17381D01*
X37979Y-17398D01*
X37983Y-17413D01*
X37990Y-17430D01*
X38000Y-17444D01*
X38013Y-17455D01*
X38028Y-17464D01*
X38045Y-17470D01*
X38055Y-17473D01*
X38049Y-17473D01*
X38046Y-17474D01*
X38032Y-17478D01*
X38019Y-17485D01*
X38007Y-17494D01*
X37997Y-17504D01*
X37991Y-17513D01*
X37985Y-17525D01*
X37981Y-17536D01*
X37980Y-17545D01*
X37979Y-17555D01*
X37979Y-17566D01*
X37981Y-17575D01*
X37984Y-17585D01*
X37992Y-17601D01*
X38002Y-17615D01*
X38016Y-17626D01*
X38031Y-17634D01*
X38049Y-17640D01*
X38053Y-17640D01*
X38064Y-17641D01*
X38075Y-17640D01*
X38084Y-17638D01*
X38091Y-17636D01*
X38107Y-17628D01*
X38121Y-17618D01*
X38132Y-17605D01*
X38141Y-17590D01*
X38146Y-17573D01*
X38146Y-17572D01*
X38147Y-17568D01*
X38148Y-17568D01*
X38148Y-17545D01*
X38147Y-17544D01*
X38146Y-17541D01*
X38146Y-17540D01*
X38143Y-17529D01*
X38138Y-17517D01*
X38131Y-17506D01*
X38126Y-17500D01*
X38113Y-17488D01*
X38097Y-17479D01*
X38080Y-17474D01*
X38072Y-17472D01*
X38078Y-17471D01*
X38083Y-17470D01*
X38088Y-17468D01*
X38092Y-17467D01*
X38107Y-17460D01*
X38121Y-17449D01*
X38132Y-17437D01*
X38140Y-17422D01*
X38146Y-17406D01*
X38146Y-17402D01*
X38147Y-17399D01*
X38148Y-17401D01*
X38149Y-17406D01*
X38149Y-17406D01*
X38152Y-17415D01*
X38156Y-17425D01*
X38161Y-17434D01*
X38166Y-17440D01*
X38173Y-17448D01*
X38182Y-17456D01*
X38190Y-17461D01*
X38190Y-17461D01*
X38203Y-17467D01*
X38217Y-17471D01*
X38223Y-17472D01*
X38216Y-17473D01*
X38201Y-17478D01*
X38186Y-17486D01*
X38173Y-17496D01*
X38162Y-17509D01*
X38159Y-17513D01*
X38155Y-17521D01*
X38152Y-17530D01*
X38149Y-17538D01*
X38148Y-17543D01*
X38148Y-17543D01*
X38148Y-17545D01*
X38148Y-17568D01*
X38148Y-17568D01*
X38149Y-17572D01*
X38150Y-17577D01*
X38151Y-17582D01*
X38155Y-17591D01*
X38163Y-17606D01*
X38174Y-17618D01*
X38187Y-17628D01*
X38202Y-17635D01*
X38218Y-17640D01*
X38234Y-17641D01*
X38234Y-17641D01*
G37*
G36*
X38741Y-17641D02*
X38757Y-17638D01*
X38773Y-17632D01*
X38787Y-17623D01*
X38800Y-17612D01*
X38809Y-17598D01*
X38817Y-17582D01*
X38818Y-17577D01*
X38819Y-17572D01*
X38819Y-17571D01*
X38820Y-17568D01*
X38820Y-17568D01*
X38820Y-17545D01*
X38820Y-17542D01*
X38818Y-17536D01*
X38815Y-17527D01*
X38808Y-17512D01*
X38797Y-17498D01*
X38785Y-17487D01*
X38770Y-17479D01*
X38753Y-17474D01*
X38745Y-17472D01*
X38751Y-17471D01*
X38752Y-17471D01*
X38765Y-17467D01*
X38778Y-17461D01*
X38784Y-17458D01*
X38792Y-17451D01*
X38800Y-17442D01*
X38807Y-17434D01*
X38811Y-17427D01*
X38816Y-17416D01*
X38819Y-17406D01*
X38820Y-17402D01*
X38820Y-17399D01*
X38821Y-17401D01*
X38822Y-17406D01*
X38826Y-17417D01*
X38833Y-17432D01*
X38844Y-17446D01*
X38857Y-17457D01*
X38873Y-17466D01*
X38890Y-17471D01*
X38896Y-17472D01*
X38888Y-17474D01*
X38880Y-17476D01*
X38864Y-17483D01*
X38849Y-17493D01*
X38837Y-17506D01*
X38834Y-17511D01*
X38829Y-17519D01*
X38826Y-17528D01*
X38824Y-17534D01*
X38822Y-17540D01*
X38822Y-17540D01*
X38821Y-17544D01*
X38820Y-17545D01*
X38820Y-17568D01*
X38821Y-17569D01*
X38822Y-17573D01*
X38823Y-17579D01*
X38828Y-17591D01*
X38835Y-17603D01*
X38840Y-17610D01*
X38852Y-17622D01*
X38867Y-17632D01*
X38884Y-17638D01*
X38892Y-17640D01*
X38903Y-17640D01*
X38915Y-17640D01*
X38926Y-17638D01*
X38927Y-17638D01*
X38944Y-17631D01*
X38958Y-17621D01*
X38971Y-17609D01*
X38980Y-17594D01*
X38987Y-17577D01*
X38988Y-17570D01*
X38989Y-17558D01*
X38988Y-17546D01*
X38987Y-17536D01*
X38984Y-17527D01*
X38978Y-17515D01*
X38971Y-17504D01*
X38963Y-17496D01*
X38953Y-17487D01*
X38942Y-17481D01*
X38938Y-17479D01*
X38930Y-17476D01*
X38922Y-17474D01*
X38916Y-17473D01*
X38916Y-17473D01*
X38918Y-17472D01*
X38923Y-17470D01*
X38932Y-17467D01*
X38943Y-17463D01*
X38953Y-17458D01*
X38954Y-17456D01*
X38965Y-17446D01*
X38975Y-17434D01*
X38982Y-17422D01*
X38985Y-17416D01*
X38988Y-17399D01*
X38989Y-17381D01*
X38986Y-17364D01*
X38985Y-17361D01*
X38978Y-17345D01*
X38967Y-17331D01*
X38954Y-17320D01*
X38939Y-17311D01*
X38923Y-17305D01*
X38920Y-17305D01*
X38909Y-17304D01*
X38896Y-17304D01*
X38885Y-17306D01*
X38883Y-17306D01*
X38866Y-17313D01*
X38851Y-17323D01*
X38839Y-17335D01*
X38829Y-17351D01*
X38827Y-17356D01*
X38824Y-17363D01*
X38822Y-17370D01*
X38821Y-17376D01*
X38821Y-17377D01*
X38821Y-17378D01*
X38820Y-17375D01*
X38819Y-17371D01*
X38816Y-17359D01*
X38809Y-17344D01*
X38798Y-17331D01*
X38786Y-17320D01*
X38771Y-17311D01*
X38771Y-17311D01*
X38755Y-17306D01*
X38738Y-17304D01*
X38721Y-17305D01*
X38705Y-17309D01*
X38696Y-17314D01*
X38682Y-17324D01*
X38670Y-17336D01*
X38660Y-17351D01*
X38655Y-17367D01*
X38654Y-17371D01*
X38652Y-17385D01*
X38652Y-17398D01*
X38656Y-17413D01*
X38663Y-17429D01*
X38673Y-17444D01*
X38686Y-17455D01*
X38701Y-17464D01*
X38718Y-17470D01*
X38722Y-17471D01*
X38725Y-17472D01*
X38725Y-17473D01*
X38720Y-17473D01*
X38710Y-17476D01*
X38700Y-17481D01*
X38690Y-17486D01*
X38680Y-17493D01*
X38669Y-17506D01*
X38660Y-17522D01*
X38658Y-17524D01*
X38653Y-17541D01*
X38652Y-17558D01*
X38654Y-17575D01*
X38660Y-17591D01*
X38663Y-17599D01*
X38669Y-17607D01*
X38676Y-17615D01*
X38676Y-17615D01*
X38690Y-17627D01*
X38705Y-17635D01*
X38722Y-17640D01*
X38724Y-17640D01*
X38741Y-17641D01*
X38741Y-17641D01*
G37*
G36*
X30566Y-18483D02*
X30573Y-18479D01*
X30588Y-18470D01*
X30610Y-18455D01*
X30636Y-18438D01*
X30662Y-18420D01*
X30684Y-18406D01*
X30699Y-18396D01*
X30705Y-18393D01*
X30708Y-18394D01*
X30721Y-18400D01*
X30738Y-18409D01*
X30749Y-18415D01*
X30765Y-18422D01*
X30774Y-18423D01*
X30775Y-18421D01*
X30781Y-18409D01*
X30790Y-18387D01*
X30803Y-18359D01*
X30817Y-18325D01*
X30832Y-18289D01*
X30848Y-18253D01*
X30862Y-18218D01*
X30875Y-18186D01*
X30885Y-18160D01*
X30892Y-18143D01*
X30895Y-18135D01*
X30894Y-18133D01*
X30886Y-18125D01*
X30871Y-18115D01*
X30840Y-18089D01*
X30809Y-18051D01*
X30791Y-18008D01*
X30784Y-17959D01*
X30790Y-17914D01*
X30807Y-17872D01*
X30837Y-17833D01*
X30874Y-17804D01*
X30916Y-17786D01*
X30964Y-17780D01*
X31009Y-17785D01*
X31053Y-17803D01*
X31092Y-17832D01*
X31109Y-17851D01*
X31131Y-17890D01*
X31144Y-17932D01*
X31145Y-17943D01*
X31143Y-17989D01*
X31130Y-18033D01*
X31105Y-18072D01*
X31072Y-18105D01*
X31067Y-18108D01*
X31052Y-18120D01*
X31041Y-18128D01*
X31033Y-18134D01*
X31092Y-18276D01*
X31101Y-18298D01*
X31117Y-18337D01*
X31131Y-18370D01*
X31143Y-18397D01*
X31151Y-18415D01*
X31154Y-18422D01*
X31154Y-18422D01*
X31160Y-18423D01*
X31170Y-18419D01*
X31190Y-18410D01*
X31203Y-18403D01*
X31218Y-18396D01*
X31225Y-18393D01*
X31231Y-18396D01*
X31245Y-18405D01*
X31266Y-18419D01*
X31292Y-18437D01*
X31316Y-18453D01*
X31338Y-18468D01*
X31354Y-18478D01*
X31362Y-18482D01*
X31363Y-18482D01*
X31370Y-18478D01*
X31383Y-18468D01*
X31402Y-18450D01*
X31429Y-18423D01*
X31433Y-18418D01*
X31456Y-18396D01*
X31474Y-18377D01*
X31486Y-18363D01*
X31491Y-18357D01*
X31491Y-18357D01*
X31487Y-18349D01*
X31476Y-18333D01*
X31462Y-18310D01*
X31444Y-18284D01*
X31397Y-18216D01*
X31423Y-18152D01*
X31431Y-18132D01*
X31441Y-18108D01*
X31448Y-18091D01*
X31452Y-18084D01*
X31459Y-18081D01*
X31476Y-18077D01*
X31502Y-18072D01*
X31532Y-18066D01*
X31561Y-18061D01*
X31587Y-18056D01*
X31606Y-18052D01*
X31615Y-18051D01*
X31617Y-18049D01*
X31619Y-18045D01*
X31620Y-18036D01*
X31620Y-18020D01*
X31621Y-17995D01*
X31621Y-17959D01*
X31621Y-17955D01*
X31620Y-17921D01*
X31620Y-17893D01*
X31619Y-17876D01*
X31618Y-17869D01*
X31618Y-17869D01*
X31609Y-17867D01*
X31591Y-17863D01*
X31565Y-17858D01*
X31534Y-17852D01*
X31532Y-17851D01*
X31501Y-17845D01*
X31474Y-17840D01*
X31456Y-17836D01*
X31449Y-17833D01*
X31447Y-17831D01*
X31441Y-17819D01*
X31432Y-17800D01*
X31421Y-17776D01*
X31411Y-17752D01*
X31403Y-17730D01*
X31397Y-17713D01*
X31395Y-17706D01*
X31395Y-17706D01*
X31400Y-17698D01*
X31410Y-17682D01*
X31425Y-17660D01*
X31444Y-17633D01*
X31445Y-17631D01*
X31463Y-17605D01*
X31477Y-17583D01*
X31487Y-17567D01*
X31491Y-17560D01*
X31490Y-17559D01*
X31485Y-17552D01*
X31471Y-17537D01*
X31452Y-17517D01*
X31429Y-17493D01*
X31422Y-17486D01*
X31396Y-17461D01*
X31378Y-17445D01*
X31367Y-17436D01*
X31362Y-17434D01*
X31362Y-17434D01*
X31354Y-17439D01*
X31337Y-17450D01*
X31315Y-17465D01*
X31288Y-17483D01*
X31286Y-17485D01*
X31260Y-17503D01*
X31238Y-17517D01*
X31223Y-17528D01*
X31216Y-17532D01*
X31215Y-17532D01*
X31204Y-17529D01*
X31185Y-17522D01*
X31162Y-17513D01*
X31138Y-17503D01*
X31116Y-17494D01*
X31099Y-17487D01*
X31092Y-17482D01*
X31091Y-17482D01*
X31089Y-17472D01*
X31084Y-17453D01*
X31078Y-17426D01*
X31072Y-17393D01*
X31071Y-17388D01*
X31065Y-17357D01*
X31060Y-17331D01*
X31057Y-17313D01*
X31055Y-17306D01*
X31050Y-17305D01*
X31035Y-17304D01*
X31012Y-17303D01*
X30984Y-17303D01*
X30954Y-17303D01*
X30925Y-17304D01*
X30901Y-17304D01*
X30883Y-17306D01*
X30875Y-17307D01*
X30875Y-17308D01*
X30872Y-17317D01*
X30868Y-17337D01*
X30863Y-17364D01*
X30856Y-17396D01*
X30855Y-17402D01*
X30849Y-17433D01*
X30844Y-17459D01*
X30840Y-17477D01*
X30838Y-17484D01*
X30836Y-17485D01*
X30823Y-17491D01*
X30802Y-17499D01*
X30776Y-17510D01*
X30716Y-17534D01*
X30642Y-17484D01*
X30635Y-17479D01*
X30609Y-17461D01*
X30587Y-17446D01*
X30572Y-17437D01*
X30565Y-17433D01*
X30565Y-17433D01*
X30557Y-17440D01*
X30543Y-17453D01*
X30523Y-17473D01*
X30500Y-17496D01*
X30482Y-17513D01*
X30462Y-17534D01*
X30449Y-17548D01*
X30442Y-17557D01*
X30440Y-17562D01*
X30440Y-17566D01*
X30445Y-17573D01*
X30456Y-17590D01*
X30471Y-17612D01*
X30489Y-17638D01*
X30504Y-17660D01*
X30520Y-17685D01*
X30530Y-17702D01*
X30534Y-17711D01*
X30533Y-17715D01*
X30528Y-17729D01*
X30519Y-17751D01*
X30508Y-17777D01*
X30482Y-17835D01*
X30444Y-17843D01*
X30421Y-17847D01*
X30388Y-17853D01*
X30357Y-17859D01*
X30309Y-17869D01*
X30307Y-18046D01*
X30315Y-18049D01*
X30322Y-18051D01*
X30340Y-18055D01*
X30365Y-18060D01*
X30396Y-18066D01*
X30421Y-18071D01*
X30447Y-18076D01*
X30466Y-18079D01*
X30474Y-18081D01*
X30476Y-18084D01*
X30483Y-18096D01*
X30492Y-18116D01*
X30502Y-18140D01*
X30513Y-18165D01*
X30522Y-18188D01*
X30528Y-18206D01*
X30531Y-18215D01*
X30527Y-18222D01*
X30517Y-18237D01*
X30503Y-18259D01*
X30485Y-18285D01*
X30468Y-18310D01*
X30453Y-18333D01*
X30443Y-18348D01*
X30438Y-18356D01*
X30440Y-18361D01*
X30451Y-18373D01*
X30470Y-18393D01*
X30499Y-18422D01*
X30504Y-18426D01*
X30527Y-18449D01*
X30546Y-18467D01*
X30560Y-18479D01*
X30566Y-18483D01*
X30566Y-18483D01*
G37*
%LPC*%
G54D15*
X32870Y-14795D03*
G54D16*
X32870Y-15795D03*
X31870Y-14795D03*
X31870Y-15795D03*
X30870Y-14795D03*
X30870Y-15795D03*
G54D15*
X38893Y-15255D03*
G54D16*
X37893Y-15255D03*
X36893Y-15255D03*
G54D17*
X38877Y-21562D03*
G54D18*
X38877Y-20562D03*
G54D17*
X30787Y-21562D03*
G54D18*
X30787Y-20562D03*
M02*
