G04 (created by PCBNEW (2013-05-18 BZR 4155)-testing) date Mon 20 May 2013 02:29:45 PM CEST*
%MOIN*%
G04 Gerber Fmt 3.4, Leading zero omitted, Abs format*
%FSLAX34Y34*%
G01*
G70*
G90*
G04 APERTURE LIST*
%ADD10C,0.005906*%
%ADD11C,0.007874*%
G04 APERTURE END LIST*
G54D10*
G54D11*
X29921Y-16535D02*
X42519Y-16535D01*
X42519Y-22834D02*
X29921Y-22834D01*
X34570Y-23406D02*
X34814Y-23406D01*
X34683Y-23556D01*
X34739Y-23556D01*
X34776Y-23575D01*
X34795Y-23593D01*
X34814Y-23631D01*
X34814Y-23725D01*
X34795Y-23762D01*
X34776Y-23781D01*
X34739Y-23800D01*
X34626Y-23800D01*
X34589Y-23781D01*
X34570Y-23762D01*
X34964Y-23443D02*
X34983Y-23425D01*
X35020Y-23406D01*
X35114Y-23406D01*
X35151Y-23425D01*
X35170Y-23443D01*
X35189Y-23481D01*
X35189Y-23518D01*
X35170Y-23575D01*
X34945Y-23800D01*
X35189Y-23800D01*
X35358Y-23762D02*
X35376Y-23781D01*
X35358Y-23800D01*
X35339Y-23781D01*
X35358Y-23762D01*
X35358Y-23800D01*
X35620Y-23406D02*
X35658Y-23406D01*
X35695Y-23425D01*
X35714Y-23443D01*
X35733Y-23481D01*
X35751Y-23556D01*
X35751Y-23650D01*
X35733Y-23725D01*
X35714Y-23762D01*
X35695Y-23781D01*
X35658Y-23800D01*
X35620Y-23800D01*
X35583Y-23781D01*
X35564Y-23762D01*
X35545Y-23725D01*
X35526Y-23650D01*
X35526Y-23556D01*
X35545Y-23481D01*
X35564Y-23443D01*
X35583Y-23425D01*
X35620Y-23406D01*
X35995Y-23406D02*
X36032Y-23406D01*
X36070Y-23425D01*
X36089Y-23443D01*
X36107Y-23481D01*
X36126Y-23556D01*
X36126Y-23650D01*
X36107Y-23725D01*
X36089Y-23762D01*
X36070Y-23781D01*
X36032Y-23800D01*
X35995Y-23800D01*
X35958Y-23781D01*
X35939Y-23762D01*
X35920Y-23725D01*
X35901Y-23650D01*
X35901Y-23556D01*
X35920Y-23481D01*
X35939Y-23443D01*
X35958Y-23425D01*
X35995Y-23406D01*
X36370Y-23406D02*
X36407Y-23406D01*
X36445Y-23425D01*
X36464Y-23443D01*
X36482Y-23481D01*
X36501Y-23556D01*
X36501Y-23650D01*
X36482Y-23725D01*
X36464Y-23762D01*
X36445Y-23781D01*
X36407Y-23800D01*
X36370Y-23800D01*
X36332Y-23781D01*
X36314Y-23762D01*
X36295Y-23725D01*
X36276Y-23650D01*
X36276Y-23556D01*
X36295Y-23481D01*
X36314Y-23443D01*
X36332Y-23425D01*
X36370Y-23406D01*
X36970Y-23800D02*
X36970Y-23537D01*
X36970Y-23575D02*
X36989Y-23556D01*
X37026Y-23537D01*
X37082Y-23537D01*
X37120Y-23556D01*
X37139Y-23593D01*
X37139Y-23800D01*
X37139Y-23593D02*
X37157Y-23556D01*
X37195Y-23537D01*
X37251Y-23537D01*
X37289Y-23556D01*
X37307Y-23593D01*
X37307Y-23800D01*
X37495Y-23800D02*
X37495Y-23537D01*
X37495Y-23575D02*
X37514Y-23556D01*
X37551Y-23537D01*
X37607Y-23537D01*
X37645Y-23556D01*
X37664Y-23593D01*
X37664Y-23800D01*
X37664Y-23593D02*
X37682Y-23556D01*
X37720Y-23537D01*
X37776Y-23537D01*
X37814Y-23556D01*
X37832Y-23593D01*
X37832Y-23800D01*
X29921Y-23267D02*
X42519Y-23267D01*
X29921Y-22834D02*
X29921Y-23976D01*
X42519Y-22834D02*
X42519Y-23976D01*
X42519Y-23267D02*
X42076Y-23498D01*
X42519Y-23267D02*
X42076Y-23036D01*
X29921Y-23267D02*
X30364Y-23498D01*
X29921Y-23267D02*
X30364Y-23036D01*
X43485Y-21091D02*
X43485Y-21316D01*
X43485Y-21203D02*
X43091Y-21203D01*
X43147Y-21241D01*
X43185Y-21278D01*
X43203Y-21316D01*
X43091Y-20753D02*
X43091Y-20828D01*
X43110Y-20866D01*
X43128Y-20884D01*
X43185Y-20922D01*
X43260Y-20941D01*
X43410Y-20941D01*
X43447Y-20922D01*
X43466Y-20903D01*
X43485Y-20866D01*
X43485Y-20791D01*
X43466Y-20753D01*
X43447Y-20734D01*
X43410Y-20716D01*
X43316Y-20716D01*
X43278Y-20734D01*
X43260Y-20753D01*
X43241Y-20791D01*
X43241Y-20866D01*
X43260Y-20903D01*
X43278Y-20922D01*
X43316Y-20941D01*
X43447Y-20547D02*
X43466Y-20528D01*
X43485Y-20547D01*
X43466Y-20566D01*
X43447Y-20547D01*
X43485Y-20547D01*
X43091Y-20284D02*
X43091Y-20247D01*
X43110Y-20209D01*
X43128Y-20191D01*
X43166Y-20172D01*
X43241Y-20153D01*
X43335Y-20153D01*
X43410Y-20172D01*
X43447Y-20191D01*
X43466Y-20209D01*
X43485Y-20247D01*
X43485Y-20284D01*
X43466Y-20322D01*
X43447Y-20341D01*
X43410Y-20359D01*
X43335Y-20378D01*
X43241Y-20378D01*
X43166Y-20359D01*
X43128Y-20341D01*
X43110Y-20322D01*
X43091Y-20284D01*
X43091Y-19910D02*
X43091Y-19872D01*
X43110Y-19835D01*
X43128Y-19816D01*
X43166Y-19797D01*
X43241Y-19778D01*
X43335Y-19778D01*
X43410Y-19797D01*
X43447Y-19816D01*
X43466Y-19835D01*
X43485Y-19872D01*
X43485Y-19910D01*
X43466Y-19947D01*
X43447Y-19966D01*
X43410Y-19985D01*
X43335Y-20003D01*
X43241Y-20003D01*
X43166Y-19985D01*
X43128Y-19966D01*
X43110Y-19947D01*
X43091Y-19910D01*
X43091Y-19535D02*
X43091Y-19497D01*
X43110Y-19460D01*
X43128Y-19441D01*
X43166Y-19422D01*
X43241Y-19403D01*
X43335Y-19403D01*
X43410Y-19422D01*
X43447Y-19441D01*
X43466Y-19460D01*
X43485Y-19497D01*
X43485Y-19535D01*
X43466Y-19572D01*
X43447Y-19591D01*
X43410Y-19610D01*
X43335Y-19628D01*
X43241Y-19628D01*
X43166Y-19610D01*
X43128Y-19591D01*
X43110Y-19572D01*
X43091Y-19535D01*
X43485Y-18935D02*
X43222Y-18935D01*
X43260Y-18935D02*
X43241Y-18916D01*
X43222Y-18878D01*
X43222Y-18822D01*
X43241Y-18785D01*
X43278Y-18766D01*
X43485Y-18766D01*
X43278Y-18766D02*
X43241Y-18747D01*
X43222Y-18710D01*
X43222Y-18653D01*
X43241Y-18616D01*
X43278Y-18597D01*
X43485Y-18597D01*
X43485Y-18410D02*
X43222Y-18410D01*
X43260Y-18410D02*
X43241Y-18391D01*
X43222Y-18353D01*
X43222Y-18297D01*
X43241Y-18260D01*
X43278Y-18241D01*
X43485Y-18241D01*
X43278Y-18241D02*
X43241Y-18222D01*
X43222Y-18185D01*
X43222Y-18128D01*
X43241Y-18091D01*
X43278Y-18072D01*
X43485Y-18072D01*
X42952Y-22834D02*
X42952Y-16535D01*
X42519Y-22834D02*
X43661Y-22834D01*
X42519Y-16535D02*
X43661Y-16535D01*
X42952Y-16535D02*
X43183Y-16978D01*
X42952Y-16535D02*
X42721Y-16978D01*
X42952Y-22834D02*
X43183Y-22391D01*
X42952Y-22834D02*
X42721Y-22391D01*
X42519Y-22834D02*
X42519Y-16535D01*
X29921Y-16535D02*
X29921Y-22834D01*
M02*
