G04 (created by PCBNEW (2013-05-18 BZR 4155)-testing) date Mon 20 May 2013 01:54:30 AM CEST*
%MOIN*%
G04 Gerber Fmt 3.4, Leading zero omitted, Abs format*
%FSLAX34Y34*%
G01*
G70*
G90*
G04 APERTURE LIST*
%ADD10C,0.005906*%
%ADD11C,0.007874*%
%ADD12R,0.059055X0.041339*%
%ADD13O,0.059055X0.041339*%
%ADD14R,0.098425X0.059055*%
%ADD15R,0.275591X0.275591*%
%ADD16R,0.021600X0.047200*%
%ADD17R,0.086614X0.027559*%
%ADD18R,0.098425X0.023622*%
%ADD19R,0.108300X0.108300*%
%ADD20R,0.059055X0.047244*%
%ADD21R,0.098425X0.078740*%
%ADD22O,0.098425X0.078740*%
%ADD23R,0.059000X0.051100*%
%ADD24R,0.064961X0.064961*%
%ADD25C,0.064961*%
%ADD26R,0.051100X0.059000*%
%ADD27R,0.043300X0.039300*%
G04 APERTURE END LIST*
G54D10*
G54D11*
X29921Y-16535D02*
X42519Y-16535D01*
X42519Y-22834D02*
X29921Y-22834D01*
X42519Y-22834D02*
X42519Y-16535D01*
X29921Y-16535D02*
X29921Y-22834D01*
G54D12*
X34710Y-18492D03*
G54D13*
X35368Y-18492D03*
X34710Y-17992D03*
X35368Y-17992D03*
X34710Y-17492D03*
X35368Y-17492D03*
G54D14*
X37519Y-21811D03*
X37519Y-20000D03*
G54D15*
X34803Y-20905D03*
G54D16*
X38799Y-19999D03*
X39173Y-19999D03*
X39547Y-19999D03*
X39547Y-18977D03*
X38799Y-18977D03*
G54D17*
X33510Y-17220D03*
X33510Y-17720D03*
X33510Y-18220D03*
X33510Y-18720D03*
X36510Y-18720D03*
X36510Y-18220D03*
X36510Y-17720D03*
X36510Y-17220D03*
G54D18*
X32125Y-17480D03*
X32125Y-17952D03*
X32125Y-18424D03*
G54D19*
X32322Y-19921D03*
X32322Y-21889D03*
G54D20*
X30590Y-17932D03*
X30590Y-17106D03*
G54D21*
X41732Y-21562D03*
G54D22*
X41732Y-20562D03*
G54D21*
X30787Y-21562D03*
G54D22*
X30787Y-20562D03*
G54D23*
X37913Y-18090D03*
X37913Y-17342D03*
G54D24*
X41732Y-19307D03*
G54D25*
X41732Y-18307D03*
X41732Y-17307D03*
G54D26*
X38996Y-17165D03*
X39744Y-17165D03*
G54D23*
X40354Y-19153D03*
X40354Y-19901D03*
G54D26*
X38996Y-18149D03*
X39744Y-18149D03*
G54D27*
X39763Y-21595D03*
X39763Y-22263D03*
X38858Y-21595D03*
X38858Y-22263D03*
X30590Y-18603D03*
X30590Y-19271D03*
M02*
