G04 (created by PCBNEW (2013-01-08 BZR 3894)-testing) date Wed 09 Jan 2013 07:20:26 PM CET*
%MOIN*%
G04 Gerber Fmt 3.4, Leading zero omitted, Abs format*
%FSLAX34Y34*%
G01*
G70*
G90*
G04 APERTURE LIST*
%ADD10C,3.14961e-06*%
%ADD11C,0.015*%
%ADD12C,0.008*%
%ADD13C,0.011811*%
%ADD14C,0.012*%
%ADD15C,0.0026*%
%ADD16C,0.004*%
%ADD17C,0.001*%
%ADD18C,0.002*%
%ADD19C,0.006*%
%ADD20C,0.00984252*%
%ADD21C,0.00393701*%
%ADD22C,0.005*%
%ADD23C,0.00787402*%
%ADD24R,0.06X0.06*%
%ADD25C,0.06*%
%ADD26R,0.0314X0.0314*%
%ADD27R,0.11811X0.0787402*%
%ADD28O,0.11811X0.0787402*%
%ADD29R,0.059X0.0511*%
%ADD30R,0.0511X0.059*%
%ADD31R,0.0984252X0.0590551*%
%ADD32R,0.275591X0.275591*%
%ADD33R,0.0393X0.0433*%
%ADD34R,0.149606X0.0472441*%
%ADD35R,0.149606X0.0551181*%
%ADD36R,0.0433X0.0393*%
%ADD37R,0.0866142X0.0275591*%
%ADD38R,0.03X0.02*%
G04 APERTURE END LIST*
G54D10*
G54D11*
X29921Y-13779D02*
X29921Y-22834D01*
X39763Y-22834D02*
X39763Y-13779D01*
X39763Y-13779D02*
X29921Y-13779D01*
G54D12*
X39483Y-19989D02*
X39178Y-19989D01*
X38650Y-19748D02*
X38421Y-19748D01*
X38535Y-19748D02*
X38535Y-19348D01*
X38497Y-19405D01*
X38459Y-19443D01*
X38421Y-19462D01*
X38802Y-19386D02*
X38821Y-19367D01*
X38859Y-19348D01*
X38954Y-19348D01*
X38992Y-19367D01*
X39011Y-19386D01*
X39030Y-19424D01*
X39030Y-19462D01*
X39011Y-19519D01*
X38783Y-19748D01*
X39030Y-19748D01*
X39145Y-19348D02*
X39278Y-19748D01*
X39411Y-19348D01*
X30387Y-22202D02*
X30463Y-22202D01*
X30501Y-22221D01*
X30539Y-22259D01*
X30558Y-22336D01*
X30558Y-22469D01*
X30539Y-22545D01*
X30501Y-22583D01*
X30463Y-22602D01*
X30387Y-22602D01*
X30349Y-22583D01*
X30311Y-22545D01*
X30292Y-22469D01*
X30292Y-22336D01*
X30311Y-22259D01*
X30349Y-22221D01*
X30387Y-22202D01*
X30730Y-22202D02*
X30730Y-22526D01*
X30749Y-22564D01*
X30768Y-22583D01*
X30806Y-22602D01*
X30882Y-22602D01*
X30920Y-22583D01*
X30939Y-22564D01*
X30958Y-22526D01*
X30958Y-22202D01*
X31092Y-22202D02*
X31320Y-22202D01*
X31206Y-22602D02*
X31206Y-22202D01*
X36227Y-14033D02*
X36455Y-14033D01*
X36341Y-14433D02*
X36341Y-14033D01*
X36569Y-14414D02*
X36627Y-14433D01*
X36722Y-14433D01*
X36760Y-14414D01*
X36779Y-14395D01*
X36798Y-14357D01*
X36798Y-14319D01*
X36779Y-14281D01*
X36760Y-14262D01*
X36722Y-14243D01*
X36646Y-14224D01*
X36607Y-14204D01*
X36588Y-14185D01*
X36569Y-14147D01*
X36569Y-14109D01*
X36588Y-14071D01*
X36607Y-14052D01*
X36646Y-14033D01*
X36741Y-14033D01*
X36798Y-14052D01*
X37046Y-14033D02*
X37122Y-14033D01*
X37160Y-14052D01*
X37198Y-14090D01*
X37217Y-14166D01*
X37217Y-14300D01*
X37198Y-14376D01*
X37160Y-14414D01*
X37122Y-14433D01*
X37046Y-14433D01*
X37007Y-14414D01*
X36969Y-14376D01*
X36950Y-14300D01*
X36950Y-14166D01*
X36969Y-14090D01*
X37007Y-14052D01*
X37046Y-14033D01*
X37388Y-14433D02*
X37388Y-14033D01*
X37541Y-14033D01*
X37579Y-14052D01*
X37598Y-14071D01*
X37617Y-14109D01*
X37617Y-14166D01*
X37598Y-14204D01*
X37579Y-14224D01*
X37541Y-14243D01*
X37388Y-14243D01*
X37750Y-14033D02*
X37998Y-14033D01*
X37865Y-14185D01*
X37922Y-14185D01*
X37960Y-14204D01*
X37979Y-14224D01*
X37998Y-14262D01*
X37998Y-14357D01*
X37979Y-14395D01*
X37960Y-14414D01*
X37922Y-14433D01*
X37807Y-14433D01*
X37769Y-14414D01*
X37750Y-14395D01*
X38227Y-14204D02*
X38188Y-14185D01*
X38169Y-14166D01*
X38150Y-14128D01*
X38150Y-14109D01*
X38169Y-14071D01*
X38188Y-14052D01*
X38227Y-14033D01*
X38303Y-14033D01*
X38341Y-14052D01*
X38360Y-14071D01*
X38379Y-14109D01*
X38379Y-14128D01*
X38360Y-14166D01*
X38341Y-14185D01*
X38303Y-14204D01*
X38227Y-14204D01*
X38188Y-14224D01*
X38169Y-14243D01*
X38150Y-14281D01*
X38150Y-14357D01*
X38169Y-14395D01*
X38188Y-14414D01*
X38227Y-14433D01*
X38303Y-14433D01*
X38341Y-14414D01*
X38360Y-14395D01*
X38379Y-14357D01*
X38379Y-14281D01*
X38360Y-14243D01*
X38341Y-14224D01*
X38303Y-14204D01*
X38531Y-14071D02*
X38550Y-14052D01*
X38588Y-14033D01*
X38684Y-14033D01*
X38722Y-14052D01*
X38741Y-14071D01*
X38760Y-14109D01*
X38760Y-14147D01*
X38741Y-14204D01*
X38512Y-14433D01*
X38760Y-14433D01*
X38893Y-14033D02*
X39141Y-14033D01*
X39007Y-14185D01*
X39065Y-14185D01*
X39103Y-14204D01*
X39122Y-14224D01*
X39141Y-14262D01*
X39141Y-14357D01*
X39122Y-14395D01*
X39103Y-14414D01*
X39065Y-14433D01*
X38950Y-14433D01*
X38912Y-14414D01*
X38893Y-14395D01*
X39369Y-14204D02*
X39331Y-14185D01*
X39312Y-14166D01*
X39293Y-14128D01*
X39293Y-14109D01*
X39312Y-14071D01*
X39331Y-14052D01*
X39369Y-14033D01*
X39446Y-14033D01*
X39484Y-14052D01*
X39503Y-14071D01*
X39522Y-14109D01*
X39522Y-14128D01*
X39503Y-14166D01*
X39484Y-14185D01*
X39446Y-14204D01*
X39369Y-14204D01*
X39331Y-14224D01*
X39312Y-14243D01*
X39293Y-14281D01*
X39293Y-14357D01*
X39312Y-14395D01*
X39331Y-14414D01*
X39369Y-14433D01*
X39446Y-14433D01*
X39484Y-14414D01*
X39503Y-14395D01*
X39522Y-14357D01*
X39522Y-14281D01*
X39503Y-14243D01*
X39484Y-14224D01*
X39446Y-14204D01*
X39178Y-22411D02*
X39483Y-22411D01*
X39330Y-22563D02*
X39330Y-22258D01*
X31619Y-20560D02*
X31924Y-20560D01*
X31619Y-21584D02*
X31924Y-21584D01*
X31771Y-21736D02*
X31771Y-21431D01*
G54D11*
X39763Y-22834D02*
X29921Y-22834D01*
G54D13*
X37893Y-14586D02*
G75*
G03X37736Y-14744I0J-157D01*
G74*
G01*
X38051Y-14744D02*
G75*
G03X37893Y-14586I-157J0D01*
G74*
G01*
G54D14*
X39393Y-14755D02*
X39393Y-15755D01*
X39393Y-15755D02*
X36393Y-15755D01*
X36393Y-15755D02*
X36393Y-14755D01*
X36393Y-14755D02*
X39393Y-14755D01*
X38393Y-15755D02*
X38393Y-14755D01*
G54D15*
X38483Y-16850D02*
X38483Y-16929D01*
X38483Y-16929D02*
X38542Y-16929D01*
X38542Y-16850D02*
X38542Y-16929D01*
X38483Y-16850D02*
X38542Y-16850D01*
X38424Y-16919D02*
X38424Y-16939D01*
X38424Y-16939D02*
X38444Y-16939D01*
X38444Y-16919D02*
X38444Y-16939D01*
X38424Y-16919D02*
X38444Y-16919D01*
X38345Y-16850D02*
X38345Y-16870D01*
X38345Y-16870D02*
X38493Y-16870D01*
X38493Y-16850D02*
X38493Y-16870D01*
X38345Y-16850D02*
X38493Y-16850D01*
X38424Y-17125D02*
X38424Y-17204D01*
X38424Y-17204D02*
X38542Y-17204D01*
X38542Y-17125D02*
X38542Y-17204D01*
X38424Y-17125D02*
X38542Y-17125D01*
X38345Y-16850D02*
X38345Y-17204D01*
X38345Y-17204D02*
X38434Y-17204D01*
X38434Y-16850D02*
X38434Y-17204D01*
X38345Y-16850D02*
X38434Y-16850D01*
X37874Y-16850D02*
X37874Y-16929D01*
X37874Y-16929D02*
X38071Y-16929D01*
X38071Y-16850D02*
X38071Y-16929D01*
X37874Y-16850D02*
X38071Y-16850D01*
X37874Y-17125D02*
X37874Y-17204D01*
X37874Y-17204D02*
X38071Y-17204D01*
X38071Y-17125D02*
X38071Y-17204D01*
X37874Y-17125D02*
X38071Y-17125D01*
X37982Y-16919D02*
X37982Y-17135D01*
X37982Y-17135D02*
X38071Y-17135D01*
X38071Y-16919D02*
X38071Y-17135D01*
X37982Y-16919D02*
X38071Y-16919D01*
X37953Y-16919D02*
X37953Y-16959D01*
X37953Y-16959D02*
X37992Y-16959D01*
X37992Y-16919D02*
X37992Y-16959D01*
X37953Y-16919D02*
X37992Y-16919D01*
X37953Y-17095D02*
X37953Y-17135D01*
X37953Y-17135D02*
X37992Y-17135D01*
X37992Y-17095D02*
X37992Y-17135D01*
X37953Y-17095D02*
X37992Y-17095D01*
X38208Y-16978D02*
X38208Y-17076D01*
X38208Y-17076D02*
X38306Y-17076D01*
X38306Y-16978D02*
X38306Y-17076D01*
X38208Y-16978D02*
X38306Y-16978D01*
G54D16*
X38355Y-16870D02*
X38071Y-16870D01*
X38345Y-17184D02*
X38071Y-17184D01*
G54D17*
X38474Y-16890D02*
G75*
G03X38474Y-16890I-19J0D01*
G74*
G01*
G54D16*
X38532Y-16909D02*
G75*
G03X38532Y-17145I0J-118D01*
G74*
G01*
G54D18*
X37884Y-17135D02*
G75*
G03X37884Y-16919I0J108D01*
G74*
G01*
G54D11*
X33366Y-16279D02*
X33366Y-14311D01*
X30374Y-14311D02*
X30374Y-16279D01*
X30374Y-16279D02*
X33366Y-16279D01*
X33366Y-14311D02*
X30413Y-14311D01*
X30413Y-14311D02*
X30374Y-14311D01*
X33602Y-14075D02*
X33602Y-15295D01*
X33602Y-14075D02*
X32342Y-14075D01*
G54D15*
X35156Y-15430D02*
X35156Y-15175D01*
X35156Y-15175D02*
X34605Y-15175D01*
X34605Y-15430D02*
X34605Y-15175D01*
X35156Y-15430D02*
X34605Y-15430D01*
X35156Y-16010D02*
X35156Y-15754D01*
X35156Y-15754D02*
X34605Y-15754D01*
X34605Y-16010D02*
X34605Y-15754D01*
X35156Y-16010D02*
X34605Y-16010D01*
X35077Y-15668D02*
X35077Y-15512D01*
X35077Y-15512D02*
X34685Y-15512D01*
X34685Y-15668D02*
X34685Y-15512D01*
X35077Y-15668D02*
X34685Y-15668D01*
G54D19*
X34631Y-15751D02*
X34631Y-15429D01*
X35131Y-15751D02*
X35131Y-15429D01*
G54D18*
X34494Y-16366D02*
X34494Y-14814D01*
X34494Y-14814D02*
X35268Y-14814D01*
X35268Y-14814D02*
X35268Y-16366D01*
X35268Y-16366D02*
X34494Y-16366D01*
G54D15*
X37759Y-16603D02*
X38054Y-16603D01*
X38054Y-16603D02*
X38054Y-16033D01*
X37759Y-16033D02*
X38054Y-16033D01*
X37759Y-16603D02*
X37759Y-16033D01*
X38328Y-16603D02*
X38623Y-16603D01*
X38623Y-16603D02*
X38623Y-16033D01*
X38328Y-16033D02*
X38623Y-16033D01*
X38328Y-16603D02*
X38328Y-16033D01*
X38149Y-16475D02*
X38227Y-16475D01*
X38227Y-16475D02*
X38227Y-16161D01*
X38149Y-16161D02*
X38227Y-16161D01*
X38149Y-16475D02*
X38149Y-16161D01*
G54D18*
X37412Y-15931D02*
X38964Y-15931D01*
X38964Y-16705D02*
X37412Y-16705D01*
X37412Y-16705D02*
X37412Y-15931D01*
G54D16*
X38038Y-16059D02*
X38338Y-16059D01*
X38048Y-16577D02*
X38338Y-16577D01*
G54D18*
X38964Y-15931D02*
X38964Y-16705D01*
G54D15*
X39162Y-18893D02*
X39162Y-18598D01*
X39162Y-18598D02*
X38592Y-18598D01*
X38592Y-18893D02*
X38592Y-18598D01*
X39162Y-18893D02*
X38592Y-18893D01*
X39162Y-18324D02*
X39162Y-18029D01*
X39162Y-18029D02*
X38592Y-18029D01*
X38592Y-18324D02*
X38592Y-18029D01*
X39162Y-18324D02*
X38592Y-18324D01*
X39034Y-18503D02*
X39034Y-18425D01*
X39034Y-18425D02*
X38720Y-18425D01*
X38720Y-18503D02*
X38720Y-18425D01*
X39034Y-18503D02*
X38720Y-18503D01*
G54D18*
X38490Y-19240D02*
X38490Y-17688D01*
X39264Y-17688D02*
X39264Y-19240D01*
X39264Y-19240D02*
X38490Y-19240D01*
G54D16*
X38618Y-18614D02*
X38618Y-18314D01*
X39136Y-18604D02*
X39136Y-18314D01*
G54D18*
X38490Y-17688D02*
X39264Y-17688D01*
G54D15*
X36052Y-16019D02*
X36052Y-15724D01*
X36052Y-15724D02*
X35482Y-15724D01*
X35482Y-16019D02*
X35482Y-15724D01*
X36052Y-16019D02*
X35482Y-16019D01*
X36052Y-15450D02*
X36052Y-15155D01*
X36052Y-15155D02*
X35482Y-15155D01*
X35482Y-15450D02*
X35482Y-15155D01*
X36052Y-15450D02*
X35482Y-15450D01*
X35924Y-15629D02*
X35924Y-15551D01*
X35924Y-15551D02*
X35610Y-15551D01*
X35610Y-15629D02*
X35610Y-15551D01*
X35924Y-15629D02*
X35610Y-15629D01*
G54D18*
X35380Y-16366D02*
X35380Y-14814D01*
X36154Y-14814D02*
X36154Y-16366D01*
X36154Y-16366D02*
X35380Y-16366D01*
G54D16*
X35508Y-15740D02*
X35508Y-15440D01*
X36026Y-15730D02*
X36026Y-15440D01*
G54D18*
X35380Y-14814D02*
X36154Y-14814D01*
G54D13*
X32185Y-22480D02*
X32185Y-19330D01*
X32185Y-19330D02*
X37185Y-19330D01*
X37185Y-19330D02*
X37185Y-22480D01*
X37185Y-22480D02*
X32185Y-22480D01*
X36774Y-21975D02*
X36774Y-21635D01*
X36774Y-21635D02*
X35634Y-21635D01*
X35634Y-21975D02*
X35634Y-21635D01*
X36774Y-21975D02*
X35634Y-21975D01*
X36774Y-20175D02*
X36774Y-19835D01*
X36774Y-19835D02*
X35634Y-19835D01*
X35634Y-20175D02*
X35634Y-19835D01*
X36774Y-20175D02*
X35634Y-20175D01*
X35934Y-21075D02*
X35934Y-20735D01*
X35934Y-20735D02*
X35634Y-20735D01*
X35634Y-21075D02*
X35634Y-20735D01*
X35934Y-21075D02*
X35634Y-21075D01*
X33234Y-19615D02*
X35594Y-19615D01*
X35594Y-19615D02*
X35594Y-22195D01*
X35594Y-22195D02*
X33234Y-22195D01*
X33235Y-22195D02*
X33235Y-19615D01*
X33194Y-21915D02*
X32914Y-21915D01*
X32914Y-21915D02*
X32734Y-21735D01*
X32734Y-21735D02*
X32734Y-20075D01*
X32734Y-20075D02*
X32914Y-19895D01*
X32914Y-19895D02*
X33194Y-19895D01*
X33194Y-19895D02*
X33194Y-21915D01*
X33194Y-21915D02*
X32914Y-21915D01*
X32914Y-21915D02*
X32734Y-21735D01*
X32734Y-21735D02*
X32734Y-20075D01*
X32734Y-20075D02*
X32914Y-19895D01*
X32914Y-19895D02*
X33194Y-19895D01*
X33194Y-19895D02*
X33194Y-21915D01*
G54D15*
X36725Y-21075D02*
X36885Y-21075D01*
X36885Y-21075D02*
X36885Y-20735D01*
X36725Y-20735D02*
X36885Y-20735D01*
X36725Y-21075D02*
X36725Y-20735D01*
X36225Y-21075D02*
X36385Y-21075D01*
X36385Y-21075D02*
X36385Y-20735D01*
X36225Y-20735D02*
X36385Y-20735D01*
X36225Y-21075D02*
X36225Y-20735D01*
X36477Y-21062D02*
X36633Y-21062D01*
X36633Y-21062D02*
X36633Y-20748D01*
X36477Y-20748D02*
X36633Y-20748D01*
X36477Y-21062D02*
X36477Y-20748D01*
G54D19*
X36385Y-21045D02*
X36725Y-21045D01*
X36725Y-20765D02*
X36385Y-20765D01*
G54D18*
X35976Y-20518D02*
X37134Y-20518D01*
X37134Y-20518D02*
X37134Y-21292D01*
X37134Y-21292D02*
X35976Y-21292D01*
X35976Y-21292D02*
X35976Y-20518D01*
G54D11*
X31555Y-16555D02*
X31555Y-19389D01*
X31555Y-19389D02*
X30374Y-19389D01*
X30374Y-19389D02*
X30374Y-16555D01*
X30374Y-16555D02*
X31555Y-16555D01*
G54D15*
X37566Y-22099D02*
X37566Y-22259D01*
X37566Y-22259D02*
X37906Y-22259D01*
X37906Y-22099D02*
X37906Y-22259D01*
X37566Y-22099D02*
X37906Y-22099D01*
X37566Y-21599D02*
X37566Y-21759D01*
X37566Y-21759D02*
X37906Y-21759D01*
X37906Y-21599D02*
X37906Y-21759D01*
X37566Y-21599D02*
X37906Y-21599D01*
X37579Y-21851D02*
X37579Y-22007D01*
X37579Y-22007D02*
X37893Y-22007D01*
X37893Y-21851D02*
X37893Y-22007D01*
X37579Y-21851D02*
X37893Y-21851D01*
G54D19*
X37596Y-21759D02*
X37596Y-22099D01*
X37876Y-22099D02*
X37876Y-21759D01*
G54D18*
X38123Y-21350D02*
X38123Y-22508D01*
X38123Y-22508D02*
X37349Y-22508D01*
X37349Y-22508D02*
X37349Y-21350D01*
X37349Y-21350D02*
X38123Y-21350D01*
G54D20*
X36358Y-16791D02*
X36358Y-19153D01*
X36358Y-19153D02*
X32027Y-19153D01*
X32027Y-19153D02*
X32027Y-16791D01*
X32027Y-16791D02*
X36358Y-16791D01*
G54D21*
X33142Y-17297D02*
X32592Y-17297D01*
X32592Y-17297D02*
X32592Y-17147D01*
X32592Y-17147D02*
X33142Y-17147D01*
X33142Y-17797D02*
X32592Y-17797D01*
X32592Y-17797D02*
X32592Y-17647D01*
X32592Y-17647D02*
X33142Y-17647D01*
X33142Y-18297D02*
X32592Y-18297D01*
X32592Y-18297D02*
X32592Y-18147D01*
X32592Y-18147D02*
X33142Y-18147D01*
X33142Y-18797D02*
X32592Y-18797D01*
X32592Y-18797D02*
X32592Y-18647D01*
X32592Y-18647D02*
X33142Y-18647D01*
X35242Y-17147D02*
X35792Y-17147D01*
X35792Y-17147D02*
X35792Y-17297D01*
X35792Y-17297D02*
X35242Y-17297D01*
X35242Y-17647D02*
X35792Y-17647D01*
X35792Y-17647D02*
X35792Y-17797D01*
X35792Y-17797D02*
X35242Y-17797D01*
X35242Y-18147D02*
X35792Y-18147D01*
X35792Y-18147D02*
X35792Y-18297D01*
X35792Y-18297D02*
X35242Y-18297D01*
X35792Y-18647D02*
X35792Y-18797D01*
X35242Y-18647D02*
X35792Y-18647D01*
X35792Y-18797D02*
X35242Y-18797D01*
G54D20*
X33528Y-17283D02*
G75*
G03X33528Y-17283I-44J0D01*
G74*
G01*
X35236Y-18996D02*
X33149Y-18996D01*
X33149Y-18996D02*
X33149Y-16948D01*
X33149Y-16948D02*
X35236Y-16948D01*
X35236Y-16948D02*
X35236Y-18996D01*
G54D22*
X37071Y-17766D02*
X37771Y-17766D01*
X37771Y-17766D02*
X37771Y-18966D01*
X37771Y-18966D02*
X37071Y-18966D01*
X37071Y-18966D02*
X37071Y-17766D01*
G54D15*
X37040Y-16877D02*
X37040Y-16717D01*
X37040Y-16717D02*
X36700Y-16717D01*
X36700Y-16877D02*
X36700Y-16717D01*
X37040Y-16877D02*
X36700Y-16877D01*
X37040Y-17377D02*
X37040Y-17217D01*
X37040Y-17217D02*
X36700Y-17217D01*
X36700Y-17377D02*
X36700Y-17217D01*
X37040Y-17377D02*
X36700Y-17377D01*
X37027Y-17125D02*
X37027Y-16969D01*
X37027Y-16969D02*
X36713Y-16969D01*
X36713Y-17125D02*
X36713Y-16969D01*
X37027Y-17125D02*
X36713Y-17125D01*
G54D19*
X37010Y-17217D02*
X37010Y-16877D01*
X36730Y-16877D02*
X36730Y-17217D01*
G54D18*
X36483Y-17626D02*
X36483Y-16468D01*
X36483Y-16468D02*
X37257Y-16468D01*
X37257Y-16468D02*
X37257Y-17626D01*
X37257Y-17626D02*
X36483Y-17626D01*
G54D23*
X37838Y-17627D02*
X37838Y-17312D01*
X37913Y-17312D01*
X37958Y-17327D01*
X37988Y-17357D01*
X38003Y-17387D01*
X38018Y-17447D01*
X38018Y-17492D01*
X38003Y-17552D01*
X37988Y-17582D01*
X37958Y-17612D01*
X37913Y-17627D01*
X37838Y-17627D01*
X38318Y-17627D02*
X38138Y-17627D01*
X38228Y-17627D02*
X38228Y-17312D01*
X38198Y-17357D01*
X38168Y-17387D01*
X38138Y-17402D01*
G54D20*
X34230Y-16170D02*
X33797Y-16170D01*
X34209Y-15985D02*
X34230Y-15923D01*
X34230Y-15820D01*
X34209Y-15778D01*
X34189Y-15758D01*
X34147Y-15737D01*
X34106Y-15737D01*
X34065Y-15758D01*
X34044Y-15778D01*
X34024Y-15820D01*
X34003Y-15902D01*
X33982Y-15943D01*
X33962Y-15964D01*
X33921Y-15985D01*
X33879Y-15985D01*
X33838Y-15964D01*
X33817Y-15943D01*
X33797Y-15902D01*
X33797Y-15799D01*
X33817Y-15737D01*
X34230Y-15552D02*
X33797Y-15552D01*
X33797Y-15387D01*
X33817Y-15345D01*
X33838Y-15325D01*
X33879Y-15304D01*
X33941Y-15304D01*
X33982Y-15325D01*
X34003Y-15345D01*
X34024Y-15387D01*
X34024Y-15552D01*
X35076Y-14402D02*
X34870Y-14547D01*
X35076Y-14650D02*
X34643Y-14650D01*
X34643Y-14485D01*
X34664Y-14444D01*
X34685Y-14423D01*
X34726Y-14402D01*
X34788Y-14402D01*
X34829Y-14423D01*
X34850Y-14444D01*
X34870Y-14485D01*
X34870Y-14650D01*
X35076Y-13990D02*
X35076Y-14237D01*
X35076Y-14114D02*
X34643Y-14114D01*
X34705Y-14155D01*
X34746Y-14196D01*
X34767Y-14237D01*
G54D23*
X39408Y-16371D02*
X39423Y-16386D01*
X39438Y-16431D01*
X39438Y-16461D01*
X39423Y-16506D01*
X39393Y-16536D01*
X39363Y-16551D01*
X39303Y-16566D01*
X39258Y-16566D01*
X39198Y-16551D01*
X39168Y-16536D01*
X39138Y-16506D01*
X39123Y-16461D01*
X39123Y-16431D01*
X39138Y-16386D01*
X39153Y-16371D01*
X39123Y-16266D02*
X39123Y-16071D01*
X39243Y-16176D01*
X39243Y-16131D01*
X39258Y-16101D01*
X39273Y-16086D01*
X39303Y-16071D01*
X39378Y-16071D01*
X39408Y-16086D01*
X39423Y-16101D01*
X39438Y-16131D01*
X39438Y-16221D01*
X39423Y-16251D01*
X39408Y-16266D01*
X39002Y-17577D02*
X38987Y-17592D01*
X38942Y-17607D01*
X38912Y-17607D01*
X38867Y-17592D01*
X38837Y-17562D01*
X38822Y-17532D01*
X38807Y-17472D01*
X38807Y-17427D01*
X38822Y-17367D01*
X38837Y-17337D01*
X38867Y-17307D01*
X38912Y-17292D01*
X38942Y-17292D01*
X38987Y-17307D01*
X39002Y-17322D01*
X39122Y-17322D02*
X39137Y-17307D01*
X39167Y-17292D01*
X39242Y-17292D01*
X39272Y-17307D01*
X39287Y-17322D01*
X39302Y-17352D01*
X39302Y-17382D01*
X39287Y-17427D01*
X39107Y-17607D01*
X39302Y-17607D01*
G54D20*
X35901Y-14402D02*
X35922Y-14423D01*
X35943Y-14485D01*
X35943Y-14526D01*
X35922Y-14588D01*
X35881Y-14629D01*
X35839Y-14650D01*
X35757Y-14670D01*
X35695Y-14670D01*
X35613Y-14650D01*
X35571Y-14629D01*
X35530Y-14588D01*
X35509Y-14526D01*
X35509Y-14485D01*
X35530Y-14423D01*
X35551Y-14402D01*
X35943Y-13990D02*
X35943Y-14237D01*
X35943Y-14114D02*
X35509Y-14114D01*
X35571Y-14155D01*
X35613Y-14196D01*
X35633Y-14237D01*
X37360Y-20054D02*
X37360Y-19806D01*
X37793Y-19930D02*
X37360Y-19930D01*
X37793Y-19435D02*
X37793Y-19683D01*
X37793Y-19559D02*
X37360Y-19559D01*
X37422Y-19600D01*
X37463Y-19641D01*
X37484Y-19683D01*
G54D23*
X37666Y-20958D02*
X37516Y-21062D01*
X37666Y-21137D02*
X37351Y-21137D01*
X37351Y-21017D01*
X37366Y-20988D01*
X37381Y-20973D01*
X37411Y-20958D01*
X37456Y-20958D01*
X37486Y-20973D01*
X37501Y-20988D01*
X37516Y-21017D01*
X37516Y-21137D01*
X37381Y-20838D02*
X37366Y-20823D01*
X37351Y-20793D01*
X37351Y-20718D01*
X37366Y-20688D01*
X37381Y-20673D01*
X37411Y-20658D01*
X37441Y-20658D01*
X37486Y-20673D01*
X37666Y-20853D01*
X37666Y-20658D01*
X38611Y-22454D02*
X38461Y-22559D01*
X38611Y-22634D02*
X38296Y-22634D01*
X38296Y-22514D01*
X38311Y-22484D01*
X38326Y-22469D01*
X38356Y-22454D01*
X38401Y-22454D01*
X38431Y-22469D01*
X38446Y-22484D01*
X38461Y-22514D01*
X38461Y-22634D01*
X38296Y-22349D02*
X38296Y-22154D01*
X38416Y-22259D01*
X38416Y-22214D01*
X38431Y-22184D01*
X38446Y-22169D01*
X38476Y-22154D01*
X38551Y-22154D01*
X38581Y-22169D01*
X38596Y-22184D01*
X38611Y-22214D01*
X38611Y-22304D01*
X38596Y-22334D01*
X38581Y-22349D01*
G54D20*
X34407Y-18355D02*
X33974Y-18355D01*
X34366Y-17902D02*
X34386Y-17922D01*
X34407Y-17984D01*
X34407Y-18025D01*
X34386Y-18087D01*
X34345Y-18128D01*
X34304Y-18149D01*
X34221Y-18170D01*
X34160Y-18170D01*
X34077Y-18149D01*
X34036Y-18128D01*
X33995Y-18087D01*
X33974Y-18025D01*
X33974Y-17984D01*
X33995Y-17922D01*
X34015Y-17902D01*
X34407Y-17489D02*
X34407Y-17737D01*
X34407Y-17613D02*
X33974Y-17613D01*
X34036Y-17654D01*
X34077Y-17695D01*
X34098Y-17737D01*
X37226Y-18646D02*
X37544Y-18646D01*
X37582Y-18627D01*
X37601Y-18608D01*
X37619Y-18571D01*
X37619Y-18496D01*
X37601Y-18458D01*
X37582Y-18440D01*
X37544Y-18421D01*
X37226Y-18421D01*
X37263Y-18252D02*
X37245Y-18233D01*
X37226Y-18196D01*
X37226Y-18102D01*
X37245Y-18065D01*
X37263Y-18046D01*
X37301Y-18027D01*
X37338Y-18027D01*
X37395Y-18046D01*
X37619Y-18271D01*
X37619Y-18027D01*
G54D23*
X36817Y-16328D02*
X36712Y-16178D01*
X36637Y-16328D02*
X36637Y-16013D01*
X36757Y-16013D01*
X36787Y-16028D01*
X36802Y-16043D01*
X36817Y-16073D01*
X36817Y-16118D01*
X36802Y-16148D01*
X36787Y-16163D01*
X36757Y-16178D01*
X36637Y-16178D01*
X37087Y-16118D02*
X37087Y-16328D01*
X37012Y-15998D02*
X36937Y-16223D01*
X37132Y-16223D01*
%LPC*%
G54D24*
X38893Y-15255D03*
G54D25*
X37893Y-15255D03*
X36893Y-15255D03*
G54D26*
X37913Y-17027D03*
X38503Y-17027D03*
G54D27*
X38877Y-21562D03*
G54D28*
X38877Y-20562D03*
G54D27*
X30787Y-21562D03*
G54D28*
X30787Y-20562D03*
G54D24*
X32870Y-14795D03*
G54D25*
X32870Y-15795D03*
X31870Y-14795D03*
X31870Y-15795D03*
X30870Y-14795D03*
X30870Y-15795D03*
G54D29*
X34881Y-15964D03*
X34881Y-15216D03*
G54D30*
X37814Y-16318D03*
X38562Y-16318D03*
G54D29*
X38877Y-18838D03*
X38877Y-18090D03*
X35767Y-15964D03*
X35767Y-15216D03*
G54D31*
X36476Y-21811D03*
X36476Y-20000D03*
G54D32*
X33760Y-20905D03*
G54D33*
X36221Y-20905D03*
X36889Y-20905D03*
G54D34*
X30964Y-16988D03*
G54D35*
X30964Y-17972D03*
G54D34*
X30964Y-18956D03*
G54D36*
X37736Y-21595D03*
X37736Y-22263D03*
G54D37*
X32692Y-17222D03*
X32692Y-17722D03*
X32692Y-18222D03*
X32692Y-18722D03*
X35692Y-18722D03*
X35692Y-18222D03*
X35692Y-17722D03*
X35692Y-17222D03*
G54D38*
X37921Y-18741D03*
X37921Y-17991D03*
X36921Y-18741D03*
X37921Y-18366D03*
X36921Y-17991D03*
G54D36*
X36870Y-17381D03*
X36870Y-16713D03*
M02*
