M48
INCH,TZ
T1C0.013
T2C0.040
T3C0.049
%
G90
G05
T1
X031024Y-019764
X032677Y-019783
X032677Y-020177
X033071Y-019783
X033071Y-020177
X033465Y-019783
X033465Y-020177
X033500Y-016110
X033858Y-019783
X033858Y-020177
X034055Y-016417
X034060Y-015100
X034252Y-019783
X034252Y-020177
X034646Y-019783
X034646Y-020177
X037205Y-018740
X037480Y-017323
X037870Y-016760
X038465Y-017362
X039220Y-018020
T2
X030670Y-014680
X030670Y-015680
X031670Y-014680
X031670Y-015680
X032670Y-014680
X032670Y-015680
X036894Y-015256
X037894Y-015256
X038894Y-015256
T3
X030787Y-020563
X030787Y-021563
X038878Y-020563
X038878Y-021563
T0
M30
