G04 (created by PCBNEW (2013-05-16 BZR 4153)-testing) date Fri 17 May 2013 11:34:26 PM CEST*
%MOIN*%
G04 Gerber Fmt 3.4, Leading zero omitted, Abs format*
%FSLAX34Y34*%
G01*
G70*
G90*
G04 APERTURE LIST*
%ADD10C,0.005906*%
%ADD11C,0.007874*%
G04 APERTURE END LIST*
G54D10*
G54D11*
X40412Y-20134D02*
X40393Y-20116D01*
X40374Y-20078D01*
X40374Y-19985D01*
X40393Y-19947D01*
X40412Y-19928D01*
X40449Y-19910D01*
X40487Y-19910D01*
X40543Y-19928D01*
X40768Y-20153D01*
X40768Y-19910D01*
X40412Y-19760D02*
X40393Y-19741D01*
X40374Y-19703D01*
X40374Y-19610D01*
X40393Y-19572D01*
X40412Y-19553D01*
X40449Y-19535D01*
X40487Y-19535D01*
X40543Y-19553D01*
X40768Y-19778D01*
X40768Y-19535D01*
X40731Y-19366D02*
X40749Y-19347D01*
X40768Y-19366D01*
X40749Y-19385D01*
X40731Y-19366D01*
X40768Y-19366D01*
X40374Y-19103D02*
X40374Y-19066D01*
X40393Y-19028D01*
X40412Y-19010D01*
X40449Y-18991D01*
X40524Y-18972D01*
X40618Y-18972D01*
X40693Y-18991D01*
X40731Y-19010D01*
X40749Y-19028D01*
X40768Y-19066D01*
X40768Y-19103D01*
X40749Y-19141D01*
X40731Y-19160D01*
X40693Y-19178D01*
X40618Y-19197D01*
X40524Y-19197D01*
X40449Y-19178D01*
X40412Y-19160D01*
X40393Y-19141D01*
X40374Y-19103D01*
X40374Y-18728D02*
X40374Y-18691D01*
X40393Y-18653D01*
X40412Y-18635D01*
X40449Y-18616D01*
X40524Y-18597D01*
X40618Y-18597D01*
X40693Y-18616D01*
X40731Y-18635D01*
X40749Y-18653D01*
X40768Y-18691D01*
X40768Y-18728D01*
X40749Y-18766D01*
X40731Y-18785D01*
X40693Y-18803D01*
X40618Y-18822D01*
X40524Y-18822D01*
X40449Y-18803D01*
X40412Y-18785D01*
X40393Y-18766D01*
X40374Y-18728D01*
X40374Y-18353D02*
X40374Y-18316D01*
X40393Y-18278D01*
X40412Y-18260D01*
X40449Y-18241D01*
X40524Y-18222D01*
X40618Y-18222D01*
X40693Y-18241D01*
X40731Y-18260D01*
X40749Y-18278D01*
X40768Y-18316D01*
X40768Y-18353D01*
X40749Y-18391D01*
X40731Y-18410D01*
X40693Y-18428D01*
X40618Y-18447D01*
X40524Y-18447D01*
X40449Y-18428D01*
X40412Y-18410D01*
X40393Y-18391D01*
X40374Y-18353D01*
X40768Y-17754D02*
X40506Y-17754D01*
X40543Y-17754D02*
X40524Y-17735D01*
X40506Y-17697D01*
X40506Y-17641D01*
X40524Y-17604D01*
X40562Y-17585D01*
X40768Y-17585D01*
X40562Y-17585D02*
X40524Y-17566D01*
X40506Y-17529D01*
X40506Y-17472D01*
X40524Y-17435D01*
X40562Y-17416D01*
X40768Y-17416D01*
X40768Y-17229D02*
X40506Y-17229D01*
X40543Y-17229D02*
X40524Y-17210D01*
X40506Y-17172D01*
X40506Y-17116D01*
X40524Y-17079D01*
X40562Y-17060D01*
X40768Y-17060D01*
X40562Y-17060D02*
X40524Y-17041D01*
X40506Y-17004D01*
X40506Y-16947D01*
X40524Y-16910D01*
X40562Y-16891D01*
X40768Y-16891D01*
X40236Y-22834D02*
X40236Y-14173D01*
X39763Y-22834D02*
X40944Y-22834D01*
X39763Y-14173D02*
X40944Y-14173D01*
X40236Y-14173D02*
X40467Y-14616D01*
X40236Y-14173D02*
X40005Y-14616D01*
X40236Y-22834D02*
X40467Y-22391D01*
X40236Y-22834D02*
X40005Y-22391D01*
X33211Y-13168D02*
X33230Y-13149D01*
X33267Y-13130D01*
X33361Y-13130D01*
X33398Y-13149D01*
X33417Y-13168D01*
X33436Y-13205D01*
X33436Y-13243D01*
X33417Y-13299D01*
X33192Y-13524D01*
X33436Y-13524D01*
X33792Y-13130D02*
X33605Y-13130D01*
X33586Y-13318D01*
X33605Y-13299D01*
X33642Y-13280D01*
X33736Y-13280D01*
X33773Y-13299D01*
X33792Y-13318D01*
X33811Y-13355D01*
X33811Y-13449D01*
X33792Y-13487D01*
X33773Y-13505D01*
X33736Y-13524D01*
X33642Y-13524D01*
X33605Y-13505D01*
X33586Y-13487D01*
X33980Y-13487D02*
X33998Y-13505D01*
X33980Y-13524D01*
X33961Y-13505D01*
X33980Y-13487D01*
X33980Y-13524D01*
X34242Y-13130D02*
X34280Y-13130D01*
X34317Y-13149D01*
X34336Y-13168D01*
X34355Y-13205D01*
X34373Y-13280D01*
X34373Y-13374D01*
X34355Y-13449D01*
X34336Y-13487D01*
X34317Y-13505D01*
X34280Y-13524D01*
X34242Y-13524D01*
X34205Y-13505D01*
X34186Y-13487D01*
X34167Y-13449D01*
X34148Y-13374D01*
X34148Y-13280D01*
X34167Y-13205D01*
X34186Y-13168D01*
X34205Y-13149D01*
X34242Y-13130D01*
X34617Y-13130D02*
X34655Y-13130D01*
X34692Y-13149D01*
X34711Y-13168D01*
X34730Y-13205D01*
X34748Y-13280D01*
X34748Y-13374D01*
X34730Y-13449D01*
X34711Y-13487D01*
X34692Y-13505D01*
X34655Y-13524D01*
X34617Y-13524D01*
X34580Y-13505D01*
X34561Y-13487D01*
X34542Y-13449D01*
X34523Y-13374D01*
X34523Y-13280D01*
X34542Y-13205D01*
X34561Y-13168D01*
X34580Y-13149D01*
X34617Y-13130D01*
X34992Y-13130D02*
X35029Y-13130D01*
X35067Y-13149D01*
X35086Y-13168D01*
X35104Y-13205D01*
X35123Y-13280D01*
X35123Y-13374D01*
X35104Y-13449D01*
X35086Y-13487D01*
X35067Y-13505D01*
X35029Y-13524D01*
X34992Y-13524D01*
X34955Y-13505D01*
X34936Y-13487D01*
X34917Y-13449D01*
X34898Y-13374D01*
X34898Y-13280D01*
X34917Y-13205D01*
X34936Y-13168D01*
X34955Y-13149D01*
X34992Y-13130D01*
X35592Y-13524D02*
X35592Y-13262D01*
X35592Y-13299D02*
X35611Y-13280D01*
X35648Y-13262D01*
X35704Y-13262D01*
X35742Y-13280D01*
X35761Y-13318D01*
X35761Y-13524D01*
X35761Y-13318D02*
X35779Y-13280D01*
X35817Y-13262D01*
X35873Y-13262D01*
X35911Y-13280D01*
X35929Y-13318D01*
X35929Y-13524D01*
X36117Y-13524D02*
X36117Y-13262D01*
X36117Y-13299D02*
X36136Y-13280D01*
X36173Y-13262D01*
X36229Y-13262D01*
X36267Y-13280D01*
X36286Y-13318D01*
X36286Y-13524D01*
X36286Y-13318D02*
X36304Y-13280D01*
X36342Y-13262D01*
X36398Y-13262D01*
X36436Y-13280D01*
X36454Y-13318D01*
X36454Y-13524D01*
X29921Y-13700D02*
X39763Y-13700D01*
X29921Y-14173D02*
X29921Y-12992D01*
X39763Y-14173D02*
X39763Y-12992D01*
X39763Y-13700D02*
X39320Y-13931D01*
X39763Y-13700D02*
X39320Y-13469D01*
X29921Y-13700D02*
X30364Y-13931D01*
X29921Y-13700D02*
X30364Y-13469D01*
X29921Y-14173D02*
X29921Y-22834D01*
X39763Y-22834D02*
X39763Y-14173D01*
X39763Y-14173D02*
X29921Y-14173D01*
X39763Y-22834D02*
X29921Y-22834D01*
M02*
