G04 (created by PCBNEW (2013-01-08 BZR 3894)-testing) date Wed 09 Jan 2013 06:54:24 PM CET*
%MOIN*%
G04 Gerber Fmt 3.4, Leading zero omitted, Abs format*
%FSLAX34Y34*%
G01*
G70*
G90*
G04 APERTURE LIST*
%ADD10C,3.14961e-06*%
%ADD11C,0.015*%
%ADD12R,0.0314X0.0314*%
%ADD13R,0.11811X0.0787402*%
%ADD14O,0.11811X0.0787402*%
%ADD15R,0.055X0.055*%
%ADD16C,0.055*%
%ADD17R,0.06X0.06*%
%ADD18C,0.06*%
%ADD19R,0.059X0.0511*%
%ADD20R,0.0511X0.059*%
%ADD21R,0.0984252X0.0590551*%
%ADD22R,0.275591X0.275591*%
%ADD23R,0.0393X0.0433*%
%ADD24R,0.149606X0.0472441*%
%ADD25R,0.149606X0.0551181*%
%ADD26R,0.0433X0.0393*%
%ADD27R,0.0866142X0.0275591*%
%ADD28R,0.03X0.02*%
G04 APERTURE END LIST*
G54D10*
G54D11*
X29921Y-13779D02*
X29921Y-22834D01*
X39763Y-22834D02*
X39763Y-13779D01*
X39763Y-13779D02*
X29921Y-13779D01*
X39763Y-22834D02*
X29921Y-22834D01*
G54D12*
X37913Y-17027D03*
X38503Y-17027D03*
G54D13*
X38877Y-21562D03*
G54D14*
X38877Y-20562D03*
G54D13*
X30787Y-21562D03*
G54D14*
X30787Y-20562D03*
G54D15*
X38893Y-15255D03*
G54D16*
X37893Y-15255D03*
X36893Y-15255D03*
G54D17*
X32870Y-14795D03*
G54D18*
X32870Y-15795D03*
X31870Y-14795D03*
X31870Y-15795D03*
X30870Y-14795D03*
X30870Y-15795D03*
G54D19*
X34881Y-15964D03*
X34881Y-15216D03*
G54D20*
X37814Y-16318D03*
X38562Y-16318D03*
G54D19*
X38877Y-18838D03*
X38877Y-18090D03*
X35767Y-15964D03*
X35767Y-15216D03*
G54D21*
X36476Y-21811D03*
X36476Y-20000D03*
G54D22*
X33760Y-20905D03*
G54D23*
X36221Y-20905D03*
X36889Y-20905D03*
G54D24*
X30964Y-16988D03*
G54D25*
X30964Y-17972D03*
G54D24*
X30964Y-18956D03*
G54D26*
X37736Y-21595D03*
X37736Y-22263D03*
G54D27*
X32692Y-17222D03*
X32692Y-17722D03*
X32692Y-18222D03*
X32692Y-18722D03*
X35692Y-18722D03*
X35692Y-18222D03*
X35692Y-17722D03*
X35692Y-17222D03*
G54D28*
X37921Y-18741D03*
X37921Y-17991D03*
X36921Y-18741D03*
X37921Y-18366D03*
X36921Y-17991D03*
G54D26*
X36870Y-17381D03*
X36870Y-16713D03*
M02*
