G04 (created by PCBNEW (2013-01-08 BZR 3894)-testing) date Wed 09 Jan 2013 04:33:42 PM CET*
%MOIN*%
G04 Gerber Fmt 3.4, Leading zero omitted, Abs format*
%FSLAX34Y34*%
G01*
G70*
G90*
G04 APERTURE LIST*
%ADD10C,3.14961e-06*%
%ADD11C,0.015*%
%ADD12C,0.008*%
%ADD13C,0.011811*%
%ADD14C,0.012*%
%ADD15C,0.0026*%
%ADD16C,0.006*%
%ADD17C,0.002*%
%ADD18C,0.004*%
%ADD19C,0.00984252*%
%ADD20C,0.00393701*%
%ADD21C,0.005*%
%ADD22C,0.00738189*%
%ADD23R,0.11811X0.0787402*%
%ADD24O,0.11811X0.0787402*%
%ADD25R,0.055X0.055*%
%ADD26C,0.055*%
%ADD27R,0.06X0.06*%
%ADD28C,0.06*%
%ADD29R,0.059X0.0511*%
%ADD30R,0.0511X0.059*%
%ADD31R,0.0984252X0.0590551*%
%ADD32R,0.275591X0.275591*%
%ADD33R,0.0393X0.0433*%
%ADD34R,0.149606X0.0472441*%
%ADD35R,0.149606X0.0551181*%
%ADD36R,0.0433X0.0393*%
%ADD37R,0.0866142X0.0275591*%
%ADD38R,0.03X0.02*%
%ADD39R,0.0394X0.0256*%
G04 APERTURE END LIST*
G54D10*
G54D11*
X29921Y-13779D02*
X29921Y-22834D01*
X39763Y-22834D02*
X39763Y-13779D01*
X39763Y-13779D02*
X29921Y-13779D01*
G54D12*
X39483Y-19989D02*
X39178Y-19989D01*
X38650Y-19748D02*
X38421Y-19748D01*
X38535Y-19748D02*
X38535Y-19348D01*
X38497Y-19405D01*
X38459Y-19443D01*
X38421Y-19462D01*
X38802Y-19386D02*
X38821Y-19367D01*
X38859Y-19348D01*
X38954Y-19348D01*
X38992Y-19367D01*
X39011Y-19386D01*
X39030Y-19424D01*
X39030Y-19462D01*
X39011Y-19519D01*
X38783Y-19748D01*
X39030Y-19748D01*
X39145Y-19348D02*
X39278Y-19748D01*
X39411Y-19348D01*
X30387Y-22202D02*
X30463Y-22202D01*
X30501Y-22221D01*
X30539Y-22259D01*
X30558Y-22336D01*
X30558Y-22469D01*
X30539Y-22545D01*
X30501Y-22583D01*
X30463Y-22602D01*
X30387Y-22602D01*
X30349Y-22583D01*
X30311Y-22545D01*
X30292Y-22469D01*
X30292Y-22336D01*
X30311Y-22259D01*
X30349Y-22221D01*
X30387Y-22202D01*
X30730Y-22202D02*
X30730Y-22526D01*
X30749Y-22564D01*
X30768Y-22583D01*
X30806Y-22602D01*
X30882Y-22602D01*
X30920Y-22583D01*
X30939Y-22564D01*
X30958Y-22526D01*
X30958Y-22202D01*
X31092Y-22202D02*
X31320Y-22202D01*
X31206Y-22602D02*
X31206Y-22202D01*
X36227Y-14033D02*
X36455Y-14033D01*
X36341Y-14433D02*
X36341Y-14033D01*
X36569Y-14414D02*
X36627Y-14433D01*
X36722Y-14433D01*
X36760Y-14414D01*
X36779Y-14395D01*
X36798Y-14357D01*
X36798Y-14319D01*
X36779Y-14281D01*
X36760Y-14262D01*
X36722Y-14243D01*
X36646Y-14224D01*
X36607Y-14204D01*
X36588Y-14185D01*
X36569Y-14147D01*
X36569Y-14109D01*
X36588Y-14071D01*
X36607Y-14052D01*
X36646Y-14033D01*
X36741Y-14033D01*
X36798Y-14052D01*
X37046Y-14033D02*
X37122Y-14033D01*
X37160Y-14052D01*
X37198Y-14090D01*
X37217Y-14166D01*
X37217Y-14300D01*
X37198Y-14376D01*
X37160Y-14414D01*
X37122Y-14433D01*
X37046Y-14433D01*
X37007Y-14414D01*
X36969Y-14376D01*
X36950Y-14300D01*
X36950Y-14166D01*
X36969Y-14090D01*
X37007Y-14052D01*
X37046Y-14033D01*
X37388Y-14433D02*
X37388Y-14033D01*
X37541Y-14033D01*
X37579Y-14052D01*
X37598Y-14071D01*
X37617Y-14109D01*
X37617Y-14166D01*
X37598Y-14204D01*
X37579Y-14224D01*
X37541Y-14243D01*
X37388Y-14243D01*
X37750Y-14033D02*
X37998Y-14033D01*
X37865Y-14185D01*
X37922Y-14185D01*
X37960Y-14204D01*
X37979Y-14224D01*
X37998Y-14262D01*
X37998Y-14357D01*
X37979Y-14395D01*
X37960Y-14414D01*
X37922Y-14433D01*
X37807Y-14433D01*
X37769Y-14414D01*
X37750Y-14395D01*
X38227Y-14204D02*
X38188Y-14185D01*
X38169Y-14166D01*
X38150Y-14128D01*
X38150Y-14109D01*
X38169Y-14071D01*
X38188Y-14052D01*
X38227Y-14033D01*
X38303Y-14033D01*
X38341Y-14052D01*
X38360Y-14071D01*
X38379Y-14109D01*
X38379Y-14128D01*
X38360Y-14166D01*
X38341Y-14185D01*
X38303Y-14204D01*
X38227Y-14204D01*
X38188Y-14224D01*
X38169Y-14243D01*
X38150Y-14281D01*
X38150Y-14357D01*
X38169Y-14395D01*
X38188Y-14414D01*
X38227Y-14433D01*
X38303Y-14433D01*
X38341Y-14414D01*
X38360Y-14395D01*
X38379Y-14357D01*
X38379Y-14281D01*
X38360Y-14243D01*
X38341Y-14224D01*
X38303Y-14204D01*
X38531Y-14071D02*
X38550Y-14052D01*
X38588Y-14033D01*
X38684Y-14033D01*
X38722Y-14052D01*
X38741Y-14071D01*
X38760Y-14109D01*
X38760Y-14147D01*
X38741Y-14204D01*
X38512Y-14433D01*
X38760Y-14433D01*
X38893Y-14033D02*
X39141Y-14033D01*
X39007Y-14185D01*
X39065Y-14185D01*
X39103Y-14204D01*
X39122Y-14224D01*
X39141Y-14262D01*
X39141Y-14357D01*
X39122Y-14395D01*
X39103Y-14414D01*
X39065Y-14433D01*
X38950Y-14433D01*
X38912Y-14414D01*
X38893Y-14395D01*
X39369Y-14204D02*
X39331Y-14185D01*
X39312Y-14166D01*
X39293Y-14128D01*
X39293Y-14109D01*
X39312Y-14071D01*
X39331Y-14052D01*
X39369Y-14033D01*
X39446Y-14033D01*
X39484Y-14052D01*
X39503Y-14071D01*
X39522Y-14109D01*
X39522Y-14128D01*
X39503Y-14166D01*
X39484Y-14185D01*
X39446Y-14204D01*
X39369Y-14204D01*
X39331Y-14224D01*
X39312Y-14243D01*
X39293Y-14281D01*
X39293Y-14357D01*
X39312Y-14395D01*
X39331Y-14414D01*
X39369Y-14433D01*
X39446Y-14433D01*
X39484Y-14414D01*
X39503Y-14395D01*
X39522Y-14357D01*
X39522Y-14281D01*
X39503Y-14243D01*
X39484Y-14224D01*
X39446Y-14204D01*
X39178Y-22411D02*
X39483Y-22411D01*
X39330Y-22563D02*
X39330Y-22258D01*
X31619Y-20560D02*
X31924Y-20560D01*
X31619Y-21584D02*
X31924Y-21584D01*
X31771Y-21736D02*
X31771Y-21431D01*
G54D11*
X39763Y-22834D02*
X29921Y-22834D01*
G54D13*
X37893Y-14586D02*
G75*
G03X37736Y-14744I0J-157D01*
G74*
G01*
X38051Y-14744D02*
G75*
G03X37893Y-14586I-157J0D01*
G74*
G01*
G54D14*
X39393Y-14755D02*
X39393Y-15755D01*
X39393Y-15755D02*
X36393Y-15755D01*
X36393Y-15755D02*
X36393Y-14755D01*
X36393Y-14755D02*
X39393Y-14755D01*
X38393Y-15755D02*
X38393Y-14755D01*
G54D11*
X33366Y-16279D02*
X33366Y-14311D01*
X30374Y-14311D02*
X30374Y-16279D01*
X30374Y-16279D02*
X33366Y-16279D01*
X33366Y-14311D02*
X30413Y-14311D01*
X30413Y-14311D02*
X30374Y-14311D01*
X33602Y-14075D02*
X33602Y-15295D01*
X33602Y-14075D02*
X32342Y-14075D01*
G54D15*
X35156Y-15430D02*
X35156Y-15175D01*
X35156Y-15175D02*
X34605Y-15175D01*
X34605Y-15430D02*
X34605Y-15175D01*
X35156Y-15430D02*
X34605Y-15430D01*
X35156Y-16010D02*
X35156Y-15754D01*
X35156Y-15754D02*
X34605Y-15754D01*
X34605Y-16010D02*
X34605Y-15754D01*
X35156Y-16010D02*
X34605Y-16010D01*
X35077Y-15668D02*
X35077Y-15512D01*
X35077Y-15512D02*
X34685Y-15512D01*
X34685Y-15668D02*
X34685Y-15512D01*
X35077Y-15668D02*
X34685Y-15668D01*
G54D16*
X34631Y-15751D02*
X34631Y-15429D01*
X35131Y-15751D02*
X35131Y-15429D01*
G54D17*
X34494Y-16366D02*
X34494Y-14814D01*
X34494Y-14814D02*
X35268Y-14814D01*
X35268Y-14814D02*
X35268Y-16366D01*
X35268Y-16366D02*
X34494Y-16366D01*
G54D15*
X36972Y-17174D02*
X37267Y-17174D01*
X37267Y-17174D02*
X37267Y-16604D01*
X36972Y-16604D02*
X37267Y-16604D01*
X36972Y-17174D02*
X36972Y-16604D01*
X37541Y-17174D02*
X37836Y-17174D01*
X37836Y-17174D02*
X37836Y-16604D01*
X37541Y-16604D02*
X37836Y-16604D01*
X37541Y-17174D02*
X37541Y-16604D01*
X37362Y-17046D02*
X37440Y-17046D01*
X37440Y-17046D02*
X37440Y-16732D01*
X37362Y-16732D02*
X37440Y-16732D01*
X37362Y-17046D02*
X37362Y-16732D01*
G54D17*
X36625Y-16502D02*
X38177Y-16502D01*
X38177Y-17276D02*
X36625Y-17276D01*
X36625Y-17276D02*
X36625Y-16502D01*
G54D18*
X37251Y-16630D02*
X37551Y-16630D01*
X37261Y-17148D02*
X37551Y-17148D01*
G54D17*
X38177Y-16502D02*
X38177Y-17276D01*
G54D15*
X39162Y-18519D02*
X39162Y-18224D01*
X39162Y-18224D02*
X38592Y-18224D01*
X38592Y-18519D02*
X38592Y-18224D01*
X39162Y-18519D02*
X38592Y-18519D01*
X39162Y-17950D02*
X39162Y-17655D01*
X39162Y-17655D02*
X38592Y-17655D01*
X38592Y-17950D02*
X38592Y-17655D01*
X39162Y-17950D02*
X38592Y-17950D01*
X39034Y-18129D02*
X39034Y-18051D01*
X39034Y-18051D02*
X38720Y-18051D01*
X38720Y-18129D02*
X38720Y-18051D01*
X39034Y-18129D02*
X38720Y-18129D01*
G54D17*
X38490Y-18866D02*
X38490Y-17314D01*
X39264Y-17314D02*
X39264Y-18866D01*
X39264Y-18866D02*
X38490Y-18866D01*
G54D18*
X38618Y-18240D02*
X38618Y-17940D01*
X39136Y-18230D02*
X39136Y-17940D01*
G54D17*
X38490Y-17314D02*
X39264Y-17314D01*
G54D15*
X36052Y-16019D02*
X36052Y-15724D01*
X36052Y-15724D02*
X35482Y-15724D01*
X35482Y-16019D02*
X35482Y-15724D01*
X36052Y-16019D02*
X35482Y-16019D01*
X36052Y-15450D02*
X36052Y-15155D01*
X36052Y-15155D02*
X35482Y-15155D01*
X35482Y-15450D02*
X35482Y-15155D01*
X36052Y-15450D02*
X35482Y-15450D01*
X35924Y-15629D02*
X35924Y-15551D01*
X35924Y-15551D02*
X35610Y-15551D01*
X35610Y-15629D02*
X35610Y-15551D01*
X35924Y-15629D02*
X35610Y-15629D01*
G54D17*
X35380Y-16366D02*
X35380Y-14814D01*
X36154Y-14814D02*
X36154Y-16366D01*
X36154Y-16366D02*
X35380Y-16366D01*
G54D18*
X35508Y-15740D02*
X35508Y-15440D01*
X36026Y-15730D02*
X36026Y-15440D01*
G54D17*
X35380Y-14814D02*
X36154Y-14814D01*
G54D13*
X32185Y-22480D02*
X32185Y-19330D01*
X32185Y-19330D02*
X37185Y-19330D01*
X37185Y-19330D02*
X37185Y-22480D01*
X37185Y-22480D02*
X32185Y-22480D01*
X36774Y-21975D02*
X36774Y-21635D01*
X36774Y-21635D02*
X35634Y-21635D01*
X35634Y-21975D02*
X35634Y-21635D01*
X36774Y-21975D02*
X35634Y-21975D01*
X36774Y-20175D02*
X36774Y-19835D01*
X36774Y-19835D02*
X35634Y-19835D01*
X35634Y-20175D02*
X35634Y-19835D01*
X36774Y-20175D02*
X35634Y-20175D01*
X35934Y-21075D02*
X35934Y-20735D01*
X35934Y-20735D02*
X35634Y-20735D01*
X35634Y-21075D02*
X35634Y-20735D01*
X35934Y-21075D02*
X35634Y-21075D01*
X33234Y-19615D02*
X35594Y-19615D01*
X35594Y-19615D02*
X35594Y-22195D01*
X35594Y-22195D02*
X33234Y-22195D01*
X33235Y-22195D02*
X33235Y-19615D01*
X33194Y-21915D02*
X32914Y-21915D01*
X32914Y-21915D02*
X32734Y-21735D01*
X32734Y-21735D02*
X32734Y-20075D01*
X32734Y-20075D02*
X32914Y-19895D01*
X32914Y-19895D02*
X33194Y-19895D01*
X33194Y-19895D02*
X33194Y-21915D01*
X33194Y-21915D02*
X32914Y-21915D01*
X32914Y-21915D02*
X32734Y-21735D01*
X32734Y-21735D02*
X32734Y-20075D01*
X32734Y-20075D02*
X32914Y-19895D01*
X32914Y-19895D02*
X33194Y-19895D01*
X33194Y-19895D02*
X33194Y-21915D01*
G54D15*
X36725Y-21075D02*
X36885Y-21075D01*
X36885Y-21075D02*
X36885Y-20735D01*
X36725Y-20735D02*
X36885Y-20735D01*
X36725Y-21075D02*
X36725Y-20735D01*
X36225Y-21075D02*
X36385Y-21075D01*
X36385Y-21075D02*
X36385Y-20735D01*
X36225Y-20735D02*
X36385Y-20735D01*
X36225Y-21075D02*
X36225Y-20735D01*
X36477Y-21062D02*
X36633Y-21062D01*
X36633Y-21062D02*
X36633Y-20748D01*
X36477Y-20748D02*
X36633Y-20748D01*
X36477Y-21062D02*
X36477Y-20748D01*
G54D16*
X36385Y-21045D02*
X36725Y-21045D01*
X36725Y-20765D02*
X36385Y-20765D01*
G54D17*
X35976Y-20518D02*
X37134Y-20518D01*
X37134Y-20518D02*
X37134Y-21292D01*
X37134Y-21292D02*
X35976Y-21292D01*
X35976Y-21292D02*
X35976Y-20518D01*
G54D11*
X31555Y-16555D02*
X31555Y-19389D01*
X31555Y-19389D02*
X30374Y-19389D01*
X30374Y-19389D02*
X30374Y-16555D01*
X30374Y-16555D02*
X31555Y-16555D01*
G54D15*
X37566Y-22099D02*
X37566Y-22259D01*
X37566Y-22259D02*
X37906Y-22259D01*
X37906Y-22099D02*
X37906Y-22259D01*
X37566Y-22099D02*
X37906Y-22099D01*
X37566Y-21599D02*
X37566Y-21759D01*
X37566Y-21759D02*
X37906Y-21759D01*
X37906Y-21599D02*
X37906Y-21759D01*
X37566Y-21599D02*
X37906Y-21599D01*
X37579Y-21851D02*
X37579Y-22007D01*
X37579Y-22007D02*
X37893Y-22007D01*
X37893Y-21851D02*
X37893Y-22007D01*
X37579Y-21851D02*
X37893Y-21851D01*
G54D16*
X37596Y-21759D02*
X37596Y-22099D01*
X37876Y-22099D02*
X37876Y-21759D01*
G54D17*
X38123Y-21350D02*
X38123Y-22508D01*
X38123Y-22508D02*
X37349Y-22508D01*
X37349Y-22508D02*
X37349Y-21350D01*
X37349Y-21350D02*
X38123Y-21350D01*
G54D19*
X36358Y-16791D02*
X36358Y-19153D01*
X36358Y-19153D02*
X32027Y-19153D01*
X32027Y-19153D02*
X32027Y-16791D01*
X32027Y-16791D02*
X36358Y-16791D01*
G54D20*
X33142Y-17297D02*
X32592Y-17297D01*
X32592Y-17297D02*
X32592Y-17147D01*
X32592Y-17147D02*
X33142Y-17147D01*
X33142Y-17797D02*
X32592Y-17797D01*
X32592Y-17797D02*
X32592Y-17647D01*
X32592Y-17647D02*
X33142Y-17647D01*
X33142Y-18297D02*
X32592Y-18297D01*
X32592Y-18297D02*
X32592Y-18147D01*
X32592Y-18147D02*
X33142Y-18147D01*
X33142Y-18797D02*
X32592Y-18797D01*
X32592Y-18797D02*
X32592Y-18647D01*
X32592Y-18647D02*
X33142Y-18647D01*
X35242Y-17147D02*
X35792Y-17147D01*
X35792Y-17147D02*
X35792Y-17297D01*
X35792Y-17297D02*
X35242Y-17297D01*
X35242Y-17647D02*
X35792Y-17647D01*
X35792Y-17647D02*
X35792Y-17797D01*
X35792Y-17797D02*
X35242Y-17797D01*
X35242Y-18147D02*
X35792Y-18147D01*
X35792Y-18147D02*
X35792Y-18297D01*
X35792Y-18297D02*
X35242Y-18297D01*
X35792Y-18647D02*
X35792Y-18797D01*
X35242Y-18647D02*
X35792Y-18647D01*
X35792Y-18797D02*
X35242Y-18797D01*
G54D19*
X33528Y-17283D02*
G75*
G03X33528Y-17283I-44J0D01*
G74*
G01*
X35236Y-18996D02*
X33149Y-18996D01*
X33149Y-18996D02*
X33149Y-16948D01*
X33149Y-16948D02*
X35236Y-16948D01*
X35236Y-16948D02*
X35236Y-18996D01*
G54D21*
X37051Y-17707D02*
X37751Y-17707D01*
X37751Y-17707D02*
X37751Y-18907D01*
X37751Y-18907D02*
X37051Y-18907D01*
X37051Y-18907D02*
X37051Y-17707D01*
G54D19*
X34230Y-16170D02*
X33797Y-16170D01*
X34209Y-15985D02*
X34230Y-15923D01*
X34230Y-15820D01*
X34209Y-15778D01*
X34189Y-15758D01*
X34147Y-15737D01*
X34106Y-15737D01*
X34065Y-15758D01*
X34044Y-15778D01*
X34024Y-15820D01*
X34003Y-15902D01*
X33982Y-15943D01*
X33962Y-15964D01*
X33921Y-15985D01*
X33879Y-15985D01*
X33838Y-15964D01*
X33817Y-15943D01*
X33797Y-15902D01*
X33797Y-15799D01*
X33817Y-15737D01*
X34230Y-15552D02*
X33797Y-15552D01*
X33797Y-15387D01*
X33817Y-15345D01*
X33838Y-15325D01*
X33879Y-15304D01*
X33941Y-15304D01*
X33982Y-15325D01*
X34003Y-15345D01*
X34024Y-15387D01*
X34024Y-15552D01*
X35076Y-14402D02*
X34870Y-14547D01*
X35076Y-14650D02*
X34643Y-14650D01*
X34643Y-14485D01*
X34664Y-14444D01*
X34685Y-14423D01*
X34726Y-14402D01*
X34788Y-14402D01*
X34829Y-14423D01*
X34850Y-14444D01*
X34870Y-14485D01*
X34870Y-14650D01*
X35076Y-13990D02*
X35076Y-14237D01*
X35076Y-14114D02*
X34643Y-14114D01*
X34705Y-14155D01*
X34746Y-14196D01*
X34767Y-14237D01*
X37309Y-16334D02*
X37289Y-16355D01*
X37227Y-16376D01*
X37185Y-16376D01*
X37124Y-16355D01*
X37082Y-16314D01*
X37062Y-16272D01*
X37041Y-16190D01*
X37041Y-16128D01*
X37062Y-16046D01*
X37082Y-16004D01*
X37124Y-15963D01*
X37185Y-15943D01*
X37227Y-15943D01*
X37289Y-15963D01*
X37309Y-15984D01*
X37454Y-15943D02*
X37722Y-15943D01*
X37577Y-16107D01*
X37639Y-16107D01*
X37680Y-16128D01*
X37701Y-16149D01*
X37722Y-16190D01*
X37722Y-16293D01*
X37701Y-16334D01*
X37680Y-16355D01*
X37639Y-16376D01*
X37515Y-16376D01*
X37474Y-16355D01*
X37454Y-16334D01*
X38805Y-17122D02*
X38785Y-17142D01*
X38723Y-17163D01*
X38682Y-17163D01*
X38620Y-17142D01*
X38578Y-17101D01*
X38558Y-17060D01*
X38537Y-16977D01*
X38537Y-16916D01*
X38558Y-16833D01*
X38578Y-16792D01*
X38620Y-16751D01*
X38682Y-16730D01*
X38723Y-16730D01*
X38785Y-16751D01*
X38805Y-16771D01*
X38970Y-16771D02*
X38991Y-16751D01*
X39032Y-16730D01*
X39135Y-16730D01*
X39176Y-16751D01*
X39197Y-16771D01*
X39218Y-16812D01*
X39218Y-16854D01*
X39197Y-16916D01*
X38950Y-17163D01*
X39218Y-17163D01*
X35901Y-14402D02*
X35922Y-14423D01*
X35943Y-14485D01*
X35943Y-14526D01*
X35922Y-14588D01*
X35881Y-14629D01*
X35839Y-14650D01*
X35757Y-14670D01*
X35695Y-14670D01*
X35613Y-14650D01*
X35571Y-14629D01*
X35530Y-14588D01*
X35509Y-14526D01*
X35509Y-14485D01*
X35530Y-14423D01*
X35551Y-14402D01*
X35943Y-13990D02*
X35943Y-14237D01*
X35943Y-14114D02*
X35509Y-14114D01*
X35571Y-14155D01*
X35613Y-14196D01*
X35633Y-14237D01*
X37360Y-20054D02*
X37360Y-19806D01*
X37793Y-19930D02*
X37360Y-19930D01*
X37793Y-19435D02*
X37793Y-19683D01*
X37793Y-19559D02*
X37360Y-19559D01*
X37422Y-19600D01*
X37463Y-19641D01*
X37484Y-19683D01*
G54D22*
X37658Y-20954D02*
X37518Y-21053D01*
X37658Y-21123D02*
X37363Y-21123D01*
X37363Y-21010D01*
X37377Y-20982D01*
X37391Y-20968D01*
X37419Y-20954D01*
X37462Y-20954D01*
X37490Y-20968D01*
X37504Y-20982D01*
X37518Y-21010D01*
X37518Y-21123D01*
X37391Y-20842D02*
X37377Y-20828D01*
X37363Y-20800D01*
X37363Y-20729D01*
X37377Y-20701D01*
X37391Y-20687D01*
X37419Y-20673D01*
X37447Y-20673D01*
X37490Y-20687D01*
X37658Y-20856D01*
X37658Y-20673D01*
X38435Y-22521D02*
X38336Y-22380D01*
X38266Y-22521D02*
X38266Y-22225D01*
X38378Y-22225D01*
X38406Y-22239D01*
X38420Y-22253D01*
X38435Y-22282D01*
X38435Y-22324D01*
X38420Y-22352D01*
X38406Y-22366D01*
X38378Y-22380D01*
X38266Y-22380D01*
X38533Y-22225D02*
X38716Y-22225D01*
X38617Y-22338D01*
X38660Y-22338D01*
X38688Y-22352D01*
X38702Y-22366D01*
X38716Y-22394D01*
X38716Y-22464D01*
X38702Y-22492D01*
X38688Y-22507D01*
X38660Y-22521D01*
X38575Y-22521D01*
X38547Y-22507D01*
X38533Y-22492D01*
G54D19*
X34407Y-18355D02*
X33974Y-18355D01*
X34366Y-17902D02*
X34386Y-17922D01*
X34407Y-17984D01*
X34407Y-18025D01*
X34386Y-18087D01*
X34345Y-18128D01*
X34304Y-18149D01*
X34221Y-18170D01*
X34160Y-18170D01*
X34077Y-18149D01*
X34036Y-18128D01*
X33995Y-18087D01*
X33974Y-18025D01*
X33974Y-17984D01*
X33995Y-17922D01*
X34015Y-17902D01*
X34407Y-17489D02*
X34407Y-17737D01*
X34407Y-17613D02*
X33974Y-17613D01*
X34036Y-17654D01*
X34077Y-17695D01*
X34098Y-17737D01*
X37183Y-18617D02*
X37533Y-18617D01*
X37574Y-18596D01*
X37595Y-18576D01*
X37616Y-18534D01*
X37616Y-18452D01*
X37595Y-18411D01*
X37574Y-18390D01*
X37533Y-18369D01*
X37183Y-18369D01*
X37224Y-18184D02*
X37203Y-18163D01*
X37183Y-18122D01*
X37183Y-18019D01*
X37203Y-17978D01*
X37224Y-17957D01*
X37265Y-17936D01*
X37306Y-17936D01*
X37368Y-17957D01*
X37616Y-18204D01*
X37616Y-17936D01*
%LPC*%
G54D23*
X38877Y-21562D03*
G54D24*
X38877Y-20562D03*
G54D23*
X30787Y-21562D03*
G54D24*
X30787Y-20562D03*
G54D25*
X38893Y-15255D03*
G54D26*
X37893Y-15255D03*
X36893Y-15255D03*
G54D27*
X32870Y-14795D03*
G54D28*
X32870Y-15795D03*
X31870Y-14795D03*
X31870Y-15795D03*
X30870Y-14795D03*
X30870Y-15795D03*
G54D29*
X34881Y-15964D03*
X34881Y-15216D03*
G54D30*
X37027Y-16889D03*
X37775Y-16889D03*
G54D29*
X38877Y-18464D03*
X38877Y-17716D03*
X35767Y-15964D03*
X35767Y-15216D03*
G54D31*
X36476Y-21811D03*
X36476Y-20000D03*
G54D32*
X33760Y-20905D03*
G54D33*
X36221Y-20905D03*
X36889Y-20905D03*
G54D34*
X30964Y-16988D03*
G54D35*
X30964Y-17972D03*
G54D34*
X30964Y-18956D03*
G54D36*
X37736Y-21595D03*
X37736Y-22263D03*
G54D37*
X32692Y-17222D03*
X32692Y-17722D03*
X32692Y-18222D03*
X32692Y-18722D03*
X35692Y-18722D03*
X35692Y-18222D03*
X35692Y-17722D03*
X35692Y-17222D03*
G54D38*
X37901Y-18682D03*
X37901Y-17932D03*
X36901Y-18682D03*
X37901Y-18307D03*
X36901Y-17932D03*
G54D39*
X38562Y-16397D03*
X39074Y-16397D03*
M02*
