G04 (created by PCBNEW (2013-02-09 BZR 3938)-testing) date Tue 12 Feb 2013 03:52:52 PM CET*
%MOIN*%
G04 Gerber Fmt 3.4, Leading zero omitted, Abs format*
%FSLAX34Y34*%
G01*
G70*
G90*
G04 APERTURE LIST*
%ADD10C,3.14961e-06*%
%ADD11C,0.00787402*%
%ADD12C,0.00984252*%
%ADD13R,0.0984252X0.0590551*%
%ADD14R,0.275591X0.275591*%
%ADD15R,0.149606X0.0472441*%
%ADD16R,0.149606X0.0551181*%
%ADD17R,0.0708661X0.0708661*%
%ADD18C,0.0708661*%
%ADD19R,0.11811X0.0787402*%
%ADD20O,0.11811X0.0787402*%
%ADD21R,0.059X0.0511*%
%ADD22R,0.0511X0.059*%
%ADD23R,0.0393X0.0433*%
%ADD24R,0.0433X0.0393*%
%ADD25R,0.019685X0.019685*%
%ADD26R,0.0472X0.0472*%
%ADD27R,0.0216X0.0472*%
%ADD28R,0.0866142X0.0275591*%
%ADD29C,0.025*%
%ADD30C,0.008*%
%ADD31C,0.012*%
G04 APERTURE END LIST*
G54D10*
G54D11*
X29921Y-13779D02*
X29921Y-22834D01*
X39763Y-22834D02*
X39763Y-13779D01*
X39763Y-13779D02*
X29921Y-13779D01*
X39763Y-22834D02*
X29921Y-22834D01*
G54D12*
X39200Y-16740D02*
X39200Y-17040D01*
X39300Y-16740D02*
X39300Y-17040D01*
X39250Y-16740D02*
X39250Y-17040D01*
G54D13*
X36476Y-21811D03*
X36476Y-20000D03*
G54D14*
X33760Y-20905D03*
G54D15*
X31860Y-16765D03*
G54D16*
X31860Y-17750D03*
G54D15*
X31860Y-18734D03*
G54D17*
X32670Y-14680D03*
G54D18*
X32670Y-15680D03*
X31670Y-14680D03*
X31670Y-15680D03*
X30670Y-14680D03*
X30670Y-15680D03*
G54D17*
X38893Y-15255D03*
G54D18*
X37893Y-15255D03*
X36893Y-15255D03*
G54D19*
X38877Y-21562D03*
G54D20*
X38877Y-20562D03*
G54D19*
X30787Y-21562D03*
G54D20*
X30787Y-20562D03*
G54D21*
X34690Y-15884D03*
X34690Y-15136D03*
G54D22*
X37876Y-16740D03*
X38624Y-16740D03*
G54D21*
X39220Y-18784D03*
X39220Y-18036D03*
X35690Y-15884D03*
X35690Y-15136D03*
G54D23*
X36221Y-20905D03*
X36889Y-20905D03*
G54D24*
X37736Y-21595D03*
X37736Y-22263D03*
X30433Y-18603D03*
X30433Y-19271D03*
G54D25*
X39250Y-16740D03*
X39250Y-17040D03*
G54D26*
X30433Y-17932D03*
X30433Y-17106D03*
G54D27*
X37696Y-18881D03*
X38070Y-18881D03*
X38444Y-18881D03*
X38444Y-17859D03*
X37696Y-17859D03*
G54D28*
X33510Y-17220D03*
X33510Y-17720D03*
X33510Y-18220D03*
X33510Y-18720D03*
X36510Y-18720D03*
X36510Y-18220D03*
X36510Y-17720D03*
X36510Y-17220D03*
G54D29*
X37480Y-17322D03*
X34055Y-16417D03*
X37204Y-18740D03*
X34060Y-15100D03*
X33500Y-16110D03*
X31023Y-19763D03*
X38464Y-17362D03*
X32677Y-19783D03*
X33070Y-19783D03*
X33464Y-19783D03*
X33858Y-19783D03*
X34251Y-19783D03*
X34645Y-19783D03*
X34645Y-20177D03*
X34251Y-20177D03*
X33858Y-20177D03*
X33464Y-20177D03*
X33070Y-20177D03*
X32677Y-20177D03*
X39220Y-18020D03*
X37870Y-16760D03*
G54D30*
X36510Y-18220D02*
X37016Y-18220D01*
X37283Y-17519D02*
X37480Y-17322D01*
X37283Y-17952D02*
X37283Y-17519D01*
X37016Y-18220D02*
X37283Y-17952D01*
X34055Y-16205D02*
X34055Y-16417D01*
X37204Y-18740D02*
X37184Y-18720D01*
X36510Y-18720D02*
X37184Y-18720D01*
X31740Y-15680D02*
X31670Y-15680D01*
X31740Y-15680D02*
X32320Y-16260D01*
X32320Y-16260D02*
X32910Y-16260D01*
X32910Y-16260D02*
X33360Y-15810D01*
X33360Y-15810D02*
X33660Y-15810D01*
X33660Y-15810D02*
X34055Y-16205D01*
X31670Y-15680D02*
X31680Y-15680D01*
X36510Y-18720D02*
X35860Y-18720D01*
X36216Y-20910D02*
X36221Y-20905D01*
X35630Y-20910D02*
X36216Y-20910D01*
X35570Y-20850D02*
X35630Y-20910D01*
X35570Y-19010D02*
X35570Y-20850D01*
X35860Y-18720D02*
X35570Y-19010D01*
X30670Y-14680D02*
X30670Y-14290D01*
X34690Y-14450D02*
X34690Y-15136D01*
X34280Y-14040D02*
X34690Y-14450D01*
X30920Y-14040D02*
X34280Y-14040D01*
X30670Y-14290D02*
X30920Y-14040D01*
X33510Y-17220D02*
X33510Y-16120D01*
X34096Y-15136D02*
X34690Y-15136D01*
X34060Y-15100D02*
X34096Y-15136D01*
X33510Y-16120D02*
X33500Y-16110D01*
X31456Y-19330D02*
X34566Y-19330D01*
X31023Y-19763D02*
X31456Y-19330D01*
X35783Y-17720D02*
X36510Y-17720D01*
X35354Y-18149D02*
X35783Y-17720D01*
X35354Y-18543D02*
X35354Y-18149D01*
X34566Y-19330D02*
X35354Y-18543D01*
X31023Y-19501D02*
X31023Y-19763D01*
X30795Y-19273D02*
X30433Y-19271D01*
X30795Y-19273D02*
X31023Y-19501D01*
G54D31*
X38444Y-17382D02*
X38464Y-17362D01*
X38444Y-17382D02*
X38444Y-17859D01*
X37696Y-18881D02*
X37696Y-19356D01*
X39220Y-19380D02*
X39220Y-18784D01*
X39130Y-19470D02*
X39220Y-19380D01*
X37810Y-19470D02*
X39130Y-19470D01*
X37696Y-19356D02*
X37810Y-19470D01*
X37696Y-18881D02*
X37696Y-18454D01*
X38251Y-17859D02*
X38444Y-17859D01*
X38100Y-18010D02*
X38251Y-17859D01*
X38100Y-18140D02*
X38100Y-18010D01*
X37930Y-18310D02*
X38100Y-18140D01*
X37840Y-18310D02*
X37930Y-18310D01*
X37696Y-18454D02*
X37840Y-18310D01*
G54D30*
X31860Y-16765D02*
X32375Y-16765D01*
X32910Y-17720D02*
X33510Y-17720D01*
X32840Y-17650D02*
X32910Y-17720D01*
X32840Y-17230D02*
X32840Y-17650D01*
X32375Y-16765D02*
X32840Y-17230D01*
X31860Y-18734D02*
X32375Y-18734D01*
X32890Y-18220D02*
X33510Y-18220D01*
X32375Y-18734D02*
X32890Y-18220D01*
X30787Y-20562D02*
X31366Y-20562D01*
X32677Y-19783D02*
X33070Y-19783D01*
X33464Y-19783D02*
X33858Y-19783D01*
X34251Y-19783D02*
X34645Y-19783D01*
X34645Y-20177D02*
X34251Y-20177D01*
X33858Y-20177D02*
X33464Y-20177D01*
X33070Y-20177D02*
X32677Y-20177D01*
X32677Y-19783D02*
X33760Y-20905D01*
X32145Y-19783D02*
X32677Y-19783D01*
X31366Y-20562D02*
X32145Y-19783D01*
X30787Y-20562D02*
X33417Y-20562D01*
X33417Y-20562D02*
X33760Y-20905D01*
G54D31*
X33510Y-18720D02*
X33079Y-19150D01*
X30866Y-19055D02*
X30866Y-17574D01*
X30961Y-19150D02*
X30866Y-19055D01*
X33079Y-19150D02*
X30961Y-19150D01*
X30670Y-15680D02*
X30670Y-16298D01*
X30433Y-16535D02*
X30433Y-17106D01*
X30670Y-16298D02*
X30433Y-16535D01*
X31037Y-17750D02*
X31860Y-17750D01*
X30866Y-17574D02*
X31037Y-17750D01*
X30433Y-17132D02*
X30866Y-17574D01*
X30433Y-17106D02*
X30433Y-17132D01*
X38624Y-16740D02*
X39250Y-16740D01*
X33510Y-18720D02*
X34350Y-18720D01*
X37069Y-16080D02*
X37893Y-15255D01*
X34350Y-18720D02*
X34720Y-18350D01*
X34720Y-18350D02*
X34720Y-16980D01*
X34720Y-16980D02*
X35240Y-16460D01*
X35240Y-16460D02*
X36330Y-16460D01*
X36330Y-16460D02*
X36710Y-16080D01*
X36710Y-16080D02*
X37069Y-16080D01*
X30563Y-16976D02*
X30433Y-17106D01*
X35690Y-15136D02*
X35690Y-14730D01*
X37893Y-14523D02*
X37893Y-15255D01*
X37650Y-14280D02*
X37893Y-14523D01*
X36140Y-14280D02*
X37650Y-14280D01*
X35690Y-14730D02*
X36140Y-14280D01*
X37893Y-15255D02*
X37893Y-15513D01*
X38590Y-16706D02*
X38624Y-16740D01*
X38590Y-16210D02*
X38590Y-16706D01*
X37893Y-15513D02*
X38590Y-16210D01*
X39250Y-17040D02*
X39250Y-18006D01*
X39250Y-18006D02*
X39220Y-18036D01*
X39220Y-18020D02*
X39220Y-18036D01*
X38070Y-18881D02*
X38070Y-18460D01*
X39076Y-18180D02*
X39220Y-18036D01*
X38820Y-18180D02*
X39076Y-18180D01*
X38660Y-18340D02*
X38820Y-18180D01*
X38190Y-18340D02*
X38660Y-18340D01*
X38070Y-18460D02*
X38190Y-18340D01*
X38877Y-20562D02*
X37907Y-20562D01*
X37907Y-20562D02*
X37736Y-20733D01*
X37736Y-20733D02*
X37736Y-21595D01*
G54D30*
X36889Y-20905D02*
X36889Y-21398D01*
X36889Y-21398D02*
X36476Y-21811D01*
X36476Y-21811D02*
X37121Y-21811D01*
X37343Y-22263D02*
X37736Y-22263D01*
X37260Y-22180D02*
X37343Y-22263D01*
X37260Y-21950D02*
X37260Y-22180D01*
X37121Y-21811D02*
X37260Y-21950D01*
X30433Y-17932D02*
X30433Y-18603D01*
G54D31*
X37876Y-16740D02*
X37876Y-17399D01*
X37696Y-17579D02*
X37696Y-17859D01*
X37876Y-17399D02*
X37696Y-17579D01*
X33250Y-15440D02*
X33680Y-15440D01*
X34690Y-15884D02*
X34124Y-15884D01*
X33010Y-15680D02*
X32670Y-15680D01*
X33010Y-15680D02*
X33250Y-15440D01*
X33680Y-15440D02*
X34124Y-15884D01*
X37876Y-16754D02*
X37876Y-16740D01*
X37870Y-16760D02*
X37876Y-16754D01*
X36893Y-15255D02*
X36915Y-15255D01*
X36510Y-17220D02*
X37030Y-17220D01*
X37510Y-16740D02*
X37876Y-16740D01*
X37030Y-17220D02*
X37510Y-16740D01*
X35690Y-15884D02*
X36265Y-15884D01*
X36265Y-15884D02*
X36893Y-15255D01*
X34690Y-15884D02*
X35690Y-15884D01*
G54D12*
X32443Y-19576D02*
X32851Y-19576D01*
X32406Y-19655D02*
X32983Y-19655D01*
X31476Y-19733D02*
X33001Y-19733D01*
X31430Y-19812D02*
X33001Y-19812D01*
X31427Y-19890D02*
X33001Y-19890D01*
X31427Y-19968D02*
X33001Y-19968D01*
X31416Y-20047D02*
X33001Y-20047D01*
X31377Y-20125D02*
X33001Y-20125D01*
X31276Y-20204D02*
X33001Y-20204D01*
X30607Y-20282D02*
X33001Y-20282D01*
X30581Y-20361D02*
X33001Y-20361D01*
X30580Y-20439D02*
X33001Y-20439D01*
X30580Y-20517D02*
X33001Y-20517D01*
X30580Y-20596D02*
X33001Y-20596D01*
X30580Y-20674D02*
X33001Y-20674D01*
X30580Y-20753D02*
X33001Y-20753D01*
X30601Y-20831D02*
X32981Y-20831D01*
X33001Y-20755D02*
X32998Y-20786D01*
X32990Y-20814D01*
X32976Y-20839D01*
X32958Y-20862D01*
X32936Y-20880D01*
X32910Y-20894D01*
X32883Y-20902D01*
X32851Y-20905D01*
X30730Y-20905D01*
X30699Y-20902D01*
X30671Y-20894D01*
X30646Y-20880D01*
X30624Y-20862D01*
X30605Y-20839D01*
X30592Y-20814D01*
X30583Y-20786D01*
X30580Y-20755D01*
X30580Y-20368D01*
X30583Y-20340D01*
X30589Y-20315D01*
X30600Y-20292D01*
X30615Y-20271D01*
X30634Y-20252D01*
X30655Y-20238D01*
X30679Y-20227D01*
X30704Y-20221D01*
X30732Y-20218D01*
X31180Y-20224D01*
X31221Y-20220D01*
X31263Y-20210D01*
X31302Y-20192D01*
X31338Y-20167D01*
X31368Y-20137D01*
X31393Y-20101D01*
X31412Y-20062D01*
X31423Y-20021D01*
X31427Y-19980D01*
X31427Y-19844D01*
X31430Y-19813D01*
X31438Y-19786D01*
X31452Y-19760D01*
X31470Y-19738D01*
X31492Y-19719D01*
X31518Y-19706D01*
X31546Y-19697D01*
X31577Y-19694D01*
X32325Y-19694D01*
X32344Y-19693D01*
X32364Y-19686D01*
X32383Y-19676D01*
X32399Y-19663D01*
X32413Y-19646D01*
X32423Y-19628D01*
X32429Y-19607D01*
X32430Y-19591D01*
X32431Y-19584D01*
X32432Y-19582D01*
X32432Y-19581D01*
X32434Y-19579D01*
X32435Y-19578D01*
X32437Y-19577D01*
X32439Y-19577D01*
X32443Y-19576D01*
X32851Y-19576D01*
X32883Y-19579D01*
X32910Y-19588D01*
X32936Y-19601D01*
X32958Y-19620D01*
X32976Y-19642D01*
X32990Y-19668D01*
X32998Y-19695D01*
X33001Y-19726D01*
X33001Y-20755D01*
X36242Y-19753D02*
X38068Y-19753D01*
X36110Y-19832D02*
X38200Y-19832D01*
X36092Y-19910D02*
X38218Y-19910D01*
X36092Y-19989D02*
X38219Y-19989D01*
X36092Y-20067D02*
X38234Y-20067D01*
X36101Y-20146D02*
X38283Y-20146D01*
X36164Y-20224D02*
X38442Y-20224D01*
X37203Y-20302D02*
X39055Y-20302D01*
X37265Y-20381D02*
X39074Y-20381D01*
X37290Y-20459D02*
X39074Y-20459D01*
X37293Y-20538D02*
X39074Y-20538D01*
X37293Y-20616D02*
X39074Y-20616D01*
X37293Y-20695D02*
X39074Y-20695D01*
X37295Y-20773D02*
X39073Y-20773D01*
X37328Y-20851D02*
X39039Y-20851D01*
X39074Y-20755D02*
X39071Y-20786D01*
X39063Y-20814D01*
X39049Y-20839D01*
X39031Y-20862D01*
X39009Y-20880D01*
X38983Y-20894D01*
X38955Y-20902D01*
X38924Y-20905D01*
X37443Y-20905D01*
X37412Y-20902D01*
X37384Y-20894D01*
X37359Y-20880D01*
X37336Y-20862D01*
X37318Y-20839D01*
X37304Y-20814D01*
X37296Y-20786D01*
X37293Y-20755D01*
X37293Y-20489D01*
X37288Y-20444D01*
X37274Y-20397D01*
X37252Y-20355D01*
X37221Y-20317D01*
X37184Y-20287D01*
X37141Y-20264D01*
X37095Y-20250D01*
X37049Y-20246D01*
X36242Y-20246D01*
X36211Y-20242D01*
X36183Y-20234D01*
X36158Y-20220D01*
X36135Y-20202D01*
X36117Y-20180D01*
X36103Y-20154D01*
X36095Y-20127D01*
X36092Y-20096D01*
X36092Y-19903D01*
X36095Y-19872D01*
X36103Y-19845D01*
X36117Y-19819D01*
X36135Y-19797D01*
X36158Y-19779D01*
X36183Y-19765D01*
X36211Y-19757D01*
X36242Y-19753D01*
X38068Y-19753D01*
X38099Y-19757D01*
X38127Y-19765D01*
X38152Y-19779D01*
X38175Y-19797D01*
X38193Y-19819D01*
X38207Y-19845D01*
X38215Y-19872D01*
X38218Y-19903D01*
X38218Y-19982D01*
X38222Y-20028D01*
X38237Y-20074D01*
X38259Y-20117D01*
X38290Y-20154D01*
X38327Y-20185D01*
X38370Y-20207D01*
X38416Y-20221D01*
X38462Y-20226D01*
X38924Y-20226D01*
X38955Y-20229D01*
X38983Y-20237D01*
X39009Y-20251D01*
X39031Y-20269D01*
X39049Y-20292D01*
X39063Y-20317D01*
X39071Y-20345D01*
X39074Y-20376D01*
X39074Y-20755D01*
M02*
