M48
INCH,TZ
T1C0.013
T2C0.040
T3C0.049
%
G90
G05
T1
X030591Y-019791
X032677Y-019783
X032677Y-020177
X033071Y-019783
X033071Y-020177
X033465Y-019783
X033465Y-020177
X033819Y-016339
X033858Y-015512
X033858Y-019783
X033858Y-020177
X034252Y-019783
X034252Y-020177
X034646Y-019783
X034646Y-020177
X036457Y-016339
X037244Y-018701
X037559Y-017244
X037888Y-016634
X038465Y-017362
X039220Y-018020
T2
X030670Y-015074
X030670Y-016074
X031670Y-015074
X031670Y-016074
X032670Y-015074
X032670Y-016074
X036902Y-015071
X037902Y-015071
X038902Y-015071
T3
X030787Y-020563
X030787Y-021563
X038878Y-020563
X038878Y-021563
T0
M30
