G04 (created by PCBNEW (2013-02-09 BZR 3938)-testing) date Tue 12 Feb 2013 03:52:52 PM CET*
%MOIN*%
G04 Gerber Fmt 3.4, Leading zero omitted, Abs format*
%FSLAX34Y34*%
G01*
G70*
G90*
G04 APERTURE LIST*
%ADD10C,3.14961e-06*%
%ADD11C,0.00787402*%
%ADD12C,0.008*%
%ADD13C,0.0026*%
%ADD14C,0.006*%
%ADD15C,0.002*%
%ADD16C,0.004*%
%ADD17C,0.00393701*%
%ADD18C,0.00984252*%
%ADD19R,0.0984252X0.0590551*%
%ADD20R,0.275591X0.275591*%
%ADD21R,0.149606X0.0472441*%
%ADD22R,0.149606X0.0551181*%
%ADD23R,0.0708661X0.0708661*%
%ADD24C,0.0708661*%
%ADD25R,0.11811X0.0787402*%
%ADD26O,0.11811X0.0787402*%
%ADD27R,0.059X0.0511*%
%ADD28R,0.0511X0.059*%
%ADD29R,0.0393X0.0433*%
%ADD30R,0.0433X0.0393*%
%ADD31R,0.0472X0.0472*%
%ADD32R,0.0216X0.0472*%
%ADD33R,0.0866142X0.0275591*%
G04 APERTURE END LIST*
G54D10*
G54D11*
X29921Y-13779D02*
X29921Y-22834D01*
X39763Y-22834D02*
X39763Y-13779D01*
X39763Y-13779D02*
X29921Y-13779D01*
G54D12*
X39483Y-19989D02*
X39178Y-19989D01*
X38650Y-19748D02*
X38421Y-19748D01*
X38535Y-19748D02*
X38535Y-19348D01*
X38497Y-19405D01*
X38459Y-19443D01*
X38421Y-19462D01*
X38802Y-19386D02*
X38821Y-19367D01*
X38859Y-19348D01*
X38954Y-19348D01*
X38992Y-19367D01*
X39011Y-19386D01*
X39030Y-19424D01*
X39030Y-19462D01*
X39011Y-19519D01*
X38783Y-19748D01*
X39030Y-19748D01*
X39145Y-19348D02*
X39278Y-19748D01*
X39411Y-19348D01*
X30387Y-22202D02*
X30463Y-22202D01*
X30501Y-22221D01*
X30539Y-22259D01*
X30558Y-22336D01*
X30558Y-22469D01*
X30539Y-22545D01*
X30501Y-22583D01*
X30463Y-22602D01*
X30387Y-22602D01*
X30349Y-22583D01*
X30311Y-22545D01*
X30292Y-22469D01*
X30292Y-22336D01*
X30311Y-22259D01*
X30349Y-22221D01*
X30387Y-22202D01*
X30730Y-22202D02*
X30730Y-22526D01*
X30749Y-22564D01*
X30768Y-22583D01*
X30806Y-22602D01*
X30882Y-22602D01*
X30920Y-22583D01*
X30939Y-22564D01*
X30958Y-22526D01*
X30958Y-22202D01*
X31092Y-22202D02*
X31320Y-22202D01*
X31206Y-22602D02*
X31206Y-22202D01*
X36227Y-14033D02*
X36455Y-14033D01*
X36341Y-14433D02*
X36341Y-14033D01*
X36569Y-14414D02*
X36627Y-14433D01*
X36722Y-14433D01*
X36760Y-14414D01*
X36779Y-14395D01*
X36798Y-14357D01*
X36798Y-14319D01*
X36779Y-14281D01*
X36760Y-14262D01*
X36722Y-14243D01*
X36646Y-14224D01*
X36607Y-14204D01*
X36588Y-14185D01*
X36569Y-14147D01*
X36569Y-14109D01*
X36588Y-14071D01*
X36607Y-14052D01*
X36646Y-14033D01*
X36741Y-14033D01*
X36798Y-14052D01*
X37046Y-14033D02*
X37122Y-14033D01*
X37160Y-14052D01*
X37198Y-14090D01*
X37217Y-14166D01*
X37217Y-14300D01*
X37198Y-14376D01*
X37160Y-14414D01*
X37122Y-14433D01*
X37046Y-14433D01*
X37007Y-14414D01*
X36969Y-14376D01*
X36950Y-14300D01*
X36950Y-14166D01*
X36969Y-14090D01*
X37007Y-14052D01*
X37046Y-14033D01*
X37388Y-14433D02*
X37388Y-14033D01*
X37541Y-14033D01*
X37579Y-14052D01*
X37598Y-14071D01*
X37617Y-14109D01*
X37617Y-14166D01*
X37598Y-14204D01*
X37579Y-14224D01*
X37541Y-14243D01*
X37388Y-14243D01*
X37750Y-14033D02*
X37998Y-14033D01*
X37865Y-14185D01*
X37922Y-14185D01*
X37960Y-14204D01*
X37979Y-14224D01*
X37998Y-14262D01*
X37998Y-14357D01*
X37979Y-14395D01*
X37960Y-14414D01*
X37922Y-14433D01*
X37807Y-14433D01*
X37769Y-14414D01*
X37750Y-14395D01*
X38227Y-14204D02*
X38188Y-14185D01*
X38169Y-14166D01*
X38150Y-14128D01*
X38150Y-14109D01*
X38169Y-14071D01*
X38188Y-14052D01*
X38227Y-14033D01*
X38303Y-14033D01*
X38341Y-14052D01*
X38360Y-14071D01*
X38379Y-14109D01*
X38379Y-14128D01*
X38360Y-14166D01*
X38341Y-14185D01*
X38303Y-14204D01*
X38227Y-14204D01*
X38188Y-14224D01*
X38169Y-14243D01*
X38150Y-14281D01*
X38150Y-14357D01*
X38169Y-14395D01*
X38188Y-14414D01*
X38227Y-14433D01*
X38303Y-14433D01*
X38341Y-14414D01*
X38360Y-14395D01*
X38379Y-14357D01*
X38379Y-14281D01*
X38360Y-14243D01*
X38341Y-14224D01*
X38303Y-14204D01*
X38531Y-14071D02*
X38550Y-14052D01*
X38588Y-14033D01*
X38684Y-14033D01*
X38722Y-14052D01*
X38741Y-14071D01*
X38760Y-14109D01*
X38760Y-14147D01*
X38741Y-14204D01*
X38512Y-14433D01*
X38760Y-14433D01*
X38893Y-14033D02*
X39141Y-14033D01*
X39007Y-14185D01*
X39065Y-14185D01*
X39103Y-14204D01*
X39122Y-14224D01*
X39141Y-14262D01*
X39141Y-14357D01*
X39122Y-14395D01*
X39103Y-14414D01*
X39065Y-14433D01*
X38950Y-14433D01*
X38912Y-14414D01*
X38893Y-14395D01*
X39369Y-14204D02*
X39331Y-14185D01*
X39312Y-14166D01*
X39293Y-14128D01*
X39293Y-14109D01*
X39312Y-14071D01*
X39331Y-14052D01*
X39369Y-14033D01*
X39446Y-14033D01*
X39484Y-14052D01*
X39503Y-14071D01*
X39522Y-14109D01*
X39522Y-14128D01*
X39503Y-14166D01*
X39484Y-14185D01*
X39446Y-14204D01*
X39369Y-14204D01*
X39331Y-14224D01*
X39312Y-14243D01*
X39293Y-14281D01*
X39293Y-14357D01*
X39312Y-14395D01*
X39331Y-14414D01*
X39369Y-14433D01*
X39446Y-14433D01*
X39484Y-14414D01*
X39503Y-14395D01*
X39522Y-14357D01*
X39522Y-14281D01*
X39503Y-14243D01*
X39484Y-14224D01*
X39446Y-14204D01*
X39178Y-22411D02*
X39483Y-22411D01*
X39330Y-22563D02*
X39330Y-22258D01*
X31619Y-20560D02*
X31924Y-20560D01*
X31619Y-21584D02*
X31924Y-21584D01*
X31771Y-21736D02*
X31771Y-21431D01*
G54D11*
X39763Y-22834D02*
X29921Y-22834D01*
X32185Y-22480D02*
X32185Y-19330D01*
X32185Y-19330D02*
X37185Y-19330D01*
X37185Y-19330D02*
X37185Y-22480D01*
X37185Y-22480D02*
X32185Y-22480D01*
X36774Y-21975D02*
X36774Y-21635D01*
X36774Y-21635D02*
X35634Y-21635D01*
X35634Y-21975D02*
X35634Y-21635D01*
X36774Y-21975D02*
X35634Y-21975D01*
X36774Y-20175D02*
X36774Y-19835D01*
X36774Y-19835D02*
X35634Y-19835D01*
X35634Y-20175D02*
X35634Y-19835D01*
X36774Y-20175D02*
X35634Y-20175D01*
X35934Y-21075D02*
X35934Y-20735D01*
X35934Y-20735D02*
X35634Y-20735D01*
X35634Y-21075D02*
X35634Y-20735D01*
X35934Y-21075D02*
X35634Y-21075D01*
X33234Y-19615D02*
X35594Y-19615D01*
X35594Y-19615D02*
X35594Y-22195D01*
X35594Y-22195D02*
X33234Y-22195D01*
X33235Y-22195D02*
X33235Y-19615D01*
X33194Y-21915D02*
X32914Y-21915D01*
X32914Y-21915D02*
X32734Y-21735D01*
X32734Y-21735D02*
X32734Y-20075D01*
X32734Y-20075D02*
X32914Y-19895D01*
X32914Y-19895D02*
X33194Y-19895D01*
X33194Y-19895D02*
X33194Y-21915D01*
X33194Y-21915D02*
X32914Y-21915D01*
X32914Y-21915D02*
X32734Y-21735D01*
X32734Y-21735D02*
X32734Y-20075D01*
X32734Y-20075D02*
X32914Y-19895D01*
X32914Y-19895D02*
X33194Y-19895D01*
X33194Y-19895D02*
X33194Y-21915D01*
X32450Y-16332D02*
X32450Y-19167D01*
X32450Y-19167D02*
X31269Y-19167D01*
X31269Y-19167D02*
X31269Y-16332D01*
X31269Y-16332D02*
X32450Y-16332D01*
X33166Y-16164D02*
X33166Y-14196D01*
X30174Y-14196D02*
X30174Y-16164D01*
X30174Y-16164D02*
X33166Y-16164D01*
X33166Y-14196D02*
X30213Y-14196D01*
X30213Y-14196D02*
X30174Y-14196D01*
X33402Y-13960D02*
X33402Y-15180D01*
X33402Y-13960D02*
X32142Y-13960D01*
X37893Y-14586D02*
G75*
G03X37736Y-14744I0J-157D01*
G74*
G01*
X38051Y-14744D02*
G75*
G03X37893Y-14586I-157J0D01*
G74*
G01*
X39393Y-14755D02*
X39393Y-15755D01*
X39393Y-15755D02*
X36393Y-15755D01*
X36393Y-15755D02*
X36393Y-14755D01*
X36393Y-14755D02*
X39393Y-14755D01*
X38393Y-15755D02*
X38393Y-14755D01*
G54D13*
X34965Y-15350D02*
X34965Y-15095D01*
X34965Y-15095D02*
X34414Y-15095D01*
X34414Y-15350D02*
X34414Y-15095D01*
X34965Y-15350D02*
X34414Y-15350D01*
X34965Y-15930D02*
X34965Y-15674D01*
X34965Y-15674D02*
X34414Y-15674D01*
X34414Y-15930D02*
X34414Y-15674D01*
X34965Y-15930D02*
X34414Y-15930D01*
X34886Y-15588D02*
X34886Y-15432D01*
X34886Y-15432D02*
X34494Y-15432D01*
X34494Y-15588D02*
X34494Y-15432D01*
X34886Y-15588D02*
X34494Y-15588D01*
G54D14*
X34440Y-15671D02*
X34440Y-15349D01*
X34940Y-15671D02*
X34940Y-15349D01*
G54D15*
X34303Y-16286D02*
X34303Y-14734D01*
X34303Y-14734D02*
X35077Y-14734D01*
X35077Y-14734D02*
X35077Y-16286D01*
X35077Y-16286D02*
X34303Y-16286D01*
G54D13*
X37821Y-17025D02*
X38116Y-17025D01*
X38116Y-17025D02*
X38116Y-16455D01*
X37821Y-16455D02*
X38116Y-16455D01*
X37821Y-17025D02*
X37821Y-16455D01*
X38390Y-17025D02*
X38685Y-17025D01*
X38685Y-17025D02*
X38685Y-16455D01*
X38390Y-16455D02*
X38685Y-16455D01*
X38390Y-17025D02*
X38390Y-16455D01*
X38211Y-16897D02*
X38289Y-16897D01*
X38289Y-16897D02*
X38289Y-16583D01*
X38211Y-16583D02*
X38289Y-16583D01*
X38211Y-16897D02*
X38211Y-16583D01*
G54D15*
X37474Y-16353D02*
X39026Y-16353D01*
X39026Y-17127D02*
X37474Y-17127D01*
X37474Y-17127D02*
X37474Y-16353D01*
G54D16*
X38100Y-16481D02*
X38400Y-16481D01*
X38110Y-16999D02*
X38400Y-16999D01*
G54D15*
X39026Y-16353D02*
X39026Y-17127D01*
G54D13*
X39505Y-18839D02*
X39505Y-18544D01*
X39505Y-18544D02*
X38935Y-18544D01*
X38935Y-18839D02*
X38935Y-18544D01*
X39505Y-18839D02*
X38935Y-18839D01*
X39505Y-18270D02*
X39505Y-17975D01*
X39505Y-17975D02*
X38935Y-17975D01*
X38935Y-18270D02*
X38935Y-17975D01*
X39505Y-18270D02*
X38935Y-18270D01*
X39377Y-18449D02*
X39377Y-18371D01*
X39377Y-18371D02*
X39063Y-18371D01*
X39063Y-18449D02*
X39063Y-18371D01*
X39377Y-18449D02*
X39063Y-18449D01*
G54D15*
X38833Y-19186D02*
X38833Y-17634D01*
X39607Y-17634D02*
X39607Y-19186D01*
X39607Y-19186D02*
X38833Y-19186D01*
G54D16*
X38961Y-18560D02*
X38961Y-18260D01*
X39479Y-18550D02*
X39479Y-18260D01*
G54D15*
X38833Y-17634D02*
X39607Y-17634D01*
G54D13*
X35975Y-15939D02*
X35975Y-15644D01*
X35975Y-15644D02*
X35405Y-15644D01*
X35405Y-15939D02*
X35405Y-15644D01*
X35975Y-15939D02*
X35405Y-15939D01*
X35975Y-15370D02*
X35975Y-15075D01*
X35975Y-15075D02*
X35405Y-15075D01*
X35405Y-15370D02*
X35405Y-15075D01*
X35975Y-15370D02*
X35405Y-15370D01*
X35847Y-15549D02*
X35847Y-15471D01*
X35847Y-15471D02*
X35533Y-15471D01*
X35533Y-15549D02*
X35533Y-15471D01*
X35847Y-15549D02*
X35533Y-15549D01*
G54D15*
X35303Y-16286D02*
X35303Y-14734D01*
X36077Y-14734D02*
X36077Y-16286D01*
X36077Y-16286D02*
X35303Y-16286D01*
G54D16*
X35431Y-15660D02*
X35431Y-15360D01*
X35949Y-15650D02*
X35949Y-15360D01*
G54D15*
X35303Y-14734D02*
X36077Y-14734D01*
G54D13*
X36725Y-21075D02*
X36885Y-21075D01*
X36885Y-21075D02*
X36885Y-20735D01*
X36725Y-20735D02*
X36885Y-20735D01*
X36725Y-21075D02*
X36725Y-20735D01*
X36225Y-21075D02*
X36385Y-21075D01*
X36385Y-21075D02*
X36385Y-20735D01*
X36225Y-20735D02*
X36385Y-20735D01*
X36225Y-21075D02*
X36225Y-20735D01*
X36477Y-21062D02*
X36633Y-21062D01*
X36633Y-21062D02*
X36633Y-20748D01*
X36477Y-20748D02*
X36633Y-20748D01*
X36477Y-21062D02*
X36477Y-20748D01*
G54D14*
X36385Y-21045D02*
X36725Y-21045D01*
X36725Y-20765D02*
X36385Y-20765D01*
G54D15*
X35976Y-20518D02*
X37134Y-20518D01*
X37134Y-20518D02*
X37134Y-21292D01*
X37134Y-21292D02*
X35976Y-21292D01*
X35976Y-21292D02*
X35976Y-20518D01*
G54D13*
X37566Y-22099D02*
X37566Y-22259D01*
X37566Y-22259D02*
X37906Y-22259D01*
X37906Y-22099D02*
X37906Y-22259D01*
X37566Y-22099D02*
X37906Y-22099D01*
X37566Y-21599D02*
X37566Y-21759D01*
X37566Y-21759D02*
X37906Y-21759D01*
X37906Y-21599D02*
X37906Y-21759D01*
X37566Y-21599D02*
X37906Y-21599D01*
X37579Y-21851D02*
X37579Y-22007D01*
X37579Y-22007D02*
X37893Y-22007D01*
X37893Y-21851D02*
X37893Y-22007D01*
X37579Y-21851D02*
X37893Y-21851D01*
G54D14*
X37596Y-21759D02*
X37596Y-22099D01*
X37876Y-22099D02*
X37876Y-21759D01*
G54D15*
X38123Y-21350D02*
X38123Y-22508D01*
X38123Y-22508D02*
X37349Y-22508D01*
X37349Y-22508D02*
X37349Y-21350D01*
X37349Y-21350D02*
X38123Y-21350D01*
G54D13*
X30263Y-19107D02*
X30263Y-19267D01*
X30263Y-19267D02*
X30603Y-19267D01*
X30603Y-19107D02*
X30603Y-19267D01*
X30263Y-19107D02*
X30603Y-19107D01*
X30263Y-18607D02*
X30263Y-18767D01*
X30263Y-18767D02*
X30603Y-18767D01*
X30603Y-18607D02*
X30603Y-18767D01*
X30263Y-18607D02*
X30603Y-18607D01*
X30276Y-18859D02*
X30276Y-19015D01*
X30276Y-19015D02*
X30590Y-19015D01*
X30590Y-18859D02*
X30590Y-19015D01*
X30276Y-18859D02*
X30590Y-18859D01*
G54D14*
X30293Y-18767D02*
X30293Y-19107D01*
X30573Y-19107D02*
X30573Y-18767D01*
G54D15*
X30820Y-18358D02*
X30820Y-19516D01*
X30820Y-19516D02*
X30046Y-19516D01*
X30046Y-19516D02*
X30046Y-18358D01*
X30046Y-18358D02*
X30820Y-18358D01*
G54D13*
X30551Y-17323D02*
X30679Y-17323D01*
X30679Y-17323D02*
X30679Y-17126D01*
X30551Y-17126D02*
X30679Y-17126D01*
X30551Y-17323D02*
X30551Y-17126D01*
X30306Y-17323D02*
X30365Y-17323D01*
X30365Y-17323D02*
X30365Y-17224D01*
X30306Y-17224D02*
X30365Y-17224D01*
X30306Y-17323D02*
X30306Y-17224D01*
X30501Y-17323D02*
X30560Y-17323D01*
X30560Y-17323D02*
X30560Y-17224D01*
X30501Y-17224D02*
X30560Y-17224D01*
X30501Y-17323D02*
X30501Y-17224D01*
X30355Y-17323D02*
X30511Y-17323D01*
X30511Y-17323D02*
X30511Y-17254D01*
X30355Y-17254D02*
X30511Y-17254D01*
X30355Y-17323D02*
X30355Y-17254D01*
X30551Y-17912D02*
X30679Y-17912D01*
X30679Y-17912D02*
X30679Y-17715D01*
X30551Y-17715D02*
X30679Y-17715D01*
X30551Y-17912D02*
X30551Y-17715D01*
X30187Y-17912D02*
X30315Y-17912D01*
X30315Y-17912D02*
X30315Y-17715D01*
X30187Y-17715D02*
X30315Y-17715D01*
X30187Y-17912D02*
X30187Y-17715D01*
X30501Y-17814D02*
X30560Y-17814D01*
X30560Y-17814D02*
X30560Y-17715D01*
X30501Y-17715D02*
X30560Y-17715D01*
X30501Y-17814D02*
X30501Y-17715D01*
X30306Y-17814D02*
X30365Y-17814D01*
X30365Y-17814D02*
X30365Y-17715D01*
X30306Y-17715D02*
X30365Y-17715D01*
X30306Y-17814D02*
X30306Y-17715D01*
X30355Y-17784D02*
X30511Y-17784D01*
X30511Y-17784D02*
X30511Y-17715D01*
X30355Y-17715D02*
X30511Y-17715D01*
X30355Y-17784D02*
X30355Y-17715D01*
X30394Y-17519D02*
X30472Y-17519D01*
X30472Y-17519D02*
X30472Y-17441D01*
X30394Y-17441D02*
X30472Y-17441D01*
X30394Y-17519D02*
X30394Y-17441D01*
X30197Y-17323D02*
X30315Y-17323D01*
X30315Y-17323D02*
X30315Y-17205D01*
X30197Y-17205D02*
X30315Y-17205D01*
X30197Y-17323D02*
X30197Y-17205D01*
X30187Y-17155D02*
X30276Y-17155D01*
X30276Y-17155D02*
X30276Y-17126D01*
X30187Y-17126D02*
X30276Y-17126D01*
X30187Y-17155D02*
X30187Y-17126D01*
G54D16*
X30659Y-17313D02*
X30659Y-17725D01*
X30207Y-17715D02*
X30207Y-17155D01*
G54D15*
X30284Y-17185D02*
G75*
G03X30284Y-17185I-28J0D01*
G74*
G01*
G54D16*
X30296Y-17126D02*
G75*
G03X30570Y-17126I137J0D01*
G74*
G01*
X30570Y-17912D02*
G75*
G03X30296Y-17912I-137J0D01*
G74*
G01*
G54D13*
X37598Y-18960D02*
X37795Y-18960D01*
X37795Y-18960D02*
X37795Y-18704D01*
X37598Y-18704D02*
X37795Y-18704D01*
X37598Y-18960D02*
X37598Y-18704D01*
X37972Y-18960D02*
X38168Y-18960D01*
X38168Y-18960D02*
X38168Y-18704D01*
X37972Y-18704D02*
X38168Y-18704D01*
X37972Y-18960D02*
X37972Y-18704D01*
X38345Y-18960D02*
X38542Y-18960D01*
X38542Y-18960D02*
X38542Y-18704D01*
X38345Y-18704D02*
X38542Y-18704D01*
X38345Y-18960D02*
X38345Y-18704D01*
X38345Y-18036D02*
X38542Y-18036D01*
X38542Y-18036D02*
X38542Y-17780D01*
X38345Y-17780D02*
X38542Y-17780D01*
X38345Y-18036D02*
X38345Y-17780D01*
X37598Y-18036D02*
X37795Y-18036D01*
X37795Y-18036D02*
X37795Y-17780D01*
X37598Y-17780D02*
X37795Y-17780D01*
X37598Y-18036D02*
X37598Y-17780D01*
G54D14*
X38629Y-18052D02*
X38629Y-18688D01*
X38629Y-18688D02*
X37511Y-18688D01*
X37511Y-18688D02*
X37511Y-18052D01*
X37511Y-18052D02*
X38629Y-18052D01*
X37865Y-18052D02*
X38275Y-18052D01*
X37902Y-18688D02*
X37865Y-18688D01*
X38275Y-18688D02*
X38238Y-18688D01*
X37548Y-18688D02*
X37511Y-18688D01*
X38629Y-18688D02*
X38592Y-18688D01*
X38592Y-18052D02*
X38629Y-18052D01*
X37511Y-18052D02*
X37548Y-18052D01*
G54D11*
X34439Y-17281D02*
G75*
G03X34439Y-17281I-137J0D01*
G74*
G01*
X37175Y-16788D02*
X37175Y-19151D01*
X37175Y-19151D02*
X32844Y-19151D01*
X32844Y-19151D02*
X32844Y-16788D01*
X32844Y-16788D02*
X37175Y-16788D01*
G54D17*
X33960Y-17295D02*
X33410Y-17295D01*
X33410Y-17295D02*
X33410Y-17145D01*
X33410Y-17145D02*
X33960Y-17145D01*
X33960Y-17795D02*
X33410Y-17795D01*
X33410Y-17795D02*
X33410Y-17645D01*
X33410Y-17645D02*
X33960Y-17645D01*
X33960Y-18295D02*
X33410Y-18295D01*
X33410Y-18295D02*
X33410Y-18145D01*
X33410Y-18145D02*
X33960Y-18145D01*
X33960Y-18795D02*
X33410Y-18795D01*
X33410Y-18795D02*
X33410Y-18645D01*
X33410Y-18645D02*
X33960Y-18645D01*
X36060Y-17145D02*
X36610Y-17145D01*
X36610Y-17145D02*
X36610Y-17295D01*
X36610Y-17295D02*
X36060Y-17295D01*
X36060Y-17645D02*
X36610Y-17645D01*
X36610Y-17645D02*
X36610Y-17795D01*
X36610Y-17795D02*
X36060Y-17795D01*
X36060Y-18145D02*
X36610Y-18145D01*
X36610Y-18145D02*
X36610Y-18295D01*
X36610Y-18295D02*
X36060Y-18295D01*
X36610Y-18645D02*
X36610Y-18795D01*
X36060Y-18645D02*
X36610Y-18645D01*
X36610Y-18795D02*
X36060Y-18795D01*
G54D11*
X36053Y-18993D02*
X33966Y-18993D01*
X33966Y-18993D02*
X33966Y-16946D01*
X33966Y-16946D02*
X36053Y-16946D01*
X36053Y-16946D02*
X36053Y-18993D01*
G54D18*
X37360Y-20054D02*
X37360Y-19806D01*
X37793Y-19930D02*
X37360Y-19930D01*
X37793Y-19435D02*
X37793Y-19683D01*
X37793Y-19559D02*
X37360Y-19559D01*
X37422Y-19600D01*
X37463Y-19641D01*
X37484Y-19683D01*
X34065Y-14852D02*
X33632Y-14852D01*
X34044Y-14667D02*
X34065Y-14605D01*
X34065Y-14502D01*
X34044Y-14460D01*
X34024Y-14440D01*
X33982Y-14419D01*
X33941Y-14419D01*
X33900Y-14440D01*
X33879Y-14460D01*
X33859Y-14502D01*
X33838Y-14584D01*
X33817Y-14625D01*
X33797Y-14646D01*
X33755Y-14667D01*
X33714Y-14667D01*
X33673Y-14646D01*
X33652Y-14625D01*
X33632Y-14584D01*
X33632Y-14481D01*
X33652Y-14419D01*
X34065Y-14234D02*
X33632Y-14234D01*
X33632Y-14069D01*
X33652Y-14027D01*
X33673Y-14007D01*
X33714Y-13986D01*
X33776Y-13986D01*
X33817Y-14007D01*
X33838Y-14027D01*
X33859Y-14069D01*
X33859Y-14234D01*
X34884Y-14322D02*
X34678Y-14466D01*
X34884Y-14569D02*
X34451Y-14569D01*
X34451Y-14404D01*
X34472Y-14363D01*
X34493Y-14342D01*
X34534Y-14322D01*
X34596Y-14322D01*
X34637Y-14342D01*
X34658Y-14363D01*
X34678Y-14404D01*
X34678Y-14569D01*
X34884Y-13909D02*
X34884Y-14157D01*
X34884Y-14033D02*
X34451Y-14033D01*
X34513Y-14074D01*
X34555Y-14116D01*
X34575Y-14157D01*
G54D11*
X37782Y-16199D02*
X37767Y-16214D01*
X37722Y-16229D01*
X37692Y-16229D01*
X37647Y-16214D01*
X37617Y-16184D01*
X37602Y-16154D01*
X37587Y-16094D01*
X37587Y-16049D01*
X37602Y-15989D01*
X37617Y-15959D01*
X37647Y-15929D01*
X37692Y-15914D01*
X37722Y-15914D01*
X37767Y-15929D01*
X37782Y-15944D01*
X37887Y-15914D02*
X38082Y-15914D01*
X37977Y-16034D01*
X38022Y-16034D01*
X38052Y-16049D01*
X38067Y-16064D01*
X38082Y-16094D01*
X38082Y-16169D01*
X38067Y-16199D01*
X38052Y-16214D01*
X38022Y-16229D01*
X37932Y-16229D01*
X37902Y-16214D01*
X37887Y-16199D01*
X39187Y-17523D02*
X39172Y-17538D01*
X39127Y-17553D01*
X39097Y-17553D01*
X39052Y-17538D01*
X39022Y-17508D01*
X39007Y-17478D01*
X38992Y-17418D01*
X38992Y-17373D01*
X39007Y-17313D01*
X39022Y-17283D01*
X39052Y-17253D01*
X39097Y-17238D01*
X39127Y-17238D01*
X39172Y-17253D01*
X39187Y-17268D01*
X39307Y-17268D02*
X39322Y-17253D01*
X39352Y-17238D01*
X39427Y-17238D01*
X39457Y-17253D01*
X39472Y-17268D01*
X39487Y-17298D01*
X39487Y-17328D01*
X39472Y-17373D01*
X39292Y-17553D01*
X39487Y-17553D01*
G54D18*
X35824Y-14322D02*
X35844Y-14342D01*
X35865Y-14404D01*
X35865Y-14446D01*
X35844Y-14507D01*
X35803Y-14549D01*
X35762Y-14569D01*
X35679Y-14590D01*
X35617Y-14590D01*
X35535Y-14569D01*
X35494Y-14549D01*
X35452Y-14507D01*
X35432Y-14446D01*
X35432Y-14404D01*
X35452Y-14342D01*
X35473Y-14322D01*
X35865Y-13909D02*
X35865Y-14157D01*
X35865Y-14033D02*
X35432Y-14033D01*
X35494Y-14074D01*
X35535Y-14116D01*
X35555Y-14157D01*
G54D11*
X37666Y-20958D02*
X37516Y-21062D01*
X37666Y-21137D02*
X37351Y-21137D01*
X37351Y-21017D01*
X37366Y-20988D01*
X37381Y-20973D01*
X37411Y-20958D01*
X37456Y-20958D01*
X37486Y-20973D01*
X37501Y-20988D01*
X37516Y-21017D01*
X37516Y-21137D01*
X37381Y-20838D02*
X37366Y-20823D01*
X37351Y-20793D01*
X37351Y-20718D01*
X37366Y-20688D01*
X37381Y-20673D01*
X37411Y-20658D01*
X37441Y-20658D01*
X37486Y-20673D01*
X37666Y-20853D01*
X37666Y-20658D01*
X38611Y-22454D02*
X38461Y-22559D01*
X38611Y-22634D02*
X38296Y-22634D01*
X38296Y-22514D01*
X38311Y-22484D01*
X38326Y-22469D01*
X38356Y-22454D01*
X38401Y-22454D01*
X38431Y-22469D01*
X38446Y-22484D01*
X38461Y-22514D01*
X38461Y-22634D01*
X38296Y-22349D02*
X38296Y-22154D01*
X38416Y-22259D01*
X38416Y-22214D01*
X38431Y-22184D01*
X38446Y-22169D01*
X38476Y-22154D01*
X38551Y-22154D01*
X38581Y-22169D01*
X38596Y-22184D01*
X38611Y-22214D01*
X38611Y-22304D01*
X38596Y-22334D01*
X38581Y-22349D01*
X30390Y-19974D02*
X30285Y-19824D01*
X30210Y-19974D02*
X30210Y-19659D01*
X30330Y-19659D01*
X30360Y-19674D01*
X30375Y-19689D01*
X30390Y-19719D01*
X30390Y-19764D01*
X30375Y-19794D01*
X30360Y-19809D01*
X30330Y-19824D01*
X30210Y-19824D01*
X30660Y-19764D02*
X30660Y-19974D01*
X30585Y-19644D02*
X30510Y-19869D01*
X30705Y-19869D01*
X30200Y-16697D02*
X30200Y-16382D01*
X30275Y-16382D01*
X30320Y-16397D01*
X30350Y-16427D01*
X30365Y-16457D01*
X30380Y-16517D01*
X30380Y-16562D01*
X30365Y-16622D01*
X30350Y-16652D01*
X30320Y-16682D01*
X30275Y-16697D01*
X30200Y-16697D01*
X30680Y-16697D02*
X30500Y-16697D01*
X30590Y-16697D02*
X30590Y-16382D01*
X30560Y-16427D01*
X30530Y-16457D01*
X30500Y-16472D01*
X37849Y-18202D02*
X37849Y-18457D01*
X37864Y-18487D01*
X37879Y-18502D01*
X37909Y-18517D01*
X37969Y-18517D01*
X37999Y-18502D01*
X38014Y-18487D01*
X38029Y-18457D01*
X38029Y-18202D01*
X38164Y-18232D02*
X38179Y-18217D01*
X38209Y-18202D01*
X38284Y-18202D01*
X38314Y-18217D01*
X38329Y-18232D01*
X38344Y-18262D01*
X38344Y-18292D01*
X38329Y-18337D01*
X38149Y-18517D01*
X38344Y-18517D01*
X34645Y-18149D02*
X34645Y-17755D01*
X35057Y-18111D02*
X35039Y-18130D01*
X34982Y-18149D01*
X34945Y-18149D01*
X34889Y-18130D01*
X34851Y-18092D01*
X34832Y-18055D01*
X34814Y-17980D01*
X34814Y-17924D01*
X34832Y-17849D01*
X34851Y-17811D01*
X34889Y-17774D01*
X34945Y-17755D01*
X34982Y-17755D01*
X35039Y-17774D01*
X35057Y-17792D01*
X35432Y-18149D02*
X35207Y-18149D01*
X35320Y-18149D02*
X35320Y-17755D01*
X35282Y-17811D01*
X35245Y-17849D01*
X35207Y-17867D01*
%LPC*%
G54D19*
X36476Y-21811D03*
X36476Y-20000D03*
G54D20*
X33760Y-20905D03*
G54D21*
X31860Y-16765D03*
G54D22*
X31860Y-17750D03*
G54D21*
X31860Y-18734D03*
G54D23*
X32670Y-14680D03*
G54D24*
X32670Y-15680D03*
X31670Y-14680D03*
X31670Y-15680D03*
X30670Y-14680D03*
X30670Y-15680D03*
G54D23*
X38893Y-15255D03*
G54D24*
X37893Y-15255D03*
X36893Y-15255D03*
G54D25*
X38877Y-21562D03*
G54D26*
X38877Y-20562D03*
G54D25*
X30787Y-21562D03*
G54D26*
X30787Y-20562D03*
G54D27*
X34690Y-15884D03*
X34690Y-15136D03*
G54D28*
X37876Y-16740D03*
X38624Y-16740D03*
G54D27*
X39220Y-18784D03*
X39220Y-18036D03*
X35690Y-15884D03*
X35690Y-15136D03*
G54D29*
X36221Y-20905D03*
X36889Y-20905D03*
G54D30*
X37736Y-21595D03*
X37736Y-22263D03*
X30433Y-18603D03*
X30433Y-19271D03*
G54D31*
X30433Y-17932D03*
X30433Y-17106D03*
G54D32*
X37696Y-18881D03*
X38070Y-18881D03*
X38444Y-18881D03*
X38444Y-17859D03*
X37696Y-17859D03*
G54D33*
X33510Y-17220D03*
X33510Y-17720D03*
X33510Y-18220D03*
X33510Y-18720D03*
X36510Y-18720D03*
X36510Y-18220D03*
X36510Y-17720D03*
X36510Y-17220D03*
M02*
