M48
METRIC,TZ
T1C0.330
T2C0.500
T3C1.016
T4C1.250
%
G90
G05
T1
X077700Y-043400
X081153Y-056540
X082093Y-056515
X082931Y-056515
X090500Y-048200
X094200Y-045000
X094700Y-046300
X098550Y-043900
X100400Y-043800
X102500Y-048450
T2
X088365Y-044430
X088365Y-045700
X088365Y-046970
X089635Y-044430
X089635Y-045700
X089635Y-046970
T3
X106000Y-043960
X106000Y-046500
X106000Y-049040
T4
X078200Y-052230
X078200Y-054770
X106000Y-052230
X106000Y-054770
T0
M30
